{
  "header": {
    "keySignatures": [
      {
        "key": "Bb",
        "scale": "major",
        "ticks": 0
      },
      {
        "key": "Bb",
        "scale": "major",
        "ticks": 0
      }
    ],
    "meta": [],
    "name": "Piano",
    "ppq": 480,
    "tempos": [
      {
        "bpm": 132.000132000132,
        "ticks": 0
      },
      {
        "bpm": 132.000132000132,
        "ticks": 249839
      },
      {
        "bpm": 65.99999340000066,
        "ticks": 249840
      }
    ],
    "timeSignatures": [
      {
        "ticks": 0,
        "timeSignature": [
          1,
          8
        ],
        "measures": 0
      },
      {
        "ticks": 240,
        "timeSignature": [
          4,
          4
        ],
        "measures": 0.25
      }
    ]
  },
  "tracks": [
    {
      "channel": 0,
      "controlChanges": {
        "6": [
          {
            "number": 6,
            "ticks": 0,
            "time": 0,
            "value": 0.09448818897637795
          }
        ],
        "7": [
          {
            "number": 7,
            "ticks": 0,
            "time": 0,
            "value": 0.7874015748031497
          }
        ],
        "10": [
          {
            "number": 10,
            "ticks": 0,
            "time": 0,
            "value": 0.5039370078740157
          }
        ],
        "64": [
          {
            "number": 64,
            "ticks": 36722,
            "time": 34.7745864375,
            "value": 1
          },
          {
            "number": 64,
            "ticks": 37681,
            "time": 35.682729468750004,
            "value": 0
          },
          {
            "number": 64,
            "ticks": 37682,
            "time": 35.6836764375,
            "value": 1
          },
          {
            "number": 64,
            "ticks": 38641,
            "time": 36.59181946875,
            "value": 0
          }
        ],
        "91": [
          {
            "number": 91,
            "ticks": 0,
            "time": 0,
            "value": 0
          }
        ],
        "93": [
          {
            "number": 93,
            "ticks": 0,
            "time": 0,
            "value": 0
          }
        ],
        "100": [
          {
            "number": 100,
            "ticks": 0,
            "time": 0,
            "value": 0
          },
          {
            "number": 100,
            "ticks": 0,
            "time": 0,
            "value": 1
          }
        ],
        "101": [
          {
            "number": 101,
            "ticks": 0,
            "time": 0,
            "value": 0
          },
          {
            "number": 101,
            "ticks": 0,
            "time": 0,
            "value": 1
          }
        ],
        "121": [
          {
            "number": 121,
            "ticks": 0,
            "time": 0,
            "value": 0
          }
        ]
      },
      "pitchBends": [],
      "instrument": {
        "family": "piano",
        "number": 0,
        "name": "acoustic grand piano"
      },
      "name": "Piano",
      "notes": [
        {
          "duration": 0.21496190625,
          "durationTicks": 227,
          "midi": 94,
          "name": "A#6",
          "ticks": 0,
          "time": 0,
          "velocity": 0.25984251968503935
        },
        {
          "duration": 0.4308707812500001,
          "durationTicks": 455,
          "midi": 96,
          "name": "C7",
          "ticks": 240,
          "time": 0.22727250000000002,
          "velocity": 0.25984251968503935
        },
        {
          "duration": 0.43087078125,
          "durationTicks": 455,
          "midi": 94,
          "name": "A#6",
          "ticks": 720,
          "time": 0.6818175000000001,
          "velocity": 0.25984251968503935
        },
        {
          "duration": 0.2149619062500001,
          "durationTicks": 227,
          "midi": 93,
          "name": "A6",
          "ticks": 1200,
          "time": 1.1363625000000002,
          "velocity": 0.25984251968503935
        },
        {
          "duration": 0.4308707812499999,
          "durationTicks": 455,
          "midi": 91,
          "name": "G6",
          "ticks": 1440,
          "time": 1.3636350000000002,
          "velocity": 0.25984251968503935
        },
        {
          "duration": 0.4308707812500001,
          "durationTicks": 455,
          "midi": 96,
          "name": "C7",
          "ticks": 1920,
          "time": 1.8181800000000001,
          "velocity": 0.25984251968503935
        },
        {
          "duration": 0.4308707812499999,
          "durationTicks": 455,
          "midi": 94,
          "name": "A#6",
          "ticks": 2400,
          "time": 2.2727250000000003,
          "velocity": 0.25984251968503935
        },
        {
          "duration": 0.4308707812499999,
          "durationTicks": 455,
          "midi": 93,
          "name": "A6",
          "ticks": 2880,
          "time": 2.7272700000000003,
          "velocity": 0.25984251968503935
        },
        {
          "duration": 0.4308707812499999,
          "durationTicks": 455,
          "midi": 91,
          "name": "G6",
          "ticks": 3360,
          "time": 3.1818150000000003,
          "velocity": 0.25984251968503935
        },
        {
          "duration": 0.2149619062500001,
          "durationTicks": 227,
          "midi": 91,
          "name": "G6",
          "ticks": 3840,
          "time": 3.6363600000000003,
          "velocity": 0.25984251968503935
        },
        {
          "duration": 0.6467796562500006,
          "durationTicks": 683,
          "midi": 89,
          "name": "F6",
          "ticks": 4080,
          "time": 3.8636325000000005,
          "velocity": 0.25984251968503935
        },
        {
          "duration": 0.21496190624999922,
          "durationTicks": 227,
          "midi": 87,
          "name": "D#6",
          "ticks": 4800,
          "time": 4.545450000000001,
          "velocity": 0.25984251968503935
        },
        {
          "duration": 0.3229163437500002,
          "durationTicks": 341,
          "midi": 87,
          "name": "D#6",
          "ticks": 5040,
          "time": 4.7727225,
          "velocity": 0.25984251968503935
        },
        {
          "duration": 0.3229163437500002,
          "durationTicks": 341,
          "midi": 89,
          "name": "F6",
          "ticks": 5400,
          "time": 5.11363125,
          "velocity": 0.25984251968503935
        },
        {
          "duration": 1.5104151562499997,
          "durationTicks": 1595,
          "midi": 86,
          "name": "D6",
          "ticks": 5760,
          "time": 5.454540000000001,
          "velocity": 0.25984251968503935
        },
        {
          "duration": 0.2149619062500001,
          "durationTicks": 227,
          "midi": 74,
          "name": "D5",
          "ticks": 7680,
          "time": 7.2727200000000005,
          "velocity": 0.3858267716535433
        },
        {
          "duration": 0.2149619062500001,
          "durationTicks": 227,
          "midi": 86,
          "name": "D6",
          "ticks": 7680,
          "time": 7.2727200000000005,
          "velocity": 0.3858267716535433
        },
        {
          "duration": 0.4308707812500012,
          "durationTicks": 455,
          "midi": 74,
          "name": "D5",
          "ticks": 7920,
          "time": 7.4999925,
          "velocity": 0.3858267716535433
        },
        {
          "duration": 0.4308707812500012,
          "durationTicks": 455,
          "midi": 82,
          "name": "A#5",
          "ticks": 7920,
          "time": 7.4999925,
          "velocity": 0.3858267716535433
        },
        {
          "duration": 0.4308707812500012,
          "durationTicks": 455,
          "midi": 86,
          "name": "D6",
          "ticks": 7920,
          "time": 7.4999925,
          "velocity": 0.3858267716535433
        },
        {
          "duration": 0.2149619062500001,
          "durationTicks": 227,
          "midi": 74,
          "name": "D5",
          "ticks": 8400,
          "time": 7.954537500000001,
          "velocity": 0.3858267716535433
        },
        {
          "duration": 0.2149619062500001,
          "durationTicks": 227,
          "midi": 86,
          "name": "D6",
          "ticks": 8400,
          "time": 7.954537500000001,
          "velocity": 0.3858267716535433
        },
        {
          "duration": 0.43087078125000033,
          "durationTicks": 455,
          "midi": 74,
          "name": "D5",
          "ticks": 8640,
          "time": 8.18181,
          "velocity": 0.3858267716535433
        },
        {
          "duration": 0.43087078125000033,
          "durationTicks": 455,
          "midi": 82,
          "name": "A#5",
          "ticks": 8640,
          "time": 8.18181,
          "velocity": 0.3858267716535433
        },
        {
          "duration": 0.43087078125000033,
          "durationTicks": 455,
          "midi": 86,
          "name": "D6",
          "ticks": 8640,
          "time": 8.18181,
          "velocity": 0.3858267716535433
        },
        {
          "duration": 0.2149619062500001,
          "durationTicks": 227,
          "midi": 86,
          "name": "D6",
          "ticks": 9120,
          "time": 8.636355,
          "velocity": 0.3858267716535433
        },
        {
          "duration": 0.2149619062500001,
          "durationTicks": 227,
          "midi": 98,
          "name": "D7",
          "ticks": 9120,
          "time": 8.636355,
          "velocity": 0.3858267716535433
        },
        {
          "duration": 1.72632403125,
          "durationTicks": 1823,
          "midi": 86,
          "name": "D6",
          "ticks": 9360,
          "time": 8.8636275,
          "velocity": 0.3858267716535433
        },
        {
          "duration": 1.72632403125,
          "durationTicks": 1823,
          "midi": 94,
          "name": "A#6",
          "ticks": 9360,
          "time": 8.8636275,
          "velocity": 0.3858267716535433
        },
        {
          "duration": 1.72632403125,
          "durationTicks": 1823,
          "midi": 98,
          "name": "D7",
          "ticks": 9360,
          "time": 8.8636275,
          "velocity": 0.3858267716535433
        },
        {
          "duration": 0.2149619062500001,
          "durationTicks": 227,
          "midi": 82,
          "name": "A#5",
          "ticks": 11520,
          "time": 10.909080000000001,
          "velocity": 0.3858267716535433
        },
        {
          "duration": 0.2149619062500001,
          "durationTicks": 227,
          "midi": 94,
          "name": "A#6",
          "ticks": 11520,
          "time": 10.909080000000001,
          "velocity": 0.3858267716535433
        },
        {
          "duration": 0.43087078125000033,
          "durationTicks": 455,
          "midi": 81,
          "name": "A5",
          "ticks": 11760,
          "time": 11.136352500000001,
          "velocity": 0.3858267716535433
        },
        {
          "duration": 0.43087078125000033,
          "durationTicks": 455,
          "midi": 84,
          "name": "C6",
          "ticks": 11760,
          "time": 11.136352500000001,
          "velocity": 0.3858267716535433
        },
        {
          "duration": 0.43087078125000033,
          "durationTicks": 455,
          "midi": 93,
          "name": "A6",
          "ticks": 11760,
          "time": 11.136352500000001,
          "velocity": 0.3858267716535433
        },
        {
          "duration": 0.2149619062500001,
          "durationTicks": 227,
          "midi": 81,
          "name": "A5",
          "ticks": 12240,
          "time": 11.5908975,
          "velocity": 0.3858267716535433
        },
        {
          "duration": 0.2149619062500001,
          "durationTicks": 227,
          "midi": 93,
          "name": "A6",
          "ticks": 12240,
          "time": 11.5908975,
          "velocity": 0.3858267716535433
        },
        {
          "duration": 0.43087078125000033,
          "durationTicks": 455,
          "midi": 81,
          "name": "A5",
          "ticks": 12480,
          "time": 11.81817,
          "velocity": 0.3858267716535433
        },
        {
          "duration": 0.43087078125000033,
          "durationTicks": 455,
          "midi": 84,
          "name": "C6",
          "ticks": 12480,
          "time": 11.81817,
          "velocity": 0.3858267716535433
        },
        {
          "duration": 0.43087078125000033,
          "durationTicks": 455,
          "midi": 93,
          "name": "A6",
          "ticks": 12480,
          "time": 11.81817,
          "velocity": 0.3858267716535433
        },
        {
          "duration": 0.21496190624999834,
          "durationTicks": 227,
          "midi": 82,
          "name": "A#5",
          "ticks": 12960,
          "time": 12.272715000000002,
          "velocity": 0.3858267716535433
        },
        {
          "duration": 0.21496190624999834,
          "durationTicks": 227,
          "midi": 94,
          "name": "A#6",
          "ticks": 12960,
          "time": 12.272715000000002,
          "velocity": 0.3858267716535433
        },
        {
          "duration": 1.72632403125,
          "durationTicks": 1823,
          "midi": 82,
          "name": "A#5",
          "ticks": 13200,
          "time": 12.499987500000001,
          "velocity": 0.3858267716535433
        },
        {
          "duration": 1.72632403125,
          "durationTicks": 1823,
          "midi": 94,
          "name": "A#6",
          "ticks": 13200,
          "time": 12.499987500000001,
          "velocity": 0.3858267716535433
        },
        {
          "duration": 0.2149619062500019,
          "durationTicks": 227,
          "midi": 94,
          "name": "A#6",
          "ticks": 15360,
          "time": 14.545440000000001,
          "velocity": 0.3858267716535433
        },
        {
          "duration": 0.43087078124999856,
          "durationTicks": 455,
          "midi": 96,
          "name": "C7",
          "ticks": 15600,
          "time": 14.7727125,
          "velocity": 0.3858267716535433
        },
        {
          "duration": 0.2149619062500019,
          "durationTicks": 227,
          "midi": 84,
          "name": "C6",
          "ticks": 15840,
          "time": 14.999985,
          "velocity": 0.3858267716535433
        },
        {
          "duration": 0.43087078125000033,
          "durationTicks": 455,
          "midi": 94,
          "name": "A#6",
          "ticks": 16080,
          "time": 15.2272575,
          "velocity": 0.3858267716535433
        },
        {
          "duration": 0.2149619062500019,
          "durationTicks": 227,
          "midi": 86,
          "name": "D6",
          "ticks": 16080,
          "time": 15.2272575,
          "velocity": 0.3858267716535433
        },
        {
          "duration": 0.2149619062500001,
          "durationTicks": 227,
          "midi": 82,
          "name": "A#5",
          "ticks": 16320,
          "time": 15.454530000000002,
          "velocity": 0.3858267716535433
        },
        {
          "duration": 0.2149619062500001,
          "durationTicks": 227,
          "midi": 93,
          "name": "A6",
          "ticks": 16560,
          "time": 15.681802500000002,
          "velocity": 0.3858267716535433
        },
        {
          "duration": 0.2149619062500001,
          "durationTicks": 227,
          "midi": 81,
          "name": "A5",
          "ticks": 16560,
          "time": 15.681802500000002,
          "velocity": 0.3858267716535433
        },
        {
          "duration": 0.43087078125000033,
          "durationTicks": 455,
          "midi": 91,
          "name": "G6",
          "ticks": 16800,
          "time": 15.909075000000001,
          "velocity": 0.3858267716535433
        },
        {
          "duration": 0.2149619062500001,
          "durationTicks": 227,
          "midi": 82,
          "name": "A#5",
          "ticks": 16800,
          "time": 15.909075000000001,
          "velocity": 0.3858267716535433
        },
        {
          "duration": 0.43087078125000033,
          "durationTicks": 455,
          "midi": 79,
          "name": "G5",
          "ticks": 17040,
          "time": 16.1363475,
          "velocity": 0.3858267716535433
        },
        {
          "duration": 0.43087078125000033,
          "durationTicks": 455,
          "midi": 96,
          "name": "C7",
          "ticks": 17280,
          "time": 16.36362,
          "velocity": 0.3858267716535433
        },
        {
          "duration": 0.2149619062500001,
          "durationTicks": 227,
          "midi": 84,
          "name": "C6",
          "ticks": 17520,
          "time": 16.590892500000002,
          "velocity": 0.3858267716535433
        },
        {
          "duration": 0.43087078125000033,
          "durationTicks": 455,
          "midi": 94,
          "name": "A#6",
          "ticks": 17760,
          "time": 16.818165,
          "velocity": 0.3858267716535433
        },
        {
          "duration": 0.21496190625000366,
          "durationTicks": 227,
          "midi": 86,
          "name": "D6",
          "ticks": 17760,
          "time": 16.818165,
          "velocity": 0.3858267716535433
        },
        {
          "duration": 0.2149619062500001,
          "durationTicks": 227,
          "midi": 82,
          "name": "A#5",
          "ticks": 18000,
          "time": 17.045437500000002,
          "velocity": 0.3858267716535433
        },
        {
          "duration": 0.43087078125000033,
          "durationTicks": 455,
          "midi": 93,
          "name": "A6",
          "ticks": 18240,
          "time": 17.27271,
          "velocity": 0.3858267716535433
        },
        {
          "duration": 0.21496190625000366,
          "durationTicks": 227,
          "midi": 81,
          "name": "A5",
          "ticks": 18240,
          "time": 17.27271,
          "velocity": 0.3858267716535433
        },
        {
          "duration": 0.2149619062500001,
          "durationTicks": 227,
          "midi": 82,
          "name": "A#5",
          "ticks": 18480,
          "time": 17.4999825,
          "velocity": 0.3858267716535433
        },
        {
          "duration": 0.43087078125000033,
          "durationTicks": 455,
          "midi": 91,
          "name": "G6",
          "ticks": 18720,
          "time": 17.727255,
          "velocity": 0.3858267716535433
        },
        {
          "duration": 0.43087078125000033,
          "durationTicks": 455,
          "midi": 79,
          "name": "G5",
          "ticks": 18720,
          "time": 17.727255,
          "velocity": 0.3858267716535433
        },
        {
          "duration": 0.2149619062500001,
          "durationTicks": 227,
          "midi": 91,
          "name": "G6",
          "ticks": 19200,
          "time": 18.181800000000003,
          "velocity": 0.3858267716535433
        },
        {
          "duration": 0.6467796562500006,
          "durationTicks": 683,
          "midi": 89,
          "name": "F6",
          "ticks": 19440,
          "time": 18.4090725,
          "velocity": 0.3858267716535433
        },
        {
          "duration": 0.21496190625000366,
          "durationTicks": 227,
          "midi": 81,
          "name": "A5",
          "ticks": 19440,
          "time": 18.4090725,
          "velocity": 0.3858267716535433
        },
        {
          "duration": 0.2149619062500001,
          "durationTicks": 227,
          "midi": 82,
          "name": "A#5",
          "ticks": 19680,
          "time": 18.636345000000002,
          "velocity": 0.3858267716535433
        },
        {
          "duration": 0.21496190625000366,
          "durationTicks": 227,
          "midi": 77,
          "name": "F5",
          "ticks": 19920,
          "time": 18.8636175,
          "velocity": 0.3858267716535433
        },
        {
          "duration": 0.2149619062500001,
          "durationTicks": 227,
          "midi": 87,
          "name": "D#6",
          "ticks": 20160,
          "time": 19.09089,
          "velocity": 0.3858267716535433
        },
        {
          "duration": 0.322916343750002,
          "durationTicks": 341,
          "midi": 87,
          "name": "D#6",
          "ticks": 20400,
          "time": 19.3181625,
          "velocity": 0.3858267716535433
        },
        {
          "duration": 0.322916343750002,
          "durationTicks": 341,
          "midi": 81,
          "name": "A5",
          "ticks": 20400,
          "time": 19.3181625,
          "velocity": 0.3858267716535433
        },
        {
          "duration": 0.322916343750002,
          "durationTicks": 341,
          "midi": 89,
          "name": "F6",
          "ticks": 20760,
          "time": 19.65907125,
          "velocity": 0.3858267716535433
        },
        {
          "duration": 0.322916343750002,
          "durationTicks": 341,
          "midi": 82,
          "name": "A#5",
          "ticks": 20760,
          "time": 19.65907125,
          "velocity": 0.3858267716535433
        },
        {
          "duration": 1.5104151562500014,
          "durationTicks": 1595,
          "midi": 86,
          "name": "D6",
          "ticks": 21120,
          "time": 19.99998,
          "velocity": 0.3858267716535433
        },
        {
          "duration": 0.21496190625000366,
          "durationTicks": 227,
          "midi": 77,
          "name": "F5",
          "ticks": 21120,
          "time": 19.99998,
          "velocity": 0.3858267716535433
        },
        {
          "duration": 0.21496190625000366,
          "durationTicks": 227,
          "midi": 81,
          "name": "A5",
          "ticks": 21600,
          "time": 20.454525,
          "velocity": 0.3858267716535433
        },
        {
          "duration": 0.2149619062500001,
          "durationTicks": 227,
          "midi": 82,
          "name": "A#5",
          "ticks": 21840,
          "time": 20.681797500000002,
          "velocity": 0.3858267716535433
        },
        {
          "duration": 0.2149619062500001,
          "durationTicks": 227,
          "midi": 81,
          "name": "A5",
          "ticks": 22320,
          "time": 21.1363425,
          "velocity": 0.3858267716535433
        },
        {
          "duration": 0.2149619062500001,
          "durationTicks": 227,
          "midi": 82,
          "name": "A#5",
          "ticks": 22560,
          "time": 21.363615000000003,
          "velocity": 0.3858267716535433
        },
        {
          "duration": 0.2149619062500001,
          "durationTicks": 227,
          "midi": 74,
          "name": "D5",
          "ticks": 23040,
          "time": 21.818160000000002,
          "velocity": 0.3858267716535433
        },
        {
          "duration": 0.2149619062500001,
          "durationTicks": 227,
          "midi": 86,
          "name": "D6",
          "ticks": 23040,
          "time": 21.818160000000002,
          "velocity": 0.3858267716535433
        },
        {
          "duration": 0.43087078125000033,
          "durationTicks": 455,
          "midi": 74,
          "name": "D5",
          "ticks": 23280,
          "time": 22.0454325,
          "velocity": 0.3858267716535433
        },
        {
          "duration": 0.43087078125000033,
          "durationTicks": 455,
          "midi": 82,
          "name": "A#5",
          "ticks": 23280,
          "time": 22.0454325,
          "velocity": 0.3858267716535433
        },
        {
          "duration": 0.43087078125000033,
          "durationTicks": 455,
          "midi": 86,
          "name": "D6",
          "ticks": 23280,
          "time": 22.0454325,
          "velocity": 0.3858267716535433
        },
        {
          "duration": 0.21496190625000366,
          "durationTicks": 227,
          "midi": 74,
          "name": "D5",
          "ticks": 23760,
          "time": 22.4999775,
          "velocity": 0.3858267716535433
        },
        {
          "duration": 0.21496190625000366,
          "durationTicks": 227,
          "midi": 86,
          "name": "D6",
          "ticks": 23760,
          "time": 22.4999775,
          "velocity": 0.3858267716535433
        },
        {
          "duration": 0.43087078125000033,
          "durationTicks": 455,
          "midi": 74,
          "name": "D5",
          "ticks": 24000,
          "time": 22.72725,
          "velocity": 0.3858267716535433
        },
        {
          "duration": 0.43087078125000033,
          "durationTicks": 455,
          "midi": 82,
          "name": "A#5",
          "ticks": 24000,
          "time": 22.72725,
          "velocity": 0.3858267716535433
        },
        {
          "duration": 0.43087078125000033,
          "durationTicks": 455,
          "midi": 86,
          "name": "D6",
          "ticks": 24000,
          "time": 22.72725,
          "velocity": 0.3858267716535433
        },
        {
          "duration": 0.21496190625000366,
          "durationTicks": 227,
          "midi": 86,
          "name": "D6",
          "ticks": 24480,
          "time": 23.181795,
          "velocity": 0.3858267716535433
        },
        {
          "duration": 0.21496190625000366,
          "durationTicks": 227,
          "midi": 98,
          "name": "D7",
          "ticks": 24480,
          "time": 23.181795,
          "velocity": 0.3858267716535433
        },
        {
          "duration": 1.7263240312499981,
          "durationTicks": 1823,
          "midi": 86,
          "name": "D6",
          "ticks": 24720,
          "time": 23.409067500000003,
          "velocity": 0.3858267716535433
        },
        {
          "duration": 1.7263240312499981,
          "durationTicks": 1823,
          "midi": 94,
          "name": "A#6",
          "ticks": 24720,
          "time": 23.409067500000003,
          "velocity": 0.3858267716535433
        },
        {
          "duration": 1.7263240312499981,
          "durationTicks": 1823,
          "midi": 98,
          "name": "D7",
          "ticks": 24720,
          "time": 23.409067500000003,
          "velocity": 0.3858267716535433
        },
        {
          "duration": 0.2149619062500001,
          "durationTicks": 227,
          "midi": 82,
          "name": "A#5",
          "ticks": 26880,
          "time": 25.454520000000002,
          "velocity": 0.3858267716535433
        },
        {
          "duration": 0.2149619062500001,
          "durationTicks": 227,
          "midi": 94,
          "name": "A#6",
          "ticks": 26880,
          "time": 25.454520000000002,
          "velocity": 0.3858267716535433
        },
        {
          "duration": 0.43087078125000033,
          "durationTicks": 455,
          "midi": 81,
          "name": "A5",
          "ticks": 27120,
          "time": 25.6817925,
          "velocity": 0.3858267716535433
        },
        {
          "duration": 0.43087078125000033,
          "durationTicks": 455,
          "midi": 84,
          "name": "C6",
          "ticks": 27120,
          "time": 25.6817925,
          "velocity": 0.3858267716535433
        },
        {
          "duration": 0.43087078125000033,
          "durationTicks": 455,
          "midi": 93,
          "name": "A6",
          "ticks": 27120,
          "time": 25.6817925,
          "velocity": 0.3858267716535433
        },
        {
          "duration": 0.2149619062500001,
          "durationTicks": 227,
          "midi": 81,
          "name": "A5",
          "ticks": 27600,
          "time": 26.136337500000003,
          "velocity": 0.3858267716535433
        },
        {
          "duration": 0.2149619062500001,
          "durationTicks": 227,
          "midi": 93,
          "name": "A6",
          "ticks": 27600,
          "time": 26.136337500000003,
          "velocity": 0.3858267716535433
        },
        {
          "duration": 0.43087078125000033,
          "durationTicks": 455,
          "midi": 81,
          "name": "A5",
          "ticks": 27840,
          "time": 26.36361,
          "velocity": 0.3858267716535433
        },
        {
          "duration": 0.43087078125000033,
          "durationTicks": 455,
          "midi": 84,
          "name": "C6",
          "ticks": 27840,
          "time": 26.36361,
          "velocity": 0.3858267716535433
        },
        {
          "duration": 0.43087078125000033,
          "durationTicks": 455,
          "midi": 93,
          "name": "A6",
          "ticks": 27840,
          "time": 26.36361,
          "velocity": 0.3858267716535433
        },
        {
          "duration": 0.21496190625000366,
          "durationTicks": 227,
          "midi": 82,
          "name": "A#5",
          "ticks": 28320,
          "time": 26.818155,
          "velocity": 0.3858267716535433
        },
        {
          "duration": 0.21496190625000366,
          "durationTicks": 227,
          "midi": 94,
          "name": "A#6",
          "ticks": 28320,
          "time": 26.818155,
          "velocity": 0.3858267716535433
        },
        {
          "duration": 0.4308707812499968,
          "durationTicks": 455,
          "midi": 82,
          "name": "A#5",
          "ticks": 28560,
          "time": 27.045427500000002,
          "velocity": 0.3858267716535433
        },
        {
          "duration": 0.4308707812499968,
          "durationTicks": 455,
          "midi": 94,
          "name": "A#6",
          "ticks": 28560,
          "time": 27.045427500000002,
          "velocity": 0.3858267716535433
        },
        {
          "duration": 0.322916343750002,
          "durationTicks": 341,
          "midi": 62,
          "name": "D4",
          "ticks": 29040,
          "time": 27.499972500000002,
          "velocity": 0.7559055118110236
        },
        {
          "duration": 0.322916343750002,
          "durationTicks": 341,
          "midi": 67,
          "name": "G4",
          "ticks": 29040,
          "time": 27.499972500000002,
          "velocity": 0.7559055118110236
        },
        {
          "duration": 0.32291634374999845,
          "durationTicks": 341,
          "midi": 62,
          "name": "D4",
          "ticks": 29400,
          "time": 27.840881250000002,
          "velocity": 0.7559055118110236
        },
        {
          "duration": 0.32291634374999845,
          "durationTicks": 341,
          "midi": 67,
          "name": "G4",
          "ticks": 29400,
          "time": 27.840881250000002,
          "velocity": 0.7559055118110236
        },
        {
          "duration": 0.2149619062500001,
          "durationTicks": 227,
          "midi": 62,
          "name": "D4",
          "ticks": 29760,
          "time": 28.181790000000003,
          "velocity": 0.7559055118110236
        },
        {
          "duration": 0.2149619062500001,
          "durationTicks": 227,
          "midi": 67,
          "name": "G4",
          "ticks": 29760,
          "time": 28.181790000000003,
          "velocity": 0.7559055118110236
        },
        {
          "duration": 0.322916343750002,
          "durationTicks": 341,
          "midi": 62,
          "name": "D4",
          "ticks": 30000,
          "time": 28.4090625,
          "velocity": 0.7559055118110236
        },
        {
          "duration": 0.322916343750002,
          "durationTicks": 341,
          "midi": 67,
          "name": "G4",
          "ticks": 30000,
          "time": 28.4090625,
          "velocity": 0.7559055118110236
        },
        {
          "duration": 0.10700746875000178,
          "durationTicks": 113,
          "midi": 62,
          "name": "D4",
          "ticks": 30360,
          "time": 28.74997125,
          "velocity": 0.7559055118110236
        },
        {
          "duration": 0.10700746875000178,
          "durationTicks": 113,
          "midi": 67,
          "name": "G4",
          "ticks": 30360,
          "time": 28.74997125,
          "velocity": 0.7559055118110236
        },
        {
          "duration": 0.4308707812500039,
          "durationTicks": 455,
          "midi": 62,
          "name": "D4",
          "ticks": 30480,
          "time": 28.8636075,
          "velocity": 0.7559055118110236
        },
        {
          "duration": 0.4308707812500039,
          "durationTicks": 455,
          "midi": 67,
          "name": "G4",
          "ticks": 30480,
          "time": 28.8636075,
          "velocity": 0.7559055118110236
        },
        {
          "duration": 0,
          "durationTicks": 0,
          "midi": 86,
          "name": "D6",
          "ticks": 30960,
          "time": 29.318152500000004,
          "velocity": 0.5039370078740157
        },
        {
          "duration": 0.3399617812500004,
          "durationTicks": 359,
          "midi": 86,
          "name": "D6",
          "ticks": 30960,
          "time": 29.318152500000004,
          "velocity": 0.5039370078740157
        },
        {
          "duration": 0.11268928124999888,
          "durationTicks": 119,
          "midi": 74,
          "name": "D5",
          "ticks": 31080,
          "time": 29.431788750000003,
          "velocity": 0.5039370078740157
        },
        {
          "duration": 0.11268928125000244,
          "durationTicks": 119,
          "midi": 79,
          "name": "G5",
          "ticks": 31200,
          "time": 29.545425,
          "velocity": 0.5039370078740157
        },
        {
          "duration": 0,
          "durationTicks": 0,
          "midi": 84,
          "name": "C6",
          "ticks": 31320,
          "time": 29.65906125,
          "velocity": 0.5039370078740157
        },
        {
          "duration": 0.339961781250004,
          "durationTicks": 359,
          "midi": 84,
          "name": "C6",
          "ticks": 31320,
          "time": 29.65906125,
          "velocity": 0.5039370078740157
        },
        {
          "duration": 0.11268928124999888,
          "durationTicks": 119,
          "midi": 74,
          "name": "D5",
          "ticks": 31440,
          "time": 29.772697500000003,
          "velocity": 0.5039370078740157
        },
        {
          "duration": 0.11268928125000244,
          "durationTicks": 119,
          "midi": 79,
          "name": "G5",
          "ticks": 31560,
          "time": 29.886333750000002,
          "velocity": 0.5039370078740157
        },
        {
          "duration": 0,
          "durationTicks": 0,
          "midi": 82,
          "name": "A#5",
          "ticks": 31680,
          "time": 29.99997,
          "velocity": 0.5039370078740157
        },
        {
          "duration": 0.22632553125000143,
          "durationTicks": 239,
          "midi": 82,
          "name": "A#5",
          "ticks": 31680,
          "time": 29.99997,
          "velocity": 0.5039370078740157
        },
        {
          "duration": 0.10700746874999822,
          "durationTicks": 113,
          "midi": 74,
          "name": "D5",
          "ticks": 31800,
          "time": 30.113606250000004,
          "velocity": 0.5039370078740157
        },
        {
          "duration": 0,
          "durationTicks": 0,
          "midi": 86,
          "name": "D6",
          "ticks": 31920,
          "time": 30.227242500000003,
          "velocity": 0.5039370078740157
        },
        {
          "duration": 0.3399617812500004,
          "durationTicks": 359,
          "midi": 86,
          "name": "D6",
          "ticks": 31920,
          "time": 30.227242500000003,
          "velocity": 0.5039370078740157
        },
        {
          "duration": 0.11268928125000244,
          "durationTicks": 119,
          "midi": 74,
          "name": "D5",
          "ticks": 32040,
          "time": 30.34087875,
          "velocity": 0.5039370078740157
        },
        {
          "duration": 0.11268928125000244,
          "durationTicks": 119,
          "midi": 79,
          "name": "G5",
          "ticks": 32160,
          "time": 30.454515,
          "velocity": 0.5039370078740157
        },
        {
          "duration": 0,
          "durationTicks": 0,
          "midi": 84,
          "name": "C6",
          "ticks": 32280,
          "time": 30.568151250000003,
          "velocity": 0.5039370078740157
        },
        {
          "duration": 0.3399617812500004,
          "durationTicks": 359,
          "midi": 84,
          "name": "C6",
          "ticks": 32280,
          "time": 30.568151250000003,
          "velocity": 0.5039370078740157
        },
        {
          "duration": 0.11268928125000244,
          "durationTicks": 119,
          "midi": 74,
          "name": "D5",
          "ticks": 32400,
          "time": 30.681787500000002,
          "velocity": 0.5039370078740157
        },
        {
          "duration": 0.11268928125000244,
          "durationTicks": 119,
          "midi": 79,
          "name": "G5",
          "ticks": 32520,
          "time": 30.79542375,
          "velocity": 0.5039370078740157
        },
        {
          "duration": 0,
          "durationTicks": 0,
          "midi": 82,
          "name": "A#5",
          "ticks": 32640,
          "time": 30.909060000000004,
          "velocity": 0.5039370078740157
        },
        {
          "duration": 0.21496190624999656,
          "durationTicks": 227,
          "midi": 82,
          "name": "A#5",
          "ticks": 32640,
          "time": 30.909060000000004,
          "velocity": 0.5039370078740157
        },
        {
          "duration": 0.32291634374999845,
          "durationTicks": 341,
          "midi": 57,
          "name": "A3",
          "ticks": 32880,
          "time": 31.1363325,
          "velocity": 0.7559055118110236
        },
        {
          "duration": 0.32291634374999845,
          "durationTicks": 341,
          "midi": 58,
          "name": "A#3",
          "ticks": 32880,
          "time": 31.1363325,
          "velocity": 0.7559055118110236
        },
        {
          "duration": 0.32291634374999845,
          "durationTicks": 341,
          "midi": 62,
          "name": "D4",
          "ticks": 32880,
          "time": 31.1363325,
          "velocity": 0.7559055118110236
        },
        {
          "duration": 0.32291634374999845,
          "durationTicks": 341,
          "midi": 67,
          "name": "G4",
          "ticks": 32880,
          "time": 31.1363325,
          "velocity": 0.7559055118110236
        },
        {
          "duration": 0.32291634374999845,
          "durationTicks": 341,
          "midi": 57,
          "name": "A3",
          "ticks": 33240,
          "time": 31.477241250000002,
          "velocity": 0.7559055118110236
        },
        {
          "duration": 0.32291634374999845,
          "durationTicks": 341,
          "midi": 58,
          "name": "A#3",
          "ticks": 33240,
          "time": 31.477241250000002,
          "velocity": 0.7559055118110236
        },
        {
          "duration": 0.32291634374999845,
          "durationTicks": 341,
          "midi": 62,
          "name": "D4",
          "ticks": 33240,
          "time": 31.477241250000002,
          "velocity": 0.7559055118110236
        },
        {
          "duration": 0.32291634374999845,
          "durationTicks": 341,
          "midi": 67,
          "name": "G4",
          "ticks": 33240,
          "time": 31.477241250000002,
          "velocity": 0.7559055118110236
        },
        {
          "duration": 0.21496190624999656,
          "durationTicks": 227,
          "midi": 57,
          "name": "A3",
          "ticks": 33600,
          "time": 31.818150000000003,
          "velocity": 0.7559055118110236
        },
        {
          "duration": 0.21496190624999656,
          "durationTicks": 227,
          "midi": 58,
          "name": "A#3",
          "ticks": 33600,
          "time": 31.818150000000003,
          "velocity": 0.7559055118110236
        },
        {
          "duration": 0.21496190624999656,
          "durationTicks": 227,
          "midi": 62,
          "name": "D4",
          "ticks": 33600,
          "time": 31.818150000000003,
          "velocity": 0.7559055118110236
        },
        {
          "duration": 0.21496190624999656,
          "durationTicks": 227,
          "midi": 67,
          "name": "G4",
          "ticks": 33600,
          "time": 31.818150000000003,
          "velocity": 0.7559055118110236
        },
        {
          "duration": 0.322916343750002,
          "durationTicks": 341,
          "midi": 57,
          "name": "A3",
          "ticks": 33840,
          "time": 32.0454225,
          "velocity": 0.7559055118110236
        },
        {
          "duration": 0.322916343750002,
          "durationTicks": 341,
          "midi": 58,
          "name": "A#3",
          "ticks": 33840,
          "time": 32.0454225,
          "velocity": 0.7559055118110236
        },
        {
          "duration": 0.322916343750002,
          "durationTicks": 341,
          "midi": 62,
          "name": "D4",
          "ticks": 33840,
          "time": 32.0454225,
          "velocity": 0.7559055118110236
        },
        {
          "duration": 0.322916343750002,
          "durationTicks": 341,
          "midi": 67,
          "name": "G4",
          "ticks": 33840,
          "time": 32.0454225,
          "velocity": 0.7559055118110236
        },
        {
          "duration": 0.10700746874999822,
          "durationTicks": 113,
          "midi": 57,
          "name": "A3",
          "ticks": 34200,
          "time": 32.386331250000005,
          "velocity": 0.7559055118110236
        },
        {
          "duration": 0.10700746874999822,
          "durationTicks": 113,
          "midi": 58,
          "name": "A#3",
          "ticks": 34200,
          "time": 32.386331250000005,
          "velocity": 0.7559055118110236
        },
        {
          "duration": 0.10700746874999822,
          "durationTicks": 113,
          "midi": 62,
          "name": "D4",
          "ticks": 34200,
          "time": 32.386331250000005,
          "velocity": 0.7559055118110236
        },
        {
          "duration": 0.10700746874999822,
          "durationTicks": 113,
          "midi": 67,
          "name": "G4",
          "ticks": 34200,
          "time": 32.386331250000005,
          "velocity": 0.7559055118110236
        },
        {
          "duration": 0.43087078125000033,
          "durationTicks": 455,
          "midi": 57,
          "name": "A3",
          "ticks": 34320,
          "time": 32.499967500000004,
          "velocity": 0.7559055118110236
        },
        {
          "duration": 0.43087078125000033,
          "durationTicks": 455,
          "midi": 58,
          "name": "A#3",
          "ticks": 34320,
          "time": 32.499967500000004,
          "velocity": 0.7559055118110236
        },
        {
          "duration": 0.43087078125000033,
          "durationTicks": 455,
          "midi": 62,
          "name": "D4",
          "ticks": 34320,
          "time": 32.499967500000004,
          "velocity": 0.7559055118110236
        },
        {
          "duration": 0.43087078125000033,
          "durationTicks": 455,
          "midi": 67,
          "name": "G4",
          "ticks": 34320,
          "time": 32.499967500000004,
          "velocity": 0.7559055118110236
        },
        {
          "duration": 0.10700746875000533,
          "durationTicks": 113,
          "midi": 74,
          "name": "D5",
          "ticks": 34800,
          "time": 32.9545125,
          "velocity": 0.8818897637795275
        },
        {
          "duration": 0.10700746875000533,
          "durationTicks": 113,
          "midi": 86,
          "name": "D6",
          "ticks": 34800,
          "time": 32.9545125,
          "velocity": 0.8818897637795275
        },
        {
          "duration": 0.21496190625000366,
          "durationTicks": 227,
          "midi": 82,
          "name": "A#5",
          "ticks": 34920,
          "time": 33.06814875,
          "velocity": 0.8818897637795275
        },
        {
          "duration": 0.21496190625000366,
          "durationTicks": 227,
          "midi": 94,
          "name": "A#6",
          "ticks": 34920,
          "time": 33.06814875,
          "velocity": 0.8818897637795275
        },
        {
          "duration": 0.10700746874999822,
          "durationTicks": 113,
          "midi": 74,
          "name": "D5",
          "ticks": 35160,
          "time": 33.295421250000004,
          "velocity": 0.8818897637795275
        },
        {
          "duration": 0.10700746874999822,
          "durationTicks": 113,
          "midi": 86,
          "name": "D6",
          "ticks": 35160,
          "time": 33.295421250000004,
          "velocity": 0.8818897637795275
        },
        {
          "duration": 0.10700746874999822,
          "durationTicks": 113,
          "midi": 79,
          "name": "G5",
          "ticks": 35280,
          "time": 33.4090575,
          "velocity": 0.8818897637795275
        },
        {
          "duration": 0.10700746874999822,
          "durationTicks": 113,
          "midi": 91,
          "name": "G6",
          "ticks": 35280,
          "time": 33.4090575,
          "velocity": 0.8818897637795275
        },
        {
          "duration": 0.10700746874999822,
          "durationTicks": 113,
          "midi": 86,
          "name": "D6",
          "ticks": 35400,
          "time": 33.52269375,
          "velocity": 0.8818897637795275
        },
        {
          "duration": 0.10700746874999822,
          "durationTicks": 113,
          "midi": 82,
          "name": "A#5",
          "ticks": 35520,
          "time": 33.63633,
          "velocity": 0.8818897637795275
        },
        {
          "duration": 0.10700746875000533,
          "durationTicks": 113,
          "midi": 79,
          "name": "G5",
          "ticks": 35640,
          "time": 33.74996625,
          "velocity": 0.8818897637795275
        },
        {
          "duration": 0.21496190624999656,
          "durationTicks": 227,
          "midi": 62,
          "name": "D4",
          "ticks": 36000,
          "time": 34.090875000000004,
          "velocity": 0.8818897637795275
        },
        {
          "duration": 0.21496190624999656,
          "durationTicks": 227,
          "midi": 70,
          "name": "A#4",
          "ticks": 36000,
          "time": 34.090875000000004,
          "velocity": 0.8818897637795275
        },
        {
          "duration": 0.21496190624999656,
          "durationTicks": 227,
          "midi": 74,
          "name": "D5",
          "ticks": 36000,
          "time": 34.090875000000004,
          "velocity": 0.8818897637795275
        },
        {
          "duration": 0.113636249999999,
          "durationTicks": 120,
          "midi": 60,
          "name": "C4",
          "ticks": 36240,
          "time": 34.3181475,
          "velocity": 0.8818897637795275
        },
        {
          "duration": 0.21496190624999656,
          "durationTicks": 227,
          "midi": 70,
          "name": "A#4",
          "ticks": 36240,
          "time": 34.3181475,
          "velocity": 0.8818897637795275
        },
        {
          "duration": 0.21496190624999656,
          "durationTicks": 227,
          "midi": 72,
          "name": "C5",
          "ticks": 36240,
          "time": 34.3181475,
          "velocity": 0.8818897637795275
        },
        {
          "duration": 0.21496190625000366,
          "durationTicks": 227,
          "midi": 62,
          "name": "D4",
          "ticks": 36480,
          "time": 34.54542,
          "velocity": 0.8818897637795275
        },
        {
          "duration": 0.21496190625000366,
          "durationTicks": 227,
          "midi": 70,
          "name": "A#4",
          "ticks": 36480,
          "time": 34.54542,
          "velocity": 0.8818897637795275
        },
        {
          "duration": 0.21496190625000366,
          "durationTicks": 227,
          "midi": 74,
          "name": "D5",
          "ticks": 36480,
          "time": 34.54542,
          "velocity": 0.8818897637795275
        },
        {
          "duration": 0.10700746874999822,
          "durationTicks": 113,
          "midi": 74,
          "name": "D5",
          "ticks": 36720,
          "time": 34.772692500000005,
          "velocity": 0.8818897637795275
        },
        {
          "duration": 0.10700746874999822,
          "durationTicks": 113,
          "midi": 86,
          "name": "D6",
          "ticks": 36720,
          "time": 34.772692500000005,
          "velocity": 0.8818897637795275
        },
        {
          "duration": 0.21496190624999656,
          "durationTicks": 227,
          "midi": 82,
          "name": "A#5",
          "ticks": 36840,
          "time": 34.886328750000004,
          "velocity": 0.8818897637795275
        },
        {
          "duration": 0.21496190624999656,
          "durationTicks": 227,
          "midi": 94,
          "name": "A#6",
          "ticks": 36840,
          "time": 34.886328750000004,
          "velocity": 0.8818897637795275
        },
        {
          "duration": 0.10700746874999822,
          "durationTicks": 113,
          "midi": 74,
          "name": "D5",
          "ticks": 37080,
          "time": 35.11360125,
          "velocity": 0.8818897637795275
        },
        {
          "duration": 0.10700746874999822,
          "durationTicks": 113,
          "midi": 86,
          "name": "D6",
          "ticks": 37080,
          "time": 35.11360125,
          "velocity": 0.8818897637795275
        },
        {
          "duration": 0.10700746874999822,
          "durationTicks": 113,
          "midi": 79,
          "name": "G5",
          "ticks": 37200,
          "time": 35.2272375,
          "velocity": 0.8818897637795275
        },
        {
          "duration": 0.10700746874999822,
          "durationTicks": 113,
          "midi": 91,
          "name": "G6",
          "ticks": 37200,
          "time": 35.2272375,
          "velocity": 0.8818897637795275
        },
        {
          "duration": 0.10700746875000533,
          "durationTicks": 113,
          "midi": 86,
          "name": "D6",
          "ticks": 37320,
          "time": 35.34087375,
          "velocity": 0.8818897637795275
        },
        {
          "duration": 0.10700746875000533,
          "durationTicks": 113,
          "midi": 82,
          "name": "A#5",
          "ticks": 37440,
          "time": 35.45451,
          "velocity": 0.8818897637795275
        },
        {
          "duration": 0.10700746874999822,
          "durationTicks": 113,
          "midi": 79,
          "name": "G5",
          "ticks": 37560,
          "time": 35.568146250000005,
          "velocity": 0.8818897637795275
        },
        {
          "duration": 0.113636249999999,
          "durationTicks": 120,
          "midi": 62,
          "name": "D4",
          "ticks": 37920,
          "time": 35.909055,
          "velocity": 0.8818897637795275
        },
        {
          "duration": 0.21496190624999656,
          "durationTicks": 227,
          "midi": 66,
          "name": "F#4",
          "ticks": 37920,
          "time": 35.909055,
          "velocity": 0.8818897637795275
        },
        {
          "duration": 0.21496190624999656,
          "durationTicks": 227,
          "midi": 69,
          "name": "A4",
          "ticks": 37920,
          "time": 35.909055,
          "velocity": 0.8818897637795275
        },
        {
          "duration": 0.21496190624999656,
          "durationTicks": 227,
          "midi": 74,
          "name": "D5",
          "ticks": 37920,
          "time": 35.909055,
          "velocity": 0.8818897637795275
        },
        {
          "duration": 0.21496190625000366,
          "durationTicks": 227,
          "midi": 70,
          "name": "A#4",
          "ticks": 38160,
          "time": 36.1363275,
          "velocity": 0.8818897637795275
        },
        {
          "duration": 0.21496190625000366,
          "durationTicks": 227,
          "midi": 74,
          "name": "D5",
          "ticks": 38160,
          "time": 36.1363275,
          "velocity": 0.8818897637795275
        },
        {
          "duration": 0.21496190625000366,
          "durationTicks": 227,
          "midi": 82,
          "name": "A#5",
          "ticks": 38160,
          "time": 36.1363275,
          "velocity": 0.8818897637795275
        },
        {
          "duration": 0.21496190624999656,
          "durationTicks": 227,
          "midi": 69,
          "name": "A4",
          "ticks": 38400,
          "time": 36.363600000000005,
          "velocity": 0.8818897637795275
        },
        {
          "duration": 0.21496190624999656,
          "durationTicks": 227,
          "midi": 74,
          "name": "D5",
          "ticks": 38400,
          "time": 36.363600000000005,
          "velocity": 0.8818897637795275
        },
        {
          "duration": 0.21496190624999656,
          "durationTicks": 227,
          "midi": 81,
          "name": "A5",
          "ticks": 38400,
          "time": 36.363600000000005,
          "velocity": 0.8818897637795275
        },
        {
          "duration": 0.10700746874999822,
          "durationTicks": 113,
          "midi": 74,
          "name": "D5",
          "ticks": 38640,
          "time": 36.5908725,
          "velocity": 0.8818897637795275
        },
        {
          "duration": 0.10700746874999822,
          "durationTicks": 113,
          "midi": 86,
          "name": "D6",
          "ticks": 38640,
          "time": 36.5908725,
          "velocity": 0.8818897637795275
        },
        {
          "duration": 0.21496190624999656,
          "durationTicks": 227,
          "midi": 82,
          "name": "A#5",
          "ticks": 38760,
          "time": 36.70450875,
          "velocity": 0.8818897637795275
        },
        {
          "duration": 0.21496190624999656,
          "durationTicks": 227,
          "midi": 94,
          "name": "A#6",
          "ticks": 38760,
          "time": 36.70450875,
          "velocity": 0.8818897637795275
        },
        {
          "duration": 0.10700746875000533,
          "durationTicks": 113,
          "midi": 74,
          "name": "D5",
          "ticks": 39000,
          "time": 36.93178125,
          "velocity": 0.8818897637795275
        },
        {
          "duration": 0.10700746875000533,
          "durationTicks": 113,
          "midi": 86,
          "name": "D6",
          "ticks": 39000,
          "time": 36.93178125,
          "velocity": 0.8818897637795275
        },
        {
          "duration": 0.10700746875000533,
          "durationTicks": 113,
          "midi": 79,
          "name": "G5",
          "ticks": 39120,
          "time": 37.0454175,
          "velocity": 0.8818897637795275
        },
        {
          "duration": 0.10700746875000533,
          "durationTicks": 113,
          "midi": 91,
          "name": "G6",
          "ticks": 39120,
          "time": 37.0454175,
          "velocity": 0.8818897637795275
        },
        {
          "duration": 0.10700746874999822,
          "durationTicks": 113,
          "midi": 86,
          "name": "D6",
          "ticks": 39240,
          "time": 37.159053750000005,
          "velocity": 0.8818897637795275
        },
        {
          "duration": 0.10700746874999822,
          "durationTicks": 113,
          "midi": 82,
          "name": "A#5",
          "ticks": 39360,
          "time": 37.272690000000004,
          "velocity": 0.8818897637795275
        },
        {
          "duration": 0.10700746874999822,
          "durationTicks": 113,
          "midi": 79,
          "name": "G5",
          "ticks": 39480,
          "time": 37.38632625,
          "velocity": 0.8818897637795275
        },
        {
          "duration": 0.21496190625000366,
          "durationTicks": 227,
          "midi": 62,
          "name": "D4",
          "ticks": 39840,
          "time": 37.727235,
          "velocity": 0.8818897637795275
        },
        {
          "duration": 0.21496190625000366,
          "durationTicks": 227,
          "midi": 70,
          "name": "A#4",
          "ticks": 39840,
          "time": 37.727235,
          "velocity": 0.8818897637795275
        },
        {
          "duration": 0.21496190625000366,
          "durationTicks": 227,
          "midi": 74,
          "name": "D5",
          "ticks": 39840,
          "time": 37.727235,
          "velocity": 0.8818897637795275
        },
        {
          "duration": 0.113636249999999,
          "durationTicks": 120,
          "midi": 60,
          "name": "C4",
          "ticks": 40080,
          "time": 37.954507500000005,
          "velocity": 0.8818897637795275
        },
        {
          "duration": 0.21496190624999656,
          "durationTicks": 227,
          "midi": 70,
          "name": "A#4",
          "ticks": 40080,
          "time": 37.954507500000005,
          "velocity": 0.8818897637795275
        },
        {
          "duration": 0.21496190624999656,
          "durationTicks": 227,
          "midi": 72,
          "name": "C5",
          "ticks": 40080,
          "time": 37.954507500000005,
          "velocity": 0.8818897637795275
        },
        {
          "duration": 0.21496190624999656,
          "durationTicks": 227,
          "midi": 62,
          "name": "D4",
          "ticks": 40320,
          "time": 38.18178,
          "velocity": 0.8818897637795275
        },
        {
          "duration": 0.21496190624999656,
          "durationTicks": 227,
          "midi": 70,
          "name": "A#4",
          "ticks": 40320,
          "time": 38.18178,
          "velocity": 0.8818897637795275
        },
        {
          "duration": 0.21496190624999656,
          "durationTicks": 227,
          "midi": 74,
          "name": "D5",
          "ticks": 40320,
          "time": 38.18178,
          "velocity": 0.8818897637795275
        },
        {
          "duration": 0.10700746874999822,
          "durationTicks": 113,
          "midi": 74,
          "name": "D5",
          "ticks": 40560,
          "time": 38.4090525,
          "velocity": 0.8818897637795275
        },
        {
          "duration": 0.10700746874999822,
          "durationTicks": 113,
          "midi": 86,
          "name": "D6",
          "ticks": 40560,
          "time": 38.4090525,
          "velocity": 0.8818897637795275
        },
        {
          "duration": 0.21496190625000366,
          "durationTicks": 227,
          "midi": 82,
          "name": "A#5",
          "ticks": 40680,
          "time": 38.52268875,
          "velocity": 0.8818897637795275
        },
        {
          "duration": 0.21496190625000366,
          "durationTicks": 227,
          "midi": 94,
          "name": "A#6",
          "ticks": 40680,
          "time": 38.52268875,
          "velocity": 0.8818897637795275
        },
        {
          "duration": 0.10700746874999822,
          "durationTicks": 113,
          "midi": 74,
          "name": "D5",
          "ticks": 40920,
          "time": 38.749961250000005,
          "velocity": 0.8818897637795275
        },
        {
          "duration": 0.10700746874999822,
          "durationTicks": 113,
          "midi": 86,
          "name": "D6",
          "ticks": 40920,
          "time": 38.749961250000005,
          "velocity": 0.8818897637795275
        },
        {
          "duration": 0.10700746874999822,
          "durationTicks": 113,
          "midi": 79,
          "name": "G5",
          "ticks": 41040,
          "time": 38.863597500000004,
          "velocity": 0.8818897637795275
        },
        {
          "duration": 0.10700746874999822,
          "durationTicks": 113,
          "midi": 91,
          "name": "G6",
          "ticks": 41040,
          "time": 38.863597500000004,
          "velocity": 0.8818897637795275
        },
        {
          "duration": 0.10700746874999822,
          "durationTicks": 113,
          "midi": 86,
          "name": "D6",
          "ticks": 41160,
          "time": 38.97723375,
          "velocity": 0.8818897637795275
        },
        {
          "duration": 0.10700746874999822,
          "durationTicks": 113,
          "midi": 82,
          "name": "A#5",
          "ticks": 41280,
          "time": 39.09087,
          "velocity": 0.8818897637795275
        },
        {
          "duration": 0.10700746874999822,
          "durationTicks": 113,
          "midi": 79,
          "name": "G5",
          "ticks": 41400,
          "time": 39.20450625,
          "velocity": 0.8818897637795275
        },
        {
          "duration": 0.113636249999999,
          "durationTicks": 120,
          "midi": 62,
          "name": "D4",
          "ticks": 41760,
          "time": 39.545415000000006,
          "velocity": 0.8818897637795275
        },
        {
          "duration": 0.21496190624999656,
          "durationTicks": 227,
          "midi": 66,
          "name": "F#4",
          "ticks": 41760,
          "time": 39.545415000000006,
          "velocity": 0.8818897637795275
        },
        {
          "duration": 0.21496190624999656,
          "durationTicks": 227,
          "midi": 69,
          "name": "A4",
          "ticks": 41760,
          "time": 39.545415000000006,
          "velocity": 0.8818897637795275
        },
        {
          "duration": 0.21496190624999656,
          "durationTicks": 227,
          "midi": 74,
          "name": "D5",
          "ticks": 41760,
          "time": 39.545415000000006,
          "velocity": 0.8818897637795275
        },
        {
          "duration": 0.21496190624999656,
          "durationTicks": 227,
          "midi": 70,
          "name": "A#4",
          "ticks": 42000,
          "time": 39.7726875,
          "velocity": 0.8818897637795275
        },
        {
          "duration": 0.21496190624999656,
          "durationTicks": 227,
          "midi": 74,
          "name": "D5",
          "ticks": 42000,
          "time": 39.7726875,
          "velocity": 0.8818897637795275
        },
        {
          "duration": 0.21496190624999656,
          "durationTicks": 227,
          "midi": 82,
          "name": "A#5",
          "ticks": 42000,
          "time": 39.7726875,
          "velocity": 0.8818897637795275
        },
        {
          "duration": 0.21496190624999656,
          "durationTicks": 227,
          "midi": 69,
          "name": "A4",
          "ticks": 42240,
          "time": 39.99996,
          "velocity": 0.8818897637795275
        },
        {
          "duration": 0.21496190624999656,
          "durationTicks": 227,
          "midi": 74,
          "name": "D5",
          "ticks": 42240,
          "time": 39.99996,
          "velocity": 0.8818897637795275
        },
        {
          "duration": 0.21496190624999656,
          "durationTicks": 227,
          "midi": 81,
          "name": "A5",
          "ticks": 42240,
          "time": 39.99996,
          "velocity": 0.8818897637795275
        },
        {
          "duration": 0.322916343750002,
          "durationTicks": 341,
          "midi": 67,
          "name": "G4",
          "ticks": 42480,
          "time": 40.2272325,
          "velocity": 0.8818897637795275
        },
        {
          "duration": 0.322916343750002,
          "durationTicks": 341,
          "midi": 70,
          "name": "A#4",
          "ticks": 42480,
          "time": 40.2272325,
          "velocity": 0.8818897637795275
        },
        {
          "duration": 0.10700746874999822,
          "durationTicks": 113,
          "midi": 67,
          "name": "G4",
          "ticks": 42840,
          "time": 40.568141250000004,
          "velocity": 0.7795275590551181
        },
        {
          "duration": 0.21496190625000366,
          "durationTicks": 227,
          "midi": 72,
          "name": "C5",
          "ticks": 43200,
          "time": 40.90905,
          "velocity": 0.6692913385826772
        },
        {
          "duration": 0.3229163437499949,
          "durationTicks": 341,
          "midi": 67,
          "name": "G4",
          "ticks": 43440,
          "time": 41.136322500000006,
          "velocity": 0.5984251968503937
        },
        {
          "duration": 0.3229163437499949,
          "durationTicks": 341,
          "midi": 70,
          "name": "A#4",
          "ticks": 43440,
          "time": 41.136322500000006,
          "velocity": 0.5984251968503937
        },
        {
          "duration": 0.10700746874999822,
          "durationTicks": 113,
          "midi": 67,
          "name": "G4",
          "ticks": 43800,
          "time": 41.47723125,
          "velocity": 0.49606299212598426
        },
        {
          "duration": 0.21496190625000366,
          "durationTicks": 227,
          "midi": 72,
          "name": "C5",
          "ticks": 44160,
          "time": 41.81814,
          "velocity": 0.3858267716535433
        },
        {
          "duration": 0.21496190625000366,
          "durationTicks": 227,
          "midi": 81,
          "name": "A5",
          "ticks": 44160,
          "time": 41.81814,
          "velocity": 0.3858267716535433
        },
        {
          "duration": 0.3399617812499969,
          "durationTicks": 359,
          "midi": 82,
          "name": "A#5",
          "ticks": 44400,
          "time": 42.045412500000005,
          "velocity": 0.3858267716535433
        },
        {
          "duration": 0.680870531250001,
          "durationTicks": 719,
          "midi": 69,
          "name": "A4",
          "ticks": 44400,
          "time": 42.045412500000005,
          "velocity": 0.3858267716535433
        },
        {
          "duration": 0.680870531250001,
          "durationTicks": 719,
          "midi": 70,
          "name": "A#4",
          "ticks": 44400,
          "time": 42.045412500000005,
          "velocity": 0.3858267716535433
        },
        {
          "duration": 0.680870531250001,
          "durationTicks": 719,
          "midi": 74,
          "name": "D5",
          "ticks": 44400,
          "time": 42.045412500000005,
          "velocity": 0.3858267716535433
        },
        {
          "duration": 0.339961781250004,
          "durationTicks": 359,
          "midi": 82,
          "name": "A#5",
          "ticks": 44760,
          "time": 42.38632125,
          "velocity": 0.3858267716535433
        },
        {
          "duration": 0.680870531250001,
          "durationTicks": 719,
          "midi": 82,
          "name": "A#5",
          "ticks": 45120,
          "time": 42.727230000000006,
          "velocity": 0.3858267716535433
        },
        {
          "duration": 0.45359803124999587,
          "durationTicks": 479,
          "midi": 69,
          "name": "A4",
          "ticks": 45120,
          "time": 42.727230000000006,
          "velocity": 0.3858267716535433
        },
        {
          "duration": 0.45359803124999587,
          "durationTicks": 479,
          "midi": 70,
          "name": "A#4",
          "ticks": 45120,
          "time": 42.727230000000006,
          "velocity": 0.3858267716535433
        },
        {
          "duration": 0.45359803124999587,
          "durationTicks": 479,
          "midi": 74,
          "name": "D5",
          "ticks": 45120,
          "time": 42.727230000000006,
          "velocity": 0.3858267716535433
        },
        {
          "duration": 0.22632553125000499,
          "durationTicks": 239,
          "midi": 67,
          "name": "G4",
          "ticks": 45600,
          "time": 43.181775,
          "velocity": 0.3858267716535433
        },
        {
          "duration": 0.22632553125000499,
          "durationTicks": 239,
          "midi": 82,
          "name": "A#5",
          "ticks": 45840,
          "time": 43.4090475,
          "velocity": 0.3858267716535433
        },
        {
          "duration": 0.453598031250003,
          "durationTicks": 479,
          "midi": 70,
          "name": "A#4",
          "ticks": 45840,
          "time": 43.4090475,
          "velocity": 0.3858267716535433
        },
        {
          "duration": 0.453598031250003,
          "durationTicks": 479,
          "midi": 74,
          "name": "D5",
          "ticks": 45840,
          "time": 43.4090475,
          "velocity": 0.3858267716535433
        },
        {
          "duration": 0.22632553124999788,
          "durationTicks": 239,
          "midi": 86,
          "name": "D6",
          "ticks": 46080,
          "time": 43.636320000000005,
          "velocity": 0.3858267716535433
        },
        {
          "duration": 0.339961781250004,
          "durationTicks": 359,
          "midi": 86,
          "name": "D6",
          "ticks": 46320,
          "time": 43.8635925,
          "velocity": 0.3858267716535433
        },
        {
          "duration": 0.680870531250001,
          "durationTicks": 719,
          "midi": 74,
          "name": "D5",
          "ticks": 46320,
          "time": 43.8635925,
          "velocity": 0.3858267716535433
        },
        {
          "duration": 0.680870531250001,
          "durationTicks": 719,
          "midi": 75,
          "name": "D#5",
          "ticks": 46320,
          "time": 43.8635925,
          "velocity": 0.3858267716535433
        },
        {
          "duration": 0.680870531250001,
          "durationTicks": 719,
          "midi": 79,
          "name": "G5",
          "ticks": 46320,
          "time": 43.8635925,
          "velocity": 0.3858267716535433
        },
        {
          "duration": 0.339961781250004,
          "durationTicks": 359,
          "midi": 84,
          "name": "C6",
          "ticks": 46680,
          "time": 44.20450125,
          "velocity": 0.3858267716535433
        },
        {
          "duration": 0.908143031249999,
          "durationTicks": 959,
          "midi": 75,
          "name": "D#5",
          "ticks": 47040,
          "time": 44.545410000000004,
          "velocity": 0.3858267716535433
        },
        {
          "duration": 0.908143031249999,
          "durationTicks": 959,
          "midi": 79,
          "name": "G5",
          "ticks": 47040,
          "time": 44.545410000000004,
          "velocity": 0.3858267716535433
        },
        {
          "duration": 0.908143031249999,
          "durationTicks": 959,
          "midi": 84,
          "name": "C6",
          "ticks": 47040,
          "time": 44.545410000000004,
          "velocity": 0.3858267716535433
        },
        {
          "duration": 0.453598031250003,
          "durationTicks": 479,
          "midi": 70,
          "name": "A#4",
          "ticks": 47040,
          "time": 44.545410000000004,
          "velocity": 0.3858267716535433
        },
        {
          "duration": 0.453598031250003,
          "durationTicks": 479,
          "midi": 74,
          "name": "D5",
          "ticks": 47040,
          "time": 44.545410000000004,
          "velocity": 0.3858267716535433
        },
        {
          "duration": 0.22632553125000499,
          "durationTicks": 239,
          "midi": 63,
          "name": "D#4",
          "ticks": 47520,
          "time": 44.999955,
          "velocity": 0.3858267716535433
        },
        {
          "duration": 0.45359803124999587,
          "durationTicks": 479,
          "midi": 67,
          "name": "G4",
          "ticks": 47760,
          "time": 45.227227500000005,
          "velocity": 0.3858267716535433
        },
        {
          "duration": 0.45359803124999587,
          "durationTicks": 479,
          "midi": 70,
          "name": "A#4",
          "ticks": 47760,
          "time": 45.227227500000005,
          "velocity": 0.3858267716535433
        },
        {
          "duration": 0.22632553124999788,
          "durationTicks": 239,
          "midi": 82,
          "name": "A#5",
          "ticks": 48000,
          "time": 45.4545,
          "velocity": 0.3858267716535433
        },
        {
          "duration": 0.339961781250004,
          "durationTicks": 359,
          "midi": 84,
          "name": "C6",
          "ticks": 48240,
          "time": 45.6817725,
          "velocity": 0.3858267716535433
        },
        {
          "duration": 0.680870531250001,
          "durationTicks": 719,
          "midi": 72,
          "name": "C5",
          "ticks": 48240,
          "time": 45.6817725,
          "velocity": 0.3858267716535433
        },
        {
          "duration": 0.680870531250001,
          "durationTicks": 719,
          "midi": 77,
          "name": "F5",
          "ticks": 48240,
          "time": 45.6817725,
          "velocity": 0.3858267716535433
        },
        {
          "duration": 0.3399617812499969,
          "durationTicks": 359,
          "midi": 82,
          "name": "A#5",
          "ticks": 48600,
          "time": 46.022681250000005,
          "velocity": 0.3858267716535433
        },
        {
          "duration": 0.453598031250003,
          "durationTicks": 479,
          "midi": 77,
          "name": "F5",
          "ticks": 48960,
          "time": 46.36359,
          "velocity": 0.3858267716535433
        },
        {
          "duration": 0.453598031250003,
          "durationTicks": 479,
          "midi": 81,
          "name": "A5",
          "ticks": 48960,
          "time": 46.36359,
          "velocity": 0.3858267716535433
        },
        {
          "duration": 0.453598031250003,
          "durationTicks": 479,
          "midi": 70,
          "name": "A#4",
          "ticks": 48960,
          "time": 46.36359,
          "velocity": 0.3858267716535433
        },
        {
          "duration": 0.453598031250003,
          "durationTicks": 479,
          "midi": 72,
          "name": "C5",
          "ticks": 48960,
          "time": 46.36359,
          "velocity": 0.3858267716535433
        },
        {
          "duration": 0.45359803124999587,
          "durationTicks": 479,
          "midi": 77,
          "name": "F5",
          "ticks": 49440,
          "time": 46.818135000000005,
          "velocity": 0.3858267716535433
        },
        {
          "duration": 0.22632553124999788,
          "durationTicks": 239,
          "midi": 65,
          "name": "F4",
          "ticks": 49440,
          "time": 46.818135000000005,
          "velocity": 0.3858267716535433
        },
        {
          "duration": 0.453598031250003,
          "durationTicks": 479,
          "midi": 70,
          "name": "A#4",
          "ticks": 49680,
          "time": 47.0454075,
          "velocity": 0.3858267716535433
        },
        {
          "duration": 0.453598031250003,
          "durationTicks": 479,
          "midi": 72,
          "name": "C5",
          "ticks": 49680,
          "time": 47.0454075,
          "velocity": 0.3858267716535433
        },
        {
          "duration": 1.5217787812499992,
          "durationTicks": 1607,
          "midi": 74,
          "name": "D5",
          "ticks": 49920,
          "time": 47.27268,
          "velocity": 0.3858267716535433
        },
        {
          "duration": 0.646779656249997,
          "durationTicks": 683,
          "midi": 69,
          "name": "A4",
          "ticks": 50160,
          "time": 47.499952500000006,
          "velocity": 0.3858267716535433
        },
        {
          "duration": 0.646779656249997,
          "durationTicks": 683,
          "midi": 70,
          "name": "A#4",
          "ticks": 50160,
          "time": 47.499952500000006,
          "velocity": 0.3858267716535433
        },
        {
          "duration": 1.0785974062500046,
          "durationTicks": 1139,
          "midi": 69,
          "name": "A4",
          "ticks": 50880,
          "time": 48.18177,
          "velocity": 0.3858267716535433
        },
        {
          "duration": 1.0785974062500046,
          "durationTicks": 1139,
          "midi": 70,
          "name": "A#4",
          "ticks": 50880,
          "time": 48.18177,
          "velocity": 0.3858267716535433
        },
        {
          "duration": 0.22632553124999788,
          "durationTicks": 239,
          "midi": 81,
          "name": "A5",
          "ticks": 51840,
          "time": 49.090860000000006,
          "velocity": 0.3858267716535433
        },
        {
          "duration": 0.22632553124999788,
          "durationTicks": 239,
          "midi": 82,
          "name": "A#5",
          "ticks": 52080,
          "time": 49.318132500000004,
          "velocity": 0.3858267716535433
        },
        {
          "duration": 0.680870531250001,
          "durationTicks": 719,
          "midi": 69,
          "name": "A4",
          "ticks": 52080,
          "time": 49.318132500000004,
          "velocity": 0.3858267716535433
        },
        {
          "duration": 0.680870531250001,
          "durationTicks": 719,
          "midi": 70,
          "name": "A#4",
          "ticks": 52080,
          "time": 49.318132500000004,
          "velocity": 0.3858267716535433
        },
        {
          "duration": 0.680870531250001,
          "durationTicks": 719,
          "midi": 74,
          "name": "D5",
          "ticks": 52080,
          "time": 49.318132500000004,
          "velocity": 0.3858267716535433
        },
        {
          "duration": 0.11268928124999888,
          "durationTicks": 119,
          "midi": 82,
          "name": "A#5",
          "ticks": 52320,
          "time": 49.545405,
          "velocity": 0.3858267716535433
        },
        {
          "duration": 0.79450678125,
          "durationTicks": 839,
          "midi": 82,
          "name": "A#5",
          "ticks": 52440,
          "time": 49.65904125,
          "velocity": 0.3858267716535433
        },
        {
          "duration": 0.45359803124999587,
          "durationTicks": 479,
          "midi": 69,
          "name": "A4",
          "ticks": 52800,
          "time": 49.999950000000005,
          "velocity": 0.3858267716535433
        },
        {
          "duration": 0.45359803124999587,
          "durationTicks": 479,
          "midi": 70,
          "name": "A#4",
          "ticks": 52800,
          "time": 49.999950000000005,
          "velocity": 0.3858267716535433
        },
        {
          "duration": 0.45359803124999587,
          "durationTicks": 479,
          "midi": 74,
          "name": "D5",
          "ticks": 52800,
          "time": 49.999950000000005,
          "velocity": 0.3858267716535433
        },
        {
          "duration": 0.453598031250003,
          "durationTicks": 479,
          "midi": 82,
          "name": "A#5",
          "ticks": 53280,
          "time": 50.454495,
          "velocity": 0.3858267716535433
        },
        {
          "duration": 0.22632553125000499,
          "durationTicks": 239,
          "midi": 67,
          "name": "G4",
          "ticks": 53280,
          "time": 50.454495,
          "velocity": 0.3858267716535433
        },
        {
          "duration": 0.45359803124999587,
          "durationTicks": 479,
          "midi": 70,
          "name": "A#4",
          "ticks": 53520,
          "time": 50.68176750000001,
          "velocity": 0.3858267716535433
        },
        {
          "duration": 0.45359803124999587,
          "durationTicks": 479,
          "midi": 74,
          "name": "D5",
          "ticks": 53520,
          "time": 50.68176750000001,
          "velocity": 0.3858267716535433
        },
        {
          "duration": 0.22632553124999788,
          "durationTicks": 239,
          "midi": 86,
          "name": "D6",
          "ticks": 53760,
          "time": 50.909040000000005,
          "velocity": 0.3858267716535433
        },
        {
          "duration": 0.339961781250004,
          "durationTicks": 359,
          "midi": 86,
          "name": "D6",
          "ticks": 54000,
          "time": 51.1363125,
          "velocity": 0.3858267716535433
        },
        {
          "duration": 0.680870531250001,
          "durationTicks": 719,
          "midi": 74,
          "name": "D5",
          "ticks": 54000,
          "time": 51.1363125,
          "velocity": 0.3858267716535433
        },
        {
          "duration": 0.680870531250001,
          "durationTicks": 719,
          "midi": 75,
          "name": "D#5",
          "ticks": 54000,
          "time": 51.1363125,
          "velocity": 0.3858267716535433
        },
        {
          "duration": 0.680870531250001,
          "durationTicks": 719,
          "midi": 79,
          "name": "G5",
          "ticks": 54000,
          "time": 51.1363125,
          "velocity": 0.3858267716535433
        },
        {
          "duration": 0.3399617812499969,
          "durationTicks": 359,
          "midi": 84,
          "name": "C6",
          "ticks": 54360,
          "time": 51.47722125000001,
          "velocity": 0.3858267716535433
        },
        {
          "duration": 0.453598031250003,
          "durationTicks": 479,
          "midi": 75,
          "name": "D#5",
          "ticks": 54720,
          "time": 51.818130000000004,
          "velocity": 0.3858267716535433
        },
        {
          "duration": 0.453598031250003,
          "durationTicks": 479,
          "midi": 79,
          "name": "G5",
          "ticks": 54720,
          "time": 51.818130000000004,
          "velocity": 0.3858267716535433
        },
        {
          "duration": 0.453598031250003,
          "durationTicks": 479,
          "midi": 84,
          "name": "C6",
          "ticks": 54720,
          "time": 51.818130000000004,
          "velocity": 0.3858267716535433
        },
        {
          "duration": 0.453598031250003,
          "durationTicks": 479,
          "midi": 70,
          "name": "A#4",
          "ticks": 54720,
          "time": 51.818130000000004,
          "velocity": 0.3858267716535433
        },
        {
          "duration": 0.453598031250003,
          "durationTicks": 479,
          "midi": 74,
          "name": "D5",
          "ticks": 54720,
          "time": 51.818130000000004,
          "velocity": 0.3858267716535433
        },
        {
          "duration": 0.680870531250001,
          "durationTicks": 719,
          "midi": 82,
          "name": "A#5",
          "ticks": 55200,
          "time": 52.27267500000001,
          "velocity": 0.3858267716535433
        },
        {
          "duration": 0.22632553124999788,
          "durationTicks": 239,
          "midi": 63,
          "name": "D#4",
          "ticks": 55200,
          "time": 52.27267500000001,
          "velocity": 0.3858267716535433
        },
        {
          "duration": 0.453598031250003,
          "durationTicks": 479,
          "midi": 67,
          "name": "G4",
          "ticks": 55440,
          "time": 52.499947500000005,
          "velocity": 0.3858267716535433
        },
        {
          "duration": 0.453598031250003,
          "durationTicks": 479,
          "midi": 70,
          "name": "A#4",
          "ticks": 55440,
          "time": 52.499947500000005,
          "velocity": 0.3858267716535433
        },
        {
          "duration": 0.453598031250003,
          "durationTicks": 479,
          "midi": 86,
          "name": "D6",
          "ticks": 55920,
          "time": 52.9544925,
          "velocity": 0.3858267716535433
        },
        {
          "duration": 0.680870531250001,
          "durationTicks": 719,
          "midi": 74,
          "name": "D5",
          "ticks": 55920,
          "time": 52.9544925,
          "velocity": 0.3858267716535433
        },
        {
          "duration": 0.680870531250001,
          "durationTicks": 719,
          "midi": 77,
          "name": "F5",
          "ticks": 55920,
          "time": 52.9544925,
          "velocity": 0.3858267716535433
        },
        {
          "duration": 0.680870531250001,
          "durationTicks": 719,
          "midi": 82,
          "name": "A#5",
          "ticks": 55920,
          "time": 52.9544925,
          "velocity": 0.3858267716535433
        },
        {
          "duration": 0.22632553124999788,
          "durationTicks": 239,
          "midi": 84,
          "name": "C6",
          "ticks": 56400,
          "time": 53.409037500000004,
          "velocity": 0.3858267716535433
        },
        {
          "duration": 0.680870531250001,
          "durationTicks": 719,
          "midi": 74,
          "name": "D5",
          "ticks": 56640,
          "time": 53.63631,
          "velocity": 0.3858267716535433
        },
        {
          "duration": 0.680870531250001,
          "durationTicks": 719,
          "midi": 77,
          "name": "F5",
          "ticks": 56640,
          "time": 53.63631,
          "velocity": 0.3858267716535433
        },
        {
          "duration": 0.680870531250001,
          "durationTicks": 719,
          "midi": 84,
          "name": "C6",
          "ticks": 56640,
          "time": 53.63631,
          "velocity": 0.3858267716535433
        },
        {
          "duration": 0.453598031250003,
          "durationTicks": 479,
          "midi": 69,
          "name": "A4",
          "ticks": 56640,
          "time": 53.63631,
          "velocity": 0.3858267716535433
        },
        {
          "duration": 0.453598031250003,
          "durationTicks": 479,
          "midi": 72,
          "name": "C5",
          "ticks": 56640,
          "time": 53.63631,
          "velocity": 0.3858267716535433
        },
        {
          "duration": 0.22632553124999788,
          "durationTicks": 239,
          "midi": 65,
          "name": "F4",
          "ticks": 57120,
          "time": 54.090855000000005,
          "velocity": 0.3858267716535433
        },
        {
          "duration": 0.22632553125000499,
          "durationTicks": 239,
          "midi": 81,
          "name": "A5",
          "ticks": 57360,
          "time": 54.3181275,
          "velocity": 0.3858267716535433
        },
        {
          "duration": 0.453598031250003,
          "durationTicks": 479,
          "midi": 69,
          "name": "A4",
          "ticks": 57360,
          "time": 54.3181275,
          "velocity": 0.3858267716535433
        },
        {
          "duration": 0.453598031250003,
          "durationTicks": 479,
          "midi": 72,
          "name": "C5",
          "ticks": 57360,
          "time": 54.3181275,
          "velocity": 0.3858267716535433
        },
        {
          "duration": 0.8740521562500021,
          "durationTicks": 923,
          "midi": 82,
          "name": "A#5",
          "ticks": 57600,
          "time": 54.5454,
          "velocity": 0.3858267716535433
        },
        {
          "duration": 0.646779656249997,
          "durationTicks": 683,
          "midi": 70,
          "name": "A#4",
          "ticks": 57840,
          "time": 54.772672500000006,
          "velocity": 0.3858267716535433
        },
        {
          "duration": 0.646779656249997,
          "durationTicks": 683,
          "midi": 74,
          "name": "D5",
          "ticks": 57840,
          "time": 54.772672500000006,
          "velocity": 0.3858267716535433
        },
        {
          "duration": 0.21496190624999656,
          "durationTicks": 227,
          "midi": 62,
          "name": "D4",
          "ticks": 58560,
          "time": 55.45449000000001,
          "velocity": 0.3858267716535433
        },
        {
          "duration": 0.43087078125000033,
          "durationTicks": 455,
          "midi": 60,
          "name": "C4",
          "ticks": 58800,
          "time": 55.681762500000005,
          "velocity": 0.3858267716535433
        },
        {
          "duration": 0.21496190624999656,
          "durationTicks": 227,
          "midi": 65,
          "name": "F4",
          "ticks": 59520,
          "time": 56.363580000000006,
          "velocity": 0.5039370078740157
        },
        {
          "duration": 0.21496190624999656,
          "durationTicks": 227,
          "midi": 65,
          "name": "F4",
          "ticks": 59760,
          "time": 56.590852500000004,
          "velocity": 0.5039370078740157
        },
        {
          "duration": 0.10700746874999822,
          "durationTicks": 113,
          "midi": 62,
          "name": "D4",
          "ticks": 60000,
          "time": 56.818125,
          "velocity": 0.5039370078740157
        },
        {
          "duration": 0.10700746875000533,
          "durationTicks": 113,
          "midi": 62,
          "name": "D4",
          "ticks": 60120,
          "time": 56.93176125,
          "velocity": 0.5118110236220472
        },
        {
          "duration": 0.21496190624999656,
          "durationTicks": 227,
          "midi": 69,
          "name": "A4",
          "ticks": 60480,
          "time": 57.272670000000005,
          "velocity": 0.5196850393700787
        },
        {
          "duration": 0.21496190624999656,
          "durationTicks": 227,
          "midi": 62,
          "name": "D4",
          "ticks": 60480,
          "time": 57.272670000000005,
          "velocity": 0.5196850393700787
        },
        {
          "duration": 0.21496190624999656,
          "durationTicks": 227,
          "midi": 70,
          "name": "A#4",
          "ticks": 60720,
          "time": 57.4999425,
          "velocity": 0.5275590551181102
        },
        {
          "duration": 0.21496190624999656,
          "durationTicks": 227,
          "midi": 60,
          "name": "C4",
          "ticks": 60720,
          "time": 57.4999425,
          "velocity": 0.5275590551181102
        },
        {
          "duration": 0.10700746875000533,
          "durationTicks": 113,
          "midi": 69,
          "name": "A4",
          "ticks": 60960,
          "time": 57.727215,
          "velocity": 0.5354330708661418
        },
        {
          "duration": 0.10700746875000533,
          "durationTicks": 113,
          "midi": 62,
          "name": "D4",
          "ticks": 60960,
          "time": 57.727215,
          "velocity": 0.5354330708661418
        },
        {
          "duration": 0.10700746874999822,
          "durationTicks": 113,
          "midi": 69,
          "name": "A4",
          "ticks": 61080,
          "time": 57.84085125000001,
          "velocity": 0.5433070866141733
        },
        {
          "duration": 0.10700746874999822,
          "durationTicks": 113,
          "midi": 62,
          "name": "D4",
          "ticks": 61080,
          "time": 57.84085125000001,
          "velocity": 0.5433070866141733
        },
        {
          "duration": 0.21496190624999656,
          "durationTicks": 227,
          "midi": 65,
          "name": "F4",
          "ticks": 61440,
          "time": 58.181760000000004,
          "velocity": 0.5511811023622047
        },
        {
          "duration": 0.21496190625000366,
          "durationTicks": 227,
          "midi": 65,
          "name": "F4",
          "ticks": 61680,
          "time": 58.4090325,
          "velocity": 0.5590551181102362
        },
        {
          "duration": 0.10700746875000533,
          "durationTicks": 113,
          "midi": 62,
          "name": "D4",
          "ticks": 61920,
          "time": 58.63630500000001,
          "velocity": 0.5669291338582677
        },
        {
          "duration": 0.10700746875000533,
          "durationTicks": 113,
          "midi": 62,
          "name": "D4",
          "ticks": 62040,
          "time": 58.749941250000006,
          "velocity": 0.5669291338582677
        },
        {
          "duration": 0.21496190624999656,
          "durationTicks": 227,
          "midi": 69,
          "name": "A4",
          "ticks": 62400,
          "time": 59.09085,
          "velocity": 0.5826771653543307
        },
        {
          "duration": 0.21496190624999656,
          "durationTicks": 227,
          "midi": 62,
          "name": "D4",
          "ticks": 62400,
          "time": 59.09085,
          "velocity": 0.5826771653543307
        },
        {
          "duration": 0.21496190625000366,
          "durationTicks": 227,
          "midi": 70,
          "name": "A#4",
          "ticks": 62640,
          "time": 59.3181225,
          "velocity": 0.5826771653543307
        },
        {
          "duration": 0.21496190625000366,
          "durationTicks": 227,
          "midi": 60,
          "name": "C4",
          "ticks": 62640,
          "time": 59.3181225,
          "velocity": 0.5826771653543307
        },
        {
          "duration": 0.10700746875000533,
          "durationTicks": 113,
          "midi": 69,
          "name": "A4",
          "ticks": 62880,
          "time": 59.545395000000006,
          "velocity": 0.5905511811023622
        },
        {
          "duration": 0.10700746875000533,
          "durationTicks": 113,
          "midi": 62,
          "name": "D4",
          "ticks": 62880,
          "time": 59.545395000000006,
          "velocity": 0.5905511811023622
        },
        {
          "duration": 0.10700746875000533,
          "durationTicks": 113,
          "midi": 69,
          "name": "A4",
          "ticks": 63000,
          "time": 59.659031250000005,
          "velocity": 0.5984251968503937
        },
        {
          "duration": 0.10700746875000533,
          "durationTicks": 113,
          "midi": 62,
          "name": "D4",
          "ticks": 63000,
          "time": 59.659031250000005,
          "velocity": 0.5984251968503937
        },
        {
          "duration": 0.21496190625000366,
          "durationTicks": 227,
          "midi": 65,
          "name": "F4",
          "ticks": 63360,
          "time": 59.99994,
          "velocity": 0.6062992125984252
        },
        {
          "duration": 0.21496190624999656,
          "durationTicks": 227,
          "midi": 65,
          "name": "F4",
          "ticks": 63600,
          "time": 60.22721250000001,
          "velocity": 0.6141732283464567
        },
        {
          "duration": 0.10700746875000533,
          "durationTicks": 113,
          "midi": 62,
          "name": "D4",
          "ticks": 63840,
          "time": 60.454485000000005,
          "velocity": 0.6220472440944882
        },
        {
          "duration": 0.10700746875000533,
          "durationTicks": 113,
          "midi": 62,
          "name": "D4",
          "ticks": 63960,
          "time": 60.568121250000004,
          "velocity": 0.6299212598425197
        },
        {
          "duration": 0.21496190625000366,
          "durationTicks": 227,
          "midi": 65,
          "name": "F4",
          "ticks": 64320,
          "time": 60.90903,
          "velocity": 0.6299212598425197
        },
        {
          "duration": 0.21496190625000366,
          "durationTicks": 227,
          "midi": 70,
          "name": "A#4",
          "ticks": 64320,
          "time": 60.90903,
          "velocity": 0.6299212598425197
        },
        {
          "duration": 0.21496190625000366,
          "durationTicks": 227,
          "midi": 74,
          "name": "D5",
          "ticks": 64320,
          "time": 60.90903,
          "velocity": 0.6299212598425197
        },
        {
          "duration": 0.21496190625000366,
          "durationTicks": 227,
          "midi": 62,
          "name": "D4",
          "ticks": 64320,
          "time": 60.90903,
          "velocity": 0.6299212598425197
        },
        {
          "duration": 0.21496190624999656,
          "durationTicks": 227,
          "midi": 65,
          "name": "F4",
          "ticks": 64560,
          "time": 61.136302500000006,
          "velocity": 0.6535433070866141
        },
        {
          "duration": 0.21496190624999656,
          "durationTicks": 227,
          "midi": 69,
          "name": "A4",
          "ticks": 64560,
          "time": 61.136302500000006,
          "velocity": 0.6535433070866141
        },
        {
          "duration": 0.21496190624999656,
          "durationTicks": 227,
          "midi": 72,
          "name": "C5",
          "ticks": 64560,
          "time": 61.136302500000006,
          "velocity": 0.6535433070866141
        },
        {
          "duration": 0.21496190624999656,
          "durationTicks": 227,
          "midi": 60,
          "name": "C4",
          "ticks": 64560,
          "time": 61.136302500000006,
          "velocity": 0.6535433070866141
        },
        {
          "duration": 0.05587115624999939,
          "durationTicks": 59,
          "midi": 70,
          "name": "A#4",
          "ticks": 64920,
          "time": 61.47721125,
          "velocity": 0.6929133858267716
        },
        {
          "duration": 0.05587115624999939,
          "durationTicks": 59,
          "midi": 74,
          "name": "D5",
          "ticks": 64920,
          "time": 61.47721125,
          "velocity": 0.6929133858267716
        },
        {
          "duration": 0.05587115624999939,
          "durationTicks": 59,
          "midi": 62,
          "name": "D4",
          "ticks": 64920,
          "time": 61.47721125,
          "velocity": 0.6929133858267716
        },
        {
          "duration": 0.05587115624999939,
          "durationTicks": 59,
          "midi": 65,
          "name": "F4",
          "ticks": 64920,
          "time": 61.47721125,
          "velocity": 0.6929133858267716
        },
        {
          "duration": 0.6467796562500041,
          "durationTicks": 683,
          "midi": 70,
          "name": "A#4",
          "ticks": 65280,
          "time": 61.81812000000001,
          "velocity": 0.7244094488188977
        },
        {
          "duration": 0.6467796562500041,
          "durationTicks": 683,
          "midi": 74,
          "name": "D5",
          "ticks": 65280,
          "time": 61.81812000000001,
          "velocity": 0.7244094488188977
        },
        {
          "duration": 0.6467796562500041,
          "durationTicks": 683,
          "midi": 62,
          "name": "D4",
          "ticks": 65280,
          "time": 61.81812000000001,
          "velocity": 0.7244094488188977
        },
        {
          "duration": 0.6467796562500041,
          "durationTicks": 683,
          "midi": 65,
          "name": "F4",
          "ticks": 65280,
          "time": 61.81812000000001,
          "velocity": 0.7244094488188977
        },
        {
          "duration": 0.43087078124999323,
          "durationTicks": 455,
          "midi": 74,
          "name": "D5",
          "ticks": 66480,
          "time": 62.954482500000005,
          "velocity": 0.7559055118110236
        },
        {
          "duration": 0.43087078124999323,
          "durationTicks": 455,
          "midi": 77,
          "name": "F5",
          "ticks": 66480,
          "time": 62.954482500000005,
          "velocity": 0.7559055118110236
        },
        {
          "duration": 0.43087078124999323,
          "durationTicks": 455,
          "midi": 82,
          "name": "A#5",
          "ticks": 66480,
          "time": 62.954482500000005,
          "velocity": 0.7559055118110236
        },
        {
          "duration": 0.43087078124999323,
          "durationTicks": 455,
          "midi": 86,
          "name": "D6",
          "ticks": 66480,
          "time": 62.954482500000005,
          "velocity": 0.7559055118110236
        },
        {
          "duration": 0.43087078124999323,
          "durationTicks": 455,
          "midi": 72,
          "name": "C5",
          "ticks": 66960,
          "time": 63.40902750000001,
          "velocity": 0.7559055118110236
        },
        {
          "duration": 0.43087078124999323,
          "durationTicks": 455,
          "midi": 77,
          "name": "F5",
          "ticks": 66960,
          "time": 63.40902750000001,
          "velocity": 0.7559055118110236
        },
        {
          "duration": 0.43087078124999323,
          "durationTicks": 455,
          "midi": 81,
          "name": "A5",
          "ticks": 66960,
          "time": 63.40902750000001,
          "velocity": 0.7559055118110236
        },
        {
          "duration": 0.43087078124999323,
          "durationTicks": 455,
          "midi": 84,
          "name": "C6",
          "ticks": 66960,
          "time": 63.40902750000001,
          "velocity": 0.7559055118110236
        },
        {
          "duration": 0.3229163437500091,
          "durationTicks": 341,
          "midi": 74,
          "name": "D5",
          "ticks": 67440,
          "time": 63.863572500000004,
          "velocity": 0.7559055118110236
        },
        {
          "duration": 0.3229163437500091,
          "durationTicks": 341,
          "midi": 79,
          "name": "G5",
          "ticks": 67440,
          "time": 63.863572500000004,
          "velocity": 0.7559055118110236
        },
        {
          "duration": 0.3229163437500091,
          "durationTicks": 341,
          "midi": 82,
          "name": "A#5",
          "ticks": 67440,
          "time": 63.863572500000004,
          "velocity": 0.7559055118110236
        },
        {
          "duration": 0.3229163437500091,
          "durationTicks": 341,
          "midi": 86,
          "name": "D6",
          "ticks": 67440,
          "time": 63.863572500000004,
          "velocity": 0.7559055118110236
        },
        {
          "duration": 0.3229163437500091,
          "durationTicks": 341,
          "midi": 72,
          "name": "C5",
          "ticks": 67800,
          "time": 64.20448125,
          "velocity": 0.7559055118110236
        },
        {
          "duration": 0.3229163437500091,
          "durationTicks": 341,
          "midi": 75,
          "name": "D#5",
          "ticks": 67800,
          "time": 64.20448125,
          "velocity": 0.7559055118110236
        },
        {
          "duration": 0.3229163437500091,
          "durationTicks": 341,
          "midi": 79,
          "name": "G5",
          "ticks": 67800,
          "time": 64.20448125,
          "velocity": 0.7559055118110236
        },
        {
          "duration": 0.3229163437500091,
          "durationTicks": 341,
          "midi": 84,
          "name": "C6",
          "ticks": 67800,
          "time": 64.20448125,
          "velocity": 0.7559055118110236
        },
        {
          "duration": 0.21496190625001077,
          "durationTicks": 227,
          "midi": 72,
          "name": "C5",
          "ticks": 68160,
          "time": 64.54539,
          "velocity": 0.7559055118110236
        },
        {
          "duration": 0.21496190625001077,
          "durationTicks": 227,
          "midi": 75,
          "name": "D#5",
          "ticks": 68160,
          "time": 64.54539,
          "velocity": 0.7559055118110236
        },
        {
          "duration": 0.21496190625001077,
          "durationTicks": 227,
          "midi": 79,
          "name": "G5",
          "ticks": 68160,
          "time": 64.54539,
          "velocity": 0.7559055118110236
        },
        {
          "duration": 0.21496190625001077,
          "durationTicks": 227,
          "midi": 84,
          "name": "C6",
          "ticks": 68160,
          "time": 64.54539,
          "velocity": 0.7559055118110236
        },
        {
          "duration": 0.3229163437499949,
          "durationTicks": 341,
          "midi": 72,
          "name": "C5",
          "ticks": 68400,
          "time": 64.77266250000001,
          "velocity": 0.7559055118110236
        },
        {
          "duration": 0.3229163437499949,
          "durationTicks": 341,
          "midi": 75,
          "name": "D#5",
          "ticks": 68400,
          "time": 64.77266250000001,
          "velocity": 0.7559055118110236
        },
        {
          "duration": 0.3229163437499949,
          "durationTicks": 341,
          "midi": 79,
          "name": "G5",
          "ticks": 68400,
          "time": 64.77266250000001,
          "velocity": 0.7559055118110236
        },
        {
          "duration": 0.3229163437499949,
          "durationTicks": 341,
          "midi": 84,
          "name": "C6",
          "ticks": 68400,
          "time": 64.77266250000001,
          "velocity": 0.7559055118110236
        },
        {
          "duration": 0.3229163437499949,
          "durationTicks": 341,
          "midi": 70,
          "name": "A#4",
          "ticks": 68760,
          "time": 65.11357125,
          "velocity": 0.7559055118110236
        },
        {
          "duration": 0.3229163437499949,
          "durationTicks": 341,
          "midi": 75,
          "name": "D#5",
          "ticks": 68760,
          "time": 65.11357125,
          "velocity": 0.7559055118110236
        },
        {
          "duration": 0.3229163437499949,
          "durationTicks": 341,
          "midi": 79,
          "name": "G5",
          "ticks": 68760,
          "time": 65.11357125,
          "velocity": 0.7559055118110236
        },
        {
          "duration": 0.3229163437499949,
          "durationTicks": 341,
          "midi": 82,
          "name": "A#5",
          "ticks": 68760,
          "time": 65.11357125,
          "velocity": 0.7559055118110236
        },
        {
          "duration": 0.43087078124999323,
          "durationTicks": 455,
          "midi": 69,
          "name": "A4",
          "ticks": 69120,
          "time": 65.45448,
          "velocity": 0.7559055118110236
        },
        {
          "duration": 0.43087078124999323,
          "durationTicks": 455,
          "midi": 72,
          "name": "C5",
          "ticks": 69120,
          "time": 65.45448,
          "velocity": 0.7559055118110236
        },
        {
          "duration": 0.43087078124999323,
          "durationTicks": 455,
          "midi": 77,
          "name": "F5",
          "ticks": 69120,
          "time": 65.45448,
          "velocity": 0.7559055118110236
        },
        {
          "duration": 0.43087078124999323,
          "durationTicks": 455,
          "midi": 81,
          "name": "A5",
          "ticks": 69120,
          "time": 65.45448,
          "velocity": 0.7559055118110236
        },
        {
          "duration": 0.43087078125000744,
          "durationTicks": 455,
          "midi": 70,
          "name": "A#4",
          "ticks": 69600,
          "time": 65.909025,
          "velocity": 0.7559055118110236
        },
        {
          "duration": 0.43087078125000744,
          "durationTicks": 455,
          "midi": 74,
          "name": "D5",
          "ticks": 69600,
          "time": 65.909025,
          "velocity": 0.7559055118110236
        },
        {
          "duration": 0.43087078125000744,
          "durationTicks": 455,
          "midi": 77,
          "name": "F5",
          "ticks": 69600,
          "time": 65.909025,
          "velocity": 0.7559055118110236
        },
        {
          "duration": 0.43087078125000744,
          "durationTicks": 455,
          "midi": 82,
          "name": "A#5",
          "ticks": 69600,
          "time": 65.909025,
          "velocity": 0.7559055118110236
        },
        {
          "duration": 0.43087078124999323,
          "durationTicks": 455,
          "midi": 69,
          "name": "A4",
          "ticks": 70080,
          "time": 66.36357000000001,
          "velocity": 0.7559055118110236
        },
        {
          "duration": 0.43087078124999323,
          "durationTicks": 455,
          "midi": 72,
          "name": "C5",
          "ticks": 70080,
          "time": 66.36357000000001,
          "velocity": 0.7559055118110236
        },
        {
          "duration": 0.43087078124999323,
          "durationTicks": 455,
          "midi": 77,
          "name": "F5",
          "ticks": 70080,
          "time": 66.36357000000001,
          "velocity": 0.7559055118110236
        },
        {
          "duration": 0.43087078124999323,
          "durationTicks": 455,
          "midi": 81,
          "name": "A5",
          "ticks": 70080,
          "time": 66.36357000000001,
          "velocity": 0.7559055118110236
        },
        {
          "duration": 0.6467796562500041,
          "durationTicks": 683,
          "midi": 69,
          "name": "A4",
          "ticks": 70560,
          "time": 66.818115,
          "velocity": 0.7559055118110236
        },
        {
          "duration": 0.6467796562500041,
          "durationTicks": 683,
          "midi": 72,
          "name": "C5",
          "ticks": 70560,
          "time": 66.818115,
          "velocity": 0.7559055118110236
        },
        {
          "duration": 0.6467796562500041,
          "durationTicks": 683,
          "midi": 77,
          "name": "F5",
          "ticks": 70560,
          "time": 66.818115,
          "velocity": 0.7559055118110236
        },
        {
          "duration": 0.3229163437500091,
          "durationTicks": 341,
          "midi": 74,
          "name": "D5",
          "ticks": 71280,
          "time": 67.4999325,
          "velocity": 0.7559055118110236
        },
        {
          "duration": 0.3229163437500091,
          "durationTicks": 341,
          "midi": 79,
          "name": "G5",
          "ticks": 71280,
          "time": 67.4999325,
          "velocity": 0.7559055118110236
        },
        {
          "duration": 0.3229163437500091,
          "durationTicks": 341,
          "midi": 82,
          "name": "A#5",
          "ticks": 71280,
          "time": 67.4999325,
          "velocity": 0.7559055118110236
        },
        {
          "duration": 0.3229163437500091,
          "durationTicks": 341,
          "midi": 86,
          "name": "D6",
          "ticks": 71280,
          "time": 67.4999325,
          "velocity": 0.7559055118110236
        },
        {
          "duration": 0.3229163437499949,
          "durationTicks": 341,
          "midi": 72,
          "name": "C5",
          "ticks": 71640,
          "time": 67.84084125000001,
          "velocity": 0.7559055118110236
        },
        {
          "duration": 0.3229163437499949,
          "durationTicks": 341,
          "midi": 77,
          "name": "F5",
          "ticks": 71640,
          "time": 67.84084125000001,
          "velocity": 0.7559055118110236
        },
        {
          "duration": 0.3229163437499949,
          "durationTicks": 341,
          "midi": 81,
          "name": "A5",
          "ticks": 71640,
          "time": 67.84084125000001,
          "velocity": 0.7559055118110236
        },
        {
          "duration": 0.3229163437499949,
          "durationTicks": 341,
          "midi": 84,
          "name": "C6",
          "ticks": 71640,
          "time": 67.84084125000001,
          "velocity": 0.7559055118110236
        },
        {
          "duration": 0.43087078124999323,
          "durationTicks": 455,
          "midi": 72,
          "name": "C5",
          "ticks": 72000,
          "time": 68.18175000000001,
          "velocity": 0.7559055118110236
        },
        {
          "duration": 0.43087078124999323,
          "durationTicks": 455,
          "midi": 77,
          "name": "F5",
          "ticks": 72000,
          "time": 68.18175000000001,
          "velocity": 0.7559055118110236
        },
        {
          "duration": 0.43087078124999323,
          "durationTicks": 455,
          "midi": 81,
          "name": "A5",
          "ticks": 72000,
          "time": 68.18175000000001,
          "velocity": 0.7559055118110236
        },
        {
          "duration": 0.43087078124999323,
          "durationTicks": 455,
          "midi": 84,
          "name": "C6",
          "ticks": 72000,
          "time": 68.18175000000001,
          "velocity": 0.7559055118110236
        },
        {
          "duration": 0.43087078124999323,
          "durationTicks": 455,
          "midi": 70,
          "name": "A#4",
          "ticks": 72480,
          "time": 68.636295,
          "velocity": 0.7559055118110236
        },
        {
          "duration": 0.43087078124999323,
          "durationTicks": 455,
          "midi": 74,
          "name": "D5",
          "ticks": 72480,
          "time": 68.636295,
          "velocity": 0.7559055118110236
        },
        {
          "duration": 0.43087078124999323,
          "durationTicks": 455,
          "midi": 79,
          "name": "G5",
          "ticks": 72480,
          "time": 68.636295,
          "velocity": 0.7559055118110236
        },
        {
          "duration": 0.43087078124999323,
          "durationTicks": 455,
          "midi": 82,
          "name": "A#5",
          "ticks": 72480,
          "time": 68.636295,
          "velocity": 0.7559055118110236
        },
        {
          "duration": 0.21496190624999656,
          "durationTicks": 227,
          "midi": 70,
          "name": "A#4",
          "ticks": 72960,
          "time": 69.09084,
          "velocity": 0.7559055118110236
        },
        {
          "duration": 0.21496190624999656,
          "durationTicks": 227,
          "midi": 82,
          "name": "A#5",
          "ticks": 72960,
          "time": 69.09084,
          "velocity": 0.7559055118110236
        },
        {
          "duration": 0.3229163437500091,
          "durationTicks": 341,
          "midi": 69,
          "name": "A4",
          "ticks": 73200,
          "time": 69.3181125,
          "velocity": 0.7559055118110236
        },
        {
          "duration": 0.3229163437500091,
          "durationTicks": 341,
          "midi": 74,
          "name": "D5",
          "ticks": 73200,
          "time": 69.3181125,
          "velocity": 0.7559055118110236
        },
        {
          "duration": 0.3229163437500091,
          "durationTicks": 341,
          "midi": 77,
          "name": "F5",
          "ticks": 73200,
          "time": 69.3181125,
          "velocity": 0.7559055118110236
        },
        {
          "duration": 0.3229163437500091,
          "durationTicks": 341,
          "midi": 81,
          "name": "A5",
          "ticks": 73200,
          "time": 69.3181125,
          "velocity": 0.7559055118110236
        },
        {
          "duration": 0.3229163437499949,
          "durationTicks": 341,
          "midi": 70,
          "name": "A#4",
          "ticks": 73560,
          "time": 69.65902125000001,
          "velocity": 0.7559055118110236
        },
        {
          "duration": 0.3229163437499949,
          "durationTicks": 341,
          "midi": 74,
          "name": "D5",
          "ticks": 73560,
          "time": 69.65902125000001,
          "velocity": 0.7559055118110236
        },
        {
          "duration": 0.3229163437499949,
          "durationTicks": 341,
          "midi": 77,
          "name": "F5",
          "ticks": 73560,
          "time": 69.65902125000001,
          "velocity": 0.7559055118110236
        },
        {
          "duration": 0.3229163437499949,
          "durationTicks": 341,
          "midi": 82,
          "name": "A#5",
          "ticks": 73560,
          "time": 69.65902125000001,
          "velocity": 0.7559055118110236
        },
        {
          "duration": 0.43087078124999323,
          "durationTicks": 455,
          "midi": 77,
          "name": "F5",
          "ticks": 73920,
          "time": 69.99993,
          "velocity": 0.7559055118110236
        },
        {
          "duration": 0.43087078124999323,
          "durationTicks": 455,
          "midi": 81,
          "name": "A5",
          "ticks": 73920,
          "time": 69.99993,
          "velocity": 0.7559055118110236
        },
        {
          "duration": 0.43087078124999323,
          "durationTicks": 455,
          "midi": 86,
          "name": "D6",
          "ticks": 73920,
          "time": 69.99993,
          "velocity": 0.7559055118110236
        },
        {
          "duration": 0.43087078124999323,
          "durationTicks": 455,
          "midi": 89,
          "name": "F6",
          "ticks": 73920,
          "time": 69.99993,
          "velocity": 0.7559055118110236
        },
        {
          "duration": 0.43087078124999323,
          "durationTicks": 455,
          "midi": 69,
          "name": "A4",
          "ticks": 74400,
          "time": 70.454475,
          "velocity": 0.7559055118110236
        },
        {
          "duration": 0.43087078124999323,
          "durationTicks": 455,
          "midi": 74,
          "name": "D5",
          "ticks": 74400,
          "time": 70.454475,
          "velocity": 0.7559055118110236
        },
        {
          "duration": 0.43087078124999323,
          "durationTicks": 455,
          "midi": 77,
          "name": "F5",
          "ticks": 74400,
          "time": 70.454475,
          "velocity": 0.7559055118110236
        },
        {
          "duration": 0.43087078124999323,
          "durationTicks": 455,
          "midi": 81,
          "name": "A5",
          "ticks": 74400,
          "time": 70.454475,
          "velocity": 0.7559055118110236
        },
        {
          "duration": 0.21496190625001077,
          "durationTicks": 227,
          "midi": 70,
          "name": "A#4",
          "ticks": 74880,
          "time": 70.90902,
          "velocity": 0.7559055118110236
        },
        {
          "duration": 0.21496190625001077,
          "durationTicks": 227,
          "midi": 82,
          "name": "A#5",
          "ticks": 74880,
          "time": 70.90902,
          "velocity": 0.7559055118110236
        },
        {
          "duration": 0.3229163437499949,
          "durationTicks": 341,
          "midi": 79,
          "name": "G5",
          "ticks": 75120,
          "time": 71.13629250000001,
          "velocity": 0.7559055118110236
        },
        {
          "duration": 0.3229163437499949,
          "durationTicks": 341,
          "midi": 82,
          "name": "A#5",
          "ticks": 75120,
          "time": 71.13629250000001,
          "velocity": 0.7559055118110236
        },
        {
          "duration": 0.3229163437499949,
          "durationTicks": 341,
          "midi": 87,
          "name": "D#6",
          "ticks": 75120,
          "time": 71.13629250000001,
          "velocity": 0.7559055118110236
        },
        {
          "duration": 0.3229163437499949,
          "durationTicks": 341,
          "midi": 91,
          "name": "G6",
          "ticks": 75120,
          "time": 71.13629250000001,
          "velocity": 0.7559055118110236
        },
        {
          "duration": 0.3229163437499949,
          "durationTicks": 341,
          "midi": 77,
          "name": "F5",
          "ticks": 75480,
          "time": 71.47720125000001,
          "velocity": 0.7559055118110236
        },
        {
          "duration": 0.3229163437499949,
          "durationTicks": 341,
          "midi": 82,
          "name": "A#5",
          "ticks": 75480,
          "time": 71.47720125000001,
          "velocity": 0.7559055118110236
        },
        {
          "duration": 0.3229163437499949,
          "durationTicks": 341,
          "midi": 86,
          "name": "D6",
          "ticks": 75480,
          "time": 71.47720125000001,
          "velocity": 0.7559055118110236
        },
        {
          "duration": 0.3229163437499949,
          "durationTicks": 341,
          "midi": 89,
          "name": "F6",
          "ticks": 75480,
          "time": 71.47720125000001,
          "velocity": 0.7559055118110236
        },
        {
          "duration": 0.43087078124999323,
          "durationTicks": 455,
          "midi": 74,
          "name": "D5",
          "ticks": 75840,
          "time": 71.81811,
          "velocity": 0.7559055118110236
        },
        {
          "duration": 0.43087078124999323,
          "durationTicks": 455,
          "midi": 77,
          "name": "F5",
          "ticks": 75840,
          "time": 71.81811,
          "velocity": 0.7559055118110236
        },
        {
          "duration": 0.43087078124999323,
          "durationTicks": 455,
          "midi": 82,
          "name": "A#5",
          "ticks": 75840,
          "time": 71.81811,
          "velocity": 0.7559055118110236
        },
        {
          "duration": 0.43087078124999323,
          "durationTicks": 455,
          "midi": 86,
          "name": "D6",
          "ticks": 75840,
          "time": 71.81811,
          "velocity": 0.7559055118110236
        },
        {
          "duration": 0.43087078125000744,
          "durationTicks": 455,
          "midi": 70,
          "name": "A#4",
          "ticks": 76320,
          "time": 72.272655,
          "velocity": 0.7559055118110236
        },
        {
          "duration": 0.43087078125000744,
          "durationTicks": 455,
          "midi": 74,
          "name": "D5",
          "ticks": 76320,
          "time": 72.272655,
          "velocity": 0.7559055118110236
        },
        {
          "duration": 0.43087078125000744,
          "durationTicks": 455,
          "midi": 77,
          "name": "F5",
          "ticks": 76320,
          "time": 72.272655,
          "velocity": 0.7559055118110236
        },
        {
          "duration": 0.43087078125000744,
          "durationTicks": 455,
          "midi": 82,
          "name": "A#5",
          "ticks": 76320,
          "time": 72.272655,
          "velocity": 0.7559055118110236
        },
        {
          "duration": 0.21496190624999656,
          "durationTicks": 227,
          "midi": 70,
          "name": "A#4",
          "ticks": 76800,
          "time": 72.72720000000001,
          "velocity": 0.7559055118110236
        },
        {
          "duration": 0.21496190624999656,
          "durationTicks": 227,
          "midi": 82,
          "name": "A#5",
          "ticks": 76800,
          "time": 72.72720000000001,
          "velocity": 0.7559055118110236
        },
        {
          "duration": 0.43087078124999323,
          "durationTicks": 455,
          "midi": 70,
          "name": "A#4",
          "ticks": 77040,
          "time": 72.95447250000001,
          "velocity": 0.7559055118110236
        },
        {
          "duration": 0.43087078124999323,
          "durationTicks": 455,
          "midi": 72,
          "name": "C5",
          "ticks": 77040,
          "time": 72.95447250000001,
          "velocity": 0.7559055118110236
        },
        {
          "duration": 0.43087078124999323,
          "durationTicks": 455,
          "midi": 77,
          "name": "F5",
          "ticks": 77040,
          "time": 72.95447250000001,
          "velocity": 0.7559055118110236
        },
        {
          "duration": 0.43087078124999323,
          "durationTicks": 455,
          "midi": 82,
          "name": "A#5",
          "ticks": 77040,
          "time": 72.95447250000001,
          "velocity": 0.7559055118110236
        },
        {
          "duration": 0.21496190624999656,
          "durationTicks": 227,
          "midi": 69,
          "name": "A4",
          "ticks": 77520,
          "time": 73.4090175,
          "velocity": 0.7559055118110236
        },
        {
          "duration": 0.21496190624999656,
          "durationTicks": 227,
          "midi": 81,
          "name": "A5",
          "ticks": 77520,
          "time": 73.4090175,
          "velocity": 0.7559055118110236
        },
        {
          "duration": 0.43087078124999323,
          "durationTicks": 455,
          "midi": 67,
          "name": "G4",
          "ticks": 77760,
          "time": 73.63629,
          "velocity": 0.7559055118110236
        },
        {
          "duration": 0.43087078124999323,
          "durationTicks": 455,
          "midi": 72,
          "name": "C5",
          "ticks": 77760,
          "time": 73.63629,
          "velocity": 0.7559055118110236
        },
        {
          "duration": 0.43087078124999323,
          "durationTicks": 455,
          "midi": 77,
          "name": "F5",
          "ticks": 77760,
          "time": 73.63629,
          "velocity": 0.7559055118110236
        },
        {
          "duration": 0.43087078124999323,
          "durationTicks": 455,
          "midi": 79,
          "name": "G5",
          "ticks": 77760,
          "time": 73.63629,
          "velocity": 0.7559055118110236
        },
        {
          "duration": 0.43087078125000744,
          "durationTicks": 455,
          "midi": 69,
          "name": "A4",
          "ticks": 78240,
          "time": 74.090835,
          "velocity": 0.7559055118110236
        },
        {
          "duration": 0.43087078125000744,
          "durationTicks": 455,
          "midi": 81,
          "name": "A5",
          "ticks": 78240,
          "time": 74.090835,
          "velocity": 0.7559055118110236
        },
        {
          "duration": 1.5104151562499908,
          "durationTicks": 1595,
          "midi": 70,
          "name": "A#4",
          "ticks": 78720,
          "time": 74.54538000000001,
          "velocity": 0.7559055118110236
        },
        {
          "duration": 1.5104151562499908,
          "durationTicks": 1595,
          "midi": 74,
          "name": "D5",
          "ticks": 78720,
          "time": 74.54538000000001,
          "velocity": 0.7559055118110236
        },
        {
          "duration": 1.5104151562499908,
          "durationTicks": 1595,
          "midi": 79,
          "name": "G5",
          "ticks": 78720,
          "time": 74.54538000000001,
          "velocity": 0.7559055118110236
        },
        {
          "duration": 1.5104151562499908,
          "durationTicks": 1595,
          "midi": 82,
          "name": "A#5",
          "ticks": 78720,
          "time": 74.54538000000001,
          "velocity": 0.7559055118110236
        },
        {
          "duration": 0.21496190624999656,
          "durationTicks": 227,
          "midi": 70,
          "name": "A#4",
          "ticks": 80640,
          "time": 76.36356,
          "velocity": 0.7559055118110236
        },
        {
          "duration": 0,
          "durationTicks": 0,
          "midi": 69,
          "name": "A4",
          "ticks": 80880,
          "time": 76.5908325,
          "velocity": 0.7559055118110236
        },
        {
          "duration": 0.3229163437500091,
          "durationTicks": 341,
          "midi": 69,
          "name": "A4",
          "ticks": 80880,
          "time": 76.5908325,
          "velocity": 0.7559055118110236
        },
        {
          "duration": 0.10700746875001244,
          "durationTicks": 113,
          "midi": 65,
          "name": "F4",
          "ticks": 81000,
          "time": 76.70446875,
          "velocity": 0.7559055118110236
        },
        {
          "duration": 0.10700746875001244,
          "durationTicks": 113,
          "midi": 62,
          "name": "D4",
          "ticks": 81120,
          "time": 76.818105,
          "velocity": 0.7559055118110236
        },
        {
          "duration": 0,
          "durationTicks": 0,
          "midi": 70,
          "name": "A#4",
          "ticks": 81240,
          "time": 76.93174125,
          "velocity": 0.7559055118110236
        },
        {
          "duration": 0.3229163437500091,
          "durationTicks": 341,
          "midi": 70,
          "name": "A#4",
          "ticks": 81240,
          "time": 76.93174125,
          "velocity": 0.7559055118110236
        },
        {
          "duration": 0.10700746875001244,
          "durationTicks": 113,
          "midi": 65,
          "name": "F4",
          "ticks": 81360,
          "time": 77.0453775,
          "velocity": 0.7559055118110236
        },
        {
          "duration": 0.10700746875001244,
          "durationTicks": 113,
          "midi": 62,
          "name": "D4",
          "ticks": 81480,
          "time": 77.15901375,
          "velocity": 0.7559055118110236
        },
        {
          "duration": 0,
          "durationTicks": 0,
          "midi": 69,
          "name": "A4",
          "ticks": 81600,
          "time": 77.27265,
          "velocity": 0.7559055118110236
        },
        {
          "duration": 0.43087078125000744,
          "durationTicks": 455,
          "midi": 69,
          "name": "A4",
          "ticks": 81600,
          "time": 77.27265,
          "velocity": 0.7559055118110236
        },
        {
          "duration": 0.10700746874999822,
          "durationTicks": 113,
          "midi": 65,
          "name": "F4",
          "ticks": 81720,
          "time": 77.38628625000001,
          "velocity": 0.7559055118110236
        },
        {
          "duration": 0.43087078124999323,
          "durationTicks": 455,
          "midi": 65,
          "name": "F4",
          "ticks": 82080,
          "time": 77.72719500000001,
          "velocity": 0.7559055118110236
        },
        {
          "duration": 0.21496190624999656,
          "durationTicks": 227,
          "midi": 62,
          "name": "D4",
          "ticks": 82560,
          "time": 78.18174,
          "velocity": 0.7559055118110236
        },
        {
          "duration": 0.21496190624999656,
          "durationTicks": 227,
          "midi": 74,
          "name": "D5",
          "ticks": 82560,
          "time": 78.18174,
          "velocity": 0.7559055118110236
        },
        {
          "duration": 0.21496190624999656,
          "durationTicks": 227,
          "midi": 74,
          "name": "D5",
          "ticks": 82800,
          "time": 78.4090125,
          "velocity": 0.7559055118110236
        },
        {
          "duration": 0.21496190624999656,
          "durationTicks": 227,
          "midi": 79,
          "name": "G5",
          "ticks": 82800,
          "time": 78.4090125,
          "velocity": 0.7559055118110236
        },
        {
          "duration": 0.21496190624999656,
          "durationTicks": 227,
          "midi": 82,
          "name": "A#5",
          "ticks": 82800,
          "time": 78.4090125,
          "velocity": 0.7559055118110236
        },
        {
          "duration": 0.21496190624999656,
          "durationTicks": 227,
          "midi": 86,
          "name": "D6",
          "ticks": 82800,
          "time": 78.4090125,
          "velocity": 0.7559055118110236
        },
        {
          "duration": 0.10700746875001244,
          "durationTicks": 113,
          "midi": 72,
          "name": "C5",
          "ticks": 83040,
          "time": 78.636285,
          "velocity": 0.7559055118110236
        },
        {
          "duration": 0.10700746875001244,
          "durationTicks": 113,
          "midi": 84,
          "name": "C6",
          "ticks": 83040,
          "time": 78.636285,
          "velocity": 0.7559055118110236
        },
        {
          "duration": 0.3229163437500091,
          "durationTicks": 341,
          "midi": 72,
          "name": "C5",
          "ticks": 83160,
          "time": 78.74992125,
          "velocity": 0.7559055118110236
        },
        {
          "duration": 0.3229163437500091,
          "durationTicks": 341,
          "midi": 75,
          "name": "D#5",
          "ticks": 83160,
          "time": 78.74992125,
          "velocity": 0.7559055118110236
        },
        {
          "duration": 0.3229163437500091,
          "durationTicks": 341,
          "midi": 79,
          "name": "G5",
          "ticks": 83160,
          "time": 78.74992125,
          "velocity": 0.7559055118110236
        },
        {
          "duration": 0.3229163437500091,
          "durationTicks": 341,
          "midi": 84,
          "name": "C6",
          "ticks": 83160,
          "time": 78.74992125,
          "velocity": 0.7559055118110236
        },
        {
          "duration": 0.21496190624999656,
          "durationTicks": 227,
          "midi": 72,
          "name": "C5",
          "ticks": 83520,
          "time": 79.09083000000001,
          "velocity": 0.7559055118110236
        },
        {
          "duration": 0.21496190624999656,
          "durationTicks": 227,
          "midi": 84,
          "name": "C6",
          "ticks": 83520,
          "time": 79.09083000000001,
          "velocity": 0.7559055118110236
        },
        {
          "duration": 0.21496190624999656,
          "durationTicks": 227,
          "midi": 72,
          "name": "C5",
          "ticks": 83760,
          "time": 79.31810250000001,
          "velocity": 0.7559055118110236
        },
        {
          "duration": 0.21496190624999656,
          "durationTicks": 227,
          "midi": 75,
          "name": "D#5",
          "ticks": 83760,
          "time": 79.31810250000001,
          "velocity": 0.7559055118110236
        },
        {
          "duration": 0.21496190624999656,
          "durationTicks": 227,
          "midi": 79,
          "name": "G5",
          "ticks": 83760,
          "time": 79.31810250000001,
          "velocity": 0.7559055118110236
        },
        {
          "duration": 0.21496190624999656,
          "durationTicks": 227,
          "midi": 84,
          "name": "C6",
          "ticks": 83760,
          "time": 79.31810250000001,
          "velocity": 0.7559055118110236
        },
        {
          "duration": 0.10700746874999822,
          "durationTicks": 113,
          "midi": 70,
          "name": "A#4",
          "ticks": 84000,
          "time": 79.545375,
          "velocity": 0.7559055118110236
        },
        {
          "duration": 0.10700746874999822,
          "durationTicks": 113,
          "midi": 82,
          "name": "A#5",
          "ticks": 84000,
          "time": 79.545375,
          "velocity": 0.7559055118110236
        },
        {
          "duration": 0.3229163437500091,
          "durationTicks": 341,
          "midi": 70,
          "name": "A#4",
          "ticks": 84120,
          "time": 79.65901125,
          "velocity": 0.7559055118110236
        },
        {
          "duration": 0.3229163437500091,
          "durationTicks": 341,
          "midi": 75,
          "name": "D#5",
          "ticks": 84120,
          "time": 79.65901125,
          "velocity": 0.7559055118110236
        },
        {
          "duration": 0.3229163437500091,
          "durationTicks": 341,
          "midi": 79,
          "name": "G5",
          "ticks": 84120,
          "time": 79.65901125,
          "velocity": 0.7559055118110236
        },
        {
          "duration": 0.3229163437500091,
          "durationTicks": 341,
          "midi": 82,
          "name": "A#5",
          "ticks": 84120,
          "time": 79.65901125,
          "velocity": 0.7559055118110236
        },
        {
          "duration": 0.21496190624999656,
          "durationTicks": 227,
          "midi": 70,
          "name": "A#4",
          "ticks": 84480,
          "time": 79.99992,
          "velocity": 0.7559055118110236
        },
        {
          "duration": 0.21496190624999656,
          "durationTicks": 227,
          "midi": 82,
          "name": "A#5",
          "ticks": 84480,
          "time": 79.99992,
          "velocity": 0.7559055118110236
        },
        {
          "duration": 0.3229163437500091,
          "durationTicks": 341,
          "midi": 69,
          "name": "A4",
          "ticks": 84720,
          "time": 80.2271925,
          "velocity": 0.7559055118110236
        },
        {
          "duration": 0.3229163437500091,
          "durationTicks": 341,
          "midi": 72,
          "name": "C5",
          "ticks": 84720,
          "time": 80.2271925,
          "velocity": 0.7559055118110236
        },
        {
          "duration": 0.3229163437500091,
          "durationTicks": 341,
          "midi": 77,
          "name": "F5",
          "ticks": 84720,
          "time": 80.2271925,
          "velocity": 0.7559055118110236
        },
        {
          "duration": 0.3229163437500091,
          "durationTicks": 341,
          "midi": 81,
          "name": "A5",
          "ticks": 84720,
          "time": 80.2271925,
          "velocity": 0.7559055118110236
        },
        {
          "duration": 0.3229163437499949,
          "durationTicks": 341,
          "midi": 70,
          "name": "A#4",
          "ticks": 85080,
          "time": 80.56810125000001,
          "velocity": 0.7559055118110236
        },
        {
          "duration": 0.3229163437499949,
          "durationTicks": 341,
          "midi": 82,
          "name": "A#5",
          "ticks": 85080,
          "time": 80.56810125000001,
          "velocity": 0.7559055118110236
        },
        {
          "duration": 0.43087078124999323,
          "durationTicks": 455,
          "midi": 69,
          "name": "A4",
          "ticks": 85440,
          "time": 80.90901000000001,
          "velocity": 0.7559055118110236
        },
        {
          "duration": 0.43087078124999323,
          "durationTicks": 455,
          "midi": 72,
          "name": "C5",
          "ticks": 85440,
          "time": 80.90901000000001,
          "velocity": 0.7559055118110236
        },
        {
          "duration": 0.43087078124999323,
          "durationTicks": 455,
          "midi": 77,
          "name": "F5",
          "ticks": 85440,
          "time": 80.90901000000001,
          "velocity": 0.7559055118110236
        },
        {
          "duration": 0.43087078124999323,
          "durationTicks": 455,
          "midi": 81,
          "name": "A5",
          "ticks": 85440,
          "time": 80.90901000000001,
          "velocity": 0.7559055118110236
        },
        {
          "duration": 0.43087078124999323,
          "durationTicks": 455,
          "midi": 65,
          "name": "F4",
          "ticks": 85920,
          "time": 81.363555,
          "velocity": 0.7559055118110236
        },
        {
          "duration": 0.43087078124999323,
          "durationTicks": 455,
          "midi": 69,
          "name": "A4",
          "ticks": 85920,
          "time": 81.363555,
          "velocity": 0.7559055118110236
        },
        {
          "duration": 0.43087078124999323,
          "durationTicks": 455,
          "midi": 72,
          "name": "C5",
          "ticks": 85920,
          "time": 81.363555,
          "velocity": 0.7559055118110236
        },
        {
          "duration": 0.43087078124999323,
          "durationTicks": 455,
          "midi": 77,
          "name": "F5",
          "ticks": 85920,
          "time": 81.363555,
          "velocity": 0.7559055118110236
        },
        {
          "duration": 0.21496190624999656,
          "durationTicks": 227,
          "midi": 62,
          "name": "D4",
          "ticks": 86400,
          "time": 81.8181,
          "velocity": 0.7559055118110236
        },
        {
          "duration": 0.21496190624999656,
          "durationTicks": 227,
          "midi": 74,
          "name": "D5",
          "ticks": 86400,
          "time": 81.8181,
          "velocity": 0.7559055118110236
        },
        {
          "duration": 0.21496190625001077,
          "durationTicks": 227,
          "midi": 74,
          "name": "D5",
          "ticks": 86640,
          "time": 82.0453725,
          "velocity": 0.7559055118110236
        },
        {
          "duration": 0.21496190625001077,
          "durationTicks": 227,
          "midi": 79,
          "name": "G5",
          "ticks": 86640,
          "time": 82.0453725,
          "velocity": 0.7559055118110236
        },
        {
          "duration": 0.21496190625001077,
          "durationTicks": 227,
          "midi": 82,
          "name": "A#5",
          "ticks": 86640,
          "time": 82.0453725,
          "velocity": 0.7559055118110236
        },
        {
          "duration": 0.21496190625001077,
          "durationTicks": 227,
          "midi": 86,
          "name": "D6",
          "ticks": 86640,
          "time": 82.0453725,
          "velocity": 0.7559055118110236
        },
        {
          "duration": 0.10700746874999822,
          "durationTicks": 113,
          "midi": 72,
          "name": "C5",
          "ticks": 86880,
          "time": 82.27264500000001,
          "velocity": 0.7559055118110236
        },
        {
          "duration": 0.10700746874999822,
          "durationTicks": 113,
          "midi": 84,
          "name": "C6",
          "ticks": 86880,
          "time": 82.27264500000001,
          "velocity": 0.7559055118110236
        },
        {
          "duration": 0.3229163437499949,
          "durationTicks": 341,
          "midi": 72,
          "name": "C5",
          "ticks": 87000,
          "time": 82.38628125000001,
          "velocity": 0.7559055118110236
        },
        {
          "duration": 0.3229163437499949,
          "durationTicks": 341,
          "midi": 77,
          "name": "F5",
          "ticks": 87000,
          "time": 82.38628125000001,
          "velocity": 0.7559055118110236
        },
        {
          "duration": 0.3229163437499949,
          "durationTicks": 341,
          "midi": 81,
          "name": "A5",
          "ticks": 87000,
          "time": 82.38628125000001,
          "velocity": 0.7559055118110236
        },
        {
          "duration": 0.3229163437499949,
          "durationTicks": 341,
          "midi": 84,
          "name": "C6",
          "ticks": 87000,
          "time": 82.38628125000001,
          "velocity": 0.7559055118110236
        },
        {
          "duration": 0.21496190624999656,
          "durationTicks": 227,
          "midi": 72,
          "name": "C5",
          "ticks": 87360,
          "time": 82.72719000000001,
          "velocity": 0.7559055118110236
        },
        {
          "duration": 0.21496190624999656,
          "durationTicks": 227,
          "midi": 84,
          "name": "C6",
          "ticks": 87360,
          "time": 82.72719000000001,
          "velocity": 0.7559055118110236
        },
        {
          "duration": 0.21496190624999656,
          "durationTicks": 227,
          "midi": 72,
          "name": "C5",
          "ticks": 87600,
          "time": 82.9544625,
          "velocity": 0.7559055118110236
        },
        {
          "duration": 0.21496190624999656,
          "durationTicks": 227,
          "midi": 77,
          "name": "F5",
          "ticks": 87600,
          "time": 82.9544625,
          "velocity": 0.7559055118110236
        },
        {
          "duration": 0.21496190624999656,
          "durationTicks": 227,
          "midi": 81,
          "name": "A5",
          "ticks": 87600,
          "time": 82.9544625,
          "velocity": 0.7559055118110236
        },
        {
          "duration": 0.21496190624999656,
          "durationTicks": 227,
          "midi": 84,
          "name": "C6",
          "ticks": 87600,
          "time": 82.9544625,
          "velocity": 0.7559055118110236
        },
        {
          "duration": 0.10700746875001244,
          "durationTicks": 113,
          "midi": 70,
          "name": "A#4",
          "ticks": 87840,
          "time": 83.181735,
          "velocity": 0.7559055118110236
        },
        {
          "duration": 0.10700746875001244,
          "durationTicks": 113,
          "midi": 82,
          "name": "A#5",
          "ticks": 87840,
          "time": 83.181735,
          "velocity": 0.7559055118110236
        },
        {
          "duration": 0.3229163437500091,
          "durationTicks": 341,
          "midi": 70,
          "name": "A#4",
          "ticks": 87960,
          "time": 83.29537125,
          "velocity": 0.7559055118110236
        },
        {
          "duration": 0.3229163437500091,
          "durationTicks": 341,
          "midi": 74,
          "name": "D5",
          "ticks": 87960,
          "time": 83.29537125,
          "velocity": 0.7559055118110236
        },
        {
          "duration": 0.3229163437500091,
          "durationTicks": 341,
          "midi": 79,
          "name": "G5",
          "ticks": 87960,
          "time": 83.29537125,
          "velocity": 0.7559055118110236
        },
        {
          "duration": 0.3229163437500091,
          "durationTicks": 341,
          "midi": 82,
          "name": "A#5",
          "ticks": 87960,
          "time": 83.29537125,
          "velocity": 0.7559055118110236
        },
        {
          "duration": 0.21496190625001077,
          "durationTicks": 227,
          "midi": 70,
          "name": "A#4",
          "ticks": 88320,
          "time": 83.63628,
          "velocity": 0.7559055118110236
        },
        {
          "duration": 0.21496190625001077,
          "durationTicks": 227,
          "midi": 82,
          "name": "A#5",
          "ticks": 88320,
          "time": 83.63628,
          "velocity": 0.7559055118110236
        },
        {
          "duration": 0.3229163437499949,
          "durationTicks": 341,
          "midi": 69,
          "name": "A4",
          "ticks": 88560,
          "time": 83.86355250000001,
          "velocity": 0.7559055118110236
        },
        {
          "duration": 0.3229163437499949,
          "durationTicks": 341,
          "midi": 74,
          "name": "D5",
          "ticks": 88560,
          "time": 83.86355250000001,
          "velocity": 0.7559055118110236
        },
        {
          "duration": 0.3229163437499949,
          "durationTicks": 341,
          "midi": 77,
          "name": "F5",
          "ticks": 88560,
          "time": 83.86355250000001,
          "velocity": 0.7559055118110236
        },
        {
          "duration": 0.3229163437499949,
          "durationTicks": 341,
          "midi": 81,
          "name": "A5",
          "ticks": 88560,
          "time": 83.86355250000001,
          "velocity": 0.7559055118110236
        },
        {
          "duration": 0.3229163437499949,
          "durationTicks": 341,
          "midi": 70,
          "name": "A#4",
          "ticks": 88920,
          "time": 84.20446125000001,
          "velocity": 0.7559055118110236
        },
        {
          "duration": 0.3229163437499949,
          "durationTicks": 341,
          "midi": 82,
          "name": "A#5",
          "ticks": 88920,
          "time": 84.20446125000001,
          "velocity": 0.7559055118110236
        },
        {
          "duration": 0.43087078124999323,
          "durationTicks": 455,
          "midi": 77,
          "name": "F5",
          "ticks": 89280,
          "time": 84.54537,
          "velocity": 0.7559055118110236
        },
        {
          "duration": 0.43087078124999323,
          "durationTicks": 455,
          "midi": 81,
          "name": "A5",
          "ticks": 89280,
          "time": 84.54537,
          "velocity": 0.7559055118110236
        },
        {
          "duration": 0.43087078124999323,
          "durationTicks": 455,
          "midi": 86,
          "name": "D6",
          "ticks": 89280,
          "time": 84.54537,
          "velocity": 0.7559055118110236
        },
        {
          "duration": 0.43087078124999323,
          "durationTicks": 455,
          "midi": 89,
          "name": "F6",
          "ticks": 89280,
          "time": 84.54537,
          "velocity": 0.7559055118110236
        },
        {
          "duration": 0.43087078124999323,
          "durationTicks": 455,
          "midi": 69,
          "name": "A4",
          "ticks": 89760,
          "time": 84.999915,
          "velocity": 0.7559055118110236
        },
        {
          "duration": 0.43087078124999323,
          "durationTicks": 455,
          "midi": 74,
          "name": "D5",
          "ticks": 89760,
          "time": 84.999915,
          "velocity": 0.7559055118110236
        },
        {
          "duration": 0.43087078124999323,
          "durationTicks": 455,
          "midi": 77,
          "name": "F5",
          "ticks": 89760,
          "time": 84.999915,
          "velocity": 0.7559055118110236
        },
        {
          "duration": 0.43087078124999323,
          "durationTicks": 455,
          "midi": 81,
          "name": "A5",
          "ticks": 89760,
          "time": 84.999915,
          "velocity": 0.7559055118110236
        },
        {
          "duration": 0.21496190624999656,
          "durationTicks": 227,
          "midi": 70,
          "name": "A#4",
          "ticks": 90240,
          "time": 85.45446000000001,
          "velocity": 0.7559055118110236
        },
        {
          "duration": 0.21496190624999656,
          "durationTicks": 227,
          "midi": 82,
          "name": "A#5",
          "ticks": 90240,
          "time": 85.45446000000001,
          "velocity": 0.7559055118110236
        },
        {
          "duration": 0.3229163437499949,
          "durationTicks": 341,
          "midi": 79,
          "name": "G5",
          "ticks": 90480,
          "time": 85.68173250000001,
          "velocity": 0.7559055118110236
        },
        {
          "duration": 0.3229163437499949,
          "durationTicks": 341,
          "midi": 82,
          "name": "A#5",
          "ticks": 90480,
          "time": 85.68173250000001,
          "velocity": 0.7559055118110236
        },
        {
          "duration": 0.3229163437499949,
          "durationTicks": 341,
          "midi": 87,
          "name": "D#6",
          "ticks": 90480,
          "time": 85.68173250000001,
          "velocity": 0.7559055118110236
        },
        {
          "duration": 0.3229163437499949,
          "durationTicks": 341,
          "midi": 91,
          "name": "G6",
          "ticks": 90480,
          "time": 85.68173250000001,
          "velocity": 0.7559055118110236
        },
        {
          "duration": 0.3229163437500091,
          "durationTicks": 341,
          "midi": 77,
          "name": "F5",
          "ticks": 90840,
          "time": 86.02264125,
          "velocity": 0.7559055118110236
        },
        {
          "duration": 0.3229163437500091,
          "durationTicks": 341,
          "midi": 82,
          "name": "A#5",
          "ticks": 90840,
          "time": 86.02264125,
          "velocity": 0.7559055118110236
        },
        {
          "duration": 0.3229163437500091,
          "durationTicks": 341,
          "midi": 86,
          "name": "D6",
          "ticks": 90840,
          "time": 86.02264125,
          "velocity": 0.7559055118110236
        },
        {
          "duration": 0.3229163437500091,
          "durationTicks": 341,
          "midi": 89,
          "name": "F6",
          "ticks": 90840,
          "time": 86.02264125,
          "velocity": 0.7559055118110236
        },
        {
          "duration": 0.21496190624999656,
          "durationTicks": 227,
          "midi": 74,
          "name": "D5",
          "ticks": 91200,
          "time": 86.36355,
          "velocity": 0.7559055118110236
        },
        {
          "duration": 0.21496190624999656,
          "durationTicks": 227,
          "midi": 86,
          "name": "D6",
          "ticks": 91200,
          "time": 86.36355,
          "velocity": 0.7559055118110236
        },
        {
          "duration": 0.6467796562500041,
          "durationTicks": 683,
          "midi": 70,
          "name": "A#4",
          "ticks": 91440,
          "time": 86.5908225,
          "velocity": 0.7559055118110236
        },
        {
          "duration": 0.6467796562500041,
          "durationTicks": 683,
          "midi": 74,
          "name": "D5",
          "ticks": 91440,
          "time": 86.5908225,
          "velocity": 0.7559055118110236
        },
        {
          "duration": 0.6467796562500041,
          "durationTicks": 683,
          "midi": 77,
          "name": "F5",
          "ticks": 91440,
          "time": 86.5908225,
          "velocity": 0.7559055118110236
        },
        {
          "duration": 0.6467796562500041,
          "durationTicks": 683,
          "midi": 82,
          "name": "A#5",
          "ticks": 91440,
          "time": 86.5908225,
          "velocity": 0.7559055118110236
        },
        {
          "duration": 0.21496190624999656,
          "durationTicks": 227,
          "midi": 70,
          "name": "A#4",
          "ticks": 92160,
          "time": 87.27264000000001,
          "velocity": 0.7559055118110236
        },
        {
          "duration": 0.21496190624999656,
          "durationTicks": 227,
          "midi": 82,
          "name": "A#5",
          "ticks": 92160,
          "time": 87.27264000000001,
          "velocity": 0.7559055118110236
        },
        {
          "duration": 0.43087078124999323,
          "durationTicks": 455,
          "midi": 70,
          "name": "A#4",
          "ticks": 92400,
          "time": 87.49991250000001,
          "velocity": 0.7559055118110236
        },
        {
          "duration": 0.43087078124999323,
          "durationTicks": 455,
          "midi": 72,
          "name": "C5",
          "ticks": 92400,
          "time": 87.49991250000001,
          "velocity": 0.7559055118110236
        },
        {
          "duration": 0.43087078124999323,
          "durationTicks": 455,
          "midi": 77,
          "name": "F5",
          "ticks": 92400,
          "time": 87.49991250000001,
          "velocity": 0.7559055118110236
        },
        {
          "duration": 0.43087078124999323,
          "durationTicks": 455,
          "midi": 82,
          "name": "A#5",
          "ticks": 92400,
          "time": 87.49991250000001,
          "velocity": 0.7559055118110236
        },
        {
          "duration": 0.21496190624999656,
          "durationTicks": 227,
          "midi": 69,
          "name": "A4",
          "ticks": 92880,
          "time": 87.9544575,
          "velocity": 0.6929133858267716
        },
        {
          "duration": 0.21496190624999656,
          "durationTicks": 227,
          "midi": 81,
          "name": "A5",
          "ticks": 92880,
          "time": 87.9544575,
          "velocity": 0.6929133858267716
        },
        {
          "duration": 0.43087078124999323,
          "durationTicks": 455,
          "midi": 67,
          "name": "G4",
          "ticks": 93120,
          "time": 88.18173,
          "velocity": 0.6614173228346457
        },
        {
          "duration": 0.43087078124999323,
          "durationTicks": 455,
          "midi": 72,
          "name": "C5",
          "ticks": 93120,
          "time": 88.18173,
          "velocity": 0.6614173228346457
        },
        {
          "duration": 0.43087078124999323,
          "durationTicks": 455,
          "midi": 77,
          "name": "F5",
          "ticks": 93120,
          "time": 88.18173,
          "velocity": 0.6614173228346457
        },
        {
          "duration": 0.43087078124999323,
          "durationTicks": 455,
          "midi": 79,
          "name": "G5",
          "ticks": 93120,
          "time": 88.18173,
          "velocity": 0.6614173228346457
        },
        {
          "duration": 0.43087078124999323,
          "durationTicks": 455,
          "midi": 69,
          "name": "A4",
          "ticks": 93600,
          "time": 88.63627500000001,
          "velocity": 0.5984251968503937
        },
        {
          "duration": 0.43087078124999323,
          "durationTicks": 455,
          "midi": 81,
          "name": "A5",
          "ticks": 93600,
          "time": 88.63627500000001,
          "velocity": 0.5984251968503937
        },
        {
          "duration": 1.4772712500000011,
          "durationTicks": 1560,
          "midi": 70,
          "name": "A#4",
          "ticks": 94080,
          "time": 89.09082000000001,
          "velocity": 0.5354330708661418
        },
        {
          "duration": 1.1363625000000042,
          "durationTicks": 1200,
          "midi": 74,
          "name": "D5",
          "ticks": 94080,
          "time": 89.09082000000001,
          "velocity": 0.5354330708661418
        },
        {
          "duration": 1.9422329062499983,
          "durationTicks": 2051,
          "midi": 79,
          "name": "G5",
          "ticks": 94080,
          "time": 89.09082000000001,
          "velocity": 0.5354330708661418
        },
        {
          "duration": 1.9422329062499983,
          "durationTicks": 2051,
          "midi": 82,
          "name": "A#5",
          "ticks": 94080,
          "time": 89.09082000000001,
          "velocity": 0.5354330708661418
        },
        {
          "duration": 0.10700746875001244,
          "durationTicks": 113,
          "midi": 62,
          "name": "D4",
          "ticks": 94440,
          "time": 89.43172875,
          "velocity": 0.5039370078740157
        },
        {
          "duration": 0.10700746875001244,
          "durationTicks": 113,
          "midi": 67,
          "name": "G4",
          "ticks": 94560,
          "time": 89.545365,
          "velocity": 0.5039370078740157
        },
        {
          "duration": 0.10700746875001244,
          "durationTicks": 113,
          "midi": 62,
          "name": "D4",
          "ticks": 94680,
          "time": 89.65900125,
          "velocity": 0.5039370078740157
        },
        {
          "duration": 0.10700746875001244,
          "durationTicks": 113,
          "midi": 67,
          "name": "G4",
          "ticks": 94800,
          "time": 89.7726375,
          "velocity": 0.5039370078740157
        },
        {
          "duration": 0.10700746875001244,
          "durationTicks": 113,
          "midi": 62,
          "name": "D4",
          "ticks": 94920,
          "time": 89.88627375,
          "velocity": 0.5039370078740157
        },
        {
          "duration": 0.10700746875001244,
          "durationTicks": 113,
          "midi": 67,
          "name": "G4",
          "ticks": 95040,
          "time": 89.99991,
          "velocity": 0.5039370078740157
        },
        {
          "duration": 0.10700746874999822,
          "durationTicks": 113,
          "midi": 62,
          "name": "D4",
          "ticks": 95160,
          "time": 90.11354625000001,
          "velocity": 0.5039370078740157
        },
        {
          "duration": 0.8058704062499942,
          "durationTicks": 851,
          "midi": 74,
          "name": "D5",
          "ticks": 95280,
          "time": 90.22718250000001,
          "velocity": 0.5039370078740157
        },
        {
          "duration": 0.10700746874999822,
          "durationTicks": 113,
          "midi": 62,
          "name": "D4",
          "ticks": 95400,
          "time": 90.34081875000001,
          "velocity": 0.5039370078740157
        },
        {
          "duration": 0.10700746874999822,
          "durationTicks": 113,
          "midi": 67,
          "name": "G4",
          "ticks": 95520,
          "time": 90.45445500000001,
          "velocity": 0.5039370078740157
        },
        {
          "duration": 0.340908749999997,
          "durationTicks": 360,
          "midi": 70,
          "name": "A#4",
          "ticks": 95640,
          "time": 90.56809125000001,
          "velocity": 0.5039370078740157
        },
        {
          "duration": 0.10700746874999822,
          "durationTicks": 113,
          "midi": 62,
          "name": "D4",
          "ticks": 95760,
          "time": 90.68172750000001,
          "velocity": 0.5039370078740157
        },
        {
          "duration": 0.10700746875001244,
          "durationTicks": 113,
          "midi": 67,
          "name": "G4",
          "ticks": 95880,
          "time": 90.79536375,
          "velocity": 0.5039370078740157
        },
        {
          "duration": 0.1240529062500002,
          "durationTicks": 131,
          "midi": 70,
          "name": "A#4",
          "ticks": 96000,
          "time": 90.909,
          "velocity": 0.5039370078740157
        },
        {
          "duration": 0.10700746875001244,
          "durationTicks": 113,
          "midi": 62,
          "name": "D4",
          "ticks": 96120,
          "time": 91.02263625,
          "velocity": 0.5039370078740157
        },
        {
          "duration": 0.10700746875001244,
          "durationTicks": 113,
          "midi": 74,
          "name": "D5",
          "ticks": 96240,
          "time": 91.1362725,
          "velocity": 0.5039370078740157
        },
        {
          "duration": 0.10700746875001244,
          "durationTicks": 113,
          "midi": 62,
          "name": "D4",
          "ticks": 96360,
          "time": 91.24990875,
          "velocity": 0.5039370078740157
        },
        {
          "duration": 0.10700746875001244,
          "durationTicks": 113,
          "midi": 65,
          "name": "F4",
          "ticks": 96480,
          "time": 91.363545,
          "velocity": 0.5039370078740157
        },
        {
          "duration": 0.10700746875001244,
          "durationTicks": 113,
          "midi": 70,
          "name": "A#4",
          "ticks": 96600,
          "time": 91.47718125,
          "velocity": 0.5039370078740157
        },
        {
          "duration": 0.10700746875001244,
          "durationTicks": 113,
          "midi": 62,
          "name": "D4",
          "ticks": 96720,
          "time": 91.5908175,
          "velocity": 0.5039370078740157
        },
        {
          "duration": 0.10700746874999822,
          "durationTicks": 113,
          "midi": 65,
          "name": "F4",
          "ticks": 96840,
          "time": 91.70445375000001,
          "velocity": 0.5039370078740157
        },
        {
          "duration": 0.10700746874999822,
          "durationTicks": 113,
          "midi": 70,
          "name": "A#4",
          "ticks": 96960,
          "time": 91.81809000000001,
          "velocity": 0.5039370078740157
        },
        {
          "duration": 0.10700746874999822,
          "durationTicks": 113,
          "midi": 62,
          "name": "D4",
          "ticks": 97080,
          "time": 91.93172625000001,
          "velocity": 0.5039370078740157
        },
        {
          "duration": 0.10700746874999822,
          "durationTicks": 113,
          "midi": 74,
          "name": "D5",
          "ticks": 97200,
          "time": 92.04536250000001,
          "velocity": 0.5039370078740157
        },
        {
          "duration": 0.340908749999997,
          "durationTicks": 360,
          "midi": 62,
          "name": "D4",
          "ticks": 97320,
          "time": 92.15899875000001,
          "velocity": 0.5039370078740157
        },
        {
          "duration": 0.10700746874999822,
          "durationTicks": 113,
          "midi": 65,
          "name": "F4",
          "ticks": 97440,
          "time": 92.27263500000001,
          "velocity": 0.5039370078740157
        },
        {
          "duration": 0.10700746875001244,
          "durationTicks": 113,
          "midi": 70,
          "name": "A#4",
          "ticks": 97560,
          "time": 92.38627125000001,
          "velocity": 0.5039370078740157
        },
        {
          "duration": 0.340908749999997,
          "durationTicks": 360,
          "midi": 62,
          "name": "D4",
          "ticks": 97680,
          "time": 92.4999075,
          "velocity": 0.5039370078740157
        },
        {
          "duration": 0.10700746875001244,
          "durationTicks": 113,
          "midi": 65,
          "name": "F4",
          "ticks": 97800,
          "time": 92.61354375,
          "velocity": 0.5039370078740157
        },
        {
          "duration": 0.10700746875001244,
          "durationTicks": 113,
          "midi": 70,
          "name": "A#4",
          "ticks": 97920,
          "time": 92.72718,
          "velocity": 0.5039370078740157
        },
        {
          "duration": 0.10700746875001244,
          "durationTicks": 113,
          "midi": 62,
          "name": "D4",
          "ticks": 98040,
          "time": 92.84081625,
          "velocity": 0.5039370078740157
        },
        {
          "duration": 0.10700746875001244,
          "durationTicks": 113,
          "midi": 72,
          "name": "C5",
          "ticks": 98160,
          "time": 92.9544525,
          "velocity": 0.5039370078740157
        },
        {
          "duration": 0.10700746875001244,
          "durationTicks": 113,
          "midi": 60,
          "name": "C4",
          "ticks": 98280,
          "time": 93.06808875,
          "velocity": 0.5039370078740157
        },
        {
          "duration": 0.10700746875001244,
          "durationTicks": 113,
          "midi": 65,
          "name": "F4",
          "ticks": 98400,
          "time": 93.181725,
          "velocity": 0.5039370078740157
        },
        {
          "duration": 0.10700746874999822,
          "durationTicks": 113,
          "midi": 70,
          "name": "A#4",
          "ticks": 98520,
          "time": 93.29536125000001,
          "velocity": 0.5039370078740157
        },
        {
          "duration": 0.10700746874999822,
          "durationTicks": 113,
          "midi": 60,
          "name": "C4",
          "ticks": 98640,
          "time": 93.40899750000001,
          "velocity": 0.5039370078740157
        },
        {
          "duration": 0.10700746874999822,
          "durationTicks": 113,
          "midi": 65,
          "name": "F4",
          "ticks": 98760,
          "time": 93.52263375000001,
          "velocity": 0.5039370078740157
        },
        {
          "duration": 0.10700746874999822,
          "durationTicks": 113,
          "midi": 70,
          "name": "A#4",
          "ticks": 98880,
          "time": 93.63627000000001,
          "velocity": 0.5039370078740157
        },
        {
          "duration": 0.10700746874999822,
          "durationTicks": 113,
          "midi": 60,
          "name": "C4",
          "ticks": 99000,
          "time": 93.74990625000001,
          "velocity": 0.5039370078740157
        },
        {
          "duration": 0.10700746874999822,
          "durationTicks": 113,
          "midi": 72,
          "name": "C5",
          "ticks": 99120,
          "time": 93.86354250000001,
          "velocity": 0.5039370078740157
        },
        {
          "duration": 0.340908749999997,
          "durationTicks": 360,
          "midi": 60,
          "name": "C4",
          "ticks": 99240,
          "time": 93.97717875000001,
          "velocity": 0.5039370078740157
        },
        {
          "duration": 0.10700746875001244,
          "durationTicks": 113,
          "midi": 65,
          "name": "F4",
          "ticks": 99360,
          "time": 94.090815,
          "velocity": 0.5039370078740157
        },
        {
          "duration": 0.10700746875001244,
          "durationTicks": 113,
          "midi": 70,
          "name": "A#4",
          "ticks": 99480,
          "time": 94.20445125,
          "velocity": 0.5039370078740157
        },
        {
          "duration": 0.4081435312500048,
          "durationTicks": 431,
          "midi": 60,
          "name": "C4",
          "ticks": 99600,
          "time": 94.3180875,
          "velocity": 0.5039370078740157
        },
        {
          "duration": 0.10700746875001244,
          "durationTicks": 113,
          "midi": 65,
          "name": "F4",
          "ticks": 99720,
          "time": 94.43172375,
          "velocity": 0.5039370078740157
        },
        {
          "duration": 0.21496190624999656,
          "durationTicks": 227,
          "midi": 82,
          "name": "A#5",
          "ticks": 99840,
          "time": 94.54536,
          "velocity": 0.5039370078740157
        },
        {
          "duration": 0.21496190624999656,
          "durationTicks": 227,
          "midi": 70,
          "name": "A#4",
          "ticks": 99840,
          "time": 94.54536,
          "velocity": 0.5039370078740157
        },
        {
          "duration": 0,
          "durationTicks": 0,
          "midi": 86,
          "name": "D6",
          "ticks": 100080,
          "time": 94.7726325,
          "velocity": 0.5039370078740157
        },
        {
          "duration": 0.3229163437500091,
          "durationTicks": 341,
          "midi": 86,
          "name": "D6",
          "ticks": 100080,
          "time": 94.7726325,
          "velocity": 0.5039370078740157
        },
        {
          "duration": 0.10700746874999822,
          "durationTicks": 113,
          "midi": 77,
          "name": "F5",
          "ticks": 100200,
          "time": 94.88626875000001,
          "velocity": 0.5039370078740157
        },
        {
          "duration": 0.10700746874999822,
          "durationTicks": 113,
          "midi": 70,
          "name": "A#4",
          "ticks": 100320,
          "time": 94.99990500000001,
          "velocity": 0.5039370078740157
        },
        {
          "duration": 0,
          "durationTicks": 0,
          "midi": 84,
          "name": "C6",
          "ticks": 100440,
          "time": 95.11354125000001,
          "velocity": 0.5039370078740157
        },
        {
          "duration": 0.3229163437499949,
          "durationTicks": 341,
          "midi": 84,
          "name": "C6",
          "ticks": 100440,
          "time": 95.11354125000001,
          "velocity": 0.5039370078740157
        },
        {
          "duration": 0.10700746874999822,
          "durationTicks": 113,
          "midi": 77,
          "name": "F5",
          "ticks": 100560,
          "time": 95.22717750000001,
          "velocity": 0.5039370078740157
        },
        {
          "duration": 0.10700746874999822,
          "durationTicks": 113,
          "midi": 70,
          "name": "A#4",
          "ticks": 100680,
          "time": 95.34081375000001,
          "velocity": 0.5039370078740157
        },
        {
          "duration": 0,
          "durationTicks": 0,
          "midi": 84,
          "name": "C6",
          "ticks": 100800,
          "time": 95.45445000000001,
          "velocity": 0.5039370078740157
        },
        {
          "duration": 0.43087078124999323,
          "durationTicks": 455,
          "midi": 84,
          "name": "C6",
          "ticks": 100800,
          "time": 95.45445000000001,
          "velocity": 0.5039370078740157
        },
        {
          "duration": 0.10700746875001244,
          "durationTicks": 113,
          "midi": 77,
          "name": "F5",
          "ticks": 100920,
          "time": 95.56808625000001,
          "velocity": 0.5039370078740157
        },
        {
          "duration": 0.10700746875001244,
          "durationTicks": 113,
          "midi": 70,
          "name": "A#4",
          "ticks": 101040,
          "time": 95.6817225,
          "velocity": 0.5039370078740157
        },
        {
          "duration": 0.10700746875001244,
          "durationTicks": 113,
          "midi": 77,
          "name": "F5",
          "ticks": 101160,
          "time": 95.79535875,
          "velocity": 0.5039370078740157
        },
        {
          "duration": 0,
          "durationTicks": 0,
          "midi": 81,
          "name": "A5",
          "ticks": 101280,
          "time": 95.908995,
          "velocity": 0.5039370078740157
        },
        {
          "duration": 0.43087078124999323,
          "durationTicks": 455,
          "midi": 81,
          "name": "A5",
          "ticks": 101280,
          "time": 95.908995,
          "velocity": 0.5039370078740157
        },
        {
          "duration": 0.10700746875001244,
          "durationTicks": 113,
          "midi": 77,
          "name": "F5",
          "ticks": 101400,
          "time": 96.02263125,
          "velocity": 0.5039370078740157
        },
        {
          "duration": 0.10700746875001244,
          "durationTicks": 113,
          "midi": 70,
          "name": "A#4",
          "ticks": 101520,
          "time": 96.1362675,
          "velocity": 0.5039370078740157
        },
        {
          "duration": 0.10700746875001244,
          "durationTicks": 113,
          "midi": 77,
          "name": "F5",
          "ticks": 101640,
          "time": 96.24990375,
          "velocity": 0.5039370078740157
        },
        {
          "duration": 0,
          "durationTicks": 0,
          "midi": 82,
          "name": "A#5",
          "ticks": 101760,
          "time": 96.36354,
          "velocity": 0.5039370078740157
        },
        {
          "duration": 1.4772712500000011,
          "durationTicks": 1560,
          "midi": 82,
          "name": "A#5",
          "ticks": 101760,
          "time": 96.36354,
          "velocity": 0.5039370078740157
        },
        {
          "duration": 0.10700746874999822,
          "durationTicks": 113,
          "midi": 79,
          "name": "G5",
          "ticks": 101880,
          "time": 96.47717625000001,
          "velocity": 0.5039370078740157
        },
        {
          "duration": 0.10700746874999822,
          "durationTicks": 113,
          "midi": 70,
          "name": "A#4",
          "ticks": 102000,
          "time": 96.59081250000001,
          "velocity": 0.5039370078740157
        },
        {
          "duration": 0.10700746874999822,
          "durationTicks": 113,
          "midi": 79,
          "name": "G5",
          "ticks": 102120,
          "time": 96.70444875000001,
          "velocity": 0.5039370078740157
        },
        {
          "duration": 0.10700746874999822,
          "durationTicks": 113,
          "midi": 70,
          "name": "A#4",
          "ticks": 102240,
          "time": 96.81808500000001,
          "velocity": 0.5039370078740157
        },
        {
          "duration": 0.10700746874999822,
          "durationTicks": 113,
          "midi": 79,
          "name": "G5",
          "ticks": 102360,
          "time": 96.93172125000001,
          "velocity": 0.5039370078740157
        },
        {
          "duration": 0.10700746874999822,
          "durationTicks": 113,
          "midi": 70,
          "name": "A#4",
          "ticks": 102480,
          "time": 97.04535750000001,
          "velocity": 0.5039370078740157
        },
        {
          "duration": 0.10700746875001244,
          "durationTicks": 113,
          "midi": 79,
          "name": "G5",
          "ticks": 102600,
          "time": 97.15899375000001,
          "velocity": 0.5039370078740157
        },
        {
          "duration": 0.10700746875001244,
          "durationTicks": 113,
          "midi": 70,
          "name": "A#4",
          "ticks": 102720,
          "time": 97.27263,
          "velocity": 0.5039370078740157
        },
        {
          "duration": 0.10700746875001244,
          "durationTicks": 113,
          "midi": 79,
          "name": "G5",
          "ticks": 102840,
          "time": 97.38626625,
          "velocity": 0.5039370078740157
        },
        {
          "duration": 0.10700746875001244,
          "durationTicks": 113,
          "midi": 86,
          "name": "D6",
          "ticks": 102960,
          "time": 97.4999025,
          "velocity": 0.5039370078740157
        },
        {
          "duration": 0.10700746875001244,
          "durationTicks": 113,
          "midi": 70,
          "name": "A#4",
          "ticks": 103080,
          "time": 97.61353875,
          "velocity": 0.5039370078740157
        },
        {
          "duration": 0.10700746875001244,
          "durationTicks": 113,
          "midi": 79,
          "name": "G5",
          "ticks": 103200,
          "time": 97.727175,
          "velocity": 0.5039370078740157
        },
        {
          "duration": 0.3409087500000112,
          "durationTicks": 360,
          "midi": 82,
          "name": "A#5",
          "ticks": 103320,
          "time": 97.84081125,
          "velocity": 0.5039370078740157
        },
        {
          "duration": 0.10700746875001244,
          "durationTicks": 113,
          "midi": 70,
          "name": "A#4",
          "ticks": 103440,
          "time": 97.9544475,
          "velocity": 0.5039370078740157
        },
        {
          "duration": 0.10700746874999822,
          "durationTicks": 113,
          "midi": 79,
          "name": "G5",
          "ticks": 103560,
          "time": 98.06808375000001,
          "velocity": 0.5039370078740157
        },
        {
          "duration": 0.1240529062500002,
          "durationTicks": 131,
          "midi": 82,
          "name": "A#5",
          "ticks": 103680,
          "time": 98.18172000000001,
          "velocity": 0.5039370078740157
        },
        {
          "duration": 0.10700746874999822,
          "durationTicks": 113,
          "midi": 70,
          "name": "A#4",
          "ticks": 103800,
          "time": 98.29535625000001,
          "velocity": 0.5039370078740157
        },
        {
          "duration": 0.10700746874999822,
          "durationTicks": 113,
          "midi": 86,
          "name": "D6",
          "ticks": 103920,
          "time": 98.40899250000001,
          "velocity": 0.5039370078740157
        },
        {
          "duration": 0.10700746874999822,
          "durationTicks": 113,
          "midi": 74,
          "name": "D5",
          "ticks": 104040,
          "time": 98.52262875000001,
          "velocity": 0.5039370078740157
        },
        {
          "duration": 0.10700746874999822,
          "durationTicks": 113,
          "midi": 77,
          "name": "F5",
          "ticks": 104160,
          "time": 98.63626500000001,
          "velocity": 0.5039370078740157
        },
        {
          "duration": 0.10700746874999822,
          "durationTicks": 113,
          "midi": 82,
          "name": "A#5",
          "ticks": 104280,
          "time": 98.74990125000001,
          "velocity": 0.5039370078740157
        },
        {
          "duration": 0.10700746875001244,
          "durationTicks": 113,
          "midi": 74,
          "name": "D5",
          "ticks": 104400,
          "time": 98.8635375,
          "velocity": 0.5039370078740157
        },
        {
          "duration": 0.10700746875001244,
          "durationTicks": 113,
          "midi": 77,
          "name": "F5",
          "ticks": 104520,
          "time": 98.97717375,
          "velocity": 0.5039370078740157
        },
        {
          "duration": 0.10700746875001244,
          "durationTicks": 113,
          "midi": 82,
          "name": "A#5",
          "ticks": 104640,
          "time": 99.09081,
          "velocity": 0.5039370078740157
        },
        {
          "duration": 0.10700746875001244,
          "durationTicks": 113,
          "midi": 74,
          "name": "D5",
          "ticks": 104760,
          "time": 99.20444625,
          "velocity": 0.5039370078740157
        },
        {
          "duration": 0.10700746875001244,
          "durationTicks": 113,
          "midi": 86,
          "name": "D6",
          "ticks": 104880,
          "time": 99.3180825,
          "velocity": 0.5039370078740157
        },
        {
          "duration": 0.10700746875001244,
          "durationTicks": 113,
          "midi": 74,
          "name": "D5",
          "ticks": 105000,
          "time": 99.43171875,
          "velocity": 0.5039370078740157
        },
        {
          "duration": 0.10700746875001244,
          "durationTicks": 113,
          "midi": 77,
          "name": "F5",
          "ticks": 105120,
          "time": 99.545355,
          "velocity": 0.5039370078740157
        },
        {
          "duration": 0.10700746874999822,
          "durationTicks": 113,
          "midi": 82,
          "name": "A#5",
          "ticks": 105240,
          "time": 99.65899125000001,
          "velocity": 0.5039370078740157
        },
        {
          "duration": 0.340908749999997,
          "durationTicks": 360,
          "midi": 70,
          "name": "A#4",
          "ticks": 105360,
          "time": 99.77262750000001,
          "velocity": 0.5039370078740157
        },
        {
          "duration": 0.10700746874999822,
          "durationTicks": 113,
          "midi": 77,
          "name": "F5",
          "ticks": 105480,
          "time": 99.88626375000001,
          "velocity": 0.5039370078740157
        },
        {
          "duration": 0.10700746874999822,
          "durationTicks": 113,
          "midi": 82,
          "name": "A#5",
          "ticks": 105600,
          "time": 99.99990000000001,
          "velocity": 0.5039370078740157
        },
        {
          "duration": 0.10700746874999822,
          "durationTicks": 113,
          "midi": 70,
          "name": "A#4",
          "ticks": 105720,
          "time": 100.11353625000001,
          "velocity": 0.5039370078740157
        },
        {
          "duration": 0.10700746874999822,
          "durationTicks": 113,
          "midi": 84,
          "name": "C6",
          "ticks": 105840,
          "time": 100.22717250000001,
          "velocity": 0.5039370078740157
        },
        {
          "duration": 0.10700746874999822,
          "durationTicks": 113,
          "midi": 72,
          "name": "C5",
          "ticks": 105960,
          "time": 100.34080875000001,
          "velocity": 0.5039370078740157
        },
        {
          "duration": 0.10700746875001244,
          "durationTicks": 113,
          "midi": 77,
          "name": "F5",
          "ticks": 106080,
          "time": 100.454445,
          "velocity": 0.5039370078740157
        },
        {
          "duration": 0.10700746875001244,
          "durationTicks": 113,
          "midi": 82,
          "name": "A#5",
          "ticks": 106200,
          "time": 100.56808125,
          "velocity": 0.5039370078740157
        },
        {
          "duration": 0.10700746875001244,
          "durationTicks": 113,
          "midi": 72,
          "name": "C5",
          "ticks": 106320,
          "time": 100.6817175,
          "velocity": 0.5039370078740157
        },
        {
          "duration": 0.10700746875001244,
          "durationTicks": 113,
          "midi": 77,
          "name": "F5",
          "ticks": 106440,
          "time": 100.79535375,
          "velocity": 0.5039370078740157
        },
        {
          "duration": 0.10700746875001244,
          "durationTicks": 113,
          "midi": 82,
          "name": "A#5",
          "ticks": 106560,
          "time": 100.90899,
          "velocity": 0.5039370078740157
        },
        {
          "duration": 0.10700746875001244,
          "durationTicks": 113,
          "midi": 72,
          "name": "C5",
          "ticks": 106680,
          "time": 101.02262625,
          "velocity": 0.5039370078740157
        },
        {
          "duration": 0.10700746875001244,
          "durationTicks": 113,
          "midi": 84,
          "name": "C6",
          "ticks": 106800,
          "time": 101.1362625,
          "velocity": 0.5039370078740157
        },
        {
          "duration": 0.10700746874999822,
          "durationTicks": 113,
          "midi": 72,
          "name": "C5",
          "ticks": 106920,
          "time": 101.24989875000001,
          "velocity": 0.5039370078740157
        },
        {
          "duration": 0.10700746874999822,
          "durationTicks": 113,
          "midi": 77,
          "name": "F5",
          "ticks": 107040,
          "time": 101.36353500000001,
          "velocity": 0.5039370078740157
        },
        {
          "duration": 0.10700746874999822,
          "durationTicks": 113,
          "midi": 82,
          "name": "A#5",
          "ticks": 107160,
          "time": 101.47717125000001,
          "velocity": 0.5039370078740157
        },
        {
          "duration": 0.10700746874999822,
          "durationTicks": 113,
          "midi": 72,
          "name": "C5",
          "ticks": 107280,
          "time": 101.59080750000001,
          "velocity": 0.5039370078740157
        },
        {
          "duration": 0.10700746874999822,
          "durationTicks": 113,
          "midi": 77,
          "name": "F5",
          "ticks": 107400,
          "time": 101.70444375000001,
          "velocity": 0.5039370078740157
        },
        {
          "duration": 0.10700746874999822,
          "durationTicks": 113,
          "midi": 82,
          "name": "A#5",
          "ticks": 107520,
          "time": 101.81808000000001,
          "velocity": 0.5039370078740157
        },
        {
          "duration": 0.10700746874999822,
          "durationTicks": 113,
          "midi": 72,
          "name": "C5",
          "ticks": 107640,
          "time": 101.93171625000001,
          "velocity": 0.5039370078740157
        },
        {
          "duration": 0.10700746875001244,
          "durationTicks": 113,
          "midi": 81,
          "name": "A5",
          "ticks": 107760,
          "time": 102.0453525,
          "velocity": 0.5039370078740157
        },
        {
          "duration": 0.10700746875001244,
          "durationTicks": 113,
          "midi": 74,
          "name": "D5",
          "ticks": 107880,
          "time": 102.15898875,
          "velocity": 0.5039370078740157
        },
        {
          "duration": 0.10700746875001244,
          "durationTicks": 113,
          "midi": 70,
          "name": "A#4",
          "ticks": 108000,
          "time": 102.272625,
          "velocity": 0.5039370078740157
        },
        {
          "duration": 0.10700746875001244,
          "durationTicks": 113,
          "midi": 74,
          "name": "D5",
          "ticks": 108120,
          "time": 102.38626125,
          "velocity": 0.5039370078740157
        },
        {
          "duration": 0.10700746875001244,
          "durationTicks": 113,
          "midi": 70,
          "name": "A#4",
          "ticks": 108240,
          "time": 102.4998975,
          "velocity": 0.5039370078740157
        },
        {
          "duration": 0.10700746875001244,
          "durationTicks": 113,
          "midi": 74,
          "name": "D5",
          "ticks": 108360,
          "time": 102.61353375,
          "velocity": 0.5039370078740157
        },
        {
          "duration": 0.10700746875001244,
          "durationTicks": 113,
          "midi": 70,
          "name": "A#4",
          "ticks": 108480,
          "time": 102.72717,
          "velocity": 0.5039370078740157
        },
        {
          "duration": 0.10700746874999822,
          "durationTicks": 113,
          "midi": 74,
          "name": "D5",
          "ticks": 108600,
          "time": 102.84080625000001,
          "velocity": 0.5039370078740157
        },
        {
          "duration": 0.43087078124999323,
          "durationTicks": 455,
          "midi": 82,
          "name": "A#5",
          "ticks": 108720,
          "time": 102.95444250000001,
          "velocity": 0.5039370078740157
        },
        {
          "duration": 0.21496190624999656,
          "durationTicks": 227,
          "midi": 82,
          "name": "A#5",
          "ticks": 109440,
          "time": 103.63626000000001,
          "velocity": 0.5039370078740157
        },
        {
          "duration": 0.21496190624999656,
          "durationTicks": 227,
          "midi": 94,
          "name": "A#6",
          "ticks": 109440,
          "time": 103.63626000000001,
          "velocity": 0.5039370078740157
        },
        {
          "duration": 0.21496190624999656,
          "durationTicks": 227,
          "midi": 84,
          "name": "C6",
          "ticks": 109680,
          "time": 103.8635325,
          "velocity": 0.5039370078740157
        },
        {
          "duration": 0.21496190624999656,
          "durationTicks": 227,
          "midi": 96,
          "name": "C7",
          "ticks": 109680,
          "time": 103.8635325,
          "velocity": 0.5039370078740157
        },
        {
          "duration": 0.10700746875001244,
          "durationTicks": 113,
          "midi": 82,
          "name": "A#5",
          "ticks": 109920,
          "time": 104.090805,
          "velocity": 0.5039370078740157
        },
        {
          "duration": 0.10700746875001244,
          "durationTicks": 113,
          "midi": 94,
          "name": "A#6",
          "ticks": 109920,
          "time": 104.090805,
          "velocity": 0.5039370078740157
        },
        {
          "duration": 0.3229163437500091,
          "durationTicks": 341,
          "midi": 84,
          "name": "C6",
          "ticks": 110040,
          "time": 104.20444125,
          "velocity": 0.5039370078740157
        },
        {
          "duration": 0.3229163437500091,
          "durationTicks": 341,
          "midi": 96,
          "name": "C7",
          "ticks": 110040,
          "time": 104.20444125,
          "velocity": 0.5039370078740157
        },
        {
          "duration": 0.21496190624999656,
          "durationTicks": 227,
          "midi": 82,
          "name": "A#5",
          "ticks": 110400,
          "time": 104.54535000000001,
          "velocity": 0.5039370078740157
        },
        {
          "duration": 0.21496190624999656,
          "durationTicks": 227,
          "midi": 94,
          "name": "A#6",
          "ticks": 110400,
          "time": 104.54535000000001,
          "velocity": 0.5039370078740157
        },
        {
          "duration": 0.21496190624999656,
          "durationTicks": 227,
          "midi": 84,
          "name": "C6",
          "ticks": 110640,
          "time": 104.77262250000001,
          "velocity": 0.5039370078740157
        },
        {
          "duration": 0.21496190624999656,
          "durationTicks": 227,
          "midi": 96,
          "name": "C7",
          "ticks": 110640,
          "time": 104.77262250000001,
          "velocity": 0.5039370078740157
        },
        {
          "duration": 0.10700746874999822,
          "durationTicks": 113,
          "midi": 82,
          "name": "A#5",
          "ticks": 110880,
          "time": 104.99989500000001,
          "velocity": 0.5039370078740157
        },
        {
          "duration": 0.10700746874999822,
          "durationTicks": 113,
          "midi": 94,
          "name": "A#6",
          "ticks": 110880,
          "time": 104.99989500000001,
          "velocity": 0.5039370078740157
        },
        {
          "duration": 0.3229163437500091,
          "durationTicks": 341,
          "midi": 84,
          "name": "C6",
          "ticks": 111000,
          "time": 105.11353125000001,
          "velocity": 0.5039370078740157
        },
        {
          "duration": 0.3229163437500091,
          "durationTicks": 341,
          "midi": 96,
          "name": "C7",
          "ticks": 111000,
          "time": 105.11353125000001,
          "velocity": 0.5039370078740157
        },
        {
          "duration": 0.21496190624999656,
          "durationTicks": 227,
          "midi": 82,
          "name": "A#5",
          "ticks": 111360,
          "time": 105.45444,
          "velocity": 0.5039370078740157
        },
        {
          "duration": 0.21496190624999656,
          "durationTicks": 227,
          "midi": 94,
          "name": "A#6",
          "ticks": 111360,
          "time": 105.45444,
          "velocity": 0.5039370078740157
        },
        {
          "duration": 0.21496190624999656,
          "durationTicks": 227,
          "midi": 81,
          "name": "A5",
          "ticks": 111600,
          "time": 105.6817125,
          "velocity": 0.5039370078740157
        },
        {
          "duration": 0.21496190624999656,
          "durationTicks": 227,
          "midi": 93,
          "name": "A6",
          "ticks": 111600,
          "time": 105.6817125,
          "velocity": 0.5039370078740157
        },
        {
          "duration": 0.10700746875001244,
          "durationTicks": 113,
          "midi": 81,
          "name": "A5",
          "ticks": 111840,
          "time": 105.908985,
          "velocity": 0.5039370078740157
        },
        {
          "duration": 0.10700746875001244,
          "durationTicks": 113,
          "midi": 93,
          "name": "A6",
          "ticks": 111840,
          "time": 105.908985,
          "velocity": 0.5039370078740157
        },
        {
          "duration": 0.3229163437499949,
          "durationTicks": 341,
          "midi": 81,
          "name": "A5",
          "ticks": 111960,
          "time": 106.02262125000001,
          "velocity": 0.5039370078740157
        },
        {
          "duration": 0.3229163437499949,
          "durationTicks": 341,
          "midi": 93,
          "name": "A6",
          "ticks": 111960,
          "time": 106.02262125000001,
          "velocity": 0.5039370078740157
        },
        {
          "duration": 0.21496190624999656,
          "durationTicks": 227,
          "midi": 81,
          "name": "A5",
          "ticks": 112320,
          "time": 106.36353000000001,
          "velocity": 0.5039370078740157
        },
        {
          "duration": 0.21496190624999656,
          "durationTicks": 227,
          "midi": 93,
          "name": "A6",
          "ticks": 112320,
          "time": 106.36353000000001,
          "velocity": 0.5039370078740157
        },
        {
          "duration": 0.21496190624999656,
          "durationTicks": 227,
          "midi": 81,
          "name": "A5",
          "ticks": 112560,
          "time": 106.59080250000001,
          "velocity": 0.5039370078740157
        },
        {
          "duration": 0.21496190624999656,
          "durationTicks": 227,
          "midi": 93,
          "name": "A6",
          "ticks": 112560,
          "time": 106.59080250000001,
          "velocity": 0.5039370078740157
        },
        {
          "duration": 0.10700746875001244,
          "durationTicks": 113,
          "midi": 81,
          "name": "A5",
          "ticks": 112800,
          "time": 106.81807500000001,
          "velocity": 0.5039370078740157
        },
        {
          "duration": 0.10700746875001244,
          "durationTicks": 113,
          "midi": 93,
          "name": "A6",
          "ticks": 112800,
          "time": 106.81807500000001,
          "velocity": 0.5039370078740157
        },
        {
          "duration": 0.3229163437500091,
          "durationTicks": 341,
          "midi": 81,
          "name": "A5",
          "ticks": 112920,
          "time": 106.93171125,
          "velocity": 0.5039370078740157
        },
        {
          "duration": 0.3229163437500091,
          "durationTicks": 341,
          "midi": 93,
          "name": "A6",
          "ticks": 112920,
          "time": 106.93171125,
          "velocity": 0.5039370078740157
        },
        {
          "duration": 0.21496190624999656,
          "durationTicks": 227,
          "midi": 82,
          "name": "A#5",
          "ticks": 113280,
          "time": 107.27262,
          "velocity": 0.5039370078740157
        },
        {
          "duration": 0.21496190624999656,
          "durationTicks": 227,
          "midi": 94,
          "name": "A#6",
          "ticks": 113280,
          "time": 107.27262,
          "velocity": 0.5039370078740157
        },
        {
          "duration": 0.21496190625001077,
          "durationTicks": 227,
          "midi": 84,
          "name": "C6",
          "ticks": 113520,
          "time": 107.4998925,
          "velocity": 0.5039370078740157
        },
        {
          "duration": 0.21496190625001077,
          "durationTicks": 227,
          "midi": 96,
          "name": "C7",
          "ticks": 113520,
          "time": 107.4998925,
          "velocity": 0.5039370078740157
        },
        {
          "duration": 0.10700746874999822,
          "durationTicks": 113,
          "midi": 82,
          "name": "A#5",
          "ticks": 113760,
          "time": 107.72716500000001,
          "velocity": 0.5039370078740157
        },
        {
          "duration": 0.10700746874999822,
          "durationTicks": 113,
          "midi": 94,
          "name": "A#6",
          "ticks": 113760,
          "time": 107.72716500000001,
          "velocity": 0.5039370078740157
        },
        {
          "duration": 0.3229163437499949,
          "durationTicks": 341,
          "midi": 84,
          "name": "C6",
          "ticks": 113880,
          "time": 107.84080125000001,
          "velocity": 0.5039370078740157
        },
        {
          "duration": 0.3229163437499949,
          "durationTicks": 341,
          "midi": 96,
          "name": "C7",
          "ticks": 113880,
          "time": 107.84080125000001,
          "velocity": 0.5039370078740157
        },
        {
          "duration": 0.21496190624999656,
          "durationTicks": 227,
          "midi": 82,
          "name": "A#5",
          "ticks": 114240,
          "time": 108.18171000000001,
          "velocity": 0.5039370078740157
        },
        {
          "duration": 0.21496190624999656,
          "durationTicks": 227,
          "midi": 94,
          "name": "A#6",
          "ticks": 114240,
          "time": 108.18171000000001,
          "velocity": 0.5039370078740157
        },
        {
          "duration": 0.21496190624999656,
          "durationTicks": 227,
          "midi": 84,
          "name": "C6",
          "ticks": 114480,
          "time": 108.40898250000001,
          "velocity": 0.5039370078740157
        },
        {
          "duration": 0.21496190624999656,
          "durationTicks": 227,
          "midi": 96,
          "name": "C7",
          "ticks": 114480,
          "time": 108.40898250000001,
          "velocity": 0.5039370078740157
        },
        {
          "duration": 0.10700746875001244,
          "durationTicks": 113,
          "midi": 82,
          "name": "A#5",
          "ticks": 114720,
          "time": 108.636255,
          "velocity": 0.5039370078740157
        },
        {
          "duration": 0.10700746875001244,
          "durationTicks": 113,
          "midi": 94,
          "name": "A#6",
          "ticks": 114720,
          "time": 108.636255,
          "velocity": 0.5039370078740157
        },
        {
          "duration": 0.3229163437500091,
          "durationTicks": 341,
          "midi": 84,
          "name": "C6",
          "ticks": 114840,
          "time": 108.74989125,
          "velocity": 0.5039370078740157
        },
        {
          "duration": 0.3229163437500091,
          "durationTicks": 341,
          "midi": 96,
          "name": "C7",
          "ticks": 114840,
          "time": 108.74989125,
          "velocity": 0.5039370078740157
        },
        {
          "duration": 0.21496190625001077,
          "durationTicks": 227,
          "midi": 82,
          "name": "A#5",
          "ticks": 115200,
          "time": 109.0908,
          "velocity": 0.5039370078740157
        },
        {
          "duration": 0.21496190625001077,
          "durationTicks": 227,
          "midi": 94,
          "name": "A#6",
          "ticks": 115200,
          "time": 109.0908,
          "velocity": 0.5039370078740157
        },
        {
          "duration": 0.21496190624999656,
          "durationTicks": 227,
          "midi": 81,
          "name": "A5",
          "ticks": 115440,
          "time": 109.31807250000001,
          "velocity": 0.5039370078740157
        },
        {
          "duration": 0.21496190624999656,
          "durationTicks": 227,
          "midi": 93,
          "name": "A6",
          "ticks": 115440,
          "time": 109.31807250000001,
          "velocity": 0.5039370078740157
        },
        {
          "duration": 0.10700746874999822,
          "durationTicks": 113,
          "midi": 81,
          "name": "A5",
          "ticks": 115680,
          "time": 109.54534500000001,
          "velocity": 0.5039370078740157
        },
        {
          "duration": 0.10700746874999822,
          "durationTicks": 113,
          "midi": 93,
          "name": "A6",
          "ticks": 115680,
          "time": 109.54534500000001,
          "velocity": 0.5039370078740157
        },
        {
          "duration": 0.3229163437499949,
          "durationTicks": 341,
          "midi": 81,
          "name": "A5",
          "ticks": 115800,
          "time": 109.65898125000001,
          "velocity": 0.5039370078740157
        },
        {
          "duration": 0.3229163437499949,
          "durationTicks": 341,
          "midi": 93,
          "name": "A6",
          "ticks": 115800,
          "time": 109.65898125000001,
          "velocity": 0.5039370078740157
        },
        {
          "duration": 0.21496190624999656,
          "durationTicks": 227,
          "midi": 81,
          "name": "A5",
          "ticks": 116160,
          "time": 109.99989000000001,
          "velocity": 0.5039370078740157
        },
        {
          "duration": 0.21496190624999656,
          "durationTicks": 227,
          "midi": 93,
          "name": "A6",
          "ticks": 116160,
          "time": 109.99989000000001,
          "velocity": 0.5039370078740157
        },
        {
          "duration": 0.21496190624999656,
          "durationTicks": 227,
          "midi": 81,
          "name": "A5",
          "ticks": 116400,
          "time": 110.2271625,
          "velocity": 0.5039370078740157
        },
        {
          "duration": 0.21496190624999656,
          "durationTicks": 227,
          "midi": 93,
          "name": "A6",
          "ticks": 116400,
          "time": 110.2271625,
          "velocity": 0.5039370078740157
        },
        {
          "duration": 0.10700746875001244,
          "durationTicks": 113,
          "midi": 81,
          "name": "A5",
          "ticks": 116640,
          "time": 110.454435,
          "velocity": 0.5039370078740157
        },
        {
          "duration": 0.10700746875001244,
          "durationTicks": 113,
          "midi": 93,
          "name": "A6",
          "ticks": 116640,
          "time": 110.454435,
          "velocity": 0.5039370078740157
        },
        {
          "duration": 0.3229163437500091,
          "durationTicks": 341,
          "midi": 81,
          "name": "A5",
          "ticks": 116760,
          "time": 110.56807125,
          "velocity": 0.5039370078740157
        },
        {
          "duration": 0.3229163437500091,
          "durationTicks": 341,
          "midi": 93,
          "name": "A6",
          "ticks": 116760,
          "time": 110.56807125,
          "velocity": 0.5039370078740157
        },
        {
          "duration": 0.21496190624999656,
          "durationTicks": 227,
          "midi": 82,
          "name": "A#5",
          "ticks": 117120,
          "time": 110.90898000000001,
          "velocity": 0.5039370078740157
        },
        {
          "duration": 0.21496190624999656,
          "durationTicks": 227,
          "midi": 94,
          "name": "A#6",
          "ticks": 117120,
          "time": 110.90898000000001,
          "velocity": 0.5039370078740157
        },
        {
          "duration": 0.21496190624999656,
          "durationTicks": 227,
          "midi": 72,
          "name": "C5",
          "ticks": 117360,
          "time": 111.13625250000001,
          "velocity": 0.6299212598425197
        },
        {
          "duration": 0.21496190624999656,
          "durationTicks": 227,
          "midi": 75,
          "name": "D#5",
          "ticks": 117360,
          "time": 111.13625250000001,
          "velocity": 0.6299212598425197
        },
        {
          "duration": 0.21496190624999656,
          "durationTicks": 227,
          "midi": 79,
          "name": "G5",
          "ticks": 117360,
          "time": 111.13625250000001,
          "velocity": 0.6299212598425197
        },
        {
          "duration": 0.21496190624999656,
          "durationTicks": 227,
          "midi": 84,
          "name": "C6",
          "ticks": 117360,
          "time": 111.13625250000001,
          "velocity": 0.6299212598425197
        },
        {
          "duration": 0.10700746874999822,
          "durationTicks": 113,
          "midi": 70,
          "name": "A#4",
          "ticks": 117600,
          "time": 111.36352500000001,
          "velocity": 0.6377952755905512
        },
        {
          "duration": 0.10700746874999822,
          "durationTicks": 113,
          "midi": 82,
          "name": "A#5",
          "ticks": 117600,
          "time": 111.36352500000001,
          "velocity": 0.6377952755905512
        },
        {
          "duration": 0.3229163437500091,
          "durationTicks": 341,
          "midi": 72,
          "name": "C5",
          "ticks": 117720,
          "time": 111.47716125000001,
          "velocity": 0.6377952755905512
        },
        {
          "duration": 0.3229163437500091,
          "durationTicks": 341,
          "midi": 75,
          "name": "D#5",
          "ticks": 117720,
          "time": 111.47716125000001,
          "velocity": 0.6377952755905512
        },
        {
          "duration": 0.3229163437500091,
          "durationTicks": 341,
          "midi": 79,
          "name": "G5",
          "ticks": 117720,
          "time": 111.47716125000001,
          "velocity": 0.6377952755905512
        },
        {
          "duration": 0.3229163437500091,
          "durationTicks": 341,
          "midi": 84,
          "name": "C6",
          "ticks": 117720,
          "time": 111.47716125000001,
          "velocity": 0.6377952755905512
        },
        {
          "duration": 0.21496190624999656,
          "durationTicks": 227,
          "midi": 82,
          "name": "A#5",
          "ticks": 118080,
          "time": 111.81807,
          "velocity": 0.6535433070866141
        },
        {
          "duration": 0.21496190624999656,
          "durationTicks": 227,
          "midi": 94,
          "name": "A#6",
          "ticks": 118080,
          "time": 111.81807,
          "velocity": 0.6535433070866141
        },
        {
          "duration": 0.21496190624999656,
          "durationTicks": 227,
          "midi": 84,
          "name": "C6",
          "ticks": 118320,
          "time": 112.0453425,
          "velocity": 0.6614173228346457
        },
        {
          "duration": 0.21496190624999656,
          "durationTicks": 227,
          "midi": 87,
          "name": "D#6",
          "ticks": 118320,
          "time": 112.0453425,
          "velocity": 0.6614173228346457
        },
        {
          "duration": 0.21496190624999656,
          "durationTicks": 227,
          "midi": 91,
          "name": "G6",
          "ticks": 118320,
          "time": 112.0453425,
          "velocity": 0.6614173228346457
        },
        {
          "duration": 0.21496190624999656,
          "durationTicks": 227,
          "midi": 96,
          "name": "C7",
          "ticks": 118320,
          "time": 112.0453425,
          "velocity": 0.6614173228346457
        },
        {
          "duration": 0.10700746875001244,
          "durationTicks": 113,
          "midi": 82,
          "name": "A#5",
          "ticks": 118560,
          "time": 112.272615,
          "velocity": 0.6692913385826772
        },
        {
          "duration": 0.10700746875001244,
          "durationTicks": 113,
          "midi": 94,
          "name": "A#6",
          "ticks": 118560,
          "time": 112.272615,
          "velocity": 0.6692913385826772
        },
        {
          "duration": 0.3229163437499949,
          "durationTicks": 341,
          "midi": 84,
          "name": "C6",
          "ticks": 118680,
          "time": 112.38625125000002,
          "velocity": 0.6771653543307087
        },
        {
          "duration": 0.3229163437499949,
          "durationTicks": 341,
          "midi": 87,
          "name": "D#6",
          "ticks": 118680,
          "time": 112.38625125000002,
          "velocity": 0.6771653543307087
        },
        {
          "duration": 0.3229163437499949,
          "durationTicks": 341,
          "midi": 91,
          "name": "G6",
          "ticks": 118680,
          "time": 112.38625125000002,
          "velocity": 0.6771653543307087
        },
        {
          "duration": 0.3229163437499949,
          "durationTicks": 341,
          "midi": 96,
          "name": "C7",
          "ticks": 118680,
          "time": 112.38625125000002,
          "velocity": 0.6771653543307087
        },
        {
          "duration": 0.21496190624999656,
          "durationTicks": 227,
          "midi": 70,
          "name": "A#4",
          "ticks": 119040,
          "time": 112.72716000000001,
          "velocity": 0.6929133858267716
        },
        {
          "duration": 0.21496190624999656,
          "durationTicks": 227,
          "midi": 82,
          "name": "A#5",
          "ticks": 119040,
          "time": 112.72716000000001,
          "velocity": 0.6929133858267716
        },
        {
          "duration": 0.21496190624999656,
          "durationTicks": 227,
          "midi": 72,
          "name": "C5",
          "ticks": 119280,
          "time": 112.95443250000001,
          "velocity": 0.7007874015748031
        },
        {
          "duration": 0.21496190624999656,
          "durationTicks": 227,
          "midi": 77,
          "name": "F5",
          "ticks": 119280,
          "time": 112.95443250000001,
          "velocity": 0.7007874015748031
        },
        {
          "duration": 0.21496190624999656,
          "durationTicks": 227,
          "midi": 84,
          "name": "C6",
          "ticks": 119280,
          "time": 112.95443250000001,
          "velocity": 0.7007874015748031
        },
        {
          "duration": 0.10700746875001244,
          "durationTicks": 113,
          "midi": 70,
          "name": "A#4",
          "ticks": 119520,
          "time": 113.18170500000001,
          "velocity": 0.7086614173228346
        },
        {
          "duration": 0.10700746875001244,
          "durationTicks": 113,
          "midi": 82,
          "name": "A#5",
          "ticks": 119520,
          "time": 113.18170500000001,
          "velocity": 0.7086614173228346
        },
        {
          "duration": 0.3229163437500091,
          "durationTicks": 341,
          "midi": 72,
          "name": "C5",
          "ticks": 119640,
          "time": 113.29534125,
          "velocity": 0.7086614173228346
        },
        {
          "duration": 0.3229163437500091,
          "durationTicks": 341,
          "midi": 77,
          "name": "F5",
          "ticks": 119640,
          "time": 113.29534125,
          "velocity": 0.7086614173228346
        },
        {
          "duration": 0.3229163437500091,
          "durationTicks": 341,
          "midi": 84,
          "name": "C6",
          "ticks": 119640,
          "time": 113.29534125,
          "velocity": 0.7086614173228346
        },
        {
          "duration": 0.21496190624999656,
          "durationTicks": 227,
          "midi": 82,
          "name": "A#5",
          "ticks": 120000,
          "time": 113.63625,
          "velocity": 0.7244094488188977
        },
        {
          "duration": 0.21496190624999656,
          "durationTicks": 227,
          "midi": 94,
          "name": "A#6",
          "ticks": 120000,
          "time": 113.63625,
          "velocity": 0.7244094488188977
        },
        {
          "duration": 0.21496190625001077,
          "durationTicks": 227,
          "midi": 84,
          "name": "C6",
          "ticks": 120240,
          "time": 113.8635225,
          "velocity": 0.7322834645669292
        },
        {
          "duration": 0.21496190625001077,
          "durationTicks": 227,
          "midi": 89,
          "name": "F6",
          "ticks": 120240,
          "time": 113.8635225,
          "velocity": 0.7322834645669292
        },
        {
          "duration": 0.21496190625001077,
          "durationTicks": 227,
          "midi": 96,
          "name": "C7",
          "ticks": 120240,
          "time": 113.8635225,
          "velocity": 0.7322834645669292
        },
        {
          "duration": 0.10700746874999822,
          "durationTicks": 113,
          "midi": 82,
          "name": "A#5",
          "ticks": 120480,
          "time": 114.09079500000001,
          "velocity": 0.7401574803149606
        },
        {
          "duration": 0.10700746874999822,
          "durationTicks": 113,
          "midi": 94,
          "name": "A#6",
          "ticks": 120480,
          "time": 114.09079500000001,
          "velocity": 0.7401574803149606
        },
        {
          "duration": 0.3229163437499949,
          "durationTicks": 341,
          "midi": 84,
          "name": "C6",
          "ticks": 120600,
          "time": 114.20443125000001,
          "velocity": 0.7480314960629921
        },
        {
          "duration": 0.3229163437499949,
          "durationTicks": 341,
          "midi": 89,
          "name": "F6",
          "ticks": 120600,
          "time": 114.20443125000001,
          "velocity": 0.7480314960629921
        },
        {
          "duration": 0.3229163437499949,
          "durationTicks": 341,
          "midi": 96,
          "name": "C7",
          "ticks": 120600,
          "time": 114.20443125000001,
          "velocity": 0.7480314960629921
        },
        {
          "duration": 0.21496190624999656,
          "durationTicks": 227,
          "midi": 70,
          "name": "A#4",
          "ticks": 120960,
          "time": 114.54534000000001,
          "velocity": 0.7637795275590551
        },
        {
          "duration": 0.21496190624999656,
          "durationTicks": 227,
          "midi": 82,
          "name": "A#5",
          "ticks": 120960,
          "time": 114.54534000000001,
          "velocity": 0.7637795275590551
        },
        {
          "duration": 0.21496190624999656,
          "durationTicks": 227,
          "midi": 72,
          "name": "C5",
          "ticks": 121200,
          "time": 114.77261250000001,
          "velocity": 0.7716535433070866
        },
        {
          "duration": 0.21496190624999656,
          "durationTicks": 227,
          "midi": 77,
          "name": "F5",
          "ticks": 121200,
          "time": 114.77261250000001,
          "velocity": 0.7716535433070866
        },
        {
          "duration": 0.21496190624999656,
          "durationTicks": 227,
          "midi": 84,
          "name": "C6",
          "ticks": 121200,
          "time": 114.77261250000001,
          "velocity": 0.7716535433070866
        },
        {
          "duration": 0.10700746875001244,
          "durationTicks": 113,
          "midi": 70,
          "name": "A#4",
          "ticks": 121440,
          "time": 114.999885,
          "velocity": 0.7795275590551181
        },
        {
          "duration": 0.10700746875001244,
          "durationTicks": 113,
          "midi": 82,
          "name": "A#5",
          "ticks": 121440,
          "time": 114.999885,
          "velocity": 0.7795275590551181
        },
        {
          "duration": 0.3229163437500091,
          "durationTicks": 341,
          "midi": 72,
          "name": "C5",
          "ticks": 121560,
          "time": 115.11352125,
          "velocity": 0.7874015748031497
        },
        {
          "duration": 0.3229163437500091,
          "durationTicks": 341,
          "midi": 77,
          "name": "F5",
          "ticks": 121560,
          "time": 115.11352125,
          "velocity": 0.7874015748031497
        },
        {
          "duration": 0.3229163437500091,
          "durationTicks": 341,
          "midi": 84,
          "name": "C6",
          "ticks": 121560,
          "time": 115.11352125,
          "velocity": 0.7874015748031497
        },
        {
          "duration": 0.21496190625001077,
          "durationTicks": 227,
          "midi": 82,
          "name": "A#5",
          "ticks": 121920,
          "time": 115.45443,
          "velocity": 0.7952755905511811
        },
        {
          "duration": 0.21496190625001077,
          "durationTicks": 227,
          "midi": 94,
          "name": "A#6",
          "ticks": 121920,
          "time": 115.45443,
          "velocity": 0.7952755905511811
        },
        {
          "duration": 0.3229163437499949,
          "durationTicks": 341,
          "midi": 84,
          "name": "C6",
          "ticks": 122160,
          "time": 115.68170250000001,
          "velocity": 0.8031496062992126
        },
        {
          "duration": 0.3229163437499949,
          "durationTicks": 341,
          "midi": 89,
          "name": "F6",
          "ticks": 122160,
          "time": 115.68170250000001,
          "velocity": 0.8031496062992126
        },
        {
          "duration": 0.3229163437499949,
          "durationTicks": 341,
          "midi": 96,
          "name": "C7",
          "ticks": 122160,
          "time": 115.68170250000001,
          "velocity": 0.8031496062992126
        },
        {
          "duration": 0.3229163437499949,
          "durationTicks": 341,
          "midi": 82,
          "name": "A#5",
          "ticks": 122520,
          "time": 116.02261125000001,
          "velocity": 0.8188976377952756
        },
        {
          "duration": 0.3229163437499949,
          "durationTicks": 341,
          "midi": 94,
          "name": "A#6",
          "ticks": 122520,
          "time": 116.02261125000001,
          "velocity": 0.8188976377952756
        },
        {
          "duration": 0.43087078125000744,
          "durationTicks": 455,
          "midi": 84,
          "name": "C6",
          "ticks": 122880,
          "time": 116.36352000000001,
          "velocity": 0.8346456692913385
        },
        {
          "duration": 0.43087078125000744,
          "durationTicks": 455,
          "midi": 89,
          "name": "F6",
          "ticks": 122880,
          "time": 116.36352000000001,
          "velocity": 0.8346456692913385
        },
        {
          "duration": 0.43087078125000744,
          "durationTicks": 455,
          "midi": 96,
          "name": "C7",
          "ticks": 122880,
          "time": 116.36352000000001,
          "velocity": 0.8346456692913385
        },
        {
          "duration": 0.6467796562500041,
          "durationTicks": 683,
          "midi": 70,
          "name": "A#4",
          "ticks": 123360,
          "time": 116.818065,
          "velocity": 0.8503937007874016
        },
        {
          "duration": 0.6467796562500041,
          "durationTicks": 683,
          "midi": 82,
          "name": "A#5",
          "ticks": 123360,
          "time": 116.818065,
          "velocity": 0.8503937007874016
        },
        {
          "duration": 0.3229163437499949,
          "durationTicks": 341,
          "midi": 79,
          "name": "G5",
          "ticks": 124080,
          "time": 117.49988250000001,
          "velocity": 0.8818897637795275
        },
        {
          "duration": 0.3229163437499949,
          "durationTicks": 341,
          "midi": 81,
          "name": "A5",
          "ticks": 124080,
          "time": 117.49988250000001,
          "velocity": 0.8818897637795275
        },
        {
          "duration": 0.3229163437499949,
          "durationTicks": 341,
          "midi": 82,
          "name": "A#5",
          "ticks": 124080,
          "time": 117.49988250000001,
          "velocity": 0.8818897637795275
        },
        {
          "duration": 0.3229163437499949,
          "durationTicks": 341,
          "midi": 86,
          "name": "D6",
          "ticks": 124080,
          "time": 117.49988250000001,
          "velocity": 0.8818897637795275
        },
        {
          "duration": 0.3229163437499949,
          "durationTicks": 341,
          "midi": 91,
          "name": "G6",
          "ticks": 124080,
          "time": 117.49988250000001,
          "velocity": 0.8818897637795275
        },
        {
          "duration": 0.3229163437500091,
          "durationTicks": 341,
          "midi": 79,
          "name": "G5",
          "ticks": 124440,
          "time": 117.84079125000001,
          "velocity": 0.8818897637795275
        },
        {
          "duration": 0.3229163437500091,
          "durationTicks": 341,
          "midi": 81,
          "name": "A5",
          "ticks": 124440,
          "time": 117.84079125000001,
          "velocity": 0.8818897637795275
        },
        {
          "duration": 0.3229163437500091,
          "durationTicks": 341,
          "midi": 82,
          "name": "A#5",
          "ticks": 124440,
          "time": 117.84079125000001,
          "velocity": 0.8818897637795275
        },
        {
          "duration": 0.3229163437500091,
          "durationTicks": 341,
          "midi": 86,
          "name": "D6",
          "ticks": 124440,
          "time": 117.84079125000001,
          "velocity": 0.8818897637795275
        },
        {
          "duration": 0.3229163437500091,
          "durationTicks": 341,
          "midi": 91,
          "name": "G6",
          "ticks": 124440,
          "time": 117.84079125000001,
          "velocity": 0.8818897637795275
        },
        {
          "duration": 1.5909075000000001,
          "durationTicks": 1680,
          "midi": 79,
          "name": "G5",
          "ticks": 124800,
          "time": 118.1817,
          "velocity": 0.8818897637795275
        },
        {
          "duration": 1.666665000000009,
          "durationTicks": 1760,
          "midi": 81,
          "name": "A5",
          "ticks": 124800,
          "time": 118.1817,
          "velocity": 0.8818897637795275
        },
        {
          "duration": 1.7424224999999893,
          "durationTicks": 1840,
          "midi": 82,
          "name": "A#5",
          "ticks": 124800,
          "time": 118.1817,
          "velocity": 0.8818897637795275
        },
        {
          "duration": 1.8181799999999981,
          "durationTicks": 1920,
          "midi": 86,
          "name": "D6",
          "ticks": 124800,
          "time": 118.1817,
          "velocity": 0.8818897637795275
        },
        {
          "duration": 1.893937500000007,
          "durationTicks": 2000,
          "midi": 91,
          "name": "G6",
          "ticks": 124800,
          "time": 118.1817,
          "velocity": 0.8818897637795275
        },
        {
          "duration": 0.08996203125001045,
          "durationTicks": 95,
          "midi": 50,
          "name": "D3",
          "ticks": 125232,
          "time": 118.5907905,
          "velocity": 0.8818897637795275
        },
        {
          "duration": 0.08996203124998203,
          "durationTicks": 95,
          "midi": 55,
          "name": "G3",
          "ticks": 125328,
          "time": 118.68169950000002,
          "velocity": 0.8818897637795275
        },
        {
          "duration": 0.08996203124998203,
          "durationTicks": 95,
          "midi": 57,
          "name": "A3",
          "ticks": 125424,
          "time": 118.77260850000002,
          "velocity": 0.8818897637795275
        },
        {
          "duration": 0.08996203124999624,
          "durationTicks": 95,
          "midi": 58,
          "name": "A#3",
          "ticks": 125520,
          "time": 118.86351750000001,
          "velocity": 0.8818897637795275
        },
        {
          "duration": 0.08996203125001045,
          "durationTicks": 95,
          "midi": 62,
          "name": "D4",
          "ticks": 125616,
          "time": 118.9544265,
          "velocity": 0.8818897637795275
        },
        {
          "duration": 0.08996203125001045,
          "durationTicks": 95,
          "midi": 67,
          "name": "G4",
          "ticks": 125712,
          "time": 119.0453355,
          "velocity": 0.8818897637795275
        },
        {
          "duration": 0.08996203124998203,
          "durationTicks": 95,
          "midi": 69,
          "name": "A4",
          "ticks": 125808,
          "time": 119.13624450000002,
          "velocity": 0.8818897637795275
        },
        {
          "duration": 0.08996203124998203,
          "durationTicks": 95,
          "midi": 70,
          "name": "A#4",
          "ticks": 125904,
          "time": 119.22715350000001,
          "velocity": 0.8818897637795275
        },
        {
          "duration": 0.07481053124999448,
          "durationTicks": 79,
          "midi": 74,
          "name": "D5",
          "ticks": 126000,
          "time": 119.31806250000001,
          "velocity": 0.8818897637795275
        },
        {
          "duration": 0.07481053124999448,
          "durationTicks": 79,
          "midi": 62,
          "name": "D4",
          "ticks": 126080,
          "time": 119.39382000000002,
          "velocity": 0.8818897637795275
        },
        {
          "duration": 0.07481053124999448,
          "durationTicks": 79,
          "midi": 67,
          "name": "G4",
          "ticks": 126160,
          "time": 119.4695775,
          "velocity": 0.8818897637795275
        },
        {
          "duration": 0.07481053124999448,
          "durationTicks": 79,
          "midi": 69,
          "name": "A4",
          "ticks": 126240,
          "time": 119.54533500000001,
          "velocity": 0.8818897637795275
        },
        {
          "duration": 0.07481053124999448,
          "durationTicks": 79,
          "midi": 70,
          "name": "A#4",
          "ticks": 126320,
          "time": 119.62109250000002,
          "velocity": 0.8818897637795275
        },
        {
          "duration": 0.07481053124999448,
          "durationTicks": 79,
          "midi": 74,
          "name": "D5",
          "ticks": 126400,
          "time": 119.69685,
          "velocity": 0.8818897637795275
        },
        {
          "duration": 0.3513254062500124,
          "durationTicks": 371,
          "midi": 79,
          "name": "G5",
          "ticks": 126480,
          "time": 119.7726075,
          "velocity": 0.8818897637795275
        },
        {
          "duration": 0.2755679062500036,
          "durationTicks": 291,
          "midi": 81,
          "name": "A5",
          "ticks": 126560,
          "time": 119.84836500000002,
          "velocity": 0.8818897637795275
        },
        {
          "duration": 0.19981040625002322,
          "durationTicks": 211,
          "midi": 82,
          "name": "A#5",
          "ticks": 126640,
          "time": 119.9241225,
          "velocity": 0.8818897637795275
        },
        {
          "duration": 0.12405290625001442,
          "durationTicks": 131,
          "midi": 86,
          "name": "D6",
          "ticks": 126720,
          "time": 119.99988,
          "velocity": 0.8818897637795275
        },
        {
          "duration": 0.07481053124999448,
          "durationTicks": 79,
          "midi": 91,
          "name": "G6",
          "ticks": 126800,
          "time": 120.07563750000001,
          "velocity": 0.8818897637795275
        },
        {
          "duration": 0.07102265625000825,
          "durationTicks": 75,
          "midi": 93,
          "name": "A6",
          "ticks": 126880,
          "time": 120.151395,
          "velocity": 0.8818897637795275
        },
        {
          "duration": 0.08996203125001045,
          "durationTicks": 95,
          "midi": 94,
          "name": "A#6",
          "ticks": 126960,
          "time": 120.2271525,
          "velocity": 0.8818897637795275
        },
        {
          "duration": 0.08996203125001045,
          "durationTicks": 95,
          "midi": 96,
          "name": "C7",
          "ticks": 127056,
          "time": 120.3180615,
          "velocity": 0.8818897637795275
        },
        {
          "duration": 0.08996203125001045,
          "durationTicks": 95,
          "midi": 94,
          "name": "A#6",
          "ticks": 127152,
          "time": 120.4089705,
          "velocity": 0.8818897637795275
        },
        {
          "duration": 0.08996203124998203,
          "durationTicks": 95,
          "midi": 89,
          "name": "F6",
          "ticks": 127248,
          "time": 120.49987950000002,
          "velocity": 0.8818897637795275
        },
        {
          "duration": 0.0852271874999957,
          "durationTicks": 90,
          "midi": 84,
          "name": "C6",
          "ticks": 127344,
          "time": 120.59078850000002,
          "velocity": 0.8818897637795275
        },
        {
          "duration": 0.08996203125001045,
          "durationTicks": 95,
          "midi": 82,
          "name": "A#5",
          "ticks": 127440,
          "time": 120.68169750000001,
          "velocity": 0.8818897637795275
        },
        {
          "duration": 0.08996203124999624,
          "durationTicks": 95,
          "midi": 84,
          "name": "C6",
          "ticks": 127536,
          "time": 120.77260650000001,
          "velocity": 0.8818897637795275
        },
        {
          "duration": 0.08996203125001045,
          "durationTicks": 95,
          "midi": 82,
          "name": "A#5",
          "ticks": 127632,
          "time": 120.86351549999999,
          "velocity": 0.8818897637795275
        },
        {
          "duration": 0.08996203124998203,
          "durationTicks": 95,
          "midi": 77,
          "name": "F5",
          "ticks": 127728,
          "time": 120.95442450000002,
          "velocity": 0.8818897637795275
        },
        {
          "duration": 0.0852271874999957,
          "durationTicks": 90,
          "midi": 72,
          "name": "C5",
          "ticks": 127824,
          "time": 121.04533350000001,
          "velocity": 0.8818897637795275
        },
        {
          "duration": 0.08996203125001045,
          "durationTicks": 95,
          "midi": 81,
          "name": "A5",
          "ticks": 127920,
          "time": 121.13624250000001,
          "velocity": 0.8818897637795275
        },
        {
          "duration": 0.08996203125001045,
          "durationTicks": 95,
          "midi": 77,
          "name": "F5",
          "ticks": 128016,
          "time": 121.2271515,
          "velocity": 0.8818897637795275
        },
        {
          "duration": 0.08996203125001045,
          "durationTicks": 95,
          "midi": 72,
          "name": "C5",
          "ticks": 128112,
          "time": 121.3180605,
          "velocity": 0.8818897637795275
        },
        {
          "duration": 0.08996203124999624,
          "durationTicks": 95,
          "midi": 70,
          "name": "A#4",
          "ticks": 128208,
          "time": 121.40896950000001,
          "velocity": 0.8818897637795275
        },
        {
          "duration": 0.08996203124998203,
          "durationTicks": 95,
          "midi": 69,
          "name": "A4",
          "ticks": 128304,
          "time": 121.49987850000001,
          "velocity": 0.8818897637795275
        },
        {
          "duration": 0.08996203125001045,
          "durationTicks": 95,
          "midi": 65,
          "name": "F4",
          "ticks": 128400,
          "time": 121.5907875,
          "velocity": 0.8818897637795275
        },
        {
          "duration": 0.08996203125001045,
          "durationTicks": 95,
          "midi": 60,
          "name": "C4",
          "ticks": 128496,
          "time": 121.6816965,
          "velocity": 0.8818897637795275
        },
        {
          "duration": 0.08996203125001045,
          "durationTicks": 95,
          "midi": 58,
          "name": "A#3",
          "ticks": 128592,
          "time": 121.7726055,
          "velocity": 0.8818897637795275
        },
        {
          "duration": 0.0852271874999957,
          "durationTicks": 90,
          "midi": 57,
          "name": "A3",
          "ticks": 128688,
          "time": 121.86351450000002,
          "velocity": 0.8818897637795275
        },
        {
          "duration": 0.909089999999992,
          "durationTicks": 960,
          "midi": 74,
          "name": "D5",
          "ticks": 128880,
          "time": 122.04533250000001,
          "velocity": 0.8818897637795275
        },
        {
          "duration": 1.363634999999988,
          "durationTicks": 1440,
          "midi": 79,
          "name": "G5",
          "ticks": 128880,
          "time": 122.04533250000001,
          "velocity": 0.8818897637795275
        },
        {
          "duration": 1.5151499999999913,
          "durationTicks": 1600,
          "midi": 82,
          "name": "A#5",
          "ticks": 128880,
          "time": 122.04533250000001,
          "velocity": 0.8818897637795275
        },
        {
          "duration": 1.5909075000000001,
          "durationTicks": 1680,
          "midi": 86,
          "name": "D6",
          "ticks": 128880,
          "time": 122.04533250000001,
          "velocity": 0.8818897637795275
        },
        {
          "duration": 0.08996203125001045,
          "durationTicks": 95,
          "midi": 50,
          "name": "D3",
          "ticks": 129072,
          "time": 122.2271505,
          "velocity": 0.8818897637795275
        },
        {
          "duration": 0.08996203124998203,
          "durationTicks": 95,
          "midi": 55,
          "name": "G3",
          "ticks": 129168,
          "time": 122.31805950000002,
          "velocity": 0.8818897637795275
        },
        {
          "duration": 0.08996203124998203,
          "durationTicks": 95,
          "midi": 57,
          "name": "A3",
          "ticks": 129264,
          "time": 122.40896850000001,
          "velocity": 0.8818897637795275
        },
        {
          "duration": 0.08996203125001045,
          "durationTicks": 95,
          "midi": 58,
          "name": "A#3",
          "ticks": 129360,
          "time": 122.49987750000001,
          "velocity": 0.8818897637795275
        },
        {
          "duration": 0.08996203125001045,
          "durationTicks": 95,
          "midi": 62,
          "name": "D4",
          "ticks": 129456,
          "time": 122.59078650000001,
          "velocity": 0.8818897637795275
        },
        {
          "duration": 0.08996203125001045,
          "durationTicks": 95,
          "midi": 67,
          "name": "G4",
          "ticks": 129552,
          "time": 122.6816955,
          "velocity": 0.8818897637795275
        },
        {
          "duration": 0.08996203124998203,
          "durationTicks": 95,
          "midi": 69,
          "name": "A4",
          "ticks": 129648,
          "time": 122.77260450000001,
          "velocity": 0.8818897637795275
        },
        {
          "duration": 0.08996203124998203,
          "durationTicks": 95,
          "midi": 70,
          "name": "A#4",
          "ticks": 129744,
          "time": 122.86351350000001,
          "velocity": 0.8818897637795275
        },
        {
          "duration": 0.3787874999999872,
          "durationTicks": 400,
          "midi": 74,
          "name": "D5",
          "ticks": 129840,
          "time": 122.9544225,
          "velocity": 0.8818897637795275
        },
        {
          "duration": 0.2471588437500003,
          "durationTicks": 261,
          "midi": 62,
          "name": "D4",
          "ticks": 129920,
          "time": 123.03018000000002,
          "velocity": 0.8818897637795275
        },
        {
          "duration": 0.07481053124999448,
          "durationTicks": 79,
          "midi": 67,
          "name": "G4",
          "ticks": 130000,
          "time": 123.1059375,
          "velocity": 0.8818897637795275
        },
        {
          "duration": 0.07481053124999448,
          "durationTicks": 79,
          "midi": 69,
          "name": "A4",
          "ticks": 130080,
          "time": 123.181695,
          "velocity": 0.8818897637795275
        },
        {
          "duration": 0.07481053124999448,
          "durationTicks": 79,
          "midi": 70,
          "name": "A#4",
          "ticks": 130160,
          "time": 123.25745250000001,
          "velocity": 0.8818897637795275
        },
        {
          "duration": 0.4384465312500083,
          "durationTicks": 463,
          "midi": 74,
          "name": "D5",
          "ticks": 130240,
          "time": 123.33321,
          "velocity": 0.8818897637795275
        },
        {
          "duration": 0.3626890312499995,
          "durationTicks": 383,
          "midi": 79,
          "name": "G5",
          "ticks": 130320,
          "time": 123.4089675,
          "velocity": 0.8818897637795275
        },
        {
          "duration": 0.0748105312500087,
          "durationTicks": 79,
          "midi": 81,
          "name": "A5",
          "ticks": 130400,
          "time": 123.48472500000001,
          "velocity": 0.8818897637795275
        },
        {
          "duration": 0.21117403124999612,
          "durationTicks": 223,
          "midi": 82,
          "name": "A#5",
          "ticks": 130480,
          "time": 123.5604825,
          "velocity": 0.8818897637795275
        },
        {
          "duration": 0.13541653124998732,
          "durationTicks": 143,
          "midi": 86,
          "name": "D6",
          "ticks": 130560,
          "time": 123.63624000000002,
          "velocity": 0.8818897637795275
        },
        {
          "duration": 0.07481053124999448,
          "durationTicks": 79,
          "midi": 91,
          "name": "G6",
          "ticks": 130640,
          "time": 123.71199750000002,
          "velocity": 0.8818897637795275
        },
        {
          "duration": 0.07102265624999404,
          "durationTicks": 75,
          "midi": 93,
          "name": "A6",
          "ticks": 130720,
          "time": 123.787755,
          "velocity": 0.8818897637795275
        },
        {
          "duration": 0.08996203125001045,
          "durationTicks": 95,
          "midi": 96,
          "name": "C7",
          "ticks": 130800,
          "time": 123.86351250000001,
          "velocity": 0.8818897637795275
        },
        {
          "duration": 0.08996203124999624,
          "durationTicks": 95,
          "midi": 98,
          "name": "D7",
          "ticks": 130896,
          "time": 123.95442150000001,
          "velocity": 0.8818897637795275
        },
        {
          "duration": 0.08996203125001045,
          "durationTicks": 95,
          "midi": 96,
          "name": "C7",
          "ticks": 130992,
          "time": 124.04533049999999,
          "velocity": 0.8818897637795275
        },
        {
          "duration": 0.08996203124998203,
          "durationTicks": 95,
          "midi": 94,
          "name": "A#6",
          "ticks": 131088,
          "time": 124.13623950000002,
          "velocity": 0.8818897637795275
        },
        {
          "duration": 0.0852271874999957,
          "durationTicks": 90,
          "midi": 89,
          "name": "F6",
          "ticks": 131184,
          "time": 124.22714850000001,
          "velocity": 0.8818897637795275
        },
        {
          "duration": 0.08996203125001045,
          "durationTicks": 95,
          "midi": 84,
          "name": "C6",
          "ticks": 131280,
          "time": 124.31805750000001,
          "velocity": 0.8818897637795275
        },
        {
          "duration": 0.08996203125001045,
          "durationTicks": 95,
          "midi": 86,
          "name": "D6",
          "ticks": 131376,
          "time": 124.4089665,
          "velocity": 0.8818897637795275
        },
        {
          "duration": 0.08996203125001045,
          "durationTicks": 95,
          "midi": 84,
          "name": "C6",
          "ticks": 131472,
          "time": 124.4998755,
          "velocity": 0.8818897637795275
        },
        {
          "duration": 0.08996203124999624,
          "durationTicks": 95,
          "midi": 82,
          "name": "A#5",
          "ticks": 131568,
          "time": 124.59078450000001,
          "velocity": 0.8818897637795275
        },
        {
          "duration": 0.0852271875000099,
          "durationTicks": 90,
          "midi": 77,
          "name": "F5",
          "ticks": 131664,
          "time": 124.68169350000001,
          "velocity": 0.8818897637795275
        },
        {
          "duration": 0.08996203125001045,
          "durationTicks": 95,
          "midi": 84,
          "name": "C6",
          "ticks": 131760,
          "time": 124.7726025,
          "velocity": 0.8818897637795275
        },
        {
          "duration": 0.08996203125001045,
          "durationTicks": 95,
          "midi": 82,
          "name": "A#5",
          "ticks": 131856,
          "time": 124.8635115,
          "velocity": 0.8818897637795275
        },
        {
          "duration": 0.08996203125001045,
          "durationTicks": 95,
          "midi": 81,
          "name": "A5",
          "ticks": 131952,
          "time": 124.9544205,
          "velocity": 0.8818897637795275
        },
        {
          "duration": 0.08996203124998203,
          "durationTicks": 95,
          "midi": 77,
          "name": "F5",
          "ticks": 132048,
          "time": 125.04532950000002,
          "velocity": 0.8818897637795275
        },
        {
          "duration": 0.08996203124998203,
          "durationTicks": 95,
          "midi": 72,
          "name": "C5",
          "ticks": 132144,
          "time": 125.13623850000002,
          "velocity": 0.8818897637795275
        },
        {
          "duration": 0.08996203124999624,
          "durationTicks": 95,
          "midi": 70,
          "name": "A#4",
          "ticks": 132240,
          "time": 125.22714750000002,
          "velocity": 0.8818897637795275
        },
        {
          "duration": 0.08996203125001045,
          "durationTicks": 95,
          "midi": 69,
          "name": "A4",
          "ticks": 132336,
          "time": 125.3180565,
          "velocity": 0.8818897637795275
        },
        {
          "duration": 0.08996203125001045,
          "durationTicks": 95,
          "midi": 65,
          "name": "F4",
          "ticks": 132432,
          "time": 125.4089655,
          "velocity": 0.8818897637795275
        },
        {
          "duration": 0.0852271874999957,
          "durationTicks": 90,
          "midi": 60,
          "name": "C4",
          "ticks": 132528,
          "time": 125.49987450000002,
          "velocity": 0.8818897637795275
        },
        {
          "duration": 1.3636350000000022,
          "durationTicks": 1440,
          "midi": 79,
          "name": "G5",
          "ticks": 132720,
          "time": 125.68169250000001,
          "velocity": 0.8818897637795275
        },
        {
          "duration": 1.439392500000011,
          "durationTicks": 1520,
          "midi": 81,
          "name": "A5",
          "ticks": 132720,
          "time": 125.68169250000001,
          "velocity": 0.8818897637795275
        },
        {
          "duration": 1.5151499999999913,
          "durationTicks": 1600,
          "midi": 82,
          "name": "A#5",
          "ticks": 132720,
          "time": 125.68169250000001,
          "velocity": 0.8818897637795275
        },
        {
          "duration": 1.5909075000000001,
          "durationTicks": 1680,
          "midi": 86,
          "name": "D6",
          "ticks": 132720,
          "time": 125.68169250000001,
          "velocity": 0.8818897637795275
        },
        {
          "duration": 1.666665000000009,
          "durationTicks": 1760,
          "midi": 91,
          "name": "G6",
          "ticks": 132720,
          "time": 125.68169250000001,
          "velocity": 0.8818897637795275
        },
        {
          "duration": 0.08996203125001045,
          "durationTicks": 95,
          "midi": 50,
          "name": "D3",
          "ticks": 132912,
          "time": 125.8635105,
          "velocity": 0.8818897637795275
        },
        {
          "duration": 0.08996203124998203,
          "durationTicks": 95,
          "midi": 55,
          "name": "G3",
          "ticks": 133008,
          "time": 125.95441950000001,
          "velocity": 0.8818897637795275
        },
        {
          "duration": 0.08996203124998203,
          "durationTicks": 95,
          "midi": 57,
          "name": "A3",
          "ticks": 133104,
          "time": 126.04532850000001,
          "velocity": 0.8818897637795275
        },
        {
          "duration": 0.08996203125001045,
          "durationTicks": 95,
          "midi": 58,
          "name": "A#3",
          "ticks": 133200,
          "time": 126.13623750000001,
          "velocity": 0.8818897637795275
        },
        {
          "duration": 0.08996203125001045,
          "durationTicks": 95,
          "midi": 62,
          "name": "D4",
          "ticks": 133296,
          "time": 126.2271465,
          "velocity": 0.8818897637795275
        },
        {
          "duration": 0.08996203125001045,
          "durationTicks": 95,
          "midi": 67,
          "name": "G4",
          "ticks": 133392,
          "time": 126.3180555,
          "velocity": 0.8818897637795275
        },
        {
          "duration": 0.08996203124998203,
          "durationTicks": 95,
          "midi": 69,
          "name": "A4",
          "ticks": 133488,
          "time": 126.40896450000002,
          "velocity": 0.8818897637795275
        },
        {
          "duration": 0.08996203124998203,
          "durationTicks": 95,
          "midi": 70,
          "name": "A#4",
          "ticks": 133584,
          "time": 126.49987350000002,
          "velocity": 0.8818897637795275
        },
        {
          "duration": 0.0748105312500087,
          "durationTicks": 79,
          "midi": 74,
          "name": "D5",
          "ticks": 133680,
          "time": 126.5907825,
          "velocity": 0.8818897637795275
        },
        {
          "duration": 0.0748105312500087,
          "durationTicks": 79,
          "midi": 62,
          "name": "D4",
          "ticks": 133760,
          "time": 126.66654000000001,
          "velocity": 0.8818897637795275
        },
        {
          "duration": 0.07481053124999448,
          "durationTicks": 79,
          "midi": 67,
          "name": "G4",
          "ticks": 133840,
          "time": 126.7422975,
          "velocity": 0.8818897637795275
        },
        {
          "duration": 0.07481053124999448,
          "durationTicks": 79,
          "midi": 69,
          "name": "A4",
          "ticks": 133920,
          "time": 126.81805500000002,
          "velocity": 0.8818897637795275
        },
        {
          "duration": 0.07481053124999448,
          "durationTicks": 79,
          "midi": 70,
          "name": "A#4",
          "ticks": 134000,
          "time": 126.89381250000002,
          "velocity": 0.8818897637795275
        },
        {
          "duration": 0.07481053124999448,
          "durationTicks": 79,
          "midi": 74,
          "name": "D5",
          "ticks": 134080,
          "time": 126.96957,
          "velocity": 0.8818897637795275
        },
        {
          "duration": 0.3626890312499853,
          "durationTicks": 383,
          "midi": 79,
          "name": "G5",
          "ticks": 134160,
          "time": 127.04532750000001,
          "velocity": 0.8818897637795275
        },
        {
          "duration": 0.2869315312499765,
          "durationTicks": 303,
          "midi": 81,
          "name": "A5",
          "ticks": 134240,
          "time": 127.12108500000002,
          "velocity": 0.8818897637795275
        },
        {
          "duration": 0.21117403124999612,
          "durationTicks": 223,
          "midi": 82,
          "name": "A#5",
          "ticks": 134320,
          "time": 127.1968425,
          "velocity": 0.8818897637795275
        },
        {
          "duration": 0.13541653124998732,
          "durationTicks": 143,
          "midi": 86,
          "name": "D6",
          "ticks": 134400,
          "time": 127.27260000000001,
          "velocity": 0.8818897637795275
        },
        {
          "duration": 0.07481053124999448,
          "durationTicks": 79,
          "midi": 91,
          "name": "G6",
          "ticks": 134480,
          "time": 127.34835750000002,
          "velocity": 0.8818897637795275
        },
        {
          "duration": 0.07102265624999404,
          "durationTicks": 75,
          "midi": 93,
          "name": "A6",
          "ticks": 134560,
          "time": 127.424115,
          "velocity": 0.8818897637795275
        },
        {
          "duration": 0.08996203125001045,
          "durationTicks": 95,
          "midi": 94,
          "name": "A#6",
          "ticks": 134640,
          "time": 127.49987250000001,
          "velocity": 0.8818897637795275
        },
        {
          "duration": 0.08996203125001045,
          "durationTicks": 95,
          "midi": 96,
          "name": "C7",
          "ticks": 134736,
          "time": 127.5907815,
          "velocity": 0.8818897637795275
        },
        {
          "duration": 0.08996203125001045,
          "durationTicks": 95,
          "midi": 94,
          "name": "A#6",
          "ticks": 134832,
          "time": 127.6816905,
          "velocity": 0.8818897637795275
        },
        {
          "duration": 0.08996203124999624,
          "durationTicks": 95,
          "midi": 89,
          "name": "F6",
          "ticks": 134928,
          "time": 127.77259950000001,
          "velocity": 0.8818897637795275
        },
        {
          "duration": 0.0852271875000099,
          "durationTicks": 90,
          "midi": 84,
          "name": "C6",
          "ticks": 135024,
          "time": 127.86350850000001,
          "velocity": 0.8818897637795275
        },
        {
          "duration": 0.08996203125002467,
          "durationTicks": 95,
          "midi": 82,
          "name": "A#5",
          "ticks": 135120,
          "time": 127.9544175,
          "velocity": 0.8818897637795275
        },
        {
          "duration": 0.08996203124999624,
          "durationTicks": 95,
          "midi": 84,
          "name": "C6",
          "ticks": 135216,
          "time": 128.04532650000002,
          "velocity": 0.8818897637795275
        },
        {
          "duration": 0.08996203124999624,
          "durationTicks": 95,
          "midi": 82,
          "name": "A#5",
          "ticks": 135312,
          "time": 128.1362355,
          "velocity": 0.8818897637795275
        },
        {
          "duration": 0.08996203124999624,
          "durationTicks": 95,
          "midi": 77,
          "name": "F5",
          "ticks": 135408,
          "time": 128.2271445,
          "velocity": 0.8818897637795275
        },
        {
          "duration": 0.08522718749998148,
          "durationTicks": 90,
          "midi": 72,
          "name": "C5",
          "ticks": 135504,
          "time": 128.31805350000002,
          "velocity": 0.8818897637795275
        },
        {
          "duration": 0.08996203125002467,
          "durationTicks": 95,
          "midi": 81,
          "name": "A5",
          "ticks": 135600,
          "time": 128.4089625,
          "velocity": 0.8818897637795275
        },
        {
          "duration": 0.08996203124999624,
          "durationTicks": 95,
          "midi": 77,
          "name": "F5",
          "ticks": 135696,
          "time": 128.4998715,
          "velocity": 0.8818897637795275
        },
        {
          "duration": 0.08996203125002467,
          "durationTicks": 95,
          "midi": 72,
          "name": "C5",
          "ticks": 135792,
          "time": 128.5907805,
          "velocity": 0.8818897637795275
        },
        {
          "duration": 0.08996203124996782,
          "durationTicks": 95,
          "midi": 70,
          "name": "A#4",
          "ticks": 135888,
          "time": 128.68168950000003,
          "velocity": 0.8818897637795275
        },
        {
          "duration": 0.08996203124999624,
          "durationTicks": 95,
          "midi": 69,
          "name": "A4",
          "ticks": 135984,
          "time": 128.77259850000002,
          "velocity": 0.8818897637795275
        },
        {
          "duration": 0.08996203125002467,
          "durationTicks": 95,
          "midi": 65,
          "name": "F4",
          "ticks": 136080,
          "time": 128.8635075,
          "velocity": 0.8818897637795275
        },
        {
          "duration": 0.08996203124999624,
          "durationTicks": 95,
          "midi": 60,
          "name": "C4",
          "ticks": 136176,
          "time": 128.9544165,
          "velocity": 0.8818897637795275
        },
        {
          "duration": 0.08996203125002467,
          "durationTicks": 95,
          "midi": 58,
          "name": "A#3",
          "ticks": 136272,
          "time": 129.0453255,
          "velocity": 0.8818897637795275
        },
        {
          "duration": 0.08522718749998148,
          "durationTicks": 90,
          "midi": 57,
          "name": "A3",
          "ticks": 136368,
          "time": 129.13623450000003,
          "velocity": 0.8818897637795275
        },
        {
          "duration": 0.909089999999992,
          "durationTicks": 960,
          "midi": 74,
          "name": "D5",
          "ticks": 136560,
          "time": 129.31805250000002,
          "velocity": 0.8818897637795275
        },
        {
          "duration": 1.363634999999988,
          "durationTicks": 1440,
          "midi": 79,
          "name": "G5",
          "ticks": 136560,
          "time": 129.31805250000002,
          "velocity": 0.8818897637795275
        },
        {
          "duration": 1.5151499999999771,
          "durationTicks": 1600,
          "midi": 82,
          "name": "A#5",
          "ticks": 136560,
          "time": 129.31805250000002,
          "velocity": 0.8818897637795275
        },
        {
          "duration": 1.590907499999986,
          "durationTicks": 1680,
          "midi": 86,
          "name": "D6",
          "ticks": 136560,
          "time": 129.31805250000002,
          "velocity": 0.8818897637795275
        },
        {
          "duration": 0.08996203125002467,
          "durationTicks": 95,
          "midi": 50,
          "name": "D3",
          "ticks": 136752,
          "time": 129.4998705,
          "velocity": 0.8818897637795275
        },
        {
          "duration": 0.08996203124996782,
          "durationTicks": 95,
          "midi": 55,
          "name": "G3",
          "ticks": 136848,
          "time": 129.59077950000002,
          "velocity": 0.8818897637795275
        },
        {
          "duration": 0.08996203124999624,
          "durationTicks": 95,
          "midi": 57,
          "name": "A3",
          "ticks": 136944,
          "time": 129.6816885,
          "velocity": 0.8818897637795275
        },
        {
          "duration": 0.08996203124999624,
          "durationTicks": 95,
          "midi": 58,
          "name": "A#3",
          "ticks": 137040,
          "time": 129.77259750000002,
          "velocity": 0.8818897637795275
        },
        {
          "duration": 0.08996203125002467,
          "durationTicks": 95,
          "midi": 62,
          "name": "D4",
          "ticks": 137136,
          "time": 129.8635065,
          "velocity": 0.8818897637795275
        },
        {
          "duration": 0.08996203124999624,
          "durationTicks": 95,
          "midi": 67,
          "name": "G4",
          "ticks": 137232,
          "time": 129.9544155,
          "velocity": 0.8818897637795275
        },
        {
          "duration": 0.08996203124996782,
          "durationTicks": 95,
          "midi": 69,
          "name": "A4",
          "ticks": 137328,
          "time": 130.04532450000002,
          "velocity": 0.8818897637795275
        },
        {
          "duration": 0.08996203124999624,
          "durationTicks": 95,
          "midi": 70,
          "name": "A#4",
          "ticks": 137424,
          "time": 130.1362335,
          "velocity": 0.8818897637795275
        },
        {
          "duration": 0.3787874999999872,
          "durationTicks": 400,
          "midi": 74,
          "name": "D5",
          "ticks": 137520,
          "time": 130.2271425,
          "velocity": 0.8818897637795275
        },
        {
          "duration": 0.2471588437499861,
          "durationTicks": 261,
          "midi": 62,
          "name": "D4",
          "ticks": 137600,
          "time": 130.30290000000002,
          "velocity": 0.8818897637795275
        },
        {
          "duration": 0.07481053124999448,
          "durationTicks": 79,
          "midi": 67,
          "name": "G4",
          "ticks": 137680,
          "time": 130.3786575,
          "velocity": 0.8818897637795275
        },
        {
          "duration": 0.07481053124999448,
          "durationTicks": 79,
          "midi": 69,
          "name": "A4",
          "ticks": 137760,
          "time": 130.454415,
          "velocity": 0.8818897637795275
        },
        {
          "duration": 0.07481053124999448,
          "durationTicks": 79,
          "midi": 70,
          "name": "A#4",
          "ticks": 137840,
          "time": 130.53017250000002,
          "velocity": 0.8818897637795275
        },
        {
          "duration": 0.4384465312500083,
          "durationTicks": 463,
          "midi": 74,
          "name": "D5",
          "ticks": 137920,
          "time": 130.60593,
          "velocity": 0.8818897637795275
        },
        {
          "duration": 0.3626890312499995,
          "durationTicks": 383,
          "midi": 79,
          "name": "G5",
          "ticks": 138000,
          "time": 130.6816875,
          "velocity": 0.8818897637795275
        },
        {
          "duration": 0.07481053124999448,
          "durationTicks": 79,
          "midi": 81,
          "name": "A5",
          "ticks": 138080,
          "time": 130.75744500000002,
          "velocity": 0.8818897637795275
        },
        {
          "duration": 0.21117403125001033,
          "durationTicks": 223,
          "midi": 82,
          "name": "A#5",
          "ticks": 138160,
          "time": 130.8332025,
          "velocity": 0.8818897637795275
        },
        {
          "duration": 0.13541653125000153,
          "durationTicks": 143,
          "midi": 86,
          "name": "D6",
          "ticks": 138240,
          "time": 130.90896,
          "velocity": 0.8818897637795275
        },
        {
          "duration": 0.07481053124999448,
          "durationTicks": 79,
          "midi": 91,
          "name": "G6",
          "ticks": 138320,
          "time": 130.98471750000002,
          "velocity": 0.8818897637795275
        },
        {
          "duration": 0.07102265624999404,
          "durationTicks": 75,
          "midi": 93,
          "name": "A6",
          "ticks": 138400,
          "time": 131.060475,
          "velocity": 0.8818897637795275
        },
        {
          "duration": 0.08996203125002467,
          "durationTicks": 95,
          "midi": 96,
          "name": "C7",
          "ticks": 138480,
          "time": 131.1362325,
          "velocity": 0.8818897637795275
        },
        {
          "duration": 0.08996203124999624,
          "durationTicks": 95,
          "midi": 98,
          "name": "D7",
          "ticks": 138576,
          "time": 131.22714150000002,
          "velocity": 0.8818897637795275
        },
        {
          "duration": 0.08996203124999624,
          "durationTicks": 95,
          "midi": 96,
          "name": "C7",
          "ticks": 138672,
          "time": 131.3180505,
          "velocity": 0.8818897637795275
        },
        {
          "duration": 0.08996203124999624,
          "durationTicks": 95,
          "midi": 94,
          "name": "A#6",
          "ticks": 138768,
          "time": 131.4089595,
          "velocity": 0.8818897637795275
        },
        {
          "duration": 0.08522718749998148,
          "durationTicks": 90,
          "midi": 89,
          "name": "F6",
          "ticks": 138864,
          "time": 131.49986850000002,
          "velocity": 0.8818897637795275
        },
        {
          "duration": 0.08996203125002467,
          "durationTicks": 95,
          "midi": 84,
          "name": "C6",
          "ticks": 138960,
          "time": 131.5907775,
          "velocity": 0.8818897637795275
        },
        {
          "duration": 0.08996203124999624,
          "durationTicks": 95,
          "midi": 86,
          "name": "D6",
          "ticks": 139056,
          "time": 131.6816865,
          "velocity": 0.8818897637795275
        },
        {
          "duration": 0.08996203125002467,
          "durationTicks": 95,
          "midi": 84,
          "name": "C6",
          "ticks": 139152,
          "time": 131.7725955,
          "velocity": 0.8818897637795275
        },
        {
          "duration": 0.08996203124996782,
          "durationTicks": 95,
          "midi": 82,
          "name": "A#5",
          "ticks": 139248,
          "time": 131.86350450000003,
          "velocity": 0.8818897637795275
        },
        {
          "duration": 0.0852271875000099,
          "durationTicks": 90,
          "midi": 77,
          "name": "F5",
          "ticks": 139344,
          "time": 131.95441350000002,
          "velocity": 0.8818897637795275
        },
        {
          "duration": 0.08996203125002467,
          "durationTicks": 95,
          "midi": 84,
          "name": "C6",
          "ticks": 139440,
          "time": 132.0453225,
          "velocity": 0.8818897637795275
        },
        {
          "duration": 0.08996203124999624,
          "durationTicks": 95,
          "midi": 82,
          "name": "A#5",
          "ticks": 139536,
          "time": 132.1362315,
          "velocity": 0.8818897637795275
        },
        {
          "duration": 0.08996203125002467,
          "durationTicks": 95,
          "midi": 81,
          "name": "A5",
          "ticks": 139632,
          "time": 132.2271405,
          "velocity": 0.8818897637795275
        },
        {
          "duration": 0.08996203124996782,
          "durationTicks": 95,
          "midi": 77,
          "name": "F5",
          "ticks": 139728,
          "time": 132.31804950000003,
          "velocity": 0.8818897637795275
        },
        {
          "duration": 0.08996203124999624,
          "durationTicks": 95,
          "midi": 72,
          "name": "C5",
          "ticks": 139824,
          "time": 132.4089585,
          "velocity": 0.8818897637795275
        },
        {
          "duration": 0.08996203124999624,
          "durationTicks": 95,
          "midi": 70,
          "name": "A#4",
          "ticks": 139920,
          "time": 132.49986750000002,
          "velocity": 0.8818897637795275
        },
        {
          "duration": 0.08996203124999624,
          "durationTicks": 95,
          "midi": 69,
          "name": "A4",
          "ticks": 140016,
          "time": 132.5907765,
          "velocity": 0.8818897637795275
        },
        {
          "duration": 0.08996203125002467,
          "durationTicks": 95,
          "midi": 65,
          "name": "F4",
          "ticks": 140112,
          "time": 132.6816855,
          "velocity": 0.8818897637795275
        },
        {
          "duration": 0.08522718749998148,
          "durationTicks": 90,
          "midi": 60,
          "name": "C4",
          "ticks": 140208,
          "time": 132.77259450000003,
          "velocity": 0.8818897637795275
        },
        {
          "duration": 0,
          "durationTicks": 0,
          "midi": 86,
          "name": "D6",
          "ticks": 140400,
          "time": 132.95441250000002,
          "velocity": 0.7559055118110236
        },
        {
          "duration": 0.3229163437499949,
          "durationTicks": 341,
          "midi": 86,
          "name": "D6",
          "ticks": 140400,
          "time": 132.95441250000002,
          "velocity": 0.7559055118110236
        },
        {
          "duration": 0.10700746874999822,
          "durationTicks": 113,
          "midi": 79,
          "name": "G5",
          "ticks": 140520,
          "time": 133.06804875,
          "velocity": 0.7559055118110236
        },
        {
          "duration": 0.10700746874999822,
          "durationTicks": 113,
          "midi": 74,
          "name": "D5",
          "ticks": 140640,
          "time": 133.18168500000002,
          "velocity": 0.7559055118110236
        },
        {
          "duration": 0,
          "durationTicks": 0,
          "midi": 82,
          "name": "A#5",
          "ticks": 140760,
          "time": 133.29532125,
          "velocity": 0.7559055118110236
        },
        {
          "duration": 0.3229163437500233,
          "durationTicks": 341,
          "midi": 82,
          "name": "A#5",
          "ticks": 140760,
          "time": 133.29532125,
          "velocity": 0.7559055118110236
        },
        {
          "duration": 0.10700746874999822,
          "durationTicks": 113,
          "midi": 79,
          "name": "G5",
          "ticks": 140880,
          "time": 133.4089575,
          "velocity": 0.7559055118110236
        },
        {
          "duration": 0.10700746874999822,
          "durationTicks": 113,
          "midi": 74,
          "name": "D5",
          "ticks": 141000,
          "time": 133.52259375,
          "velocity": 0.7559055118110236
        },
        {
          "duration": 0,
          "durationTicks": 0,
          "midi": 79,
          "name": "G5",
          "ticks": 141120,
          "time": 133.63623,
          "velocity": 0.7559055118110236
        },
        {
          "duration": 0.21496190624998235,
          "durationTicks": 227,
          "midi": 79,
          "name": "G5",
          "ticks": 141120,
          "time": 133.63623,
          "velocity": 0.7559055118110236
        },
        {
          "duration": 0.10700746874999822,
          "durationTicks": 113,
          "midi": 74,
          "name": "D5",
          "ticks": 141240,
          "time": 133.74986625,
          "velocity": 0.7559055118110236
        },
        {
          "duration": 0,
          "durationTicks": 0,
          "midi": 86,
          "name": "D6",
          "ticks": 141360,
          "time": 133.8635025,
          "velocity": 0.7559055118110236
        },
        {
          "duration": 0.3229163437499949,
          "durationTicks": 341,
          "midi": 86,
          "name": "D6",
          "ticks": 141360,
          "time": 133.8635025,
          "velocity": 0.7559055118110236
        },
        {
          "duration": 0.1070074687499698,
          "durationTicks": 113,
          "midi": 79,
          "name": "G5",
          "ticks": 141480,
          "time": 133.97713875000002,
          "velocity": 0.7559055118110236
        },
        {
          "duration": 0.10700746874999822,
          "durationTicks": 113,
          "midi": 74,
          "name": "D5",
          "ticks": 141600,
          "time": 134.090775,
          "velocity": 0.7559055118110236
        },
        {
          "duration": 0,
          "durationTicks": 0,
          "midi": 82,
          "name": "A#5",
          "ticks": 141720,
          "time": 134.20441125000002,
          "velocity": 0.7559055118110236
        },
        {
          "duration": 0.3229163437499949,
          "durationTicks": 341,
          "midi": 82,
          "name": "A#5",
          "ticks": 141720,
          "time": 134.20441125000002,
          "velocity": 0.7559055118110236
        },
        {
          "duration": 0.10700746874999822,
          "durationTicks": 113,
          "midi": 79,
          "name": "G5",
          "ticks": 141840,
          "time": 134.3180475,
          "velocity": 0.7559055118110236
        },
        {
          "duration": 0.1070074687499698,
          "durationTicks": 113,
          "midi": 74,
          "name": "D5",
          "ticks": 141960,
          "time": 134.43168375000002,
          "velocity": 0.7559055118110236
        },
        {
          "duration": 0,
          "durationTicks": 0,
          "midi": 79,
          "name": "G5",
          "ticks": 142080,
          "time": 134.54532,
          "velocity": 0.7559055118110236
        },
        {
          "duration": 0.21496190625001077,
          "durationTicks": 227,
          "midi": 79,
          "name": "G5",
          "ticks": 142080,
          "time": 134.54532,
          "velocity": 0.7559055118110236
        },
        {
          "duration": 0.10700746874999822,
          "durationTicks": 113,
          "midi": 74,
          "name": "D5",
          "ticks": 142200,
          "time": 134.65895625000002,
          "velocity": 0.7559055118110236
        },
        {
          "duration": 0,
          "durationTicks": 0,
          "midi": 84,
          "name": "C6",
          "ticks": 142320,
          "time": 134.7725925,
          "velocity": 0.7559055118110236
        },
        {
          "duration": 0.3229163437500233,
          "durationTicks": 341,
          "midi": 84,
          "name": "C6",
          "ticks": 142320,
          "time": 134.7725925,
          "velocity": 0.7559055118110236
        },
        {
          "duration": 0.10700746874999822,
          "durationTicks": 113,
          "midi": 77,
          "name": "F5",
          "ticks": 142440,
          "time": 134.88622875000001,
          "velocity": 0.7559055118110236
        },
        {
          "duration": 0.10700746874999822,
          "durationTicks": 113,
          "midi": 72,
          "name": "C5",
          "ticks": 142560,
          "time": 134.999865,
          "velocity": 0.7559055118110236
        },
        {
          "duration": 0,
          "durationTicks": 0,
          "midi": 81,
          "name": "A5",
          "ticks": 142680,
          "time": 135.11350125,
          "velocity": 0.7559055118110236
        },
        {
          "duration": 0.3229163437499949,
          "durationTicks": 341,
          "midi": 81,
          "name": "A5",
          "ticks": 142680,
          "time": 135.11350125,
          "velocity": 0.7559055118110236
        },
        {
          "duration": 0.10700746874999822,
          "durationTicks": 113,
          "midi": 77,
          "name": "F5",
          "ticks": 142800,
          "time": 135.2271375,
          "velocity": 0.7559055118110236
        },
        {
          "duration": 0.10700746874999822,
          "durationTicks": 113,
          "midi": 72,
          "name": "C5",
          "ticks": 142920,
          "time": 135.34077375,
          "velocity": 0.7559055118110236
        },
        {
          "duration": 0,
          "durationTicks": 0,
          "midi": 77,
          "name": "F5",
          "ticks": 143040,
          "time": 135.45441,
          "velocity": 0.7559055118110236
        },
        {
          "duration": 0.21496190625001077,
          "durationTicks": 227,
          "midi": 77,
          "name": "F5",
          "ticks": 143040,
          "time": 135.45441,
          "velocity": 0.7559055118110236
        },
        {
          "duration": 0.10700746874999822,
          "durationTicks": 113,
          "midi": 72,
          "name": "C5",
          "ticks": 143160,
          "time": 135.56804625,
          "velocity": 0.7559055118110236
        },
        {
          "duration": 0,
          "durationTicks": 0,
          "midi": 84,
          "name": "C6",
          "ticks": 143280,
          "time": 135.68168250000002,
          "velocity": 0.7559055118110236
        },
        {
          "duration": 0.3229163437499949,
          "durationTicks": 341,
          "midi": 84,
          "name": "C6",
          "ticks": 143280,
          "time": 135.68168250000002,
          "velocity": 0.7559055118110236
        },
        {
          "duration": 0.10700746874999822,
          "durationTicks": 113,
          "midi": 77,
          "name": "F5",
          "ticks": 143400,
          "time": 135.79531875,
          "velocity": 0.7559055118110236
        },
        {
          "duration": 0.1070074687499698,
          "durationTicks": 113,
          "midi": 72,
          "name": "C5",
          "ticks": 143520,
          "time": 135.90895500000002,
          "velocity": 0.7559055118110236
        },
        {
          "duration": 0,
          "durationTicks": 0,
          "midi": 81,
          "name": "A5",
          "ticks": 143640,
          "time": 136.02259125,
          "velocity": 0.7559055118110236
        },
        {
          "duration": 0.3229163437499949,
          "durationTicks": 341,
          "midi": 81,
          "name": "A5",
          "ticks": 143640,
          "time": 136.02259125,
          "velocity": 0.7559055118110236
        },
        {
          "duration": 0.10700746874999822,
          "durationTicks": 113,
          "midi": 77,
          "name": "F5",
          "ticks": 143760,
          "time": 136.13622750000002,
          "velocity": 0.7559055118110236
        },
        {
          "duration": 0.10700746874999822,
          "durationTicks": 113,
          "midi": 72,
          "name": "C5",
          "ticks": 143880,
          "time": 136.24986375,
          "velocity": 0.7559055118110236
        },
        {
          "duration": 0,
          "durationTicks": 0,
          "midi": 77,
          "name": "F5",
          "ticks": 144000,
          "time": 136.36350000000002,
          "velocity": 0.7559055118110236
        },
        {
          "duration": 0.21496190624998235,
          "durationTicks": 227,
          "midi": 77,
          "name": "F5",
          "ticks": 144000,
          "time": 136.36350000000002,
          "velocity": 0.7559055118110236
        },
        {
          "duration": 0.10700746874999822,
          "durationTicks": 113,
          "midi": 84,
          "name": "C6",
          "ticks": 144120,
          "time": 136.47713625,
          "velocity": 0.7559055118110236
        },
        {
          "duration": 0,
          "durationTicks": 0,
          "midi": 94,
          "name": "A#6",
          "ticks": 144240,
          "time": 136.5907725,
          "velocity": 0.7559055118110236
        },
        {
          "duration": 0.3229163437499949,
          "durationTicks": 341,
          "midi": 94,
          "name": "A#6",
          "ticks": 144240,
          "time": 136.5907725,
          "velocity": 0.7559055118110236
        },
        {
          "duration": 0.10700746874999822,
          "durationTicks": 113,
          "midi": 86,
          "name": "D6",
          "ticks": 144360,
          "time": 136.70440875,
          "velocity": 0.7559055118110236
        },
        {
          "duration": 0.10700746874999822,
          "durationTicks": 113,
          "midi": 82,
          "name": "A#5",
          "ticks": 144480,
          "time": 136.818045,
          "velocity": 0.7559055118110236
        },
        {
          "duration": 0,
          "durationTicks": 0,
          "midi": 94,
          "name": "A#6",
          "ticks": 144600,
          "time": 136.93168125,
          "velocity": 0.7559055118110236
        },
        {
          "duration": 0.3229163437500233,
          "durationTicks": 341,
          "midi": 94,
          "name": "A#6",
          "ticks": 144600,
          "time": 136.93168125,
          "velocity": 0.7559055118110236
        },
        {
          "duration": 0.10700746874999822,
          "durationTicks": 113,
          "midi": 86,
          "name": "D6",
          "ticks": 144720,
          "time": 137.0453175,
          "velocity": 0.7559055118110236
        },
        {
          "duration": 0.1070074687499698,
          "durationTicks": 113,
          "midi": 82,
          "name": "A#5",
          "ticks": 144840,
          "time": 137.15895375000002,
          "velocity": 0.7559055118110236
        },
        {
          "duration": 0,
          "durationTicks": 0,
          "midi": 94,
          "name": "A#6",
          "ticks": 144960,
          "time": 137.27259,
          "velocity": 0.7559055118110236
        },
        {
          "duration": 0.21496190625001077,
          "durationTicks": 227,
          "midi": 94,
          "name": "A#6",
          "ticks": 144960,
          "time": 137.27259,
          "velocity": 0.7559055118110236
        },
        {
          "duration": 0.1070074687499698,
          "durationTicks": 113,
          "midi": 82,
          "name": "A#5",
          "ticks": 145080,
          "time": 137.38622625000002,
          "velocity": 0.7559055118110236
        },
        {
          "duration": 0,
          "durationTicks": 0,
          "midi": 94,
          "name": "A#6",
          "ticks": 145200,
          "time": 137.4998625,
          "velocity": 0.7559055118110236
        },
        {
          "duration": 0.3229163437499949,
          "durationTicks": 341,
          "midi": 94,
          "name": "A#6",
          "ticks": 145200,
          "time": 137.4998625,
          "velocity": 0.7559055118110236
        },
        {
          "duration": 0.1070074687499698,
          "durationTicks": 113,
          "midi": 86,
          "name": "D6",
          "ticks": 145320,
          "time": 137.61349875000002,
          "velocity": 0.7559055118110236
        },
        {
          "duration": 0.10700746874999822,
          "durationTicks": 113,
          "midi": 82,
          "name": "A#5",
          "ticks": 145440,
          "time": 137.727135,
          "velocity": 0.7559055118110236
        },
        {
          "duration": 0,
          "durationTicks": 0,
          "midi": 93,
          "name": "A6",
          "ticks": 145560,
          "time": 137.84077125000002,
          "velocity": 0.7559055118110236
        },
        {
          "duration": 0.3229163437499949,
          "durationTicks": 341,
          "midi": 93,
          "name": "A6",
          "ticks": 145560,
          "time": 137.84077125000002,
          "velocity": 0.7559055118110236
        },
        {
          "duration": 0.10700746874999822,
          "durationTicks": 113,
          "midi": 86,
          "name": "D6",
          "ticks": 145680,
          "time": 137.9544075,
          "velocity": 0.7559055118110236
        },
        {
          "duration": 0.10700746874999822,
          "durationTicks": 113,
          "midi": 82,
          "name": "A#5",
          "ticks": 145800,
          "time": 138.06804375000002,
          "velocity": 0.7559055118110236
        },
        {
          "duration": 0,
          "durationTicks": 0,
          "midi": 89,
          "name": "F6",
          "ticks": 145920,
          "time": 138.18168,
          "velocity": 0.7559055118110236
        },
        {
          "duration": 0.21496190625001077,
          "durationTicks": 227,
          "midi": 89,
          "name": "F6",
          "ticks": 145920,
          "time": 138.18168,
          "velocity": 0.7559055118110236
        },
        {
          "duration": 0.10700746874999822,
          "durationTicks": 113,
          "midi": 82,
          "name": "A#5",
          "ticks": 146040,
          "time": 138.29531625,
          "velocity": 0.7559055118110236
        },
        {
          "duration": 0,
          "durationTicks": 0,
          "midi": 86,
          "name": "D6",
          "ticks": 146160,
          "time": 138.4089525,
          "velocity": 0.7559055118110236
        },
        {
          "duration": 0.3229163437500233,
          "durationTicks": 341,
          "midi": 86,
          "name": "D6",
          "ticks": 146160,
          "time": 138.4089525,
          "velocity": 0.7559055118110236
        },
        {
          "duration": 0.10700746874999822,
          "durationTicks": 113,
          "midi": 77,
          "name": "F5",
          "ticks": 146280,
          "time": 138.52258875,
          "velocity": 0.7559055118110236
        },
        {
          "duration": 0.10700746874999822,
          "durationTicks": 113,
          "midi": 74,
          "name": "D5",
          "ticks": 146400,
          "time": 138.636225,
          "velocity": 0.7559055118110236
        },
        {
          "duration": 0,
          "durationTicks": 0,
          "midi": 86,
          "name": "D6",
          "ticks": 146520,
          "time": 138.74986125,
          "velocity": 0.7559055118110236
        },
        {
          "duration": 0.3229163437499949,
          "durationTicks": 341,
          "midi": 86,
          "name": "D6",
          "ticks": 146520,
          "time": 138.74986125,
          "velocity": 0.7559055118110236
        },
        {
          "duration": 0.1070074687499698,
          "durationTicks": 113,
          "midi": 77,
          "name": "F5",
          "ticks": 146640,
          "time": 138.86349750000002,
          "velocity": 0.7559055118110236
        },
        {
          "duration": 0.10700746874999822,
          "durationTicks": 113,
          "midi": 74,
          "name": "D5",
          "ticks": 146760,
          "time": 138.97713375,
          "velocity": 0.7559055118110236
        },
        {
          "duration": 0,
          "durationTicks": 0,
          "midi": 86,
          "name": "D6",
          "ticks": 146880,
          "time": 139.09077000000002,
          "velocity": 0.7559055118110236
        },
        {
          "duration": 0.21496190624998235,
          "durationTicks": 227,
          "midi": 86,
          "name": "D6",
          "ticks": 146880,
          "time": 139.09077000000002,
          "velocity": 0.7559055118110236
        },
        {
          "duration": 0.10700746874999822,
          "durationTicks": 113,
          "midi": 74,
          "name": "D5",
          "ticks": 147000,
          "time": 139.20440625,
          "velocity": 0.7559055118110236
        },
        {
          "duration": 0,
          "durationTicks": 0,
          "midi": 86,
          "name": "D6",
          "ticks": 147120,
          "time": 139.31804250000002,
          "velocity": 0.7559055118110236
        },
        {
          "duration": 0.3229163437499949,
          "durationTicks": 341,
          "midi": 86,
          "name": "D6",
          "ticks": 147120,
          "time": 139.31804250000002,
          "velocity": 0.7559055118110236
        },
        {
          "duration": 0.10700746874999822,
          "durationTicks": 113,
          "midi": 77,
          "name": "F5",
          "ticks": 147240,
          "time": 139.43167875,
          "velocity": 0.7559055118110236
        },
        {
          "duration": 0.10700746874999822,
          "durationTicks": 113,
          "midi": 74,
          "name": "D5",
          "ticks": 147360,
          "time": 139.54531500000002,
          "velocity": 0.7559055118110236
        },
        {
          "duration": 0,
          "durationTicks": 0,
          "midi": 84,
          "name": "C6",
          "ticks": 147480,
          "time": 139.65895125,
          "velocity": 0.7559055118110236
        },
        {
          "duration": 0.3229163437500233,
          "durationTicks": 341,
          "midi": 84,
          "name": "C6",
          "ticks": 147480,
          "time": 139.65895125,
          "velocity": 0.7559055118110236
        },
        {
          "duration": 0.10700746874999822,
          "durationTicks": 113,
          "midi": 77,
          "name": "F5",
          "ticks": 147600,
          "time": 139.77258750000001,
          "velocity": 0.7559055118110236
        },
        {
          "duration": 0.10700746874999822,
          "durationTicks": 113,
          "midi": 74,
          "name": "D5",
          "ticks": 147720,
          "time": 139.88622375,
          "velocity": 0.7559055118110236
        },
        {
          "duration": 0,
          "durationTicks": 0,
          "midi": 86,
          "name": "D6",
          "ticks": 147840,
          "time": 139.99986,
          "velocity": 0.7559055118110236
        },
        {
          "duration": 0.21496190624998235,
          "durationTicks": 227,
          "midi": 86,
          "name": "D6",
          "ticks": 147840,
          "time": 139.99986,
          "velocity": 0.7559055118110236
        },
        {
          "duration": 0.05208328124999184,
          "durationTicks": 55,
          "midi": 82,
          "name": "A#5",
          "ticks": 148080,
          "time": 140.2271325,
          "velocity": 0.8818897637795275
        },
        {
          "duration": 0.05208328124999184,
          "durationTicks": 55,
          "midi": 86,
          "name": "D6",
          "ticks": 148080,
          "time": 140.2271325,
          "velocity": 0.8818897637795275
        },
        {
          "duration": 0.05208328124999184,
          "durationTicks": 55,
          "midi": 94,
          "name": "A#6",
          "ticks": 148140,
          "time": 140.28395062500002,
          "velocity": 0.8818897637795275
        },
        {
          "duration": 0.05208328124999184,
          "durationTicks": 55,
          "midi": 82,
          "name": "A#5",
          "ticks": 148200,
          "time": 140.34076875000002,
          "velocity": 0.8818897637795275
        },
        {
          "duration": 0.05208328124999184,
          "durationTicks": 55,
          "midi": 86,
          "name": "D6",
          "ticks": 148200,
          "time": 140.34076875000002,
          "velocity": 0.8818897637795275
        },
        {
          "duration": 0.05208328124999184,
          "durationTicks": 55,
          "midi": 94,
          "name": "A#6",
          "ticks": 148260,
          "time": 140.397586875,
          "velocity": 0.8818897637795275
        },
        {
          "duration": 0.05208328124999184,
          "durationTicks": 55,
          "midi": 82,
          "name": "A#5",
          "ticks": 148320,
          "time": 140.454405,
          "velocity": 0.8818897637795275
        },
        {
          "duration": 0.05208328124999184,
          "durationTicks": 55,
          "midi": 86,
          "name": "D6",
          "ticks": 148320,
          "time": 140.454405,
          "velocity": 0.8818897637795275
        },
        {
          "duration": 0.05208328124999184,
          "durationTicks": 55,
          "midi": 94,
          "name": "A#6",
          "ticks": 148380,
          "time": 140.51122312500001,
          "velocity": 0.8818897637795275
        },
        {
          "duration": 0.05208328124999184,
          "durationTicks": 55,
          "midi": 82,
          "name": "A#5",
          "ticks": 148440,
          "time": 140.56804125000002,
          "velocity": 0.8818897637795275
        },
        {
          "duration": 0.05208328124999184,
          "durationTicks": 55,
          "midi": 86,
          "name": "D6",
          "ticks": 148440,
          "time": 140.56804125000002,
          "velocity": 0.8818897637795275
        },
        {
          "duration": 0.05208328124999184,
          "durationTicks": 55,
          "midi": 94,
          "name": "A#6",
          "ticks": 148500,
          "time": 140.624859375,
          "velocity": 0.8818897637795275
        },
        {
          "duration": 0.05208328124999184,
          "durationTicks": 55,
          "midi": 82,
          "name": "A#5",
          "ticks": 148560,
          "time": 140.6816775,
          "velocity": 0.8818897637795275
        },
        {
          "duration": 0.05208328124999184,
          "durationTicks": 55,
          "midi": 86,
          "name": "D6",
          "ticks": 148560,
          "time": 140.6816775,
          "velocity": 0.8818897637795275
        },
        {
          "duration": 0.05208328124999184,
          "durationTicks": 55,
          "midi": 94,
          "name": "A#6",
          "ticks": 148620,
          "time": 140.738495625,
          "velocity": 0.8818897637795275
        },
        {
          "duration": 0.05208328124999184,
          "durationTicks": 55,
          "midi": 82,
          "name": "A#5",
          "ticks": 148680,
          "time": 140.79531375000002,
          "velocity": 0.8818897637795275
        },
        {
          "duration": 0.05208328124999184,
          "durationTicks": 55,
          "midi": 86,
          "name": "D6",
          "ticks": 148680,
          "time": 140.79531375000002,
          "velocity": 0.8818897637795275
        },
        {
          "duration": 0.05208328124999184,
          "durationTicks": 55,
          "midi": 94,
          "name": "A#6",
          "ticks": 148740,
          "time": 140.852131875,
          "velocity": 0.8818897637795275
        },
        {
          "duration": 0.05208328124999184,
          "durationTicks": 55,
          "midi": 82,
          "name": "A#5",
          "ticks": 148800,
          "time": 140.90895,
          "velocity": 0.8818897637795275
        },
        {
          "duration": 0.05208328124999184,
          "durationTicks": 55,
          "midi": 86,
          "name": "D6",
          "ticks": 148800,
          "time": 140.90895,
          "velocity": 0.8818897637795275
        },
        {
          "duration": 0.05208328124999184,
          "durationTicks": 55,
          "midi": 94,
          "name": "A#6",
          "ticks": 148860,
          "time": 140.965768125,
          "velocity": 0.8818897637795275
        },
        {
          "duration": 0.05208328124999184,
          "durationTicks": 55,
          "midi": 82,
          "name": "A#5",
          "ticks": 148920,
          "time": 141.02258625000002,
          "velocity": 0.8818897637795275
        },
        {
          "duration": 0.05208328124999184,
          "durationTicks": 55,
          "midi": 86,
          "name": "D6",
          "ticks": 148920,
          "time": 141.02258625000002,
          "velocity": 0.8818897637795275
        },
        {
          "duration": 0.05208328124996342,
          "durationTicks": 55,
          "midi": 94,
          "name": "A#6",
          "ticks": 148980,
          "time": 141.07940437500002,
          "velocity": 0.8818897637795275
        },
        {
          "duration": 0.05303025000000616,
          "durationTicks": 56,
          "midi": 94,
          "name": "A#6",
          "ticks": 149040,
          "time": 141.1362225,
          "velocity": 0.8818897637795275
        },
        {
          "duration": 0.05303025000000616,
          "durationTicks": 56,
          "midi": 87,
          "name": "D#6",
          "ticks": 149100,
          "time": 141.193040625,
          "velocity": 0.8818897637795275
        },
        {
          "duration": 0.05303025000000616,
          "durationTicks": 56,
          "midi": 86,
          "name": "D6",
          "ticks": 149160,
          "time": 141.24985875000002,
          "velocity": 0.8818897637795275
        },
        {
          "duration": 0.05303024999997774,
          "durationTicks": 56,
          "midi": 82,
          "name": "A#5",
          "ticks": 149220,
          "time": 141.30667687500002,
          "velocity": 0.8818897637795275
        },
        {
          "duration": 0.05303025000000616,
          "durationTicks": 56,
          "midi": 82,
          "name": "A#5",
          "ticks": 149280,
          "time": 141.363495,
          "velocity": 0.8818897637795275
        },
        {
          "duration": 0.05303025000000616,
          "durationTicks": 56,
          "midi": 75,
          "name": "D#5",
          "ticks": 149340,
          "time": 141.420313125,
          "velocity": 0.8818897637795275
        },
        {
          "duration": 0.05303025000000616,
          "durationTicks": 56,
          "midi": 74,
          "name": "D5",
          "ticks": 149400,
          "time": 141.47713125,
          "velocity": 0.8818897637795275
        },
        {
          "duration": 0.05303025000000616,
          "durationTicks": 56,
          "midi": 70,
          "name": "A#4",
          "ticks": 149460,
          "time": 141.53394937500002,
          "velocity": 0.8818897637795275
        },
        {
          "duration": 0.05303025000000616,
          "durationTicks": 56,
          "midi": 70,
          "name": "A#4",
          "ticks": 149520,
          "time": 141.5907675,
          "velocity": 0.8818897637795275
        },
        {
          "duration": 0.05303025000000616,
          "durationTicks": 56,
          "midi": 63,
          "name": "D#4",
          "ticks": 149580,
          "time": 141.647585625,
          "velocity": 0.8818897637795275
        },
        {
          "duration": 0.05303025000000616,
          "durationTicks": 56,
          "midi": 62,
          "name": "D4",
          "ticks": 149640,
          "time": 141.70440375,
          "velocity": 0.8818897637795275
        },
        {
          "duration": 0.05303025000000616,
          "durationTicks": 56,
          "midi": 58,
          "name": "A#3",
          "ticks": 149700,
          "time": 141.76122187500002,
          "velocity": 0.8818897637795275
        },
        {
          "duration": 0.05303025000000616,
          "durationTicks": 56,
          "midi": 58,
          "name": "A#3",
          "ticks": 149760,
          "time": 141.81804,
          "velocity": 0.8818897637795275
        },
        {
          "duration": 0.1240529062500002,
          "durationTicks": 131,
          "midi": 51,
          "name": "D#3",
          "ticks": 149820,
          "time": 141.874858125,
          "velocity": 0.8818897637795275
        },
        {
          "duration": 0.05303025000000616,
          "durationTicks": 56,
          "midi": 50,
          "name": "D3",
          "ticks": 149880,
          "time": 141.93167625,
          "velocity": 0.8818897637795275
        },
        {
          "duration": 0.05303025000000616,
          "durationTicks": 56,
          "midi": 46,
          "name": "A#2",
          "ticks": 149940,
          "time": 141.98849437500002,
          "velocity": 0.8818897637795275
        },
        {
          "duration": 0.05208328124999184,
          "durationTicks": 55,
          "midi": 82,
          "name": "A#5",
          "ticks": 150000,
          "time": 142.04531250000002,
          "velocity": 0.8818897637795275
        },
        {
          "duration": 0.05208328124999184,
          "durationTicks": 55,
          "midi": 86,
          "name": "D6",
          "ticks": 150000,
          "time": 142.04531250000002,
          "velocity": 0.8818897637795275
        },
        {
          "duration": 0.05208328124999184,
          "durationTicks": 55,
          "midi": 94,
          "name": "A#6",
          "ticks": 150060,
          "time": 142.102130625,
          "velocity": 0.8818897637795275
        },
        {
          "duration": 0.05208328124999184,
          "durationTicks": 55,
          "midi": 82,
          "name": "A#5",
          "ticks": 150120,
          "time": 142.15894875,
          "velocity": 0.8818897637795275
        },
        {
          "duration": 0.05208328124999184,
          "durationTicks": 55,
          "midi": 86,
          "name": "D6",
          "ticks": 150120,
          "time": 142.15894875,
          "velocity": 0.8818897637795275
        },
        {
          "duration": 0.05208328124999184,
          "durationTicks": 55,
          "midi": 94,
          "name": "A#6",
          "ticks": 150180,
          "time": 142.215766875,
          "velocity": 0.8818897637795275
        },
        {
          "duration": 0.05208328124999184,
          "durationTicks": 55,
          "midi": 82,
          "name": "A#5",
          "ticks": 150240,
          "time": 142.27258500000002,
          "velocity": 0.8818897637795275
        },
        {
          "duration": 0.05208328124999184,
          "durationTicks": 55,
          "midi": 86,
          "name": "D6",
          "ticks": 150240,
          "time": 142.27258500000002,
          "velocity": 0.8818897637795275
        },
        {
          "duration": 0.05208328124999184,
          "durationTicks": 55,
          "midi": 94,
          "name": "A#6",
          "ticks": 150300,
          "time": 142.329403125,
          "velocity": 0.8818897637795275
        },
        {
          "duration": 0.05208328124999184,
          "durationTicks": 55,
          "midi": 82,
          "name": "A#5",
          "ticks": 150360,
          "time": 142.38622125,
          "velocity": 0.8818897637795275
        },
        {
          "duration": 0.05208328124999184,
          "durationTicks": 55,
          "midi": 86,
          "name": "D6",
          "ticks": 150360,
          "time": 142.38622125,
          "velocity": 0.8818897637795275
        },
        {
          "duration": 0.05208328124999184,
          "durationTicks": 55,
          "midi": 94,
          "name": "A#6",
          "ticks": 150420,
          "time": 142.443039375,
          "velocity": 0.8818897637795275
        },
        {
          "duration": 0.05208328124999184,
          "durationTicks": 55,
          "midi": 82,
          "name": "A#5",
          "ticks": 150480,
          "time": 142.49985750000002,
          "velocity": 0.8818897637795275
        },
        {
          "duration": 0.05208328124999184,
          "durationTicks": 55,
          "midi": 86,
          "name": "D6",
          "ticks": 150480,
          "time": 142.49985750000002,
          "velocity": 0.8818897637795275
        },
        {
          "duration": 0.05208328124999184,
          "durationTicks": 55,
          "midi": 94,
          "name": "A#6",
          "ticks": 150540,
          "time": 142.556675625,
          "velocity": 0.8818897637795275
        },
        {
          "duration": 0.05208328124999184,
          "durationTicks": 55,
          "midi": 82,
          "name": "A#5",
          "ticks": 150600,
          "time": 142.61349375,
          "velocity": 0.8818897637795275
        },
        {
          "duration": 0.05208328124999184,
          "durationTicks": 55,
          "midi": 86,
          "name": "D6",
          "ticks": 150600,
          "time": 142.61349375,
          "velocity": 0.8818897637795275
        },
        {
          "duration": 0.05208328124999184,
          "durationTicks": 55,
          "midi": 94,
          "name": "A#6",
          "ticks": 150660,
          "time": 142.670311875,
          "velocity": 0.8818897637795275
        },
        {
          "duration": 0.05208328124999184,
          "durationTicks": 55,
          "midi": 82,
          "name": "A#5",
          "ticks": 150720,
          "time": 142.72713000000002,
          "velocity": 0.8818897637795275
        },
        {
          "duration": 0.05208328124999184,
          "durationTicks": 55,
          "midi": 86,
          "name": "D6",
          "ticks": 150720,
          "time": 142.72713000000002,
          "velocity": 0.8818897637795275
        },
        {
          "duration": 0.05208328124999184,
          "durationTicks": 55,
          "midi": 94,
          "name": "A#6",
          "ticks": 150780,
          "time": 142.78394812500002,
          "velocity": 0.8818897637795275
        },
        {
          "duration": 0.05208328124999184,
          "durationTicks": 55,
          "midi": 82,
          "name": "A#5",
          "ticks": 150840,
          "time": 142.84076625,
          "velocity": 0.8818897637795275
        },
        {
          "duration": 0.05208328124999184,
          "durationTicks": 55,
          "midi": 86,
          "name": "D6",
          "ticks": 150840,
          "time": 142.84076625,
          "velocity": 0.8818897637795275
        },
        {
          "duration": 0.05208328124999184,
          "durationTicks": 55,
          "midi": 94,
          "name": "A#6",
          "ticks": 150900,
          "time": 142.897584375,
          "velocity": 0.8818897637795275
        },
        {
          "duration": 0.05587115624999228,
          "durationTicks": 59,
          "midi": 94,
          "name": "A#6",
          "ticks": 150960,
          "time": 142.95440250000001,
          "velocity": 0.8818897637795275
        },
        {
          "duration": 0.05587115624996386,
          "durationTicks": 59,
          "midi": 87,
          "name": "D#6",
          "ticks": 151020,
          "time": 143.01122062500002,
          "velocity": 0.8818897637795275
        },
        {
          "duration": 0.05587115624999228,
          "durationTicks": 59,
          "midi": 86,
          "name": "D6",
          "ticks": 151080,
          "time": 143.06803875,
          "velocity": 0.8818897637795275
        },
        {
          "duration": 0.05587115624999228,
          "durationTicks": 59,
          "midi": 82,
          "name": "A#5",
          "ticks": 151140,
          "time": 143.124856875,
          "velocity": 0.8818897637795275
        },
        {
          "duration": 0.05587115624999228,
          "durationTicks": 59,
          "midi": 82,
          "name": "A#5",
          "ticks": 151200,
          "time": 143.181675,
          "velocity": 0.8818897637795275
        },
        {
          "duration": 0.05587115624999228,
          "durationTicks": 59,
          "midi": 75,
          "name": "D#5",
          "ticks": 151260,
          "time": 143.23849312500002,
          "velocity": 0.8818897637795275
        },
        {
          "duration": 0.05587115624999228,
          "durationTicks": 59,
          "midi": 74,
          "name": "D5",
          "ticks": 151320,
          "time": 143.29531125,
          "velocity": 0.8818897637795275
        },
        {
          "duration": 0.05587115624999228,
          "durationTicks": 59,
          "midi": 70,
          "name": "A#4",
          "ticks": 151380,
          "time": 143.352129375,
          "velocity": 0.8818897637795275
        },
        {
          "duration": 0.05587115624999228,
          "durationTicks": 59,
          "midi": 70,
          "name": "A#4",
          "ticks": 151440,
          "time": 143.4089475,
          "velocity": 0.8818897637795275
        },
        {
          "duration": 0.05587115624999228,
          "durationTicks": 59,
          "midi": 63,
          "name": "D#4",
          "ticks": 151500,
          "time": 143.46576562500002,
          "velocity": 0.8818897637795275
        },
        {
          "duration": 0.05587115624996386,
          "durationTicks": 59,
          "midi": 62,
          "name": "D4",
          "ticks": 151560,
          "time": 143.52258375000002,
          "velocity": 0.8818897637795275
        },
        {
          "duration": 0.05587115624999228,
          "durationTicks": 59,
          "midi": 58,
          "name": "A#3",
          "ticks": 151620,
          "time": 143.579401875,
          "velocity": 0.8818897637795275
        },
        {
          "duration": 0.05587115624999228,
          "durationTicks": 59,
          "midi": 58,
          "name": "A#3",
          "ticks": 151680,
          "time": 143.63622,
          "velocity": 0.8818897637795275
        },
        {
          "duration": 0.05587115624999228,
          "durationTicks": 59,
          "midi": 51,
          "name": "D#3",
          "ticks": 151740,
          "time": 143.69303812500002,
          "velocity": 0.8818897637795275
        },
        {
          "duration": 0.05587115624996386,
          "durationTicks": 59,
          "midi": 50,
          "name": "D3",
          "ticks": 151800,
          "time": 143.74985625000002,
          "velocity": 0.8818897637795275
        },
        {
          "duration": 0.05303025000000616,
          "durationTicks": 56,
          "midi": 46,
          "name": "A#2",
          "ticks": 151860,
          "time": 143.806674375,
          "velocity": 0.8818897637795275
        },
        {
          "duration": 0.05208328124999184,
          "durationTicks": 55,
          "midi": 82,
          "name": "A#5",
          "ticks": 151920,
          "time": 143.8634925,
          "velocity": 0.8818897637795275
        },
        {
          "duration": 0.05208328124999184,
          "durationTicks": 55,
          "midi": 86,
          "name": "D6",
          "ticks": 151920,
          "time": 143.8634925,
          "velocity": 0.8818897637795275
        },
        {
          "duration": 0.05208328124999184,
          "durationTicks": 55,
          "midi": 94,
          "name": "A#6",
          "ticks": 151980,
          "time": 143.920310625,
          "velocity": 0.8818897637795275
        },
        {
          "duration": 0.05208328124999184,
          "durationTicks": 55,
          "midi": 82,
          "name": "A#5",
          "ticks": 152040,
          "time": 143.97712875000002,
          "velocity": 0.8818897637795275
        },
        {
          "duration": 0.05208328124999184,
          "durationTicks": 55,
          "midi": 86,
          "name": "D6",
          "ticks": 152040,
          "time": 143.97712875000002,
          "velocity": 0.8818897637795275
        },
        {
          "duration": 0.05208328124999184,
          "durationTicks": 55,
          "midi": 94,
          "name": "A#6",
          "ticks": 152100,
          "time": 144.033946875,
          "velocity": 0.8818897637795275
        },
        {
          "duration": 0.05208328124999184,
          "durationTicks": 55,
          "midi": 82,
          "name": "A#5",
          "ticks": 152160,
          "time": 144.090765,
          "velocity": 0.8818897637795275
        },
        {
          "duration": 0.05208328124999184,
          "durationTicks": 55,
          "midi": 86,
          "name": "D6",
          "ticks": 152160,
          "time": 144.090765,
          "velocity": 0.8818897637795275
        },
        {
          "duration": 0.05208328124999184,
          "durationTicks": 55,
          "midi": 94,
          "name": "A#6",
          "ticks": 152220,
          "time": 144.147583125,
          "velocity": 0.8818897637795275
        },
        {
          "duration": 0.05208328124999184,
          "durationTicks": 55,
          "midi": 82,
          "name": "A#5",
          "ticks": 152280,
          "time": 144.20440125000002,
          "velocity": 0.8818897637795275
        },
        {
          "duration": 0.05208328124999184,
          "durationTicks": 55,
          "midi": 86,
          "name": "D6",
          "ticks": 152280,
          "time": 144.20440125000002,
          "velocity": 0.8818897637795275
        },
        {
          "duration": 0.05208328124996342,
          "durationTicks": 55,
          "midi": 94,
          "name": "A#6",
          "ticks": 152340,
          "time": 144.26121937500002,
          "velocity": 0.8818897637795275
        },
        {
          "duration": 0.05208328124999184,
          "durationTicks": 55,
          "midi": 82,
          "name": "A#5",
          "ticks": 152400,
          "time": 144.3180375,
          "velocity": 0.8818897637795275
        },
        {
          "duration": 0.05208328124999184,
          "durationTicks": 55,
          "midi": 86,
          "name": "D6",
          "ticks": 152400,
          "time": 144.3180375,
          "velocity": 0.8818897637795275
        },
        {
          "duration": 0.05208328124999184,
          "durationTicks": 55,
          "midi": 94,
          "name": "A#6",
          "ticks": 152460,
          "time": 144.374855625,
          "velocity": 0.8818897637795275
        },
        {
          "duration": 0.05208328124999184,
          "durationTicks": 55,
          "midi": 82,
          "name": "A#5",
          "ticks": 152520,
          "time": 144.43167375000002,
          "velocity": 0.8818897637795275
        },
        {
          "duration": 0.05208328124999184,
          "durationTicks": 55,
          "midi": 86,
          "name": "D6",
          "ticks": 152520,
          "time": 144.43167375000002,
          "velocity": 0.8818897637795275
        },
        {
          "duration": 0.05208328124999184,
          "durationTicks": 55,
          "midi": 94,
          "name": "A#6",
          "ticks": 152580,
          "time": 144.48849187500002,
          "velocity": 0.8818897637795275
        },
        {
          "duration": 0.05208328124999184,
          "durationTicks": 55,
          "midi": 82,
          "name": "A#5",
          "ticks": 152640,
          "time": 144.54531,
          "velocity": 0.8818897637795275
        },
        {
          "duration": 0.05208328124999184,
          "durationTicks": 55,
          "midi": 86,
          "name": "D6",
          "ticks": 152640,
          "time": 144.54531,
          "velocity": 0.8818897637795275
        },
        {
          "duration": 0.05208328124999184,
          "durationTicks": 55,
          "midi": 94,
          "name": "A#6",
          "ticks": 152700,
          "time": 144.602128125,
          "velocity": 0.8818897637795275
        },
        {
          "duration": 0.05208328124999184,
          "durationTicks": 55,
          "midi": 82,
          "name": "A#5",
          "ticks": 152760,
          "time": 144.65894625,
          "velocity": 0.8818897637795275
        },
        {
          "duration": 0.05208328124999184,
          "durationTicks": 55,
          "midi": 86,
          "name": "D6",
          "ticks": 152760,
          "time": 144.65894625,
          "velocity": 0.8818897637795275
        },
        {
          "duration": 0.05208328124999184,
          "durationTicks": 55,
          "midi": 94,
          "name": "A#6",
          "ticks": 152820,
          "time": 144.71576437500002,
          "velocity": 0.8818897637795275
        },
        {
          "duration": 0.05587115624999228,
          "durationTicks": 59,
          "midi": 94,
          "name": "A#6",
          "ticks": 152880,
          "time": 144.7725825,
          "velocity": 0.8818897637795275
        },
        {
          "duration": 0.05587115624999228,
          "durationTicks": 59,
          "midi": 87,
          "name": "D#6",
          "ticks": 152940,
          "time": 144.829400625,
          "velocity": 0.8818897637795275
        },
        {
          "duration": 0.05587115624999228,
          "durationTicks": 59,
          "midi": 86,
          "name": "D6",
          "ticks": 153000,
          "time": 144.88621875,
          "velocity": 0.8818897637795275
        },
        {
          "duration": 0.05587115624999228,
          "durationTicks": 59,
          "midi": 82,
          "name": "A#5",
          "ticks": 153060,
          "time": 144.94303687500002,
          "velocity": 0.8818897637795275
        },
        {
          "duration": 0.05587115624999228,
          "durationTicks": 59,
          "midi": 82,
          "name": "A#5",
          "ticks": 153120,
          "time": 144.999855,
          "velocity": 0.8818897637795275
        },
        {
          "duration": 0.05587115624999228,
          "durationTicks": 59,
          "midi": 75,
          "name": "D#5",
          "ticks": 153180,
          "time": 145.056673125,
          "velocity": 0.8818897637795275
        },
        {
          "duration": 0.05587115624999228,
          "durationTicks": 59,
          "midi": 74,
          "name": "D5",
          "ticks": 153240,
          "time": 145.11349125,
          "velocity": 0.8818897637795275
        },
        {
          "duration": 0.05587115624999228,
          "durationTicks": 59,
          "midi": 70,
          "name": "A#4",
          "ticks": 153300,
          "time": 145.17030937500002,
          "velocity": 0.8818897637795275
        },
        {
          "duration": 0.05587115624996386,
          "durationTicks": 59,
          "midi": 70,
          "name": "A#4",
          "ticks": 153360,
          "time": 145.22712750000002,
          "velocity": 0.8818897637795275
        },
        {
          "duration": 0.05587115624999228,
          "durationTicks": 59,
          "midi": 63,
          "name": "D#4",
          "ticks": 153420,
          "time": 145.283945625,
          "velocity": 0.8818897637795275
        },
        {
          "duration": 0.05587115624999228,
          "durationTicks": 59,
          "midi": 62,
          "name": "D4",
          "ticks": 153480,
          "time": 145.34076375,
          "velocity": 0.8818897637795275
        },
        {
          "duration": 0.05587115624999228,
          "durationTicks": 59,
          "midi": 58,
          "name": "A#3",
          "ticks": 153540,
          "time": 145.39758187500001,
          "velocity": 0.8818897637795275
        },
        {
          "duration": 0.05587115624996386,
          "durationTicks": 59,
          "midi": 58,
          "name": "A#3",
          "ticks": 153600,
          "time": 145.45440000000002,
          "velocity": 0.8818897637795275
        },
        {
          "duration": 0.05587115624999228,
          "durationTicks": 59,
          "midi": 51,
          "name": "D#3",
          "ticks": 153660,
          "time": 145.511218125,
          "velocity": 0.8818897637795275
        },
        {
          "duration": 0.05587115624999228,
          "durationTicks": 59,
          "midi": 50,
          "name": "D3",
          "ticks": 153720,
          "time": 145.56803625,
          "velocity": 0.8818897637795275
        },
        {
          "duration": 0.05303025000000616,
          "durationTicks": 56,
          "midi": 46,
          "name": "A#2",
          "ticks": 153780,
          "time": 145.624854375,
          "velocity": 0.8818897637795275
        },
        {
          "duration": 0.05208328124999184,
          "durationTicks": 55,
          "midi": 84,
          "name": "C6",
          "ticks": 153840,
          "time": 145.68167250000002,
          "velocity": 0.8818897637795275
        },
        {
          "duration": 0.05208328124999184,
          "durationTicks": 55,
          "midi": 89,
          "name": "F6",
          "ticks": 153840,
          "time": 145.68167250000002,
          "velocity": 0.8818897637795275
        },
        {
          "duration": 0.05208328124999184,
          "durationTicks": 55,
          "midi": 96,
          "name": "C7",
          "ticks": 153900,
          "time": 145.738490625,
          "velocity": 0.8818897637795275
        },
        {
          "duration": 0.05208328124999184,
          "durationTicks": 55,
          "midi": 84,
          "name": "C6",
          "ticks": 153960,
          "time": 145.79530875,
          "velocity": 0.8818897637795275
        },
        {
          "duration": 0.05208328124999184,
          "durationTicks": 55,
          "midi": 89,
          "name": "F6",
          "ticks": 153960,
          "time": 145.79530875,
          "velocity": 0.8818897637795275
        },
        {
          "duration": 0.05208328124999184,
          "durationTicks": 55,
          "midi": 96,
          "name": "C7",
          "ticks": 154020,
          "time": 145.852126875,
          "velocity": 0.8818897637795275
        },
        {
          "duration": 0.05208328124999184,
          "durationTicks": 55,
          "midi": 84,
          "name": "C6",
          "ticks": 154080,
          "time": 145.90894500000002,
          "velocity": 0.8818897637795275
        },
        {
          "duration": 0.05208328124999184,
          "durationTicks": 55,
          "midi": 89,
          "name": "F6",
          "ticks": 154080,
          "time": 145.90894500000002,
          "velocity": 0.8818897637795275
        },
        {
          "duration": 0.05208328124999184,
          "durationTicks": 55,
          "midi": 96,
          "name": "C7",
          "ticks": 154140,
          "time": 145.96576312500002,
          "velocity": 0.8818897637795275
        },
        {
          "duration": 0.05208328124999184,
          "durationTicks": 55,
          "midi": 84,
          "name": "C6",
          "ticks": 154200,
          "time": 146.02258125,
          "velocity": 0.8818897637795275
        },
        {
          "duration": 0.05208328124999184,
          "durationTicks": 55,
          "midi": 89,
          "name": "F6",
          "ticks": 154200,
          "time": 146.02258125,
          "velocity": 0.8818897637795275
        },
        {
          "duration": 0.05208328124999184,
          "durationTicks": 55,
          "midi": 96,
          "name": "C7",
          "ticks": 154260,
          "time": 146.079399375,
          "velocity": 0.8818897637795275
        },
        {
          "duration": 0.05208328124999184,
          "durationTicks": 55,
          "midi": 84,
          "name": "C6",
          "ticks": 154320,
          "time": 146.13621750000001,
          "velocity": 0.8818897637795275
        },
        {
          "duration": 0.05208328124999184,
          "durationTicks": 55,
          "midi": 89,
          "name": "F6",
          "ticks": 154320,
          "time": 146.13621750000001,
          "velocity": 0.8818897637795275
        },
        {
          "duration": 0.05208328124999184,
          "durationTicks": 55,
          "midi": 96,
          "name": "C7",
          "ticks": 154380,
          "time": 146.19303562500002,
          "velocity": 0.8818897637795275
        },
        {
          "duration": 0.05208328124999184,
          "durationTicks": 55,
          "midi": 84,
          "name": "C6",
          "ticks": 154440,
          "time": 146.24985375,
          "velocity": 0.8818897637795275
        },
        {
          "duration": 0.05208328124999184,
          "durationTicks": 55,
          "midi": 89,
          "name": "F6",
          "ticks": 154440,
          "time": 146.24985375,
          "velocity": 0.8818897637795275
        },
        {
          "duration": 0.05208328124999184,
          "durationTicks": 55,
          "midi": 96,
          "name": "C7",
          "ticks": 154500,
          "time": 146.306671875,
          "velocity": 0.8818897637795275
        },
        {
          "duration": 0.05208328124999184,
          "durationTicks": 55,
          "midi": 84,
          "name": "C6",
          "ticks": 154560,
          "time": 146.36349,
          "velocity": 0.8818897637795275
        },
        {
          "duration": 0.05208328124999184,
          "durationTicks": 55,
          "midi": 89,
          "name": "F6",
          "ticks": 154560,
          "time": 146.36349,
          "velocity": 0.8818897637795275
        },
        {
          "duration": 0.05208328124999184,
          "durationTicks": 55,
          "midi": 96,
          "name": "C7",
          "ticks": 154620,
          "time": 146.42030812500002,
          "velocity": 0.8818897637795275
        },
        {
          "duration": 0.05208328124999184,
          "durationTicks": 55,
          "midi": 84,
          "name": "C6",
          "ticks": 154680,
          "time": 146.47712625,
          "velocity": 0.8818897637795275
        },
        {
          "duration": 0.05208328124999184,
          "durationTicks": 55,
          "midi": 89,
          "name": "F6",
          "ticks": 154680,
          "time": 146.47712625,
          "velocity": 0.8818897637795275
        },
        {
          "duration": 0.05208328124999184,
          "durationTicks": 55,
          "midi": 96,
          "name": "C7",
          "ticks": 154740,
          "time": 146.533944375,
          "velocity": 0.8818897637795275
        },
        {
          "duration": 0.05587115624999228,
          "durationTicks": 59,
          "midi": 96,
          "name": "C7",
          "ticks": 154800,
          "time": 146.5907625,
          "velocity": 0.8818897637795275
        },
        {
          "duration": 0.05587115624999228,
          "durationTicks": 59,
          "midi": 94,
          "name": "A#6",
          "ticks": 154860,
          "time": 146.64758062500002,
          "velocity": 0.8818897637795275
        },
        {
          "duration": 0.05587115624996386,
          "durationTicks": 59,
          "midi": 89,
          "name": "F6",
          "ticks": 154920,
          "time": 146.70439875000002,
          "velocity": 0.8818897637795275
        },
        {
          "duration": 0.05587115624999228,
          "durationTicks": 59,
          "midi": 84,
          "name": "C6",
          "ticks": 154980,
          "time": 146.761216875,
          "velocity": 0.8818897637795275
        },
        {
          "duration": 0.05587115624999228,
          "durationTicks": 59,
          "midi": 84,
          "name": "C6",
          "ticks": 155040,
          "time": 146.818035,
          "velocity": 0.8818897637795275
        },
        {
          "duration": 0.05587115624999228,
          "durationTicks": 59,
          "midi": 82,
          "name": "A#5",
          "ticks": 155100,
          "time": 146.87485312500002,
          "velocity": 0.8818897637795275
        },
        {
          "duration": 0.05587115624996386,
          "durationTicks": 59,
          "midi": 77,
          "name": "F5",
          "ticks": 155160,
          "time": 146.93167125000002,
          "velocity": 0.8818897637795275
        },
        {
          "duration": 0.05587115624999228,
          "durationTicks": 59,
          "midi": 72,
          "name": "C5",
          "ticks": 155220,
          "time": 146.988489375,
          "velocity": 0.8818897637795275
        },
        {
          "duration": 0.05587115624999228,
          "durationTicks": 59,
          "midi": 72,
          "name": "C5",
          "ticks": 155280,
          "time": 147.0453075,
          "velocity": 0.8818897637795275
        },
        {
          "duration": 0.05587115624999228,
          "durationTicks": 59,
          "midi": 70,
          "name": "A#4",
          "ticks": 155340,
          "time": 147.102125625,
          "velocity": 0.8818897637795275
        },
        {
          "duration": 0.05587115624999228,
          "durationTicks": 59,
          "midi": 65,
          "name": "F4",
          "ticks": 155400,
          "time": 147.15894375000002,
          "velocity": 0.8818897637795275
        },
        {
          "duration": 0.05587115624999228,
          "durationTicks": 59,
          "midi": 60,
          "name": "C4",
          "ticks": 155460,
          "time": 147.215761875,
          "velocity": 0.8818897637795275
        },
        {
          "duration": 0.05587115624999228,
          "durationTicks": 59,
          "midi": 60,
          "name": "C4",
          "ticks": 155520,
          "time": 147.27258,
          "velocity": 0.8818897637795275
        },
        {
          "duration": 0.22632553124998367,
          "durationTicks": 239,
          "midi": 65,
          "name": "F4",
          "ticks": 155520,
          "time": 147.27258,
          "velocity": 0.8818897637795275
        },
        {
          "duration": 0.05587115624999228,
          "durationTicks": 59,
          "midi": 58,
          "name": "A#3",
          "ticks": 155580,
          "time": 147.329398125,
          "velocity": 0.8818897637795275
        },
        {
          "duration": 0.05587115624999228,
          "durationTicks": 59,
          "midi": 53,
          "name": "F3",
          "ticks": 155640,
          "time": 147.38621625000002,
          "velocity": 0.5039370078740157
        },
        {
          "duration": 0.05303025000000616,
          "durationTicks": 56,
          "midi": 48,
          "name": "C3",
          "ticks": 155700,
          "time": 147.443034375,
          "velocity": 0.5039370078740157
        },
        {
          "duration": 0.21496190625001077,
          "durationTicks": 227,
          "midi": 65,
          "name": "F4",
          "ticks": 155760,
          "time": 147.4998525,
          "velocity": 0.5039370078740157
        },
        {
          "duration": 0.10700746874999822,
          "durationTicks": 113,
          "midi": 62,
          "name": "D4",
          "ticks": 156000,
          "time": 147.727125,
          "velocity": 0.5039370078740157
        },
        {
          "duration": 0.10700746874999822,
          "durationTicks": 113,
          "midi": 62,
          "name": "D4",
          "ticks": 156120,
          "time": 147.84076125,
          "velocity": 0.5039370078740157
        },
        {
          "duration": 0.21496190625001077,
          "durationTicks": 227,
          "midi": 69,
          "name": "A4",
          "ticks": 156480,
          "time": 148.18167,
          "velocity": 0.5039370078740157
        },
        {
          "duration": 0.21496190625001077,
          "durationTicks": 227,
          "midi": 62,
          "name": "D4",
          "ticks": 156480,
          "time": 148.18167,
          "velocity": 0.5039370078740157
        },
        {
          "duration": 0.21496190624998235,
          "durationTicks": 227,
          "midi": 70,
          "name": "A#4",
          "ticks": 156720,
          "time": 148.40894250000002,
          "velocity": 0.5039370078740157
        },
        {
          "duration": 0.21496190624998235,
          "durationTicks": 227,
          "midi": 60,
          "name": "C4",
          "ticks": 156720,
          "time": 148.40894250000002,
          "velocity": 0.5039370078740157
        },
        {
          "duration": 0.1070074687499698,
          "durationTicks": 113,
          "midi": 69,
          "name": "A4",
          "ticks": 156960,
          "time": 148.63621500000002,
          "velocity": 0.5039370078740157
        },
        {
          "duration": 0.1070074687499698,
          "durationTicks": 113,
          "midi": 62,
          "name": "D4",
          "ticks": 156960,
          "time": 148.63621500000002,
          "velocity": 0.5039370078740157
        },
        {
          "duration": 0.10700746874999822,
          "durationTicks": 113,
          "midi": 69,
          "name": "A4",
          "ticks": 157080,
          "time": 148.74985125,
          "velocity": 0.5039370078740157
        },
        {
          "duration": 0.10700746874999822,
          "durationTicks": 113,
          "midi": 62,
          "name": "D4",
          "ticks": 157080,
          "time": 148.74985125,
          "velocity": 0.5039370078740157
        },
        {
          "duration": 0.21496190624998235,
          "durationTicks": 227,
          "midi": 65,
          "name": "F4",
          "ticks": 157440,
          "time": 149.09076000000002,
          "velocity": 0.5039370078740157
        },
        {
          "duration": 0.21496190624998235,
          "durationTicks": 227,
          "midi": 65,
          "name": "F4",
          "ticks": 157680,
          "time": 149.31803250000002,
          "velocity": 0.5039370078740157
        },
        {
          "duration": 0.10700746874999822,
          "durationTicks": 113,
          "midi": 62,
          "name": "D4",
          "ticks": 157920,
          "time": 149.545305,
          "velocity": 0.5039370078740157
        },
        {
          "duration": 0.10700746874999822,
          "durationTicks": 113,
          "midi": 62,
          "name": "D4",
          "ticks": 158040,
          "time": 149.65894125,
          "velocity": 0.5039370078740157
        },
        {
          "duration": 0.21496190625001077,
          "durationTicks": 227,
          "midi": 69,
          "name": "A4",
          "ticks": 158400,
          "time": 149.99985,
          "velocity": 0.5039370078740157
        },
        {
          "duration": 0.21496190625001077,
          "durationTicks": 227,
          "midi": 62,
          "name": "D4",
          "ticks": 158400,
          "time": 149.99985,
          "velocity": 0.5039370078740157
        },
        {
          "duration": 0.21496190625001077,
          "durationTicks": 227,
          "midi": 70,
          "name": "A#4",
          "ticks": 158640,
          "time": 150.2271225,
          "velocity": 0.5039370078740157
        },
        {
          "duration": 0.21496190625001077,
          "durationTicks": 227,
          "midi": 60,
          "name": "C4",
          "ticks": 158640,
          "time": 150.2271225,
          "velocity": 0.5039370078740157
        },
        {
          "duration": 0.10700746874999822,
          "durationTicks": 113,
          "midi": 69,
          "name": "A4",
          "ticks": 158880,
          "time": 150.454395,
          "velocity": 0.5039370078740157
        },
        {
          "duration": 0.10700746874999822,
          "durationTicks": 113,
          "midi": 62,
          "name": "D4",
          "ticks": 158880,
          "time": 150.454395,
          "velocity": 0.5039370078740157
        },
        {
          "duration": 0.10700746874999822,
          "durationTicks": 113,
          "midi": 69,
          "name": "A4",
          "ticks": 159000,
          "time": 150.56803125000002,
          "velocity": 0.5039370078740157
        },
        {
          "duration": 0.10700746874999822,
          "durationTicks": 113,
          "midi": 62,
          "name": "D4",
          "ticks": 159000,
          "time": 150.56803125000002,
          "velocity": 0.5039370078740157
        },
        {
          "duration": 0.21496190625001077,
          "durationTicks": 227,
          "midi": 65,
          "name": "F4",
          "ticks": 159360,
          "time": 150.90894,
          "velocity": 0.5039370078740157
        },
        {
          "duration": 0.21496190625001077,
          "durationTicks": 227,
          "midi": 65,
          "name": "F4",
          "ticks": 159600,
          "time": 151.1362125,
          "velocity": 0.5039370078740157
        },
        {
          "duration": 0.10700746874999822,
          "durationTicks": 113,
          "midi": 62,
          "name": "D4",
          "ticks": 159840,
          "time": 151.363485,
          "velocity": 0.5039370078740157
        },
        {
          "duration": 0.10700746874999822,
          "durationTicks": 113,
          "midi": 62,
          "name": "D4",
          "ticks": 159960,
          "time": 151.47712125,
          "velocity": 0.5039370078740157
        },
        {
          "duration": 0.21496190624998235,
          "durationTicks": 227,
          "midi": 69,
          "name": "A4",
          "ticks": 160320,
          "time": 151.81803000000002,
          "velocity": 0.5039370078740157
        },
        {
          "duration": 0.21496190624998235,
          "durationTicks": 227,
          "midi": 62,
          "name": "D4",
          "ticks": 160320,
          "time": 151.81803000000002,
          "velocity": 0.5039370078740157
        },
        {
          "duration": 0.21496190624998235,
          "durationTicks": 227,
          "midi": 70,
          "name": "A#4",
          "ticks": 160560,
          "time": 152.04530250000002,
          "velocity": 0.5039370078740157
        },
        {
          "duration": 0.21496190624998235,
          "durationTicks": 227,
          "midi": 60,
          "name": "C4",
          "ticks": 160560,
          "time": 152.04530250000002,
          "velocity": 0.5039370078740157
        },
        {
          "duration": 0.10700746874999822,
          "durationTicks": 113,
          "midi": 69,
          "name": "A4",
          "ticks": 160800,
          "time": 152.27257500000002,
          "velocity": 0.5039370078740157
        },
        {
          "duration": 0.10700746874999822,
          "durationTicks": 113,
          "midi": 62,
          "name": "D4",
          "ticks": 160800,
          "time": 152.27257500000002,
          "velocity": 0.5039370078740157
        },
        {
          "duration": 0.10700746874999822,
          "durationTicks": 113,
          "midi": 69,
          "name": "A4",
          "ticks": 160920,
          "time": 152.38621125,
          "velocity": 0.5039370078740157
        },
        {
          "duration": 0.10700746874999822,
          "durationTicks": 113,
          "midi": 62,
          "name": "D4",
          "ticks": 160920,
          "time": 152.38621125,
          "velocity": 0.5039370078740157
        },
        {
          "duration": 0.21496190624998235,
          "durationTicks": 227,
          "midi": 65,
          "name": "F4",
          "ticks": 161280,
          "time": 152.72712,
          "velocity": 0.5039370078740157
        },
        {
          "duration": 0.21496190625001077,
          "durationTicks": 227,
          "midi": 65,
          "name": "F4",
          "ticks": 161520,
          "time": 152.9543925,
          "velocity": 0.5039370078740157
        },
        {
          "duration": 0.10700746874999822,
          "durationTicks": 113,
          "midi": 62,
          "name": "D4",
          "ticks": 161760,
          "time": 153.181665,
          "velocity": 0.5039370078740157
        },
        {
          "duration": 0.1070074687499698,
          "durationTicks": 113,
          "midi": 62,
          "name": "D4",
          "ticks": 161880,
          "time": 153.29530125000002,
          "velocity": 0.5039370078740157
        },
        {
          "duration": 0.21496190625001077,
          "durationTicks": 227,
          "midi": 69,
          "name": "A4",
          "ticks": 162240,
          "time": 153.63621,
          "velocity": 0.5039370078740157
        },
        {
          "duration": 0.21496190625001077,
          "durationTicks": 227,
          "midi": 62,
          "name": "D4",
          "ticks": 162240,
          "time": 153.63621,
          "velocity": 0.5039370078740157
        },
        {
          "duration": 0.21496190625001077,
          "durationTicks": 227,
          "midi": 70,
          "name": "A#4",
          "ticks": 162480,
          "time": 153.8634825,
          "velocity": 0.5039370078740157
        },
        {
          "duration": 0.21496190625001077,
          "durationTicks": 227,
          "midi": 60,
          "name": "C4",
          "ticks": 162480,
          "time": 153.8634825,
          "velocity": 0.5039370078740157
        },
        {
          "duration": 0.10700746874999822,
          "durationTicks": 113,
          "midi": 69,
          "name": "A4",
          "ticks": 162720,
          "time": 154.090755,
          "velocity": 0.5039370078740157
        },
        {
          "duration": 0.10700746874999822,
          "durationTicks": 113,
          "midi": 62,
          "name": "D4",
          "ticks": 162720,
          "time": 154.090755,
          "velocity": 0.5039370078740157
        },
        {
          "duration": 0.10700746874999822,
          "durationTicks": 113,
          "midi": 69,
          "name": "A4",
          "ticks": 162840,
          "time": 154.20439125000001,
          "velocity": 0.5039370078740157
        },
        {
          "duration": 0.10700746874999822,
          "durationTicks": 113,
          "midi": 62,
          "name": "D4",
          "ticks": 162840,
          "time": 154.20439125000001,
          "velocity": 0.5039370078740157
        },
        {
          "duration": 0.21496190625001077,
          "durationTicks": 227,
          "midi": 65,
          "name": "F4",
          "ticks": 163200,
          "time": 154.5453,
          "velocity": 0.5039370078740157
        },
        {
          "duration": 0.1070074687499698,
          "durationTicks": 113,
          "midi": 74,
          "name": "D5",
          "ticks": 163440,
          "time": 154.77257250000002,
          "velocity": 0.5039370078740157
        },
        {
          "duration": 0.21496190624998235,
          "durationTicks": 227,
          "midi": 62,
          "name": "D4",
          "ticks": 163440,
          "time": 154.77257250000002,
          "velocity": 0.5039370078740157
        },
        {
          "duration": 0.21496190624998235,
          "durationTicks": 227,
          "midi": 65,
          "name": "F4",
          "ticks": 163440,
          "time": 154.77257250000002,
          "velocity": 0.5039370078740157
        },
        {
          "duration": 0.10700746874999822,
          "durationTicks": 113,
          "midi": 69,
          "name": "A4",
          "ticks": 163560,
          "time": 154.88620875,
          "velocity": 0.5039370078740157
        },
        {
          "duration": 0.1070074687499698,
          "durationTicks": 113,
          "midi": 70,
          "name": "A#4",
          "ticks": 163680,
          "time": 154.99984500000002,
          "velocity": 0.5118110236220472
        },
        {
          "duration": 0.1070074687499698,
          "durationTicks": 113,
          "midi": 62,
          "name": "D4",
          "ticks": 163680,
          "time": 154.99984500000002,
          "velocity": 0.5118110236220472
        },
        {
          "duration": 0.10700746874999822,
          "durationTicks": 113,
          "midi": 65,
          "name": "F4",
          "ticks": 163800,
          "time": 155.11348125,
          "velocity": 0.5196850393700787
        },
        {
          "duration": 0.10700746874999822,
          "durationTicks": 113,
          "midi": 62,
          "name": "D4",
          "ticks": 163800,
          "time": 155.11348125,
          "velocity": 0.5196850393700787
        },
        {
          "duration": 0.10700746874999822,
          "durationTicks": 113,
          "midi": 74,
          "name": "D5",
          "ticks": 164160,
          "time": 155.45439000000002,
          "velocity": 0.5354330708661418
        },
        {
          "duration": 0.21496190624998235,
          "durationTicks": 227,
          "midi": 62,
          "name": "D4",
          "ticks": 164160,
          "time": 155.45439000000002,
          "velocity": 0.5354330708661418
        },
        {
          "duration": 0.10700746874999822,
          "durationTicks": 113,
          "midi": 69,
          "name": "A4",
          "ticks": 164280,
          "time": 155.56802625,
          "velocity": 0.5354330708661418
        },
        {
          "duration": 0.10700746874999822,
          "durationTicks": 113,
          "midi": 70,
          "name": "A#4",
          "ticks": 164400,
          "time": 155.68166250000002,
          "velocity": 0.5433070866141733
        },
        {
          "duration": 0.21496190624998235,
          "durationTicks": 227,
          "midi": 60,
          "name": "C4",
          "ticks": 164400,
          "time": 155.68166250000002,
          "velocity": 0.5433070866141733
        },
        {
          "duration": 0.10700746874999822,
          "durationTicks": 113,
          "midi": 65,
          "name": "F4",
          "ticks": 164520,
          "time": 155.79529875,
          "velocity": 0.5511811023622047
        },
        {
          "duration": 0.10700746874999822,
          "durationTicks": 113,
          "midi": 62,
          "name": "D4",
          "ticks": 164640,
          "time": 155.908935,
          "velocity": 0.5511811023622047
        },
        {
          "duration": 0.10700746874999822,
          "durationTicks": 113,
          "midi": 62,
          "name": "D4",
          "ticks": 164760,
          "time": 156.02257125,
          "velocity": 0.5590551181102362
        },
        {
          "duration": 0.10700746874999822,
          "durationTicks": 113,
          "midi": 74,
          "name": "D5",
          "ticks": 164880,
          "time": 156.1362075,
          "velocity": 0.5669291338582677
        },
        {
          "duration": 0.1070074687499698,
          "durationTicks": 113,
          "midi": 69,
          "name": "A4",
          "ticks": 165000,
          "time": 156.24984375000003,
          "velocity": 0.5748031496062992
        },
        {
          "duration": 0.21496190625001077,
          "durationTicks": 227,
          "midi": 70,
          "name": "A#4",
          "ticks": 165120,
          "time": 156.36348,
          "velocity": 0.5748031496062992
        },
        {
          "duration": 0.21496190625001077,
          "durationTicks": 227,
          "midi": 65,
          "name": "F4",
          "ticks": 165120,
          "time": 156.36348,
          "velocity": 0.5748031496062992
        },
        {
          "duration": 0.10700746874999822,
          "durationTicks": 113,
          "midi": 74,
          "name": "D5",
          "ticks": 165360,
          "time": 156.5907525,
          "velocity": 0.5905511811023622
        },
        {
          "duration": 0.21496190625001077,
          "durationTicks": 227,
          "midi": 62,
          "name": "D4",
          "ticks": 165360,
          "time": 156.5907525,
          "velocity": 0.5905511811023622
        },
        {
          "duration": 0.21496190625001077,
          "durationTicks": 227,
          "midi": 65,
          "name": "F4",
          "ticks": 165360,
          "time": 156.5907525,
          "velocity": 0.5905511811023622
        },
        {
          "duration": 0.1070074687499698,
          "durationTicks": 113,
          "midi": 69,
          "name": "A4",
          "ticks": 165480,
          "time": 156.70438875000002,
          "velocity": 0.5905511811023622
        },
        {
          "duration": 0.10700746874999822,
          "durationTicks": 113,
          "midi": 70,
          "name": "A#4",
          "ticks": 165600,
          "time": 156.818025,
          "velocity": 0.5984251968503937
        },
        {
          "duration": 0.10700746874999822,
          "durationTicks": 113,
          "midi": 62,
          "name": "D4",
          "ticks": 165600,
          "time": 156.818025,
          "velocity": 0.5984251968503937
        },
        {
          "duration": 0.10700746874999822,
          "durationTicks": 113,
          "midi": 65,
          "name": "F4",
          "ticks": 165720,
          "time": 156.93166125000002,
          "velocity": 0.6062992125984252
        },
        {
          "duration": 0.10700746874999822,
          "durationTicks": 113,
          "midi": 62,
          "name": "D4",
          "ticks": 165720,
          "time": 156.93166125000002,
          "velocity": 0.6062992125984252
        },
        {
          "duration": 0.10700746874999822,
          "durationTicks": 113,
          "midi": 74,
          "name": "D5",
          "ticks": 166080,
          "time": 157.27257,
          "velocity": 0.6220472440944882
        },
        {
          "duration": 0.21496190625001077,
          "durationTicks": 227,
          "midi": 62,
          "name": "D4",
          "ticks": 166080,
          "time": 157.27257,
          "velocity": 0.6220472440944882
        },
        {
          "duration": 0.10700746874999822,
          "durationTicks": 113,
          "midi": 69,
          "name": "A4",
          "ticks": 166200,
          "time": 157.38620625000001,
          "velocity": 0.6299212598425197
        },
        {
          "duration": 0.10700746874999822,
          "durationTicks": 113,
          "midi": 70,
          "name": "A#4",
          "ticks": 166320,
          "time": 157.4998425,
          "velocity": 0.6299212598425197
        },
        {
          "duration": 0.21496190625001077,
          "durationTicks": 227,
          "midi": 60,
          "name": "C4",
          "ticks": 166320,
          "time": 157.4998425,
          "velocity": 0.6299212598425197
        },
        {
          "duration": 0.10700746874999822,
          "durationTicks": 113,
          "midi": 65,
          "name": "F4",
          "ticks": 166440,
          "time": 157.61347875,
          "velocity": 0.6377952755905512
        },
        {
          "duration": 0.10700746874999822,
          "durationTicks": 113,
          "midi": 62,
          "name": "D4",
          "ticks": 166560,
          "time": 157.727115,
          "velocity": 0.6456692913385826
        },
        {
          "duration": 0.10700746874999822,
          "durationTicks": 113,
          "midi": 62,
          "name": "D4",
          "ticks": 166680,
          "time": 157.84075125,
          "velocity": 0.6456692913385826
        },
        {
          "duration": 0.1070074687499698,
          "durationTicks": 113,
          "midi": 74,
          "name": "D5",
          "ticks": 166800,
          "time": 157.95438750000002,
          "velocity": 0.6535433070866141
        },
        {
          "duration": 0.10700746874999822,
          "durationTicks": 113,
          "midi": 69,
          "name": "A4",
          "ticks": 166920,
          "time": 158.06802375,
          "velocity": 0.6614173228346457
        },
        {
          "duration": 0.21496190624998235,
          "durationTicks": 227,
          "midi": 70,
          "name": "A#4",
          "ticks": 167040,
          "time": 158.18166000000002,
          "velocity": 0.6614173228346457
        },
        {
          "duration": 0.21496190624998235,
          "durationTicks": 227,
          "midi": 65,
          "name": "F4",
          "ticks": 167040,
          "time": 158.18166000000002,
          "velocity": 0.6614173228346457
        },
        {
          "duration": 0.10700746874999822,
          "durationTicks": 113,
          "midi": 74,
          "name": "D5",
          "ticks": 167280,
          "time": 158.40893250000002,
          "velocity": 0.6771653543307087
        },
        {
          "duration": 0.21496190624998235,
          "durationTicks": 227,
          "midi": 62,
          "name": "D4",
          "ticks": 167280,
          "time": 158.40893250000002,
          "velocity": 0.6771653543307087
        },
        {
          "duration": 0.21496190624998235,
          "durationTicks": 227,
          "midi": 65,
          "name": "F4",
          "ticks": 167280,
          "time": 158.40893250000002,
          "velocity": 0.6771653543307087
        },
        {
          "duration": 0.10700746874999822,
          "durationTicks": 113,
          "midi": 69,
          "name": "A4",
          "ticks": 167400,
          "time": 158.52256875,
          "velocity": 0.6771653543307087
        },
        {
          "duration": 0.10700746874999822,
          "durationTicks": 113,
          "midi": 70,
          "name": "A#4",
          "ticks": 167520,
          "time": 158.63620500000002,
          "velocity": 0.6850393700787402
        },
        {
          "duration": 0.10700746874999822,
          "durationTicks": 113,
          "midi": 62,
          "name": "D4",
          "ticks": 167520,
          "time": 158.63620500000002,
          "velocity": 0.6850393700787402
        },
        {
          "duration": 0.10700746874999822,
          "durationTicks": 113,
          "midi": 65,
          "name": "F4",
          "ticks": 167640,
          "time": 158.74984125,
          "velocity": 0.6929133858267716
        },
        {
          "duration": 0.10700746874999822,
          "durationTicks": 113,
          "midi": 62,
          "name": "D4",
          "ticks": 167640,
          "time": 158.74984125,
          "velocity": 0.6929133858267716
        },
        {
          "duration": 0,
          "durationTicks": 0,
          "midi": 74,
          "name": "D5",
          "ticks": 168000,
          "time": 159.09075,
          "velocity": 0.7086614173228346
        },
        {
          "duration": 0.21496190624998235,
          "durationTicks": 227,
          "midi": 62,
          "name": "D4",
          "ticks": 168000,
          "time": 159.09075,
          "velocity": 0.7086614173228346
        },
        {
          "duration": 0.21496190624998235,
          "durationTicks": 227,
          "midi": 74,
          "name": "D5",
          "ticks": 168000,
          "time": 159.09075,
          "velocity": 0.7086614173228346
        },
        {
          "duration": 0.10700746874999822,
          "durationTicks": 113,
          "midi": 69,
          "name": "A4",
          "ticks": 168120,
          "time": 159.20438625,
          "velocity": 0.7165354330708661
        },
        {
          "duration": 0.10700746874999822,
          "durationTicks": 113,
          "midi": 70,
          "name": "A#4",
          "ticks": 168240,
          "time": 159.3180225,
          "velocity": 0.7165354330708661
        },
        {
          "duration": 0.3229163437499949,
          "durationTicks": 341,
          "midi": 60,
          "name": "C4",
          "ticks": 168240,
          "time": 159.3180225,
          "velocity": 0.7165354330708661
        },
        {
          "duration": 0.3229163437499949,
          "durationTicks": 341,
          "midi": 72,
          "name": "C5",
          "ticks": 168240,
          "time": 159.3180225,
          "velocity": 0.7165354330708661
        },
        {
          "duration": 0.5681812499999808,
          "durationTicks": 600,
          "midi": 65,
          "name": "F4",
          "ticks": 168360,
          "time": 159.43165875000003,
          "velocity": 0.7244094488188977
        },
        {
          "duration": 0.3229163437499949,
          "durationTicks": 341,
          "midi": 62,
          "name": "D4",
          "ticks": 168600,
          "time": 159.65893125000002,
          "velocity": 0.7322834645669292
        },
        {
          "duration": 0.3229163437499949,
          "durationTicks": 341,
          "midi": 74,
          "name": "D5",
          "ticks": 168600,
          "time": 159.65893125000002,
          "velocity": 0.7322834645669292
        },
        {
          "duration": 0.45359803124998166,
          "durationTicks": 479,
          "midi": 62,
          "name": "D4",
          "ticks": 168960,
          "time": 159.99984,
          "velocity": 0.7559055118110236
        },
        {
          "duration": 0.45359803124998166,
          "durationTicks": 479,
          "midi": 65,
          "name": "F4",
          "ticks": 168960,
          "time": 159.99984,
          "velocity": 0.7559055118110236
        },
        {
          "duration": 0.45359803124998166,
          "durationTicks": 479,
          "midi": 70,
          "name": "A#4",
          "ticks": 168960,
          "time": 159.99984,
          "velocity": 0.7559055118110236
        },
        {
          "duration": 0.45359803124998166,
          "durationTicks": 479,
          "midi": 74,
          "name": "D5",
          "ticks": 168960,
          "time": 159.99984,
          "velocity": 0.7559055118110236
        },
        {
          "duration": 0.22632553124998367,
          "durationTicks": 239,
          "midi": 75,
          "name": "D#5",
          "ticks": 169440,
          "time": 160.454385,
          "velocity": 0.7559055118110236
        },
        {
          "duration": 0.22632553124998367,
          "durationTicks": 239,
          "midi": 87,
          "name": "D#6",
          "ticks": 169440,
          "time": 160.454385,
          "velocity": 0.7559055118110236
        },
        {
          "duration": 0.43087078125000744,
          "durationTicks": 455,
          "midi": 74,
          "name": "D5",
          "ticks": 169680,
          "time": 160.6816575,
          "velocity": 0.7559055118110236
        },
        {
          "duration": 0.43087078125000744,
          "durationTicks": 455,
          "midi": 86,
          "name": "D6",
          "ticks": 169680,
          "time": 160.6816575,
          "velocity": 0.7559055118110236
        },
        {
          "duration": 0.43087078125000744,
          "durationTicks": 455,
          "midi": 86,
          "name": "D6",
          "ticks": 170160,
          "time": 161.13620250000002,
          "velocity": 0.7559055118110236
        },
        {
          "duration": 0.43087078125000744,
          "durationTicks": 455,
          "midi": 98,
          "name": "D7",
          "ticks": 170160,
          "time": 161.13620250000002,
          "velocity": 0.7559055118110236
        },
        {
          "duration": 0.43087078125000744,
          "durationTicks": 455,
          "midi": 84,
          "name": "C6",
          "ticks": 170640,
          "time": 161.59074750000002,
          "velocity": 0.6299212598425197
        },
        {
          "duration": 0.43087078125000744,
          "durationTicks": 455,
          "midi": 96,
          "name": "C7",
          "ticks": 170640,
          "time": 161.59074750000002,
          "velocity": 0.6299212598425197
        },
        {
          "duration": 0,
          "durationTicks": 0,
          "midi": 98,
          "name": "D7",
          "ticks": 171120,
          "time": 162.04529250000002,
          "velocity": 0.5039370078740157
        },
        {
          "duration": 0.3229163437499949,
          "durationTicks": 341,
          "midi": 98,
          "name": "D7",
          "ticks": 171120,
          "time": 162.04529250000002,
          "velocity": 0.5039370078740157
        },
        {
          "duration": 0.10700746874999822,
          "durationTicks": 113,
          "midi": 91,
          "name": "G6",
          "ticks": 171240,
          "time": 162.15892875,
          "velocity": 0.5039370078740157
        },
        {
          "duration": 0.10700746874999822,
          "durationTicks": 113,
          "midi": 87,
          "name": "D#6",
          "ticks": 171360,
          "time": 162.27256500000001,
          "velocity": 0.5039370078740157
        },
        {
          "duration": 0,
          "durationTicks": 0,
          "midi": 96,
          "name": "C7",
          "ticks": 171480,
          "time": 162.38620125,
          "velocity": 0.5039370078740157
        },
        {
          "duration": 0.3229163437500233,
          "durationTicks": 341,
          "midi": 96,
          "name": "C7",
          "ticks": 171480,
          "time": 162.38620125,
          "velocity": 0.5039370078740157
        },
        {
          "duration": 0.10700746874999822,
          "durationTicks": 113,
          "midi": 91,
          "name": "G6",
          "ticks": 171600,
          "time": 162.4998375,
          "velocity": 0.5039370078740157
        },
        {
          "duration": 0.1070074687499698,
          "durationTicks": 113,
          "midi": 87,
          "name": "D#6",
          "ticks": 171720,
          "time": 162.61347375000003,
          "velocity": 0.5039370078740157
        },
        {
          "duration": 0,
          "durationTicks": 0,
          "midi": 96,
          "name": "C7",
          "ticks": 171840,
          "time": 162.72711,
          "velocity": 0.5039370078740157
        },
        {
          "duration": 0.21496190625001077,
          "durationTicks": 227,
          "midi": 96,
          "name": "C7",
          "ticks": 171840,
          "time": 162.72711,
          "velocity": 0.5039370078740157
        },
        {
          "duration": 0.1070074687499698,
          "durationTicks": 113,
          "midi": 87,
          "name": "D#6",
          "ticks": 171960,
          "time": 162.84074625000002,
          "velocity": 0.5039370078740157
        },
        {
          "duration": 0,
          "durationTicks": 0,
          "midi": 96,
          "name": "C7",
          "ticks": 172080,
          "time": 162.9543825,
          "velocity": 0.5039370078740157
        },
        {
          "duration": 0.3229163437499949,
          "durationTicks": 341,
          "midi": 96,
          "name": "C7",
          "ticks": 172080,
          "time": 162.9543825,
          "velocity": 0.5039370078740157
        },
        {
          "duration": 0.1070074687499698,
          "durationTicks": 113,
          "midi": 91,
          "name": "G6",
          "ticks": 172200,
          "time": 163.06801875000002,
          "velocity": 0.5039370078740157
        },
        {
          "duration": 0.10700746874999822,
          "durationTicks": 113,
          "midi": 87,
          "name": "D#6",
          "ticks": 172320,
          "time": 163.181655,
          "velocity": 0.5039370078740157
        },
        {
          "duration": 0,
          "durationTicks": 0,
          "midi": 94,
          "name": "A#6",
          "ticks": 172440,
          "time": 163.29529125000002,
          "velocity": 0.5039370078740157
        },
        {
          "duration": 0.3229163437499949,
          "durationTicks": 341,
          "midi": 94,
          "name": "A#6",
          "ticks": 172440,
          "time": 163.29529125000002,
          "velocity": 0.5039370078740157
        },
        {
          "duration": 0.10700746874999822,
          "durationTicks": 113,
          "midi": 91,
          "name": "G6",
          "ticks": 172560,
          "time": 163.4089275,
          "velocity": 0.5039370078740157
        },
        {
          "duration": 0.10700746874999822,
          "durationTicks": 113,
          "midi": 87,
          "name": "D#6",
          "ticks": 172680,
          "time": 163.52256375000002,
          "velocity": 0.5039370078740157
        },
        {
          "duration": 0,
          "durationTicks": 0,
          "midi": 94,
          "name": "A#6",
          "ticks": 172800,
          "time": 163.6362,
          "velocity": 0.5039370078740157
        },
        {
          "duration": 0.21496190625001077,
          "durationTicks": 227,
          "midi": 94,
          "name": "A#6",
          "ticks": 172800,
          "time": 163.6362,
          "velocity": 0.5039370078740157
        },
        {
          "duration": 0.10700746874999822,
          "durationTicks": 113,
          "midi": 87,
          "name": "D#6",
          "ticks": 172920,
          "time": 163.74983625000002,
          "velocity": 0.5039370078740157
        },
        {
          "duration": 0,
          "durationTicks": 0,
          "midi": 93,
          "name": "A6",
          "ticks": 173040,
          "time": 163.8634725,
          "velocity": 0.5039370078740157
        },
        {
          "duration": 0.3229163437500233,
          "durationTicks": 341,
          "midi": 93,
          "name": "A6",
          "ticks": 173040,
          "time": 163.8634725,
          "velocity": 0.5039370078740157
        },
        {
          "duration": 0.10700746874999822,
          "durationTicks": 113,
          "midi": 89,
          "name": "F6",
          "ticks": 173160,
          "time": 163.97710875,
          "velocity": 0.5039370078740157
        },
        {
          "duration": 0.10700746874999822,
          "durationTicks": 113,
          "midi": 84,
          "name": "C6",
          "ticks": 173280,
          "time": 164.090745,
          "velocity": 0.5039370078740157
        },
        {
          "duration": 0,
          "durationTicks": 0,
          "midi": 94,
          "name": "A#6",
          "ticks": 173400,
          "time": 164.20438125,
          "velocity": 0.5039370078740157
        },
        {
          "duration": 0.3229163437499949,
          "durationTicks": 341,
          "midi": 94,
          "name": "A#6",
          "ticks": 173400,
          "time": 164.20438125,
          "velocity": 0.5039370078740157
        },
        {
          "duration": 0.1070074687499698,
          "durationTicks": 113,
          "midi": 89,
          "name": "F6",
          "ticks": 173520,
          "time": 164.31801750000002,
          "velocity": 0.5039370078740157
        },
        {
          "duration": 0.10700746874999822,
          "durationTicks": 113,
          "midi": 84,
          "name": "C6",
          "ticks": 173640,
          "time": 164.43165375,
          "velocity": 0.5039370078740157
        },
        {
          "duration": 0,
          "durationTicks": 0,
          "midi": 93,
          "name": "A6",
          "ticks": 173760,
          "time": 164.54529000000002,
          "velocity": 0.5039370078740157
        },
        {
          "duration": 0.43087078125000744,
          "durationTicks": 455,
          "midi": 93,
          "name": "A6",
          "ticks": 173760,
          "time": 164.54529000000002,
          "velocity": 0.5039370078740157
        },
        {
          "duration": 0.10700746874999822,
          "durationTicks": 113,
          "midi": 84,
          "name": "C6",
          "ticks": 173880,
          "time": 164.65892625,
          "velocity": 0.5039370078740157
        },
        {
          "duration": 0.10700746874999822,
          "durationTicks": 113,
          "midi": 84,
          "name": "C6",
          "ticks": 174000,
          "time": 164.77256250000002,
          "velocity": 0.5039370078740157
        },
        {
          "duration": 0.10700746874999822,
          "durationTicks": 113,
          "midi": 84,
          "name": "C6",
          "ticks": 174120,
          "time": 164.88619875,
          "velocity": 0.5039370078740157
        },
        {
          "duration": 0,
          "durationTicks": 0,
          "midi": 89,
          "name": "F6",
          "ticks": 174240,
          "time": 164.99983500000002,
          "velocity": 0.5039370078740157
        },
        {
          "duration": 0.454544999999996,
          "durationTicks": 480,
          "midi": 89,
          "name": "F6",
          "ticks": 174240,
          "time": 164.99983500000002,
          "velocity": 0.5039370078740157
        },
        {
          "duration": 0.10700746874999822,
          "durationTicks": 113,
          "midi": 84,
          "name": "C6",
          "ticks": 174360,
          "time": 165.11347125,
          "velocity": 0.5039370078740157
        },
        {
          "duration": 0.10700746874999822,
          "durationTicks": 113,
          "midi": 84,
          "name": "C6",
          "ticks": 174480,
          "time": 165.22710750000002,
          "velocity": 0.5039370078740157
        },
        {
          "duration": 0.10700746874999822,
          "durationTicks": 113,
          "midi": 84,
          "name": "C6",
          "ticks": 174600,
          "time": 165.34074375,
          "velocity": 0.5039370078740157
        },
        {
          "duration": 0.1922346562499797,
          "durationTicks": 203,
          "midi": 89,
          "name": "F6",
          "ticks": 174720,
          "time": 165.45438000000001,
          "velocity": 0.5039370078740157
        },
        {
          "duration": 0.10700746874999822,
          "durationTicks": 113,
          "midi": 93,
          "name": "A6",
          "ticks": 174840,
          "time": 165.56801625,
          "velocity": 0.5039370078740157
        },
        {
          "duration": 0,
          "durationTicks": 0,
          "midi": 98,
          "name": "D7",
          "ticks": 174960,
          "time": 165.6816525,
          "velocity": 0.5039370078740157
        },
        {
          "duration": 0.3229163437499949,
          "durationTicks": 341,
          "midi": 98,
          "name": "D7",
          "ticks": 174960,
          "time": 165.6816525,
          "velocity": 0.5039370078740157
        },
        {
          "duration": 0.1070074687499698,
          "durationTicks": 113,
          "midi": 91,
          "name": "G6",
          "ticks": 175080,
          "time": 165.79528875000003,
          "velocity": 0.5039370078740157
        },
        {
          "duration": 0.10700746874999822,
          "durationTicks": 113,
          "midi": 86,
          "name": "D6",
          "ticks": 175200,
          "time": 165.908925,
          "velocity": 0.5039370078740157
        },
        {
          "duration": 0,
          "durationTicks": 0,
          "midi": 96,
          "name": "C7",
          "ticks": 175320,
          "time": 166.02256125000002,
          "velocity": 0.5039370078740157
        },
        {
          "duration": 0.3229163437499949,
          "durationTicks": 341,
          "midi": 96,
          "name": "C7",
          "ticks": 175320,
          "time": 166.02256125000002,
          "velocity": 0.5039370078740157
        },
        {
          "duration": 0.10700746874999822,
          "durationTicks": 113,
          "midi": 91,
          "name": "G6",
          "ticks": 175440,
          "time": 166.1361975,
          "velocity": 0.5039370078740157
        },
        {
          "duration": 0.1070074687499698,
          "durationTicks": 113,
          "midi": 86,
          "name": "D6",
          "ticks": 175560,
          "time": 166.24983375000002,
          "velocity": 0.5039370078740157
        },
        {
          "duration": 0.21496190625001077,
          "durationTicks": 227,
          "midi": 96,
          "name": "C7",
          "ticks": 175680,
          "time": 166.36347,
          "velocity": 0.5039370078740157
        },
        {
          "duration": 0.10700746874999822,
          "durationTicks": 113,
          "midi": 91,
          "name": "G6",
          "ticks": 175680,
          "time": 166.36347,
          "velocity": 0.5039370078740157
        },
        {
          "duration": 0.10700746874999822,
          "durationTicks": 113,
          "midi": 86,
          "name": "D6",
          "ticks": 175800,
          "time": 166.47710625000002,
          "velocity": 0.5039370078740157
        },
        {
          "duration": 0,
          "durationTicks": 0,
          "midi": 96,
          "name": "C7",
          "ticks": 175920,
          "time": 166.5907425,
          "velocity": 0.5039370078740157
        },
        {
          "duration": 0.3229163437500233,
          "durationTicks": 341,
          "midi": 96,
          "name": "C7",
          "ticks": 175920,
          "time": 166.5907425,
          "velocity": 0.5039370078740157
        },
        {
          "duration": 0.10700746874999822,
          "durationTicks": 113,
          "midi": 91,
          "name": "G6",
          "ticks": 176040,
          "time": 166.70437875000002,
          "velocity": 0.5039370078740157
        },
        {
          "duration": 0.10700746874999822,
          "durationTicks": 113,
          "midi": 86,
          "name": "D6",
          "ticks": 176160,
          "time": 166.818015,
          "velocity": 0.5039370078740157
        },
        {
          "duration": 0,
          "durationTicks": 0,
          "midi": 94,
          "name": "A#6",
          "ticks": 176280,
          "time": 166.93165125000002,
          "velocity": 0.5039370078740157
        },
        {
          "duration": 0.3229163437499949,
          "durationTicks": 341,
          "midi": 94,
          "name": "A#6",
          "ticks": 176280,
          "time": 166.93165125000002,
          "velocity": 0.5039370078740157
        },
        {
          "duration": 0.10700746874999822,
          "durationTicks": 113,
          "midi": 91,
          "name": "G6",
          "ticks": 176400,
          "time": 167.0452875,
          "velocity": 0.5039370078740157
        },
        {
          "duration": 0.10700746874999822,
          "durationTicks": 113,
          "midi": 86,
          "name": "D6",
          "ticks": 176520,
          "time": 167.15892375,
          "velocity": 0.5039370078740157
        },
        {
          "duration": 0.21496190625001077,
          "durationTicks": 227,
          "midi": 94,
          "name": "A#6",
          "ticks": 176640,
          "time": 167.27256,
          "velocity": 0.5039370078740157
        },
        {
          "duration": 0.10700746874999822,
          "durationTicks": 113,
          "midi": 91,
          "name": "G6",
          "ticks": 176640,
          "time": 167.27256,
          "velocity": 0.5039370078740157
        },
        {
          "duration": 0.10700746874999822,
          "durationTicks": 113,
          "midi": 86,
          "name": "D6",
          "ticks": 176760,
          "time": 167.38619625,
          "velocity": 0.5039370078740157
        },
        {
          "duration": 0,
          "durationTicks": 0,
          "midi": 93,
          "name": "A6",
          "ticks": 176880,
          "time": 167.49983250000002,
          "velocity": 0.5039370078740157
        },
        {
          "duration": 0.3229163437499949,
          "durationTicks": 341,
          "midi": 93,
          "name": "A6",
          "ticks": 176880,
          "time": 167.49983250000002,
          "velocity": 0.5039370078740157
        },
        {
          "duration": 0.10700746874999822,
          "durationTicks": 113,
          "midi": 89,
          "name": "F6",
          "ticks": 177000,
          "time": 167.61346875,
          "velocity": 0.5039370078740157
        },
        {
          "duration": 0.1070074687499698,
          "durationTicks": 113,
          "midi": 86,
          "name": "D6",
          "ticks": 177120,
          "time": 167.72710500000002,
          "velocity": 0.5039370078740157
        },
        {
          "duration": 0,
          "durationTicks": 0,
          "midi": 94,
          "name": "A#6",
          "ticks": 177240,
          "time": 167.84074125,
          "velocity": 0.5039370078740157
        },
        {
          "duration": 0.3229163437499949,
          "durationTicks": 341,
          "midi": 94,
          "name": "A#6",
          "ticks": 177240,
          "time": 167.84074125,
          "velocity": 0.5039370078740157
        },
        {
          "duration": 0.10700746874999822,
          "durationTicks": 113,
          "midi": 89,
          "name": "F6",
          "ticks": 177360,
          "time": 167.95437750000002,
          "velocity": 0.5039370078740157
        },
        {
          "duration": 0.10700746874999822,
          "durationTicks": 113,
          "midi": 86,
          "name": "D6",
          "ticks": 177480,
          "time": 168.06801375,
          "velocity": 0.5039370078740157
        },
        {
          "duration": 0,
          "durationTicks": 0,
          "midi": 101,
          "name": "F7",
          "ticks": 177600,
          "time": 168.18165000000002,
          "velocity": 0.5039370078740157
        },
        {
          "duration": 0.43087078125000744,
          "durationTicks": 455,
          "midi": 101,
          "name": "F7",
          "ticks": 177600,
          "time": 168.18165000000002,
          "velocity": 0.5039370078740157
        },
        {
          "duration": 0.10700746874999822,
          "durationTicks": 113,
          "midi": 86,
          "name": "D6",
          "ticks": 177720,
          "time": 168.29528625,
          "velocity": 0.5039370078740157
        },
        {
          "duration": 0.10700746874999822,
          "durationTicks": 113,
          "midi": 86,
          "name": "D6",
          "ticks": 177840,
          "time": 168.40892250000002,
          "velocity": 0.5039370078740157
        },
        {
          "duration": 0.10700746874999822,
          "durationTicks": 113,
          "midi": 86,
          "name": "D6",
          "ticks": 177960,
          "time": 168.52255875,
          "velocity": 0.5039370078740157
        },
        {
          "duration": 0,
          "durationTicks": 0,
          "midi": 93,
          "name": "A6",
          "ticks": 178080,
          "time": 168.63619500000001,
          "velocity": 0.5039370078740157
        },
        {
          "duration": 0.6467796562500041,
          "durationTicks": 683,
          "midi": 93,
          "name": "A6",
          "ticks": 178080,
          "time": 168.63619500000001,
          "velocity": 0.5039370078740157
        },
        {
          "duration": 0.10700746874999822,
          "durationTicks": 113,
          "midi": 86,
          "name": "D6",
          "ticks": 178200,
          "time": 168.74983125,
          "velocity": 0.5039370078740157
        },
        {
          "duration": 0.10700746874999822,
          "durationTicks": 113,
          "midi": 86,
          "name": "D6",
          "ticks": 178320,
          "time": 168.8634675,
          "velocity": 0.5039370078740157
        },
        {
          "duration": 0.1070074687499698,
          "durationTicks": 113,
          "midi": 86,
          "name": "D6",
          "ticks": 178440,
          "time": 168.97710375000003,
          "velocity": 0.5039370078740157
        },
        {
          "duration": 0.10700746874999822,
          "durationTicks": 113,
          "midi": 89,
          "name": "F6",
          "ticks": 178560,
          "time": 169.09074,
          "velocity": 0.5039370078740157
        },
        {
          "duration": 0.1070074687499698,
          "durationTicks": 113,
          "midi": 94,
          "name": "A#6",
          "ticks": 178680,
          "time": 169.20437625000002,
          "velocity": 0.5039370078740157
        },
        {
          "duration": 0,
          "durationTicks": 0,
          "midi": 103,
          "name": "G7",
          "ticks": 178800,
          "time": 169.3180125,
          "velocity": 0.5039370078740157
        },
        {
          "duration": 0.3229163437499949,
          "durationTicks": 341,
          "midi": 103,
          "name": "G7",
          "ticks": 178800,
          "time": 169.3180125,
          "velocity": 0.5039370078740157
        },
        {
          "duration": 0.1070074687499698,
          "durationTicks": 113,
          "midi": 94,
          "name": "A#6",
          "ticks": 178920,
          "time": 169.43164875000002,
          "velocity": 0.5039370078740157
        },
        {
          "duration": 0.10700746874999822,
          "durationTicks": 113,
          "midi": 91,
          "name": "G6",
          "ticks": 179040,
          "time": 169.545285,
          "velocity": 0.5039370078740157
        },
        {
          "duration": 0,
          "durationTicks": 0,
          "midi": 101,
          "name": "F7",
          "ticks": 179160,
          "time": 169.65892125000002,
          "velocity": 0.5039370078740157
        },
        {
          "duration": 0.3229163437499949,
          "durationTicks": 341,
          "midi": 101,
          "name": "F7",
          "ticks": 179160,
          "time": 169.65892125000002,
          "velocity": 0.5039370078740157
        },
        {
          "duration": 0.10700746874999822,
          "durationTicks": 113,
          "midi": 94,
          "name": "A#6",
          "ticks": 179280,
          "time": 169.7725575,
          "velocity": 0.5039370078740157
        },
        {
          "duration": 0.10700746874999822,
          "durationTicks": 113,
          "midi": 91,
          "name": "G6",
          "ticks": 179400,
          "time": 169.88619375000002,
          "velocity": 0.5039370078740157
        },
        {
          "duration": 0,
          "durationTicks": 0,
          "midi": 98,
          "name": "D7",
          "ticks": 179520,
          "time": 169.99983,
          "velocity": 0.5039370078740157
        },
        {
          "duration": 0.43087078125000744,
          "durationTicks": 455,
          "midi": 98,
          "name": "D7",
          "ticks": 179520,
          "time": 169.99983,
          "velocity": 0.5039370078740157
        },
        {
          "duration": 0.10700746874999822,
          "durationTicks": 113,
          "midi": 87,
          "name": "D#6",
          "ticks": 179640,
          "time": 170.11346625000002,
          "velocity": 0.5039370078740157
        },
        {
          "duration": 0.10700746874999822,
          "durationTicks": 113,
          "midi": 87,
          "name": "D#6",
          "ticks": 179760,
          "time": 170.2271025,
          "velocity": 0.5039370078740157
        },
        {
          "duration": 0.10700746874999822,
          "durationTicks": 113,
          "midi": 87,
          "name": "D#6",
          "ticks": 179880,
          "time": 170.34073875,
          "velocity": 0.5039370078740157
        },
        {
          "duration": 0,
          "durationTicks": 0,
          "midi": 94,
          "name": "A#6",
          "ticks": 180000,
          "time": 170.454375,
          "velocity": 0.5039370078740157
        },
        {
          "duration": 0.43087078125003586,
          "durationTicks": 455,
          "midi": 94,
          "name": "A#6",
          "ticks": 180000,
          "time": 170.454375,
          "velocity": 0.5039370078740157
        },
        {
          "duration": 0.10700746874999822,
          "durationTicks": 113,
          "midi": 87,
          "name": "D#6",
          "ticks": 180120,
          "time": 170.56801125,
          "velocity": 0.5039370078740157
        },
        {
          "duration": 0.1070074687499698,
          "durationTicks": 113,
          "midi": 87,
          "name": "D#6",
          "ticks": 180240,
          "time": 170.68164750000003,
          "velocity": 0.5039370078740157
        },
        {
          "duration": 0.10700746874999822,
          "durationTicks": 113,
          "midi": 87,
          "name": "D#6",
          "ticks": 180360,
          "time": 170.79528375,
          "velocity": 0.5039370078740157
        },
        {
          "duration": 0,
          "durationTicks": 0,
          "midi": 94,
          "name": "A#6",
          "ticks": 180480,
          "time": 170.90892000000002,
          "velocity": 0.5039370078740157
        },
        {
          "duration": 0.21496190624998235,
          "durationTicks": 227,
          "midi": 94,
          "name": "A#6",
          "ticks": 180480,
          "time": 170.90892000000002,
          "velocity": 0.5039370078740157
        },
        {
          "duration": 0.10700746874999822,
          "durationTicks": 113,
          "midi": 87,
          "name": "D#6",
          "ticks": 180600,
          "time": 171.02255625,
          "velocity": 0.5039370078740157
        },
        {
          "duration": 0,
          "durationTicks": 0,
          "midi": 94,
          "name": "A#6",
          "ticks": 180720,
          "time": 171.13619250000002,
          "velocity": 0.5039370078740157
        },
        {
          "duration": 0.43087078125000744,
          "durationTicks": 455,
          "midi": 94,
          "name": "A#6",
          "ticks": 180720,
          "time": 171.13619250000002,
          "velocity": 0.5039370078740157
        },
        {
          "duration": 0.10700746874999822,
          "durationTicks": 113,
          "midi": 89,
          "name": "F6",
          "ticks": 180840,
          "time": 171.24982875,
          "velocity": 0.5039370078740157
        },
        {
          "duration": 0.10700746874999822,
          "durationTicks": 113,
          "midi": 84,
          "name": "C6",
          "ticks": 180960,
          "time": 171.36346500000002,
          "velocity": 0.5039370078740157
        },
        {
          "duration": 0.10700746874999822,
          "durationTicks": 113,
          "midi": 84,
          "name": "C6",
          "ticks": 181080,
          "time": 171.47710125,
          "velocity": 0.5039370078740157
        },
        {
          "duration": 0,
          "durationTicks": 0,
          "midi": 93,
          "name": "A6",
          "ticks": 181200,
          "time": 171.59073750000002,
          "velocity": 0.5039370078740157
        },
        {
          "duration": 0.21496190624998235,
          "durationTicks": 227,
          "midi": 93,
          "name": "A6",
          "ticks": 181200,
          "time": 171.59073750000002,
          "velocity": 0.5039370078740157
        },
        {
          "duration": 0.10700746874999822,
          "durationTicks": 113,
          "midi": 84,
          "name": "C6",
          "ticks": 181320,
          "time": 171.70437375,
          "velocity": 0.5039370078740157
        },
        {
          "duration": 0,
          "durationTicks": 0,
          "midi": 91,
          "name": "G6",
          "ticks": 181440,
          "time": 171.81801000000002,
          "velocity": 0.5039370078740157
        },
        {
          "duration": 0.43087078125000744,
          "durationTicks": 455,
          "midi": 91,
          "name": "G6",
          "ticks": 181440,
          "time": 171.81801000000002,
          "velocity": 0.5039370078740157
        },
        {
          "duration": 0.10700746874999822,
          "durationTicks": 113,
          "midi": 84,
          "name": "C6",
          "ticks": 181560,
          "time": 171.93164625,
          "velocity": 0.5039370078740157
        },
        {
          "duration": 0.10700746874999822,
          "durationTicks": 113,
          "midi": 84,
          "name": "C6",
          "ticks": 181680,
          "time": 172.0452825,
          "velocity": 0.5039370078740157
        },
        {
          "duration": 0.1070074687499698,
          "durationTicks": 113,
          "midi": 84,
          "name": "C6",
          "ticks": 181800,
          "time": 172.15891875000003,
          "velocity": 0.5039370078740157
        },
        {
          "duration": 0,
          "durationTicks": 0,
          "midi": 93,
          "name": "A6",
          "ticks": 181920,
          "time": 172.272555,
          "velocity": 0.5039370078740157
        },
        {
          "duration": 0.43087078125000744,
          "durationTicks": 455,
          "midi": 93,
          "name": "A6",
          "ticks": 181920,
          "time": 172.272555,
          "velocity": 0.5039370078740157
        },
        {
          "duration": 0.1070074687499698,
          "durationTicks": 113,
          "midi": 84,
          "name": "C6",
          "ticks": 182040,
          "time": 172.38619125000002,
          "velocity": 0.5039370078740157
        },
        {
          "duration": 0.10700746874999822,
          "durationTicks": 113,
          "midi": 84,
          "name": "C6",
          "ticks": 182160,
          "time": 172.4998275,
          "velocity": 0.5039370078740157
        },
        {
          "duration": 0.1070074687499698,
          "durationTicks": 113,
          "midi": 84,
          "name": "C6",
          "ticks": 182280,
          "time": 172.61346375000002,
          "velocity": 0.5039370078740157
        },
        {
          "duration": 0,
          "durationTicks": 0,
          "midi": 94,
          "name": "A#6",
          "ticks": 182400,
          "time": 172.7271,
          "velocity": 0.5039370078740157
        },
        {
          "duration": 1.5104151562500192,
          "durationTicks": 1595,
          "midi": 82,
          "name": "A#5",
          "ticks": 182400,
          "time": 172.7271,
          "velocity": 0.5039370078740157
        },
        {
          "duration": 1.5104151562500192,
          "durationTicks": 1595,
          "midi": 86,
          "name": "D6",
          "ticks": 182400,
          "time": 172.7271,
          "velocity": 0.5039370078740157
        },
        {
          "duration": 1.5104151562500192,
          "durationTicks": 1595,
          "midi": 94,
          "name": "A#6",
          "ticks": 182400,
          "time": 172.7271,
          "velocity": 0.5039370078740157
        },
        {
          "duration": 0.21496190624998235,
          "durationTicks": 227,
          "midi": 82,
          "name": "A#5",
          "ticks": 184320,
          "time": 174.54528000000002,
          "velocity": 0.5039370078740157
        },
        {
          "duration": 0.3229163437499949,
          "durationTicks": 341,
          "midi": 74,
          "name": "D5",
          "ticks": 184560,
          "time": 174.77255250000002,
          "velocity": 0.5039370078740157
        },
        {
          "duration": 0.3229163437499949,
          "durationTicks": 341,
          "midi": 77,
          "name": "F5",
          "ticks": 184560,
          "time": 174.77255250000002,
          "velocity": 0.5039370078740157
        },
        {
          "duration": 0.3229163437499949,
          "durationTicks": 341,
          "midi": 81,
          "name": "A5",
          "ticks": 184560,
          "time": 174.77255250000002,
          "velocity": 0.5039370078740157
        },
        {
          "duration": 0.3229163437500233,
          "durationTicks": 341,
          "midi": 82,
          "name": "A#5",
          "ticks": 184920,
          "time": 175.11346125,
          "velocity": 0.5039370078740157
        },
        {
          "duration": 0.43087078125000744,
          "durationTicks": 455,
          "midi": 81,
          "name": "A5",
          "ticks": 185280,
          "time": 175.45437,
          "velocity": 0.5039370078740157
        },
        {
          "duration": 0.43087078125000744,
          "durationTicks": 455,
          "midi": 77,
          "name": "F5",
          "ticks": 185760,
          "time": 175.908915,
          "velocity": 0.5039370078740157
        },
        {
          "duration": 0.22632553124998367,
          "durationTicks": 239,
          "midi": 74,
          "name": "D5",
          "ticks": 186240,
          "time": 176.36346,
          "velocity": 0.6299212598425197
        },
        {
          "duration": 0.2263255312500121,
          "durationTicks": 239,
          "midi": 75,
          "name": "D#5",
          "ticks": 186480,
          "time": 176.5907325,
          "velocity": 0.6299212598425197
        },
        {
          "duration": 0.2263255312500121,
          "durationTicks": 239,
          "midi": 79,
          "name": "G5",
          "ticks": 186480,
          "time": 176.5907325,
          "velocity": 0.6299212598425197
        },
        {
          "duration": 0.2263255312500121,
          "durationTicks": 239,
          "midi": 86,
          "name": "D6",
          "ticks": 186480,
          "time": 176.5907325,
          "velocity": 0.6299212598425197
        },
        {
          "duration": 0.11268928124999888,
          "durationTicks": 119,
          "midi": 84,
          "name": "C6",
          "ticks": 186720,
          "time": 176.818005,
          "velocity": 0.6299212598425197
        },
        {
          "duration": 0.3399617812499969,
          "durationTicks": 359,
          "midi": 75,
          "name": "D#5",
          "ticks": 186840,
          "time": 176.93164125,
          "velocity": 0.6299212598425197
        },
        {
          "duration": 0.3399617812499969,
          "durationTicks": 359,
          "midi": 79,
          "name": "G5",
          "ticks": 186840,
          "time": 176.93164125,
          "velocity": 0.6299212598425197
        },
        {
          "duration": 0.3399617812499969,
          "durationTicks": 359,
          "midi": 84,
          "name": "C6",
          "ticks": 186840,
          "time": 176.93164125,
          "velocity": 0.6299212598425197
        },
        {
          "duration": 0.22632553124998367,
          "durationTicks": 239,
          "midi": 84,
          "name": "C6",
          "ticks": 187200,
          "time": 177.27255000000002,
          "velocity": 0.6299212598425197
        },
        {
          "duration": 0.22632553124998367,
          "durationTicks": 239,
          "midi": 75,
          "name": "D#5",
          "ticks": 187440,
          "time": 177.49982250000002,
          "velocity": 0.6299212598425197
        },
        {
          "duration": 0.22632553124998367,
          "durationTicks": 239,
          "midi": 79,
          "name": "G5",
          "ticks": 187440,
          "time": 177.49982250000002,
          "velocity": 0.6299212598425197
        },
        {
          "duration": 0.22632553124998367,
          "durationTicks": 239,
          "midi": 84,
          "name": "C6",
          "ticks": 187440,
          "time": 177.49982250000002,
          "velocity": 0.6299212598425197
        },
        {
          "duration": 0.11268928124997046,
          "durationTicks": 119,
          "midi": 82,
          "name": "A#5",
          "ticks": 187680,
          "time": 177.72709500000002,
          "velocity": 0.6299212598425197
        },
        {
          "duration": 0.3399617812499969,
          "durationTicks": 359,
          "midi": 75,
          "name": "D#5",
          "ticks": 187800,
          "time": 177.84073125,
          "velocity": 0.6299212598425197
        },
        {
          "duration": 0.3399617812499969,
          "durationTicks": 359,
          "midi": 79,
          "name": "G5",
          "ticks": 187800,
          "time": 177.84073125,
          "velocity": 0.6299212598425197
        },
        {
          "duration": 0.3399617812499969,
          "durationTicks": 359,
          "midi": 82,
          "name": "A#5",
          "ticks": 187800,
          "time": 177.84073125,
          "velocity": 0.6299212598425197
        },
        {
          "duration": 0.22632553124998367,
          "durationTicks": 239,
          "midi": 82,
          "name": "A#5",
          "ticks": 188160,
          "time": 178.18164000000002,
          "velocity": 0.6299212598425197
        },
        {
          "duration": 0.3399617812499969,
          "durationTicks": 359,
          "midi": 72,
          "name": "C5",
          "ticks": 188400,
          "time": 178.4089125,
          "velocity": 0.6299212598425197
        },
        {
          "duration": 0.3399617812499969,
          "durationTicks": 359,
          "midi": 77,
          "name": "F5",
          "ticks": 188400,
          "time": 178.4089125,
          "velocity": 0.6299212598425197
        },
        {
          "duration": 0.3399617812499969,
          "durationTicks": 359,
          "midi": 81,
          "name": "A5",
          "ticks": 188400,
          "time": 178.4089125,
          "velocity": 0.6299212598425197
        },
        {
          "duration": 0.33996178124996845,
          "durationTicks": 359,
          "midi": 82,
          "name": "A#5",
          "ticks": 188760,
          "time": 178.74982125000002,
          "velocity": 0.6299212598425197
        },
        {
          "duration": 0.45359803124998166,
          "durationTicks": 479,
          "midi": 72,
          "name": "C5",
          "ticks": 189120,
          "time": 179.09073,
          "velocity": 0.6299212598425197
        },
        {
          "duration": 0.45359803124998166,
          "durationTicks": 479,
          "midi": 77,
          "name": "F5",
          "ticks": 189120,
          "time": 179.09073,
          "velocity": 0.6299212598425197
        },
        {
          "duration": 0.45359803124998166,
          "durationTicks": 479,
          "midi": 81,
          "name": "A5",
          "ticks": 189120,
          "time": 179.09073,
          "velocity": 0.6299212598425197
        },
        {
          "duration": 0.43087078125000744,
          "durationTicks": 455,
          "midi": 77,
          "name": "F5",
          "ticks": 189600,
          "time": 179.545275,
          "velocity": 0.6299212598425197
        },
        {
          "duration": 0.2263255312500121,
          "durationTicks": 239,
          "midi": 74,
          "name": "D5",
          "ticks": 190080,
          "time": 179.99982,
          "velocity": 0.6299212598425197
        },
        {
          "duration": 0.22632553124998367,
          "durationTicks": 239,
          "midi": 77,
          "name": "F5",
          "ticks": 190320,
          "time": 180.22709250000003,
          "velocity": 0.6299212598425197
        },
        {
          "duration": 0.22632553124998367,
          "durationTicks": 239,
          "midi": 82,
          "name": "A#5",
          "ticks": 190320,
          "time": 180.22709250000003,
          "velocity": 0.6299212598425197
        },
        {
          "duration": 0.22632553124998367,
          "durationTicks": 239,
          "midi": 86,
          "name": "D6",
          "ticks": 190320,
          "time": 180.22709250000003,
          "velocity": 0.6299212598425197
        },
        {
          "duration": 0.11268928124997046,
          "durationTicks": 119,
          "midi": 84,
          "name": "C6",
          "ticks": 190560,
          "time": 180.45436500000002,
          "velocity": 0.6299212598425197
        },
        {
          "duration": 0.3399617812499969,
          "durationTicks": 359,
          "midi": 77,
          "name": "F5",
          "ticks": 190680,
          "time": 180.56800125,
          "velocity": 0.6299212598425197
        },
        {
          "duration": 0.3399617812499969,
          "durationTicks": 359,
          "midi": 82,
          "name": "A#5",
          "ticks": 190680,
          "time": 180.56800125,
          "velocity": 0.6299212598425197
        },
        {
          "duration": 0.3399617812499969,
          "durationTicks": 359,
          "midi": 84,
          "name": "C6",
          "ticks": 190680,
          "time": 180.56800125,
          "velocity": 0.6299212598425197
        },
        {
          "duration": 0.22632553124998367,
          "durationTicks": 239,
          "midi": 84,
          "name": "C6",
          "ticks": 191040,
          "time": 180.90891000000002,
          "velocity": 0.6299212598425197
        },
        {
          "duration": 0.22632553124998367,
          "durationTicks": 239,
          "midi": 77,
          "name": "F5",
          "ticks": 191280,
          "time": 181.13618250000002,
          "velocity": 0.6299212598425197
        },
        {
          "duration": 0.22632553124998367,
          "durationTicks": 239,
          "midi": 82,
          "name": "A#5",
          "ticks": 191280,
          "time": 181.13618250000002,
          "velocity": 0.6299212598425197
        },
        {
          "duration": 0.22632553124998367,
          "durationTicks": 239,
          "midi": 84,
          "name": "C6",
          "ticks": 191280,
          "time": 181.13618250000002,
          "velocity": 0.6299212598425197
        },
        {
          "duration": 0.11268928124999888,
          "durationTicks": 119,
          "midi": 82,
          "name": "A#5",
          "ticks": 191520,
          "time": 181.36345500000002,
          "velocity": 0.6299212598425197
        },
        {
          "duration": 0.3399617812499969,
          "durationTicks": 359,
          "midi": 77,
          "name": "F5",
          "ticks": 191640,
          "time": 181.47709125,
          "velocity": 0.6299212598425197
        },
        {
          "duration": 0.3399617812499969,
          "durationTicks": 359,
          "midi": 82,
          "name": "A#5",
          "ticks": 191640,
          "time": 181.47709125,
          "velocity": 0.6299212598425197
        },
        {
          "duration": 0.22632553124998367,
          "durationTicks": 239,
          "midi": 82,
          "name": "A#5",
          "ticks": 192000,
          "time": 181.818,
          "velocity": 0.6299212598425197
        },
        {
          "duration": 0.3399617812499969,
          "durationTicks": 359,
          "midi": 74,
          "name": "D5",
          "ticks": 192240,
          "time": 182.0452725,
          "velocity": 0.6299212598425197
        },
        {
          "duration": 0.3399617812499969,
          "durationTicks": 359,
          "midi": 77,
          "name": "F5",
          "ticks": 192240,
          "time": 182.0452725,
          "velocity": 0.6299212598425197
        },
        {
          "duration": 0.3399617812499969,
          "durationTicks": 359,
          "midi": 81,
          "name": "A5",
          "ticks": 192240,
          "time": 182.0452725,
          "velocity": 0.6299212598425197
        },
        {
          "duration": 0.33996178124996845,
          "durationTicks": 359,
          "midi": 82,
          "name": "A#5",
          "ticks": 192600,
          "time": 182.38618125000002,
          "velocity": 0.6299212598425197
        },
        {
          "duration": 0.4535980312500101,
          "durationTicks": 479,
          "midi": 81,
          "name": "A5",
          "ticks": 192960,
          "time": 182.72709,
          "velocity": 0.6299212598425197
        },
        {
          "duration": 0.4535980312500101,
          "durationTicks": 479,
          "midi": 86,
          "name": "D6",
          "ticks": 192960,
          "time": 182.72709,
          "velocity": 0.6299212598425197
        },
        {
          "duration": 0.4535980312500101,
          "durationTicks": 479,
          "midi": 89,
          "name": "F6",
          "ticks": 192960,
          "time": 182.72709,
          "velocity": 0.6299212598425197
        },
        {
          "duration": 0.43087078125003586,
          "durationTicks": 455,
          "midi": 81,
          "name": "A5",
          "ticks": 193440,
          "time": 183.181635,
          "velocity": 0.6299212598425197
        },
        {
          "duration": 0.22632553124998367,
          "durationTicks": 239,
          "midi": 82,
          "name": "A#5",
          "ticks": 193920,
          "time": 183.63618000000002,
          "velocity": 0.6299212598425197
        },
        {
          "duration": 0.33996178124996845,
          "durationTicks": 359,
          "midi": 82,
          "name": "A#5",
          "ticks": 194160,
          "time": 183.86345250000002,
          "velocity": 0.6299212598425197
        },
        {
          "duration": 0.33996178124996845,
          "durationTicks": 359,
          "midi": 87,
          "name": "D#6",
          "ticks": 194160,
          "time": 183.86345250000002,
          "velocity": 0.6299212598425197
        },
        {
          "duration": 0.33996178124996845,
          "durationTicks": 359,
          "midi": 91,
          "name": "G6",
          "ticks": 194160,
          "time": 183.86345250000002,
          "velocity": 0.6299212598425197
        },
        {
          "duration": 0.3399617812499969,
          "durationTicks": 359,
          "midi": 89,
          "name": "F6",
          "ticks": 194520,
          "time": 184.20436125,
          "velocity": 0.6299212598425197
        },
        {
          "duration": 0.45359803124998166,
          "durationTicks": 479,
          "midi": 82,
          "name": "A#5",
          "ticks": 194880,
          "time": 184.54527000000002,
          "velocity": 0.6299212598425197
        },
        {
          "duration": 0.45359803124998166,
          "durationTicks": 479,
          "midi": 86,
          "name": "D6",
          "ticks": 194880,
          "time": 184.54527000000002,
          "velocity": 0.6299212598425197
        },
        {
          "duration": 0.45359803124998166,
          "durationTicks": 479,
          "midi": 79,
          "name": "G5",
          "ticks": 195360,
          "time": 184.999815,
          "velocity": 0.6299212598425197
        },
        {
          "duration": 0.45359803124998166,
          "durationTicks": 479,
          "midi": 82,
          "name": "A#5",
          "ticks": 195360,
          "time": 184.999815,
          "velocity": 0.6299212598425197
        },
        {
          "duration": 0.22632553124998367,
          "durationTicks": 239,
          "midi": 82,
          "name": "A#5",
          "ticks": 195840,
          "time": 185.45436,
          "velocity": 0.6299212598425197
        },
        {
          "duration": 0.43087078125000744,
          "durationTicks": 455,
          "midi": 72,
          "name": "C5",
          "ticks": 196080,
          "time": 185.6816325,
          "velocity": 0.6299212598425197
        },
        {
          "duration": 0.43087078125000744,
          "durationTicks": 455,
          "midi": 77,
          "name": "F5",
          "ticks": 196080,
          "time": 185.6816325,
          "velocity": 0.6299212598425197
        },
        {
          "duration": 0.43087078125000744,
          "durationTicks": 455,
          "midi": 82,
          "name": "A#5",
          "ticks": 196080,
          "time": 185.6816325,
          "velocity": 0.6299212598425197
        },
        {
          "duration": 0.21496190625001077,
          "durationTicks": 227,
          "midi": 81,
          "name": "A5",
          "ticks": 196560,
          "time": 186.1361775,
          "velocity": 0.6299212598425197
        },
        {
          "duration": 0.43087078125000744,
          "durationTicks": 455,
          "midi": 79,
          "name": "G5",
          "ticks": 196800,
          "time": 186.36345,
          "velocity": 0.6299212598425197
        },
        {
          "duration": 0.43087078125000744,
          "durationTicks": 455,
          "midi": 81,
          "name": "A5",
          "ticks": 197280,
          "time": 186.81799500000002,
          "velocity": 0.6299212598425197
        },
        {
          "duration": 0.5681812499999808,
          "durationTicks": 600,
          "midi": 70,
          "name": "A#4",
          "ticks": 197760,
          "time": 187.27254000000002,
          "velocity": 0.6299212598425197
        },
        {
          "duration": 1.13636249999999,
          "durationTicks": 1200,
          "midi": 74,
          "name": "D5",
          "ticks": 197760,
          "time": 187.27254000000002,
          "velocity": 0.6299212598425197
        },
        {
          "duration": 1.9422329062499841,
          "durationTicks": 2051,
          "midi": 79,
          "name": "G5",
          "ticks": 197760,
          "time": 187.27254000000002,
          "velocity": 0.6299212598425197
        },
        {
          "duration": 1.9422329062499841,
          "durationTicks": 2051,
          "midi": 82,
          "name": "A#5",
          "ticks": 197760,
          "time": 187.27254000000002,
          "velocity": 0.6299212598425197
        },
        {
          "duration": 0.10700746874999822,
          "durationTicks": 113,
          "midi": 62,
          "name": "D4",
          "ticks": 198120,
          "time": 187.61344875,
          "velocity": 0.6299212598425197
        },
        {
          "duration": 0.10700746874999822,
          "durationTicks": 113,
          "midi": 67,
          "name": "G4",
          "ticks": 198240,
          "time": 187.72708500000002,
          "velocity": 0.6299212598425197
        },
        {
          "duration": 0.3409087500000112,
          "durationTicks": 360,
          "midi": 70,
          "name": "A#4",
          "ticks": 198360,
          "time": 187.84072125,
          "velocity": 0.6299212598425197
        },
        {
          "duration": 0.10700746874999822,
          "durationTicks": 113,
          "midi": 62,
          "name": "D4",
          "ticks": 198480,
          "time": 187.95435750000001,
          "velocity": 0.6299212598425197
        },
        {
          "duration": 0.10700746874999822,
          "durationTicks": 113,
          "midi": 67,
          "name": "G4",
          "ticks": 198600,
          "time": 188.06799375,
          "velocity": 0.6299212598425197
        },
        {
          "duration": 0.5681812500000092,
          "durationTicks": 600,
          "midi": 70,
          "name": "A#4",
          "ticks": 198720,
          "time": 188.18163,
          "velocity": 0.6299212598425197
        },
        {
          "duration": 0.1070074687499698,
          "durationTicks": 113,
          "midi": 62,
          "name": "D4",
          "ticks": 198840,
          "time": 188.29526625000003,
          "velocity": 0.6299212598425197
        },
        {
          "duration": 0.8058704062499942,
          "durationTicks": 851,
          "midi": 74,
          "name": "D5",
          "ticks": 198960,
          "time": 188.4089025,
          "velocity": 0.6299212598425197
        },
        {
          "duration": 0.1070074687499698,
          "durationTicks": 113,
          "midi": 62,
          "name": "D4",
          "ticks": 199080,
          "time": 188.52253875000002,
          "velocity": 0.6299212598425197
        },
        {
          "duration": 0.10700746874999822,
          "durationTicks": 113,
          "midi": 67,
          "name": "G4",
          "ticks": 199200,
          "time": 188.636175,
          "velocity": 0.6299212598425197
        },
        {
          "duration": 0.3409087499999828,
          "durationTicks": 360,
          "midi": 70,
          "name": "A#4",
          "ticks": 199320,
          "time": 188.74981125000002,
          "velocity": 0.6299212598425197
        },
        {
          "duration": 0.10700746874999822,
          "durationTicks": 113,
          "midi": 62,
          "name": "D4",
          "ticks": 199440,
          "time": 188.8634475,
          "velocity": 0.6299212598425197
        },
        {
          "duration": 0.10700746874999822,
          "durationTicks": 113,
          "midi": 67,
          "name": "G4",
          "ticks": 199560,
          "time": 188.97708375000002,
          "velocity": 0.6299212598425197
        },
        {
          "duration": 0.1240529062500002,
          "durationTicks": 131,
          "midi": 70,
          "name": "A#4",
          "ticks": 199680,
          "time": 189.09072,
          "velocity": 0.6299212598425197
        },
        {
          "duration": 0.10700746874999822,
          "durationTicks": 113,
          "midi": 62,
          "name": "D4",
          "ticks": 199800,
          "time": 189.20435625000002,
          "velocity": 0.6299212598425197
        },
        {
          "duration": 0.10700746874999822,
          "durationTicks": 113,
          "midi": 72,
          "name": "C5",
          "ticks": 199920,
          "time": 189.3179925,
          "velocity": 0.6299212598425197
        },
        {
          "duration": 0.10700746874999822,
          "durationTicks": 113,
          "midi": 60,
          "name": "C4",
          "ticks": 200040,
          "time": 189.43162875000002,
          "velocity": 0.6299212598425197
        },
        {
          "duration": 0.10700746874999822,
          "durationTicks": 113,
          "midi": 65,
          "name": "F4",
          "ticks": 200160,
          "time": 189.545265,
          "velocity": 0.6299212598425197
        },
        {
          "duration": 0.10700746874999822,
          "durationTicks": 113,
          "midi": 70,
          "name": "A#4",
          "ticks": 200280,
          "time": 189.65890125,
          "velocity": 0.6299212598425197
        },
        {
          "duration": 0.1070074687499698,
          "durationTicks": 113,
          "midi": 60,
          "name": "C4",
          "ticks": 200400,
          "time": 189.77253750000003,
          "velocity": 0.6299212598425197
        },
        {
          "duration": 0.10700746874999822,
          "durationTicks": 113,
          "midi": 65,
          "name": "F4",
          "ticks": 200520,
          "time": 189.88617375,
          "velocity": 0.6299212598425197
        },
        {
          "duration": 0.1070074687499698,
          "durationTicks": 113,
          "midi": 70,
          "name": "A#4",
          "ticks": 200640,
          "time": 189.99981000000002,
          "velocity": 0.6299212598425197
        },
        {
          "duration": 0.10700746874999822,
          "durationTicks": 113,
          "midi": 60,
          "name": "C4",
          "ticks": 200760,
          "time": 190.11344625,
          "velocity": 0.6299212598425197
        },
        {
          "duration": 0.1070074687499698,
          "durationTicks": 113,
          "midi": 72,
          "name": "C5",
          "ticks": 200880,
          "time": 190.22708250000002,
          "velocity": 0.6299212598425197
        },
        {
          "duration": 0.3409087500000112,
          "durationTicks": 360,
          "midi": 60,
          "name": "C4",
          "ticks": 201000,
          "time": 190.34071875,
          "velocity": 0.6299212598425197
        },
        {
          "duration": 0.10700746874999822,
          "durationTicks": 113,
          "midi": 65,
          "name": "F4",
          "ticks": 201120,
          "time": 190.45435500000002,
          "velocity": 0.6299212598425197
        },
        {
          "duration": 0.10700746874999822,
          "durationTicks": 113,
          "midi": 70,
          "name": "A#4",
          "ticks": 201240,
          "time": 190.56799125,
          "velocity": 0.6299212598425197
        },
        {
          "duration": 0.4081435312500048,
          "durationTicks": 431,
          "midi": 60,
          "name": "C4",
          "ticks": 201360,
          "time": 190.68162750000002,
          "velocity": 0.6299212598425197
        },
        {
          "duration": 0.10700746874999822,
          "durationTicks": 113,
          "midi": 65,
          "name": "F4",
          "ticks": 201480,
          "time": 190.79526375,
          "velocity": 0.6299212598425197
        },
        {
          "duration": 0.21496190624998235,
          "durationTicks": 227,
          "midi": 82,
          "name": "A#5",
          "ticks": 201600,
          "time": 190.90890000000002,
          "velocity": 0.6299212598425197
        },
        {
          "duration": 0.21496190624998235,
          "durationTicks": 227,
          "midi": 70,
          "name": "A#4",
          "ticks": 201600,
          "time": 190.90890000000002,
          "velocity": 0.6299212598425197
        },
        {
          "duration": 0,
          "durationTicks": 0,
          "midi": 84,
          "name": "C6",
          "ticks": 201840,
          "time": 191.13617250000001,
          "velocity": 0.6299212598425197
        },
        {
          "duration": 0.3229163437499949,
          "durationTicks": 341,
          "midi": 84,
          "name": "C6",
          "ticks": 201840,
          "time": 191.13617250000001,
          "velocity": 0.6299212598425197
        },
        {
          "duration": 0.10700746874999822,
          "durationTicks": 113,
          "midi": 77,
          "name": "F5",
          "ticks": 201960,
          "time": 191.24980875,
          "velocity": 0.6299212598425197
        },
        {
          "duration": 0.10700746874999822,
          "durationTicks": 113,
          "midi": 74,
          "name": "D5",
          "ticks": 202080,
          "time": 191.363445,
          "velocity": 0.6299212598425197
        },
        {
          "duration": 0,
          "durationTicks": 0,
          "midi": 82,
          "name": "A#5",
          "ticks": 202200,
          "time": 191.47708125000003,
          "velocity": 0.6299212598425197
        },
        {
          "duration": 0.3229163437499949,
          "durationTicks": 341,
          "midi": 82,
          "name": "A#5",
          "ticks": 202200,
          "time": 191.47708125000003,
          "velocity": 0.6299212598425197
        },
        {
          "duration": 0.10700746874999822,
          "durationTicks": 113,
          "midi": 77,
          "name": "F5",
          "ticks": 202320,
          "time": 191.5907175,
          "velocity": 0.6299212598425197
        },
        {
          "duration": 0.1070074687499698,
          "durationTicks": 113,
          "midi": 74,
          "name": "D5",
          "ticks": 202440,
          "time": 191.70435375000002,
          "velocity": 0.6299212598425197
        },
        {
          "duration": 0,
          "durationTicks": 0,
          "midi": 84,
          "name": "C6",
          "ticks": 202560,
          "time": 191.81799,
          "velocity": 0.6299212598425197
        },
        {
          "duration": 0.43087078125000744,
          "durationTicks": 455,
          "midi": 84,
          "name": "C6",
          "ticks": 202560,
          "time": 191.81799,
          "velocity": 0.6299212598425197
        },
        {
          "duration": 0.10700746874999822,
          "durationTicks": 113,
          "midi": 77,
          "name": "F5",
          "ticks": 202680,
          "time": 191.93162625000002,
          "velocity": 0.6299212598425197
        },
        {
          "duration": 0.10700746874999822,
          "durationTicks": 113,
          "midi": 74,
          "name": "D5",
          "ticks": 202800,
          "time": 192.0452625,
          "velocity": 0.6299212598425197
        },
        {
          "duration": 0.10700746874999822,
          "durationTicks": 113,
          "midi": 77,
          "name": "F5",
          "ticks": 202920,
          "time": 192.15889875000002,
          "velocity": 0.6299212598425197
        },
        {
          "duration": 0,
          "durationTicks": 0,
          "midi": 82,
          "name": "A#5",
          "ticks": 203040,
          "time": 192.272535,
          "velocity": 0.6299212598425197
        },
        {
          "duration": 0.43087078125000744,
          "durationTicks": 455,
          "midi": 82,
          "name": "A#5",
          "ticks": 203040,
          "time": 192.272535,
          "velocity": 0.6299212598425197
        },
        {
          "duration": 0.10700746874999822,
          "durationTicks": 113,
          "midi": 77,
          "name": "F5",
          "ticks": 203160,
          "time": 192.38617125000002,
          "velocity": 0.6299212598425197
        },
        {
          "duration": 0.10700746874999822,
          "durationTicks": 113,
          "midi": 74,
          "name": "D5",
          "ticks": 203280,
          "time": 192.4998075,
          "velocity": 0.6299212598425197
        },
        {
          "duration": 0.10700746874999822,
          "durationTicks": 113,
          "midi": 77,
          "name": "F5",
          "ticks": 203400,
          "time": 192.61344375000002,
          "velocity": 0.6299212598425197
        },
        {
          "duration": 0,
          "durationTicks": 0,
          "midi": 84,
          "name": "C6",
          "ticks": 203520,
          "time": 192.72708,
          "velocity": 0.6299212598425197
        },
        {
          "duration": 0.43087078125000744,
          "durationTicks": 455,
          "midi": 84,
          "name": "C6",
          "ticks": 203520,
          "time": 192.72708,
          "velocity": 0.6299212598425197
        },
        {
          "duration": 0.10700746874999822,
          "durationTicks": 113,
          "midi": 77,
          "name": "F5",
          "ticks": 203640,
          "time": 192.84071625,
          "velocity": 0.6299212598425197
        },
        {
          "duration": 0.1070074687499698,
          "durationTicks": 113,
          "midi": 74,
          "name": "D5",
          "ticks": 203760,
          "time": 192.95435250000003,
          "velocity": 0.6299212598425197
        },
        {
          "duration": 0.10700746874999822,
          "durationTicks": 113,
          "midi": 77,
          "name": "F5",
          "ticks": 203880,
          "time": 193.06798875,
          "velocity": 0.6299212598425197
        },
        {
          "duration": 0,
          "durationTicks": 0,
          "midi": 86,
          "name": "D6",
          "ticks": 204000,
          "time": 193.18162500000003,
          "velocity": 0.6299212598425197
        },
        {
          "duration": 1.2945062812499941,
          "durationTicks": 1367,
          "midi": 86,
          "name": "D6",
          "ticks": 204000,
          "time": 193.18162500000003,
          "velocity": 0.6299212598425197
        },
        {
          "duration": 0.10700746874999822,
          "durationTicks": 113,
          "midi": 77,
          "name": "F5",
          "ticks": 204120,
          "time": 193.29526125,
          "velocity": 0.6299212598425197
        },
        {
          "duration": 0.1070074687499698,
          "durationTicks": 113,
          "midi": 74,
          "name": "D5",
          "ticks": 204240,
          "time": 193.40889750000002,
          "velocity": 0.6299212598425197
        },
        {
          "duration": 0.10700746874999822,
          "durationTicks": 113,
          "midi": 77,
          "name": "F5",
          "ticks": 204360,
          "time": 193.52253375,
          "velocity": 0.6299212598425197
        },
        {
          "duration": 0.10700746874999822,
          "durationTicks": 113,
          "midi": 74,
          "name": "D5",
          "ticks": 204480,
          "time": 193.63617000000002,
          "velocity": 0.6299212598425197
        },
        {
          "duration": 0.10700746874999822,
          "durationTicks": 113,
          "midi": 77,
          "name": "F5",
          "ticks": 204600,
          "time": 193.74980625,
          "velocity": 0.6299212598425197
        },
        {
          "duration": 0.10700746874999822,
          "durationTicks": 113,
          "midi": 74,
          "name": "D5",
          "ticks": 204720,
          "time": 193.86344250000002,
          "velocity": 0.6299212598425197
        },
        {
          "duration": 0.10700746874999822,
          "durationTicks": 113,
          "midi": 77,
          "name": "F5",
          "ticks": 204840,
          "time": 193.97707875,
          "velocity": 0.6299212598425197
        },
        {
          "duration": 0.10700746874999822,
          "durationTicks": 113,
          "midi": 74,
          "name": "D5",
          "ticks": 204960,
          "time": 194.09071500000002,
          "velocity": 0.6299212598425197
        },
        {
          "duration": 0.10700746874999822,
          "durationTicks": 113,
          "midi": 77,
          "name": "F5",
          "ticks": 205080,
          "time": 194.20435125,
          "velocity": 0.6299212598425197
        },
        {
          "duration": 0.10700746874999822,
          "durationTicks": 113,
          "midi": 74,
          "name": "D5",
          "ticks": 205200,
          "time": 194.31798750000002,
          "velocity": 0.6299212598425197
        },
        {
          "duration": 0.10700746874999822,
          "durationTicks": 113,
          "midi": 77,
          "name": "F5",
          "ticks": 205320,
          "time": 194.43162375,
          "velocity": 0.6299212598425197
        },
        {
          "duration": 0,
          "durationTicks": 0,
          "midi": 82,
          "name": "A#5",
          "ticks": 205440,
          "time": 194.54526,
          "velocity": 0.6299212598425197
        },
        {
          "duration": 0.21496190625001077,
          "durationTicks": 227,
          "midi": 82,
          "name": "A#5",
          "ticks": 205440,
          "time": 194.54526,
          "velocity": 0.6299212598425197
        },
        {
          "duration": 0.3229163437499949,
          "durationTicks": 341,
          "midi": 82,
          "name": "A#5",
          "ticks": 205680,
          "time": 194.7725325,
          "velocity": 0.6299212598425197
        },
        {
          "duration": 0.3229163437499949,
          "durationTicks": 341,
          "midi": 86,
          "name": "D6",
          "ticks": 205680,
          "time": 194.7725325,
          "velocity": 0.6299212598425197
        },
        {
          "duration": 0.3229163437499949,
          "durationTicks": 341,
          "midi": 91,
          "name": "G6",
          "ticks": 205680,
          "time": 194.7725325,
          "velocity": 0.6299212598425197
        },
        {
          "duration": 0.1070074687499698,
          "durationTicks": 113,
          "midi": 79,
          "name": "G5",
          "ticks": 205800,
          "time": 194.88616875000002,
          "velocity": 0.6299212598425197
        },
        {
          "duration": 0.10700746874999822,
          "durationTicks": 113,
          "midi": 79,
          "name": "G5",
          "ticks": 205920,
          "time": 194.999805,
          "velocity": 0.6377952755905512
        },
        {
          "duration": 0.3229163437499949,
          "durationTicks": 341,
          "midi": 82,
          "name": "A#5",
          "ticks": 206040,
          "time": 195.11344125000002,
          "velocity": 0.6377952755905512
        },
        {
          "duration": 0.3229163437499949,
          "durationTicks": 341,
          "midi": 86,
          "name": "D6",
          "ticks": 206040,
          "time": 195.11344125000002,
          "velocity": 0.6377952755905512
        },
        {
          "duration": 0.3229163437499949,
          "durationTicks": 341,
          "midi": 89,
          "name": "F6",
          "ticks": 206040,
          "time": 195.11344125000002,
          "velocity": 0.6377952755905512
        },
        {
          "duration": 0.10700746874999822,
          "durationTicks": 113,
          "midi": 77,
          "name": "F5",
          "ticks": 206160,
          "time": 195.2270775,
          "velocity": 0.6456692913385826
        },
        {
          "duration": 0.10700746874999822,
          "durationTicks": 113,
          "midi": 77,
          "name": "F5",
          "ticks": 206280,
          "time": 195.34071375000002,
          "velocity": 0.6456692913385826
        },
        {
          "duration": 0.43087078125000744,
          "durationTicks": 455,
          "midi": 77,
          "name": "F5",
          "ticks": 206400,
          "time": 195.45435,
          "velocity": 0.6535433070866141
        },
        {
          "duration": 0.43087078125000744,
          "durationTicks": 455,
          "midi": 82,
          "name": "A#5",
          "ticks": 206400,
          "time": 195.45435,
          "velocity": 0.6535433070866141
        },
        {
          "duration": 0.43087078125000744,
          "durationTicks": 455,
          "midi": 86,
          "name": "D6",
          "ticks": 206400,
          "time": 195.45435,
          "velocity": 0.6535433070866141
        },
        {
          "duration": 0.10700746874999822,
          "durationTicks": 113,
          "midi": 74,
          "name": "D5",
          "ticks": 206520,
          "time": 195.56798625000002,
          "velocity": 0.6535433070866141
        },
        {
          "duration": 0.10700746874999822,
          "durationTicks": 113,
          "midi": 74,
          "name": "D5",
          "ticks": 206640,
          "time": 195.6816225,
          "velocity": 0.6614173228346457
        },
        {
          "duration": 0.10700746874999822,
          "durationTicks": 113,
          "midi": 74,
          "name": "D5",
          "ticks": 206760,
          "time": 195.79525875000002,
          "velocity": 0.6614173228346457
        },
        {
          "duration": 0.43087078125000744,
          "durationTicks": 455,
          "midi": 74,
          "name": "D5",
          "ticks": 206880,
          "time": 195.908895,
          "velocity": 0.6692913385826772
        },
        {
          "duration": 0.43087078125000744,
          "durationTicks": 455,
          "midi": 77,
          "name": "F5",
          "ticks": 206880,
          "time": 195.908895,
          "velocity": 0.6692913385826772
        },
        {
          "duration": 0.43087078125000744,
          "durationTicks": 455,
          "midi": 82,
          "name": "A#5",
          "ticks": 206880,
          "time": 195.908895,
          "velocity": 0.6692913385826772
        },
        {
          "duration": 0.10700746874999822,
          "durationTicks": 113,
          "midi": 70,
          "name": "A#4",
          "ticks": 207000,
          "time": 196.02253125000001,
          "velocity": 0.6692913385826772
        },
        {
          "duration": 0.1070074687499698,
          "durationTicks": 113,
          "midi": 70,
          "name": "A#4",
          "ticks": 207120,
          "time": 196.13616750000003,
          "velocity": 0.6771653543307087
        },
        {
          "duration": 0.10700746874999822,
          "durationTicks": 113,
          "midi": 70,
          "name": "A#4",
          "ticks": 207240,
          "time": 196.24980375,
          "velocity": 0.6771653543307087
        },
        {
          "duration": 0.21496190624998235,
          "durationTicks": 227,
          "midi": 74,
          "name": "D5",
          "ticks": 207360,
          "time": 196.36344000000003,
          "velocity": 0.6850393700787402
        },
        {
          "duration": 0.21496190624998235,
          "durationTicks": 227,
          "midi": 77,
          "name": "F5",
          "ticks": 207360,
          "time": 196.36344000000003,
          "velocity": 0.6850393700787402
        },
        {
          "duration": 0.21496190624998235,
          "durationTicks": 227,
          "midi": 82,
          "name": "A#5",
          "ticks": 207360,
          "time": 196.36344000000003,
          "velocity": 0.6850393700787402
        },
        {
          "duration": 0.3229163437499949,
          "durationTicks": 341,
          "midi": 82,
          "name": "A#5",
          "ticks": 207600,
          "time": 196.59071250000002,
          "velocity": 0.6929133858267716
        },
        {
          "duration": 0.3229163437499949,
          "durationTicks": 341,
          "midi": 86,
          "name": "D6",
          "ticks": 207600,
          "time": 196.59071250000002,
          "velocity": 0.6929133858267716
        },
        {
          "duration": 0.3229163437499949,
          "durationTicks": 341,
          "midi": 91,
          "name": "G6",
          "ticks": 207600,
          "time": 196.59071250000002,
          "velocity": 0.6929133858267716
        },
        {
          "duration": 0.10700746874999822,
          "durationTicks": 113,
          "midi": 79,
          "name": "G5",
          "ticks": 207720,
          "time": 196.70434875,
          "velocity": 0.6929133858267716
        },
        {
          "duration": 0.10700746874999822,
          "durationTicks": 113,
          "midi": 79,
          "name": "G5",
          "ticks": 207840,
          "time": 196.81798500000002,
          "velocity": 0.7007874015748031
        },
        {
          "duration": 0.3229163437500233,
          "durationTicks": 341,
          "midi": 82,
          "name": "A#5",
          "ticks": 207960,
          "time": 196.93162125,
          "velocity": 0.7007874015748031
        },
        {
          "duration": 0.3229163437500233,
          "durationTicks": 341,
          "midi": 86,
          "name": "D6",
          "ticks": 207960,
          "time": 196.93162125,
          "velocity": 0.7007874015748031
        },
        {
          "duration": 0.3229163437500233,
          "durationTicks": 341,
          "midi": 89,
          "name": "F6",
          "ticks": 207960,
          "time": 196.93162125,
          "velocity": 0.7007874015748031
        },
        {
          "duration": 0.10700746874999822,
          "durationTicks": 113,
          "midi": 77,
          "name": "F5",
          "ticks": 208080,
          "time": 197.04525750000002,
          "velocity": 0.7086614173228346
        },
        {
          "duration": 0.10700746874999822,
          "durationTicks": 113,
          "midi": 77,
          "name": "F5",
          "ticks": 208200,
          "time": 197.15889375,
          "velocity": 0.7086614173228346
        },
        {
          "duration": 0.43087078125000744,
          "durationTicks": 455,
          "midi": 77,
          "name": "F5",
          "ticks": 208320,
          "time": 197.27253000000002,
          "velocity": 0.7165354330708661
        },
        {
          "duration": 0.43087078125000744,
          "durationTicks": 455,
          "midi": 82,
          "name": "A#5",
          "ticks": 208320,
          "time": 197.27253000000002,
          "velocity": 0.7165354330708661
        },
        {
          "duration": 0.43087078125000744,
          "durationTicks": 455,
          "midi": 86,
          "name": "D6",
          "ticks": 208320,
          "time": 197.27253000000002,
          "velocity": 0.7165354330708661
        },
        {
          "duration": 0.10700746874999822,
          "durationTicks": 113,
          "midi": 74,
          "name": "D5",
          "ticks": 208440,
          "time": 197.38616625,
          "velocity": 0.7165354330708661
        },
        {
          "duration": 0.10700746874999822,
          "durationTicks": 113,
          "midi": 74,
          "name": "D5",
          "ticks": 208560,
          "time": 197.49980250000002,
          "velocity": 0.7244094488188977
        },
        {
          "duration": 0.10700746874999822,
          "durationTicks": 113,
          "midi": 74,
          "name": "D5",
          "ticks": 208680,
          "time": 197.61343875,
          "velocity": 0.7244094488188977
        },
        {
          "duration": 0.43087078125000744,
          "durationTicks": 455,
          "midi": 74,
          "name": "D5",
          "ticks": 208800,
          "time": 197.727075,
          "velocity": 0.7322834645669292
        },
        {
          "duration": 0.43087078125000744,
          "durationTicks": 455,
          "midi": 77,
          "name": "F5",
          "ticks": 208800,
          "time": 197.727075,
          "velocity": 0.7322834645669292
        },
        {
          "duration": 0.43087078125000744,
          "durationTicks": 455,
          "midi": 82,
          "name": "A#5",
          "ticks": 208800,
          "time": 197.727075,
          "velocity": 0.7322834645669292
        },
        {
          "duration": 0.1070074687499698,
          "durationTicks": 113,
          "midi": 70,
          "name": "A#4",
          "ticks": 208920,
          "time": 197.84071125000003,
          "velocity": 0.7322834645669292
        },
        {
          "duration": 0.10700746874999822,
          "durationTicks": 113,
          "midi": 70,
          "name": "A#4",
          "ticks": 209040,
          "time": 197.9543475,
          "velocity": 0.7401574803149606
        },
        {
          "duration": 0.1070074687499698,
          "durationTicks": 113,
          "midi": 70,
          "name": "A#4",
          "ticks": 209160,
          "time": 198.06798375000002,
          "velocity": 0.7401574803149606
        },
        {
          "duration": 0.21496190625001077,
          "durationTicks": 227,
          "midi": 74,
          "name": "D5",
          "ticks": 209280,
          "time": 198.18162,
          "velocity": 0.7480314960629921
        },
        {
          "duration": 0.21496190625001077,
          "durationTicks": 227,
          "midi": 77,
          "name": "F5",
          "ticks": 209280,
          "time": 198.18162,
          "velocity": 0.7480314960629921
        },
        {
          "duration": 0.21496190625001077,
          "durationTicks": 227,
          "midi": 82,
          "name": "A#5",
          "ticks": 209280,
          "time": 198.18162,
          "velocity": 0.7480314960629921
        },
        {
          "duration": 0.3229163437500233,
          "durationTicks": 341,
          "midi": 82,
          "name": "A#5",
          "ticks": 209520,
          "time": 198.4088925,
          "velocity": 0.7559055118110236
        },
        {
          "duration": 0.3229163437500233,
          "durationTicks": 341,
          "midi": 86,
          "name": "D6",
          "ticks": 209520,
          "time": 198.4088925,
          "velocity": 0.7559055118110236
        },
        {
          "duration": 0.3229163437500233,
          "durationTicks": 341,
          "midi": 91,
          "name": "G6",
          "ticks": 209520,
          "time": 198.4088925,
          "velocity": 0.7559055118110236
        },
        {
          "duration": 0.10700746874999822,
          "durationTicks": 113,
          "midi": 79,
          "name": "G5",
          "ticks": 209640,
          "time": 198.52252875000002,
          "velocity": 0.7637795275590551
        },
        {
          "duration": 0.10700746874999822,
          "durationTicks": 113,
          "midi": 79,
          "name": "G5",
          "ticks": 209760,
          "time": 198.636165,
          "velocity": 0.7637795275590551
        },
        {
          "duration": 0.3229163437499949,
          "durationTicks": 341,
          "midi": 82,
          "name": "A#5",
          "ticks": 209880,
          "time": 198.74980125000002,
          "velocity": 0.7716535433070866
        },
        {
          "duration": 0.3229163437499949,
          "durationTicks": 341,
          "midi": 86,
          "name": "D6",
          "ticks": 209880,
          "time": 198.74980125000002,
          "velocity": 0.7716535433070866
        },
        {
          "duration": 0.3229163437499949,
          "durationTicks": 341,
          "midi": 89,
          "name": "F6",
          "ticks": 209880,
          "time": 198.74980125000002,
          "velocity": 0.7716535433070866
        },
        {
          "duration": 0.10700746874999822,
          "durationTicks": 113,
          "midi": 77,
          "name": "F5",
          "ticks": 210000,
          "time": 198.8634375,
          "velocity": 0.7716535433070866
        },
        {
          "duration": 0.10700746874999822,
          "durationTicks": 113,
          "midi": 77,
          "name": "F5",
          "ticks": 210120,
          "time": 198.97707375000002,
          "velocity": 0.7795275590551181
        },
        {
          "duration": 0.43087078125000744,
          "durationTicks": 455,
          "midi": 77,
          "name": "F5",
          "ticks": 210240,
          "time": 199.09071,
          "velocity": 0.7795275590551181
        },
        {
          "duration": 0.43087078125000744,
          "durationTicks": 455,
          "midi": 82,
          "name": "A#5",
          "ticks": 210240,
          "time": 199.09071,
          "velocity": 0.7795275590551181
        },
        {
          "duration": 0.43087078125000744,
          "durationTicks": 455,
          "midi": 86,
          "name": "D6",
          "ticks": 210240,
          "time": 199.09071,
          "velocity": 0.7795275590551181
        },
        {
          "duration": 0.10700746874999822,
          "durationTicks": 113,
          "midi": 74,
          "name": "D5",
          "ticks": 210360,
          "time": 199.20434625000001,
          "velocity": 0.7874015748031497
        },
        {
          "duration": 0.1070074687499698,
          "durationTicks": 113,
          "midi": 74,
          "name": "D5",
          "ticks": 210480,
          "time": 199.31798250000003,
          "velocity": 0.7874015748031497
        },
        {
          "duration": 0.10700746874999822,
          "durationTicks": 113,
          "midi": 74,
          "name": "D5",
          "ticks": 210600,
          "time": 199.43161875,
          "velocity": 0.7952755905511811
        },
        {
          "duration": 0.43087078125000744,
          "durationTicks": 455,
          "midi": 74,
          "name": "D5",
          "ticks": 210720,
          "time": 199.54525500000003,
          "velocity": 0.7952755905511811
        },
        {
          "duration": 0.43087078125000744,
          "durationTicks": 455,
          "midi": 77,
          "name": "F5",
          "ticks": 210720,
          "time": 199.54525500000003,
          "velocity": 0.7952755905511811
        },
        {
          "duration": 0.43087078125000744,
          "durationTicks": 455,
          "midi": 82,
          "name": "A#5",
          "ticks": 210720,
          "time": 199.54525500000003,
          "velocity": 0.7952755905511811
        },
        {
          "duration": 0.10700746874999822,
          "durationTicks": 113,
          "midi": 70,
          "name": "A#4",
          "ticks": 210840,
          "time": 199.65889125,
          "velocity": 0.8031496062992126
        },
        {
          "duration": 0.1070074687499698,
          "durationTicks": 113,
          "midi": 70,
          "name": "A#4",
          "ticks": 210960,
          "time": 199.77252750000002,
          "velocity": 0.8031496062992126
        },
        {
          "duration": 0.10700746874999822,
          "durationTicks": 113,
          "midi": 70,
          "name": "A#4",
          "ticks": 211080,
          "time": 199.88616375,
          "velocity": 0.8110236220472441
        },
        {
          "duration": 0.21496190624998235,
          "durationTicks": 227,
          "midi": 74,
          "name": "D5",
          "ticks": 211200,
          "time": 199.99980000000002,
          "velocity": 0.8110236220472441
        },
        {
          "duration": 0.21496190624998235,
          "durationTicks": 227,
          "midi": 77,
          "name": "F5",
          "ticks": 211200,
          "time": 199.99980000000002,
          "velocity": 0.8110236220472441
        },
        {
          "duration": 0.21496190624998235,
          "durationTicks": 227,
          "midi": 82,
          "name": "A#5",
          "ticks": 211200,
          "time": 199.99980000000002,
          "velocity": 0.8110236220472441
        },
        {
          "duration": 0.3229163437499949,
          "durationTicks": 341,
          "midi": 82,
          "name": "A#5",
          "ticks": 211440,
          "time": 200.22707250000002,
          "velocity": 0.8188976377952756
        },
        {
          "duration": 0.3229163437499949,
          "durationTicks": 341,
          "midi": 86,
          "name": "D6",
          "ticks": 211440,
          "time": 200.22707250000002,
          "velocity": 0.8188976377952756
        },
        {
          "duration": 0.3229163437499949,
          "durationTicks": 341,
          "midi": 91,
          "name": "G6",
          "ticks": 211440,
          "time": 200.22707250000002,
          "velocity": 0.8188976377952756
        },
        {
          "duration": 0.10700746874999822,
          "durationTicks": 113,
          "midi": 79,
          "name": "G5",
          "ticks": 211560,
          "time": 200.34070875,
          "velocity": 0.8267716535433071
        },
        {
          "duration": 0.10700746874999822,
          "durationTicks": 113,
          "midi": 79,
          "name": "G5",
          "ticks": 211680,
          "time": 200.45434500000002,
          "velocity": 0.8267716535433071
        },
        {
          "duration": 0.3229163437500233,
          "durationTicks": 341,
          "midi": 82,
          "name": "A#5",
          "ticks": 211800,
          "time": 200.56798125,
          "velocity": 0.8346456692913385
        },
        {
          "duration": 0.3229163437500233,
          "durationTicks": 341,
          "midi": 86,
          "name": "D6",
          "ticks": 211800,
          "time": 200.56798125,
          "velocity": 0.8346456692913385
        },
        {
          "duration": 0.3229163437500233,
          "durationTicks": 341,
          "midi": 89,
          "name": "F6",
          "ticks": 211800,
          "time": 200.56798125,
          "velocity": 0.8346456692913385
        },
        {
          "duration": 0.10700746874999822,
          "durationTicks": 113,
          "midi": 77,
          "name": "F5",
          "ticks": 211920,
          "time": 200.68161750000002,
          "velocity": 0.8346456692913385
        },
        {
          "duration": 0.10700746874999822,
          "durationTicks": 113,
          "midi": 77,
          "name": "F5",
          "ticks": 212040,
          "time": 200.79525375,
          "velocity": 0.84251968503937
        },
        {
          "duration": 0.43087078125000744,
          "durationTicks": 455,
          "midi": 77,
          "name": "F5",
          "ticks": 212160,
          "time": 200.90889,
          "velocity": 0.84251968503937
        },
        {
          "duration": 0.43087078125000744,
          "durationTicks": 455,
          "midi": 82,
          "name": "A#5",
          "ticks": 212160,
          "time": 200.90889,
          "velocity": 0.84251968503937
        },
        {
          "duration": 0.43087078125000744,
          "durationTicks": 455,
          "midi": 86,
          "name": "D6",
          "ticks": 212160,
          "time": 200.90889,
          "velocity": 0.84251968503937
        },
        {
          "duration": 0.1070074687499698,
          "durationTicks": 113,
          "midi": 74,
          "name": "D5",
          "ticks": 212280,
          "time": 201.02252625000003,
          "velocity": 0.8503937007874016
        },
        {
          "duration": 0.10700746874999822,
          "durationTicks": 113,
          "midi": 74,
          "name": "D5",
          "ticks": 212400,
          "time": 201.1361625,
          "velocity": 0.8503937007874016
        },
        {
          "duration": 0.1070074687499698,
          "durationTicks": 113,
          "midi": 74,
          "name": "D5",
          "ticks": 212520,
          "time": 201.24979875000002,
          "velocity": 0.8582677165354331
        },
        {
          "duration": 0.43087078125000744,
          "durationTicks": 455,
          "midi": 74,
          "name": "D5",
          "ticks": 212640,
          "time": 201.363435,
          "velocity": 0.8582677165354331
        },
        {
          "duration": 0.43087078125000744,
          "durationTicks": 455,
          "midi": 77,
          "name": "F5",
          "ticks": 212640,
          "time": 201.363435,
          "velocity": 0.8582677165354331
        },
        {
          "duration": 0.43087078125000744,
          "durationTicks": 455,
          "midi": 82,
          "name": "A#5",
          "ticks": 212640,
          "time": 201.363435,
          "velocity": 0.8582677165354331
        },
        {
          "duration": 0.43087078125000744,
          "durationTicks": 455,
          "midi": 70,
          "name": "A#4",
          "ticks": 212640,
          "time": 201.363435,
          "velocity": 0.8582677165354331
        },
        {
          "duration": 0.21496190625001077,
          "durationTicks": 227,
          "midi": 62,
          "name": "D4",
          "ticks": 213120,
          "time": 201.81798,
          "velocity": 0.8818897637795275
        },
        {
          "duration": 0.21496190625001077,
          "durationTicks": 227,
          "midi": 74,
          "name": "D5",
          "ticks": 213120,
          "time": 201.81798,
          "velocity": 0.8818897637795275
        },
        {
          "duration": 0.3229163437500233,
          "durationTicks": 341,
          "midi": 74,
          "name": "D5",
          "ticks": 213360,
          "time": 202.0452525,
          "velocity": 0.8818897637795275
        },
        {
          "duration": 0.3229163437500233,
          "durationTicks": 341,
          "midi": 79,
          "name": "G5",
          "ticks": 213360,
          "time": 202.0452525,
          "velocity": 0.8818897637795275
        },
        {
          "duration": 0.3229163437500233,
          "durationTicks": 341,
          "midi": 82,
          "name": "A#5",
          "ticks": 213360,
          "time": 202.0452525,
          "velocity": 0.8818897637795275
        },
        {
          "duration": 0.3229163437500233,
          "durationTicks": 341,
          "midi": 86,
          "name": "D6",
          "ticks": 213360,
          "time": 202.0452525,
          "velocity": 0.8818897637795275
        },
        {
          "duration": 0.3229163437499949,
          "durationTicks": 341,
          "midi": 72,
          "name": "C5",
          "ticks": 213720,
          "time": 202.38616125000001,
          "velocity": 0.8818897637795275
        },
        {
          "duration": 0.3229163437499949,
          "durationTicks": 341,
          "midi": 75,
          "name": "D#5",
          "ticks": 213720,
          "time": 202.38616125000001,
          "velocity": 0.8818897637795275
        },
        {
          "duration": 0.3229163437499949,
          "durationTicks": 341,
          "midi": 79,
          "name": "G5",
          "ticks": 213720,
          "time": 202.38616125000001,
          "velocity": 0.8818897637795275
        },
        {
          "duration": 0.3229163437499949,
          "durationTicks": 341,
          "midi": 84,
          "name": "C6",
          "ticks": 213720,
          "time": 202.38616125000001,
          "velocity": 0.8818897637795275
        },
        {
          "duration": 0.21496190624998235,
          "durationTicks": 227,
          "midi": 72,
          "name": "C5",
          "ticks": 214080,
          "time": 202.72707000000003,
          "velocity": 0.8818897637795275
        },
        {
          "duration": 0.21496190624998235,
          "durationTicks": 227,
          "midi": 75,
          "name": "D#5",
          "ticks": 214080,
          "time": 202.72707000000003,
          "velocity": 0.8818897637795275
        },
        {
          "duration": 0.21496190624998235,
          "durationTicks": 227,
          "midi": 79,
          "name": "G5",
          "ticks": 214080,
          "time": 202.72707000000003,
          "velocity": 0.8818897637795275
        },
        {
          "duration": 0.21496190624998235,
          "durationTicks": 227,
          "midi": 84,
          "name": "C6",
          "ticks": 214080,
          "time": 202.72707000000003,
          "velocity": 0.8818897637795275
        },
        {
          "duration": 0.3229163437499949,
          "durationTicks": 341,
          "midi": 72,
          "name": "C5",
          "ticks": 214320,
          "time": 202.95434250000002,
          "velocity": 0.8818897637795275
        },
        {
          "duration": 0.3229163437499949,
          "durationTicks": 341,
          "midi": 75,
          "name": "D#5",
          "ticks": 214320,
          "time": 202.95434250000002,
          "velocity": 0.8818897637795275
        },
        {
          "duration": 0.3229163437499949,
          "durationTicks": 341,
          "midi": 79,
          "name": "G5",
          "ticks": 214320,
          "time": 202.95434250000002,
          "velocity": 0.8818897637795275
        },
        {
          "duration": 0.3229163437499949,
          "durationTicks": 341,
          "midi": 84,
          "name": "C6",
          "ticks": 214320,
          "time": 202.95434250000002,
          "velocity": 0.8818897637795275
        },
        {
          "duration": 0.3229163437500233,
          "durationTicks": 341,
          "midi": 70,
          "name": "A#4",
          "ticks": 214680,
          "time": 203.29525125,
          "velocity": 0.8818897637795275
        },
        {
          "duration": 0.3229163437500233,
          "durationTicks": 341,
          "midi": 75,
          "name": "D#5",
          "ticks": 214680,
          "time": 203.29525125,
          "velocity": 0.8818897637795275
        },
        {
          "duration": 0.3229163437500233,
          "durationTicks": 341,
          "midi": 79,
          "name": "G5",
          "ticks": 214680,
          "time": 203.29525125,
          "velocity": 0.8818897637795275
        },
        {
          "duration": 0.3229163437500233,
          "durationTicks": 341,
          "midi": 82,
          "name": "A#5",
          "ticks": 214680,
          "time": 203.29525125,
          "velocity": 0.8818897637795275
        },
        {
          "duration": 0.21496190624998235,
          "durationTicks": 227,
          "midi": 70,
          "name": "A#4",
          "ticks": 215040,
          "time": 203.63616000000002,
          "velocity": 0.8818897637795275
        },
        {
          "duration": 0.21496190624998235,
          "durationTicks": 227,
          "midi": 75,
          "name": "D#5",
          "ticks": 215040,
          "time": 203.63616000000002,
          "velocity": 0.8818897637795275
        },
        {
          "duration": 0.21496190624998235,
          "durationTicks": 227,
          "midi": 79,
          "name": "G5",
          "ticks": 215040,
          "time": 203.63616000000002,
          "velocity": 0.8818897637795275
        },
        {
          "duration": 0.21496190624998235,
          "durationTicks": 227,
          "midi": 82,
          "name": "A#5",
          "ticks": 215040,
          "time": 203.63616000000002,
          "velocity": 0.8818897637795275
        },
        {
          "duration": 0.3229163437499949,
          "durationTicks": 341,
          "midi": 69,
          "name": "A4",
          "ticks": 215280,
          "time": 203.86343250000002,
          "velocity": 0.8818897637795275
        },
        {
          "duration": 0.3229163437499949,
          "durationTicks": 341,
          "midi": 72,
          "name": "C5",
          "ticks": 215280,
          "time": 203.86343250000002,
          "velocity": 0.8818897637795275
        },
        {
          "duration": 0.3229163437499949,
          "durationTicks": 341,
          "midi": 77,
          "name": "F5",
          "ticks": 215280,
          "time": 203.86343250000002,
          "velocity": 0.8818897637795275
        },
        {
          "duration": 0.3229163437499949,
          "durationTicks": 341,
          "midi": 81,
          "name": "A5",
          "ticks": 215280,
          "time": 203.86343250000002,
          "velocity": 0.8818897637795275
        },
        {
          "duration": 0.3229163437499949,
          "durationTicks": 341,
          "midi": 70,
          "name": "A#4",
          "ticks": 215640,
          "time": 204.20434125000003,
          "velocity": 0.8818897637795275
        },
        {
          "duration": 0.3229163437499949,
          "durationTicks": 341,
          "midi": 82,
          "name": "A#5",
          "ticks": 215640,
          "time": 204.20434125000003,
          "velocity": 0.8818897637795275
        },
        {
          "duration": 0.43087078125000744,
          "durationTicks": 455,
          "midi": 69,
          "name": "A4",
          "ticks": 216000,
          "time": 204.54525,
          "velocity": 0.8818897637795275
        },
        {
          "duration": 0.43087078125000744,
          "durationTicks": 455,
          "midi": 72,
          "name": "C5",
          "ticks": 216000,
          "time": 204.54525,
          "velocity": 0.8818897637795275
        },
        {
          "duration": 0.43087078125000744,
          "durationTicks": 455,
          "midi": 77,
          "name": "F5",
          "ticks": 216000,
          "time": 204.54525,
          "velocity": 0.8818897637795275
        },
        {
          "duration": 0.43087078125000744,
          "durationTicks": 455,
          "midi": 81,
          "name": "A5",
          "ticks": 216000,
          "time": 204.54525,
          "velocity": 0.8818897637795275
        },
        {
          "duration": 0.43087078125000744,
          "durationTicks": 455,
          "midi": 69,
          "name": "A4",
          "ticks": 216480,
          "time": 204.999795,
          "velocity": 0.8818897637795275
        },
        {
          "duration": 0.43087078125000744,
          "durationTicks": 455,
          "midi": 72,
          "name": "C5",
          "ticks": 216480,
          "time": 204.999795,
          "velocity": 0.8818897637795275
        },
        {
          "duration": 0.43087078125000744,
          "durationTicks": 455,
          "midi": 77,
          "name": "F5",
          "ticks": 216480,
          "time": 204.999795,
          "velocity": 0.8818897637795275
        },
        {
          "duration": 0.21496190625001077,
          "durationTicks": 227,
          "midi": 74,
          "name": "D5",
          "ticks": 216960,
          "time": 205.45434,
          "velocity": 0.8818897637795275
        },
        {
          "duration": 0.3229163437499949,
          "durationTicks": 341,
          "midi": 74,
          "name": "D5",
          "ticks": 217200,
          "time": 205.68161250000003,
          "velocity": 0.8818897637795275
        },
        {
          "duration": 0.3229163437499949,
          "durationTicks": 341,
          "midi": 79,
          "name": "G5",
          "ticks": 217200,
          "time": 205.68161250000003,
          "velocity": 0.8818897637795275
        },
        {
          "duration": 0.3229163437499949,
          "durationTicks": 341,
          "midi": 82,
          "name": "A#5",
          "ticks": 217200,
          "time": 205.68161250000003,
          "velocity": 0.8818897637795275
        },
        {
          "duration": 0.3229163437499949,
          "durationTicks": 341,
          "midi": 86,
          "name": "D6",
          "ticks": 217200,
          "time": 205.68161250000003,
          "velocity": 0.8818897637795275
        },
        {
          "duration": 0.3229163437499949,
          "durationTicks": 341,
          "midi": 72,
          "name": "C5",
          "ticks": 217560,
          "time": 206.02252125,
          "velocity": 0.8818897637795275
        },
        {
          "duration": 0.3229163437499949,
          "durationTicks": 341,
          "midi": 77,
          "name": "F5",
          "ticks": 217560,
          "time": 206.02252125,
          "velocity": 0.8818897637795275
        },
        {
          "duration": 0.3229163437499949,
          "durationTicks": 341,
          "midi": 81,
          "name": "A5",
          "ticks": 217560,
          "time": 206.02252125,
          "velocity": 0.8818897637795275
        },
        {
          "duration": 0.3229163437499949,
          "durationTicks": 341,
          "midi": 84,
          "name": "C6",
          "ticks": 217560,
          "time": 206.02252125,
          "velocity": 0.8818897637795275
        },
        {
          "duration": 0.21496190624998235,
          "durationTicks": 227,
          "midi": 72,
          "name": "C5",
          "ticks": 217920,
          "time": 206.36343000000002,
          "velocity": 0.8818897637795275
        },
        {
          "duration": 0.21496190624998235,
          "durationTicks": 227,
          "midi": 77,
          "name": "F5",
          "ticks": 217920,
          "time": 206.36343000000002,
          "velocity": 0.8818897637795275
        },
        {
          "duration": 0.21496190624998235,
          "durationTicks": 227,
          "midi": 81,
          "name": "A5",
          "ticks": 217920,
          "time": 206.36343000000002,
          "velocity": 0.8818897637795275
        },
        {
          "duration": 0.21496190624998235,
          "durationTicks": 227,
          "midi": 84,
          "name": "C6",
          "ticks": 217920,
          "time": 206.36343000000002,
          "velocity": 0.8818897637795275
        },
        {
          "duration": 0.3229163437499949,
          "durationTicks": 341,
          "midi": 72,
          "name": "C5",
          "ticks": 218160,
          "time": 206.59070250000002,
          "velocity": 0.8818897637795275
        },
        {
          "duration": 0.3229163437499949,
          "durationTicks": 341,
          "midi": 77,
          "name": "F5",
          "ticks": 218160,
          "time": 206.59070250000002,
          "velocity": 0.8818897637795275
        },
        {
          "duration": 0.3229163437499949,
          "durationTicks": 341,
          "midi": 81,
          "name": "A5",
          "ticks": 218160,
          "time": 206.59070250000002,
          "velocity": 0.8818897637795275
        },
        {
          "duration": 0.3229163437499949,
          "durationTicks": 341,
          "midi": 84,
          "name": "C6",
          "ticks": 218160,
          "time": 206.59070250000002,
          "velocity": 0.8818897637795275
        },
        {
          "duration": 0.3229163437500233,
          "durationTicks": 341,
          "midi": 70,
          "name": "A#4",
          "ticks": 218520,
          "time": 206.93161125,
          "velocity": 0.8818897637795275
        },
        {
          "duration": 0.3229163437500233,
          "durationTicks": 341,
          "midi": 74,
          "name": "D5",
          "ticks": 218520,
          "time": 206.93161125,
          "velocity": 0.8818897637795275
        },
        {
          "duration": 0.3229163437500233,
          "durationTicks": 341,
          "midi": 79,
          "name": "G5",
          "ticks": 218520,
          "time": 206.93161125,
          "velocity": 0.8818897637795275
        },
        {
          "duration": 0.3229163437500233,
          "durationTicks": 341,
          "midi": 82,
          "name": "A#5",
          "ticks": 218520,
          "time": 206.93161125,
          "velocity": 0.8818897637795275
        },
        {
          "duration": 0.21496190625001077,
          "durationTicks": 227,
          "midi": 70,
          "name": "A#4",
          "ticks": 218880,
          "time": 207.27252000000001,
          "velocity": 0.8818897637795275
        },
        {
          "duration": 0.21496190625001077,
          "durationTicks": 227,
          "midi": 74,
          "name": "D5",
          "ticks": 218880,
          "time": 207.27252000000001,
          "velocity": 0.8818897637795275
        },
        {
          "duration": 0.21496190625001077,
          "durationTicks": 227,
          "midi": 79,
          "name": "G5",
          "ticks": 218880,
          "time": 207.27252000000001,
          "velocity": 0.8818897637795275
        },
        {
          "duration": 0.21496190625001077,
          "durationTicks": 227,
          "midi": 82,
          "name": "A#5",
          "ticks": 218880,
          "time": 207.27252000000001,
          "velocity": 0.8818897637795275
        },
        {
          "duration": 0.3229163437499949,
          "durationTicks": 341,
          "midi": 69,
          "name": "A4",
          "ticks": 219120,
          "time": 207.4997925,
          "velocity": 0.8818897637795275
        },
        {
          "duration": 0.3229163437499949,
          "durationTicks": 341,
          "midi": 74,
          "name": "D5",
          "ticks": 219120,
          "time": 207.4997925,
          "velocity": 0.8818897637795275
        },
        {
          "duration": 0.3229163437499949,
          "durationTicks": 341,
          "midi": 77,
          "name": "F5",
          "ticks": 219120,
          "time": 207.4997925,
          "velocity": 0.8818897637795275
        },
        {
          "duration": 0.3229163437499949,
          "durationTicks": 341,
          "midi": 81,
          "name": "A5",
          "ticks": 219120,
          "time": 207.4997925,
          "velocity": 0.8818897637795275
        },
        {
          "duration": 0.3229163437499949,
          "durationTicks": 341,
          "midi": 70,
          "name": "A#4",
          "ticks": 219480,
          "time": 207.84070125000002,
          "velocity": 0.8818897637795275
        },
        {
          "duration": 0.3229163437499949,
          "durationTicks": 341,
          "midi": 82,
          "name": "A#5",
          "ticks": 219480,
          "time": 207.84070125000002,
          "velocity": 0.8818897637795275
        },
        {
          "duration": 0.43087078125000744,
          "durationTicks": 455,
          "midi": 77,
          "name": "F5",
          "ticks": 219840,
          "time": 208.18161,
          "velocity": 0.8818897637795275
        },
        {
          "duration": 0.43087078125000744,
          "durationTicks": 455,
          "midi": 81,
          "name": "A5",
          "ticks": 219840,
          "time": 208.18161,
          "velocity": 0.8818897637795275
        },
        {
          "duration": 0.43087078125000744,
          "durationTicks": 455,
          "midi": 86,
          "name": "D6",
          "ticks": 219840,
          "time": 208.18161,
          "velocity": 0.8818897637795275
        },
        {
          "duration": 0.43087078125000744,
          "durationTicks": 455,
          "midi": 89,
          "name": "F6",
          "ticks": 219840,
          "time": 208.18161,
          "velocity": 0.8818897637795275
        },
        {
          "duration": 0.43087078125000744,
          "durationTicks": 455,
          "midi": 69,
          "name": "A4",
          "ticks": 220320,
          "time": 208.636155,
          "velocity": 0.8818897637795275
        },
        {
          "duration": 0.43087078125000744,
          "durationTicks": 455,
          "midi": 74,
          "name": "D5",
          "ticks": 220320,
          "time": 208.636155,
          "velocity": 0.8818897637795275
        },
        {
          "duration": 0.43087078125000744,
          "durationTicks": 455,
          "midi": 77,
          "name": "F5",
          "ticks": 220320,
          "time": 208.636155,
          "velocity": 0.8818897637795275
        },
        {
          "duration": 0.43087078125000744,
          "durationTicks": 455,
          "midi": 81,
          "name": "A5",
          "ticks": 220320,
          "time": 208.636155,
          "velocity": 0.8818897637795275
        },
        {
          "duration": 0.21496190624998235,
          "durationTicks": 227,
          "midi": 70,
          "name": "A#4",
          "ticks": 220800,
          "time": 209.09070000000003,
          "velocity": 0.8818897637795275
        },
        {
          "duration": 0.21496190624998235,
          "durationTicks": 227,
          "midi": 82,
          "name": "A#5",
          "ticks": 220800,
          "time": 209.09070000000003,
          "velocity": 0.8818897637795275
        },
        {
          "duration": 0.3229163437499949,
          "durationTicks": 341,
          "midi": 79,
          "name": "G5",
          "ticks": 221040,
          "time": 209.31797250000002,
          "velocity": 0.8818897637795275
        },
        {
          "duration": 0.3229163437499949,
          "durationTicks": 341,
          "midi": 82,
          "name": "A#5",
          "ticks": 221040,
          "time": 209.31797250000002,
          "velocity": 0.8818897637795275
        },
        {
          "duration": 0.3229163437499949,
          "durationTicks": 341,
          "midi": 87,
          "name": "D#6",
          "ticks": 221040,
          "time": 209.31797250000002,
          "velocity": 0.8818897637795275
        },
        {
          "duration": 0.3229163437499949,
          "durationTicks": 341,
          "midi": 91,
          "name": "G6",
          "ticks": 221040,
          "time": 209.31797250000002,
          "velocity": 0.8818897637795275
        },
        {
          "duration": 0.3229163437500233,
          "durationTicks": 341,
          "midi": 77,
          "name": "F5",
          "ticks": 221400,
          "time": 209.65888125,
          "velocity": 0.8818897637795275
        },
        {
          "duration": 0.3229163437500233,
          "durationTicks": 341,
          "midi": 82,
          "name": "A#5",
          "ticks": 221400,
          "time": 209.65888125,
          "velocity": 0.8818897637795275
        },
        {
          "duration": 0.3229163437500233,
          "durationTicks": 341,
          "midi": 86,
          "name": "D6",
          "ticks": 221400,
          "time": 209.65888125,
          "velocity": 0.8818897637795275
        },
        {
          "duration": 0.3229163437500233,
          "durationTicks": 341,
          "midi": 89,
          "name": "F6",
          "ticks": 221400,
          "time": 209.65888125,
          "velocity": 0.8818897637795275
        },
        {
          "duration": 0.21496190624998235,
          "durationTicks": 227,
          "midi": 74,
          "name": "D5",
          "ticks": 221760,
          "time": 209.99979000000002,
          "velocity": 0.8818897637795275
        },
        {
          "duration": 0.21496190624998235,
          "durationTicks": 227,
          "midi": 86,
          "name": "D6",
          "ticks": 221760,
          "time": 209.99979000000002,
          "velocity": 0.8818897637795275
        },
        {
          "duration": 0.6467796562500041,
          "durationTicks": 683,
          "midi": 70,
          "name": "A#4",
          "ticks": 222000,
          "time": 210.22706250000002,
          "velocity": 0.8818897637795275
        },
        {
          "duration": 0.6467796562500041,
          "durationTicks": 683,
          "midi": 74,
          "name": "D5",
          "ticks": 222000,
          "time": 210.22706250000002,
          "velocity": 0.8818897637795275
        },
        {
          "duration": 0.6467796562500041,
          "durationTicks": 683,
          "midi": 77,
          "name": "F5",
          "ticks": 222000,
          "time": 210.22706250000002,
          "velocity": 0.8818897637795275
        },
        {
          "duration": 0.6467796562500041,
          "durationTicks": 683,
          "midi": 82,
          "name": "A#5",
          "ticks": 222000,
          "time": 210.22706250000002,
          "velocity": 0.8818897637795275
        },
        {
          "duration": 0.21496190625001077,
          "durationTicks": 227,
          "midi": 70,
          "name": "A#4",
          "ticks": 222720,
          "time": 210.90888,
          "velocity": 0.8818897637795275
        },
        {
          "duration": 0.21496190625001077,
          "durationTicks": 227,
          "midi": 82,
          "name": "A#5",
          "ticks": 222720,
          "time": 210.90888,
          "velocity": 0.8818897637795275
        },
        {
          "duration": 0.43087078125000744,
          "durationTicks": 455,
          "midi": 70,
          "name": "A#4",
          "ticks": 222960,
          "time": 211.1361525,
          "velocity": 0.8818897637795275
        },
        {
          "duration": 0.43087078125000744,
          "durationTicks": 455,
          "midi": 72,
          "name": "C5",
          "ticks": 222960,
          "time": 211.1361525,
          "velocity": 0.8818897637795275
        },
        {
          "duration": 0.43087078125000744,
          "durationTicks": 455,
          "midi": 77,
          "name": "F5",
          "ticks": 222960,
          "time": 211.1361525,
          "velocity": 0.8818897637795275
        },
        {
          "duration": 0.43087078125000744,
          "durationTicks": 455,
          "midi": 82,
          "name": "A#5",
          "ticks": 222960,
          "time": 211.1361525,
          "velocity": 0.8818897637795275
        },
        {
          "duration": 0.21496190625001077,
          "durationTicks": 227,
          "midi": 69,
          "name": "A4",
          "ticks": 223440,
          "time": 211.5906975,
          "velocity": 0.7637795275590551
        },
        {
          "duration": 0.21496190625001077,
          "durationTicks": 227,
          "midi": 81,
          "name": "A5",
          "ticks": 223440,
          "time": 211.5906975,
          "velocity": 0.7637795275590551
        },
        {
          "duration": 0.43087078125000744,
          "durationTicks": 455,
          "midi": 67,
          "name": "G4",
          "ticks": 223680,
          "time": 211.81797,
          "velocity": 0.7007874015748031
        },
        {
          "duration": 0.43087078125000744,
          "durationTicks": 455,
          "midi": 72,
          "name": "C5",
          "ticks": 223680,
          "time": 211.81797,
          "velocity": 0.7007874015748031
        },
        {
          "duration": 0.43087078125000744,
          "durationTicks": 455,
          "midi": 77,
          "name": "F5",
          "ticks": 223680,
          "time": 211.81797,
          "velocity": 0.7007874015748031
        },
        {
          "duration": 0.43087078125000744,
          "durationTicks": 455,
          "midi": 79,
          "name": "G5",
          "ticks": 223680,
          "time": 211.81797,
          "velocity": 0.7007874015748031
        },
        {
          "duration": 0.43087078125000744,
          "durationTicks": 455,
          "midi": 69,
          "name": "A4",
          "ticks": 224160,
          "time": 212.27251500000003,
          "velocity": 0.5748031496062992
        },
        {
          "duration": 0.43087078125000744,
          "durationTicks": 455,
          "midi": 81,
          "name": "A5",
          "ticks": 224160,
          "time": 212.27251500000003,
          "velocity": 0.5748031496062992
        },
        {
          "duration": 0.681817499999994,
          "durationTicks": 720,
          "midi": 70,
          "name": "A#4",
          "ticks": 224640,
          "time": 212.72706000000002,
          "velocity": 0.44881889763779526
        },
        {
          "duration": 0.909089999999992,
          "durationTicks": 960,
          "midi": 74,
          "name": "D5",
          "ticks": 224640,
          "time": 212.72706000000002,
          "velocity": 0.44881889763779526
        },
        {
          "duration": 1.9422329062499841,
          "durationTicks": 2051,
          "midi": 79,
          "name": "G5",
          "ticks": 224640,
          "time": 212.72706000000002,
          "velocity": 0.44881889763779526
        },
        {
          "duration": 1.9422329062499841,
          "durationTicks": 2051,
          "midi": 82,
          "name": "A#5",
          "ticks": 224640,
          "time": 212.72706000000002,
          "velocity": 0.44881889763779526
        },
        {
          "duration": 0.21496190624998235,
          "durationTicks": 227,
          "midi": 67,
          "name": "G4",
          "ticks": 225120,
          "time": 213.18160500000002,
          "velocity": 0.3858267716535433
        },
        {
          "duration": 0.681817499999994,
          "durationTicks": 720,
          "midi": 70,
          "name": "A#4",
          "ticks": 225360,
          "time": 213.40887750000002,
          "velocity": 0.3858267716535433
        },
        {
          "duration": 0.681817499999994,
          "durationTicks": 720,
          "midi": 74,
          "name": "D5",
          "ticks": 225600,
          "time": 213.63615000000001,
          "velocity": 0.3858267716535433
        },
        {
          "duration": 0.21496190625001077,
          "durationTicks": 227,
          "midi": 67,
          "name": "G4",
          "ticks": 225840,
          "time": 213.8634225,
          "velocity": 0.3858267716535433
        },
        {
          "duration": 0.5785979062499962,
          "durationTicks": 611,
          "midi": 70,
          "name": "A#4",
          "ticks": 226080,
          "time": 214.090695,
          "velocity": 0.3858267716535433
        },
        {
          "duration": 0.3513254062499982,
          "durationTicks": 371,
          "midi": 74,
          "name": "D5",
          "ticks": 226320,
          "time": 214.3179675,
          "velocity": 0.3858267716535433
        },
        {
          "duration": 0.21496190625001077,
          "durationTicks": 227,
          "midi": 67,
          "name": "G4",
          "ticks": 226560,
          "time": 214.54524,
          "velocity": 0.3858267716535433
        },
        {
          "duration": 0.21496190625001077,
          "durationTicks": 227,
          "midi": 72,
          "name": "C5",
          "ticks": 226800,
          "time": 214.7725125,
          "velocity": 0.3858267716535433
        },
        {
          "duration": 0.21496190625001077,
          "durationTicks": 227,
          "midi": 67,
          "name": "G4",
          "ticks": 227040,
          "time": 214.999785,
          "velocity": 0.3858267716535433
        },
        {
          "duration": 0.21496190624998235,
          "durationTicks": 227,
          "midi": 70,
          "name": "A#4",
          "ticks": 227280,
          "time": 215.22705750000003,
          "velocity": 0.3858267716535433
        },
        {
          "duration": 0.21496190624998235,
          "durationTicks": 227,
          "midi": 72,
          "name": "C5",
          "ticks": 227520,
          "time": 215.45433000000003,
          "velocity": 0.3858267716535433
        },
        {
          "duration": 0.21496190624998235,
          "durationTicks": 227,
          "midi": 67,
          "name": "G4",
          "ticks": 227760,
          "time": 215.68160250000003,
          "velocity": 0.3858267716535433
        },
        {
          "duration": 0.21496190624998235,
          "durationTicks": 227,
          "midi": 70,
          "name": "A#4",
          "ticks": 228000,
          "time": 215.90887500000002,
          "velocity": 0.3858267716535433
        },
        {
          "duration": 0.21496190624998235,
          "durationTicks": 227,
          "midi": 72,
          "name": "C5",
          "ticks": 228240,
          "time": 216.13614750000002,
          "velocity": 0.3858267716535433
        },
        {
          "duration": 0.21496190624998235,
          "durationTicks": 227,
          "midi": 67,
          "name": "G4",
          "ticks": 228480,
          "time": 216.36342000000002,
          "velocity": 0.3858267716535433
        },
        {
          "duration": 0.21496190624998235,
          "durationTicks": 227,
          "midi": 72,
          "name": "C5",
          "ticks": 228720,
          "time": 216.59069250000002,
          "velocity": 0.3858267716535433
        },
        {
          "duration": 0.21496190625001077,
          "durationTicks": 227,
          "midi": 65,
          "name": "F4",
          "ticks": 228960,
          "time": 216.81796500000002,
          "velocity": 0.3858267716535433
        },
        {
          "duration": 0.21496190625001077,
          "durationTicks": 227,
          "midi": 69,
          "name": "A4",
          "ticks": 229200,
          "time": 217.0452375,
          "velocity": 0.3858267716535433
        },
        {
          "duration": 0.21496190625001077,
          "durationTicks": 227,
          "midi": 70,
          "name": "A#4",
          "ticks": 229440,
          "time": 217.27251,
          "velocity": 0.3858267716535433
        },
        {
          "duration": 0.21496190625001077,
          "durationTicks": 227,
          "midi": 65,
          "name": "F4",
          "ticks": 229680,
          "time": 217.4997825,
          "velocity": 0.3858267716535433
        },
        {
          "duration": 0.21496190625001077,
          "durationTicks": 227,
          "midi": 69,
          "name": "A4",
          "ticks": 229920,
          "time": 217.727055,
          "velocity": 0.3858267716535433
        },
        {
          "duration": 0.21496190625001077,
          "durationTicks": 227,
          "midi": 70,
          "name": "A#4",
          "ticks": 230160,
          "time": 217.9543275,
          "velocity": 0.3858267716535433
        },
        {
          "duration": 0.21496190625001077,
          "durationTicks": 227,
          "midi": 65,
          "name": "F4",
          "ticks": 230400,
          "time": 218.1816,
          "velocity": 0.3858267716535433
        },
        {
          "duration": 0.21496190624998235,
          "durationTicks": 227,
          "midi": 72,
          "name": "C5",
          "ticks": 230640,
          "time": 218.40887250000003,
          "velocity": 0.3858267716535433
        },
        {
          "duration": 0.21496190624998235,
          "durationTicks": 227,
          "midi": 67,
          "name": "G4",
          "ticks": 230880,
          "time": 218.63614500000003,
          "velocity": 0.3858267716535433
        },
        {
          "duration": 0.21496190624998235,
          "durationTicks": 227,
          "midi": 69,
          "name": "A4",
          "ticks": 231120,
          "time": 218.86341750000003,
          "velocity": 0.3858267716535433
        },
        {
          "duration": 0.21496190624998235,
          "durationTicks": 227,
          "midi": 72,
          "name": "C5",
          "ticks": 231360,
          "time": 219.09069000000002,
          "velocity": 0.3858267716535433
        },
        {
          "duration": 0.21496190624998235,
          "durationTicks": 227,
          "midi": 67,
          "name": "G4",
          "ticks": 231600,
          "time": 219.31796250000002,
          "velocity": 0.3858267716535433
        },
        {
          "duration": 0.21496190624998235,
          "durationTicks": 227,
          "midi": 70,
          "name": "A#4",
          "ticks": 231840,
          "time": 219.54523500000002,
          "velocity": 0.3858267716535433
        },
        {
          "duration": 0.21496190624998235,
          "durationTicks": 227,
          "midi": 74,
          "name": "D5",
          "ticks": 232080,
          "time": 219.77250750000002,
          "velocity": 0.3858267716535433
        },
        {
          "duration": 0.22632553124998367,
          "durationTicks": 239,
          "midi": 82,
          "name": "A#5",
          "ticks": 232320,
          "time": 219.99978000000002,
          "velocity": 0.3858267716535433
        },
        {
          "duration": 0.45359803124998166,
          "durationTicks": 479,
          "midi": 74,
          "name": "D5",
          "ticks": 232560,
          "time": 220.2270525,
          "velocity": 0.3858267716535433
        },
        {
          "duration": 0.45359803124998166,
          "durationTicks": 479,
          "midi": 77,
          "name": "F5",
          "ticks": 232560,
          "time": 220.2270525,
          "velocity": 0.3858267716535433
        },
        {
          "duration": 0.45359803124998166,
          "durationTicks": 479,
          "midi": 84,
          "name": "C6",
          "ticks": 232560,
          "time": 220.2270525,
          "velocity": 0.3858267716535433
        },
        {
          "duration": 0.45359803124998166,
          "durationTicks": 479,
          "midi": 82,
          "name": "A#5",
          "ticks": 233040,
          "time": 220.6815975,
          "velocity": 0.3858267716535433
        },
        {
          "duration": 0.8626885312500008,
          "durationTicks": 911,
          "midi": 81,
          "name": "A5",
          "ticks": 233520,
          "time": 221.1361425,
          "velocity": 0.3858267716535433
        },
        {
          "duration": 0,
          "durationTicks": 0,
          "midi": 67,
          "name": "G4",
          "ticks": 233760,
          "time": 221.363415,
          "velocity": 0.3858267716535433
        },
        {
          "duration": 0.21496190624998235,
          "durationTicks": 227,
          "midi": 70,
          "name": "A#4",
          "ticks": 234000,
          "time": 221.59068750000003,
          "velocity": 0.3858267716535433
        },
        {
          "duration": 0.21496190624998235,
          "durationTicks": 227,
          "midi": 74,
          "name": "D5",
          "ticks": 234240,
          "time": 221.81796000000003,
          "velocity": 0.3858267716535433
        },
        {
          "duration": 0.21496190624998235,
          "durationTicks": 227,
          "midi": 65,
          "name": "F4",
          "ticks": 234480,
          "time": 222.04523250000003,
          "velocity": 0.3858267716535433
        },
        {
          "duration": 0.21496190624998235,
          "durationTicks": 227,
          "midi": 72,
          "name": "C5",
          "ticks": 234720,
          "time": 222.27250500000002,
          "velocity": 0.3858267716535433
        },
        {
          "duration": 0.21496190624998235,
          "durationTicks": 227,
          "midi": 74,
          "name": "D5",
          "ticks": 234960,
          "time": 222.49977750000002,
          "velocity": 0.3858267716535433
        },
        {
          "duration": 0.21496190624998235,
          "durationTicks": 227,
          "midi": 65,
          "name": "F4",
          "ticks": 235200,
          "time": 222.72705000000002,
          "velocity": 0.3858267716535433
        },
        {
          "duration": 0.21496190624998235,
          "durationTicks": 227,
          "midi": 72,
          "name": "C5",
          "ticks": 235440,
          "time": 222.95432250000002,
          "velocity": 0.3858267716535433
        },
        {
          "duration": 0.21496190625001077,
          "durationTicks": 227,
          "midi": 74,
          "name": "D5",
          "ticks": 235680,
          "time": 223.18159500000002,
          "velocity": 0.3858267716535433
        },
        {
          "duration": 0.21496190625001077,
          "durationTicks": 227,
          "midi": 65,
          "name": "F4",
          "ticks": 235920,
          "time": 223.4088675,
          "velocity": 0.3858267716535433
        },
        {
          "duration": 0.22632553124998367,
          "durationTicks": 239,
          "midi": 82,
          "name": "A#5",
          "ticks": 236160,
          "time": 223.63614,
          "velocity": 0.3858267716535433
        },
        {
          "duration": 0.45359803124998166,
          "durationTicks": 479,
          "midi": 72,
          "name": "C5",
          "ticks": 236400,
          "time": 223.8634125,
          "velocity": 0.3858267716535433
        },
        {
          "duration": 0.45359803124998166,
          "durationTicks": 479,
          "midi": 77,
          "name": "F5",
          "ticks": 236400,
          "time": 223.8634125,
          "velocity": 0.3858267716535433
        },
        {
          "duration": 0.45359803124998166,
          "durationTicks": 479,
          "midi": 84,
          "name": "C6",
          "ticks": 236400,
          "time": 223.8634125,
          "velocity": 0.3858267716535433
        },
        {
          "duration": 0.4535980312500101,
          "durationTicks": 479,
          "midi": 82,
          "name": "A#5",
          "ticks": 236880,
          "time": 224.3179575,
          "velocity": 0.3858267716535433
        },
        {
          "duration": 0.8626885312500008,
          "durationTicks": 911,
          "midi": 81,
          "name": "A5",
          "ticks": 237360,
          "time": 224.77250250000003,
          "velocity": 0.3858267716535433
        },
        {
          "duration": 0,
          "durationTicks": 0,
          "midi": 69,
          "name": "A4",
          "ticks": 237600,
          "time": 224.99977500000003,
          "velocity": 0.3858267716535433
        },
        {
          "duration": 0.21496190624998235,
          "durationTicks": 227,
          "midi": 70,
          "name": "A#4",
          "ticks": 237840,
          "time": 225.22704750000003,
          "velocity": 0.3858267716535433
        },
        {
          "duration": 0.21496190624998235,
          "durationTicks": 227,
          "midi": 72,
          "name": "C5",
          "ticks": 238080,
          "time": 225.45432000000002,
          "velocity": 0.3858267716535433
        },
        {
          "duration": 0.21496190624998235,
          "durationTicks": 227,
          "midi": 65,
          "name": "F4",
          "ticks": 238320,
          "time": 225.68159250000002,
          "velocity": 0.3858267716535433
        },
        {
          "duration": 0.21496190624998235,
          "durationTicks": 227,
          "midi": 69,
          "name": "A4",
          "ticks": 238560,
          "time": 225.90886500000002,
          "velocity": 0.3858267716535433
        },
        {
          "duration": 0.21496190624998235,
          "durationTicks": 227,
          "midi": 70,
          "name": "A#4",
          "ticks": 238800,
          "time": 226.13613750000002,
          "velocity": 0.3858267716535433
        },
        {
          "duration": 0.21496190625001077,
          "durationTicks": 227,
          "midi": 65,
          "name": "F4",
          "ticks": 239040,
          "time": 226.36341000000002,
          "velocity": 0.3858267716535433
        },
        {
          "duration": 0.21496190625001077,
          "durationTicks": 227,
          "midi": 69,
          "name": "A4",
          "ticks": 239280,
          "time": 226.5906825,
          "velocity": 0.3858267716535433
        },
        {
          "duration": 0.21496190625001077,
          "durationTicks": 227,
          "midi": 70,
          "name": "A#4",
          "ticks": 239520,
          "time": 226.817955,
          "velocity": 0.3858267716535433
        },
        {
          "duration": 0.21496190625001077,
          "durationTicks": 227,
          "midi": 65,
          "name": "F4",
          "ticks": 239760,
          "time": 227.0452275,
          "velocity": 0.3858267716535433
        },
        {
          "duration": 0.22632553124998367,
          "durationTicks": 239,
          "midi": 74,
          "name": "D5",
          "ticks": 240000,
          "time": 227.2725,
          "velocity": 0.3858267716535433
        },
        {
          "duration": 0.4535980312500101,
          "durationTicks": 479,
          "midi": 70,
          "name": "A#4",
          "ticks": 240240,
          "time": 227.4997725,
          "velocity": 0.3858267716535433
        },
        {
          "duration": 0.4535980312500101,
          "durationTicks": 479,
          "midi": 74,
          "name": "D5",
          "ticks": 240240,
          "time": 227.4997725,
          "velocity": 0.3858267716535433
        },
        {
          "duration": 0.22632553124998367,
          "durationTicks": 239,
          "midi": 74,
          "name": "D5",
          "ticks": 240720,
          "time": 227.95431750000003,
          "velocity": 0.3858267716535433
        },
        {
          "duration": 0.45359803124998166,
          "durationTicks": 479,
          "midi": 74,
          "name": "D5",
          "ticks": 240960,
          "time": 228.18159000000003,
          "velocity": 0.3858267716535433
        },
        {
          "duration": 0.22632553124998367,
          "durationTicks": 239,
          "midi": 86,
          "name": "D6",
          "ticks": 241440,
          "time": 228.63613500000002,
          "velocity": 0.3858267716535433
        },
        {
          "duration": 1.3172335312499968,
          "durationTicks": 1391,
          "midi": 86,
          "name": "D6",
          "ticks": 241680,
          "time": 228.86340750000002,
          "velocity": 0.3858267716535433
        },
        {
          "duration": 0.21496190624998235,
          "durationTicks": 227,
          "midi": 65,
          "name": "F4",
          "ticks": 242160,
          "time": 229.31795250000002,
          "velocity": 0.3858267716535433
        },
        {
          "duration": 0.21496190625001077,
          "durationTicks": 227,
          "midi": 72,
          "name": "C5",
          "ticks": 242400,
          "time": 229.54522500000002,
          "velocity": 0.3858267716535433
        },
        {
          "duration": 0.21496190625001077,
          "durationTicks": 227,
          "midi": 74,
          "name": "D5",
          "ticks": 242640,
          "time": 229.77249750000001,
          "velocity": 0.3858267716535433
        },
        {
          "duration": 0.21496190625001077,
          "durationTicks": 227,
          "midi": 65,
          "name": "F4",
          "ticks": 242880,
          "time": 229.99977,
          "velocity": 0.3858267716535433
        },
        {
          "duration": 0.21496190625001077,
          "durationTicks": 227,
          "midi": 72,
          "name": "C5",
          "ticks": 243120,
          "time": 230.2270425,
          "velocity": 0.3858267716535433
        },
        {
          "duration": 0.21496190625001077,
          "durationTicks": 227,
          "midi": 74,
          "name": "D5",
          "ticks": 243360,
          "time": 230.454315,
          "velocity": 0.3858267716535433
        },
        {
          "duration": 0.21496190625001077,
          "durationTicks": 227,
          "midi": 65,
          "name": "F4",
          "ticks": 243600,
          "time": 230.6815875,
          "velocity": 0.3858267716535433
        },
        {
          "duration": 0.21496190625001077,
          "durationTicks": 227,
          "midi": 82,
          "name": "A#5",
          "ticks": 243840,
          "time": 230.90886,
          "velocity": 0.3858267716535433
        },
        {
          "duration": 0.43087078125000744,
          "durationTicks": 455,
          "midi": 81,
          "name": "A5",
          "ticks": 244080,
          "time": 231.13613250000003,
          "velocity": 0.3858267716535433
        },
        {
          "duration": 0.21496190624998235,
          "durationTicks": 227,
          "midi": 81,
          "name": "A5",
          "ticks": 244560,
          "time": 231.59067750000003,
          "velocity": 0.3858267716535433
        },
        {
          "duration": 0.43087078125000744,
          "durationTicks": 455,
          "midi": 81,
          "name": "A5",
          "ticks": 244800,
          "time": 231.81795000000002,
          "velocity": 0.3858267716535433
        },
        {
          "duration": 0.21496190624998235,
          "durationTicks": 227,
          "midi": 82,
          "name": "A#5",
          "ticks": 245280,
          "time": 232.27249500000002,
          "velocity": 0.3858267716535433
        },
        {
          "duration": 0.430870781249979,
          "durationTicks": 455,
          "midi": 82,
          "name": "A#5",
          "ticks": 245520,
          "time": 232.49976750000002,
          "velocity": 0.3858267716535433
        },
        {
          "duration": 0,
          "durationTicks": 0,
          "midi": 98,
          "name": "D7",
          "ticks": 246000,
          "time": 232.95431250000001,
          "velocity": 0.3858267716535433
        },
        {
          "duration": 0.3399617812500253,
          "durationTicks": 359,
          "midi": 98,
          "name": "D7",
          "ticks": 246000,
          "time": 232.95431250000001,
          "velocity": 0.3858267716535433
        },
        {
          "duration": 0.11268928124999888,
          "durationTicks": 119,
          "midi": 91,
          "name": "G6",
          "ticks": 246120,
          "time": 233.06794875000003,
          "velocity": 0.3858267716535433
        },
        {
          "duration": 0.1126892812500273,
          "durationTicks": 119,
          "midi": 86,
          "name": "D6",
          "ticks": 246240,
          "time": 233.181585,
          "velocity": 0.3858267716535433
        },
        {
          "duration": 0,
          "durationTicks": 0,
          "midi": 96,
          "name": "C7",
          "ticks": 246360,
          "time": 233.29522125000003,
          "velocity": 0.3858267716535433
        },
        {
          "duration": 0.3399617812499969,
          "durationTicks": 359,
          "midi": 96,
          "name": "C7",
          "ticks": 246360,
          "time": 233.29522125000003,
          "velocity": 0.3858267716535433
        },
        {
          "duration": 0.1126892812500273,
          "durationTicks": 119,
          "midi": 91,
          "name": "G6",
          "ticks": 246480,
          "time": 233.4088575,
          "velocity": 0.3858267716535433
        },
        {
          "duration": 0.11268928124999888,
          "durationTicks": 119,
          "midi": 86,
          "name": "D6",
          "ticks": 246600,
          "time": 233.52249375000002,
          "velocity": 0.3858267716535433
        },
        {
          "duration": 0,
          "durationTicks": 0,
          "midi": 94,
          "name": "A#6",
          "ticks": 246720,
          "time": 233.63613,
          "velocity": 0.3858267716535433
        },
        {
          "duration": 1.0899610312499988,
          "durationTicks": 1151,
          "midi": 94,
          "name": "A#6",
          "ticks": 246720,
          "time": 233.63613,
          "velocity": 0.3858267716535433
        },
        {
          "duration": 0,
          "durationTicks": 0,
          "midi": 98,
          "name": "D7",
          "ticks": 247920,
          "time": 234.77249250000003,
          "velocity": 0.3858267716535433
        },
        {
          "duration": 0.3399617812499969,
          "durationTicks": 359,
          "midi": 98,
          "name": "D7",
          "ticks": 247920,
          "time": 234.77249250000003,
          "velocity": 0.3858267716535433
        },
        {
          "duration": 0.1126892812500273,
          "durationTicks": 119,
          "midi": 91,
          "name": "G6",
          "ticks": 248040,
          "time": 234.88612875,
          "velocity": 0.3858267716535433
        },
        {
          "duration": 0.11268928124999888,
          "durationTicks": 119,
          "midi": 86,
          "name": "D6",
          "ticks": 248160,
          "time": 234.99976500000002,
          "velocity": 0.3858267716535433
        },
        {
          "duration": 0,
          "durationTicks": 0,
          "midi": 96,
          "name": "C7",
          "ticks": 248280,
          "time": 235.11340125,
          "velocity": 0.3858267716535433
        },
        {
          "duration": 0.3399617812500253,
          "durationTicks": 359,
          "midi": 96,
          "name": "C7",
          "ticks": 248280,
          "time": 235.11340125,
          "velocity": 0.3858267716535433
        },
        {
          "duration": 0.11268928124999888,
          "durationTicks": 119,
          "midi": 91,
          "name": "G6",
          "ticks": 248400,
          "time": 235.22703750000002,
          "velocity": 0.3858267716535433
        },
        {
          "duration": 0.1126892812500273,
          "durationTicks": 119,
          "midi": 86,
          "name": "D6",
          "ticks": 248520,
          "time": 235.34067375,
          "velocity": 0.3858267716535433
        },
        {
          "duration": 0,
          "durationTicks": 0,
          "midi": 94,
          "name": "A#6",
          "ticks": 248640,
          "time": 235.45431000000002,
          "velocity": 0.3858267716535433
        },
        {
          "duration": 1.0899610312499988,
          "durationTicks": 1151,
          "midi": 94,
          "name": "A#6",
          "ticks": 248640,
          "time": 235.45431000000002,
          "velocity": 0.3858267716535433
        }
      ],
      "endOfTrackTicks": 249841
    },
    {
      "channel": 0,
      "controlChanges": {
        "64": [
          {
            "number": 64,
            "ticks": 7922,
            "time": 7.5018864375000005,
            "value": 1
          },
          {
            "number": 64,
            "ticks": 9841,
            "time": 9.319119468750001,
            "value": 0
          },
          {
            "number": 64,
            "ticks": 9842,
            "time": 9.320066437500001,
            "value": 1
          },
          {
            "number": 64,
            "ticks": 11761,
            "time": 11.137299468750001,
            "value": 0
          },
          {
            "number": 64,
            "ticks": 11762,
            "time": 11.138246437500001,
            "value": 1
          },
          {
            "number": 64,
            "ticks": 13681,
            "time": 12.955479468750001,
            "value": 0
          },
          {
            "number": 64,
            "ticks": 13682,
            "time": 12.956426437500001,
            "value": 1
          },
          {
            "number": 64,
            "ticks": 15601,
            "time": 14.773659468750001,
            "value": 0
          },
          {
            "number": 64,
            "ticks": 15602,
            "time": 14.774606437500003,
            "value": 1
          },
          {
            "number": 64,
            "ticks": 17521,
            "time": 16.59183946875,
            "value": 0
          },
          {
            "number": 64,
            "ticks": 17522,
            "time": 16.592786437500003,
            "value": 1
          },
          {
            "number": 64,
            "ticks": 19441,
            "time": 18.41001946875,
            "value": 0
          },
          {
            "number": 64,
            "ticks": 19442,
            "time": 18.410966437500004,
            "value": 1
          },
          {
            "number": 64,
            "ticks": 21361,
            "time": 20.22819946875,
            "value": 0
          },
          {
            "number": 64,
            "ticks": 21362,
            "time": 20.229146437500003,
            "value": 1
          },
          {
            "number": 64,
            "ticks": 23281,
            "time": 22.04637946875,
            "value": 0
          },
          {
            "number": 64,
            "ticks": 23282,
            "time": 22.047326437500004,
            "value": 1
          },
          {
            "number": 64,
            "ticks": 25201,
            "time": 23.864559468750002,
            "value": 0
          },
          {
            "number": 64,
            "ticks": 25202,
            "time": 23.865506437500002,
            "value": 1
          },
          {
            "number": 64,
            "ticks": 27121,
            "time": 25.68273946875,
            "value": 0
          },
          {
            "number": 64,
            "ticks": 27122,
            "time": 25.683686437500004,
            "value": 1
          },
          {
            "number": 64,
            "ticks": 29041,
            "time": 27.500919468750002,
            "value": 0
          },
          {
            "number": 64,
            "ticks": 30962,
            "time": 29.3200464375,
            "value": 1
          },
          {
            "number": 64,
            "ticks": 31441,
            "time": 29.77364446875,
            "value": 0
          },
          {
            "number": 64,
            "ticks": 31442,
            "time": 29.7745914375,
            "value": 1
          },
          {
            "number": 64,
            "ticks": 31921,
            "time": 30.228189468750003,
            "value": 0
          },
          {
            "number": 64,
            "ticks": 31922,
            "time": 30.2291364375,
            "value": 1
          },
          {
            "number": 64,
            "ticks": 32401,
            "time": 30.682734468750002,
            "value": 0
          },
          {
            "number": 64,
            "ticks": 32402,
            "time": 30.6836814375,
            "value": 1
          },
          {
            "number": 64,
            "ticks": 32881,
            "time": 31.137279468750002,
            "value": 0
          },
          {
            "number": 64,
            "ticks": 34802,
            "time": 32.9564064375,
            "value": 1
          },
          {
            "number": 64,
            "ticks": 35761,
            "time": 33.86454946875,
            "value": 0
          },
          {
            "number": 64,
            "ticks": 35762,
            "time": 33.8654964375,
            "value": 1
          },
          {
            "number": 64,
            "ticks": 36721,
            "time": 34.77363946875,
            "value": 0
          },
          {
            "number": 64,
            "ticks": 40562,
            "time": 38.4109464375,
            "value": 1
          },
          {
            "number": 64,
            "ticks": 42481,
            "time": 40.22817946875,
            "value": 0
          },
          {
            "number": 64,
            "ticks": 42482,
            "time": 40.2291264375,
            "value": 1
          },
          {
            "number": 64,
            "ticks": 44401,
            "time": 42.046359468750005,
            "value": 0
          },
          {
            "number": 64,
            "ticks": 44402,
            "time": 42.0473064375,
            "value": 1
          },
          {
            "number": 64,
            "ticks": 46321,
            "time": 43.86453946875,
            "value": 0
          },
          {
            "number": 64,
            "ticks": 46322,
            "time": 43.8654864375,
            "value": 1
          },
          {
            "number": 64,
            "ticks": 48241,
            "time": 45.68271946875,
            "value": 0
          },
          {
            "number": 64,
            "ticks": 48242,
            "time": 45.6836664375,
            "value": 1
          },
          {
            "number": 64,
            "ticks": 50161,
            "time": 47.50089946875,
            "value": 0
          },
          {
            "number": 64,
            "ticks": 50162,
            "time": 47.5018464375,
            "value": 1
          },
          {
            "number": 64,
            "ticks": 52081,
            "time": 49.319079468750004,
            "value": 0
          },
          {
            "number": 64,
            "ticks": 52082,
            "time": 49.320026437500005,
            "value": 1
          },
          {
            "number": 64,
            "ticks": 54001,
            "time": 51.13725946875,
            "value": 0
          },
          {
            "number": 64,
            "ticks": 63602,
            "time": 60.2291064375,
            "value": 1
          },
          {
            "number": 64,
            "ticks": 65521,
            "time": 62.046339468750006,
            "value": 0
          },
          {
            "number": 64,
            "ticks": 65522,
            "time": 62.047286437500006,
            "value": 1
          },
          {
            "number": 64,
            "ticks": 67441,
            "time": 63.864519468750004,
            "value": 0
          },
          {
            "number": 64,
            "ticks": 67442,
            "time": 63.865466437500004,
            "value": 1
          },
          {
            "number": 64,
            "ticks": 69361,
            "time": 65.68269946875,
            "value": 0
          },
          {
            "number": 64,
            "ticks": 69362,
            "time": 65.6836464375,
            "value": 1
          },
          {
            "number": 64,
            "ticks": 71281,
            "time": 67.50087946875,
            "value": 0
          },
          {
            "number": 64,
            "ticks": 71282,
            "time": 67.5018264375,
            "value": 1
          },
          {
            "number": 64,
            "ticks": 73201,
            "time": 69.31905946875,
            "value": 0
          },
          {
            "number": 64,
            "ticks": 73202,
            "time": 69.3200064375,
            "value": 1
          },
          {
            "number": 64,
            "ticks": 75121,
            "time": 71.13723946875001,
            "value": 0
          },
          {
            "number": 64,
            "ticks": 75122,
            "time": 71.1381864375,
            "value": 1
          },
          {
            "number": 64,
            "ticks": 77041,
            "time": 72.95541946875001,
            "value": 0
          },
          {
            "number": 64,
            "ticks": 77042,
            "time": 72.95636643750001,
            "value": 1
          },
          {
            "number": 64,
            "ticks": 78961,
            "time": 74.77359946875,
            "value": 0
          },
          {
            "number": 64,
            "ticks": 78962,
            "time": 74.7745464375,
            "value": 1
          },
          {
            "number": 64,
            "ticks": 80881,
            "time": 76.59177946875,
            "value": 0
          },
          {
            "number": 64,
            "ticks": 80882,
            "time": 76.5927264375,
            "value": 1
          },
          {
            "number": 64,
            "ticks": 82801,
            "time": 78.40995946875,
            "value": 0
          },
          {
            "number": 64,
            "ticks": 82802,
            "time": 78.4109064375,
            "value": 1
          },
          {
            "number": 64,
            "ticks": 84721,
            "time": 80.22813946875,
            "value": 0
          },
          {
            "number": 64,
            "ticks": 84722,
            "time": 80.2290864375,
            "value": 1
          },
          {
            "number": 64,
            "ticks": 86641,
            "time": 82.04631946875,
            "value": 0
          },
          {
            "number": 64,
            "ticks": 86642,
            "time": 82.0472664375,
            "value": 1
          },
          {
            "number": 64,
            "ticks": 88561,
            "time": 83.86449946875001,
            "value": 0
          },
          {
            "number": 64,
            "ticks": 88562,
            "time": 83.8654464375,
            "value": 1
          },
          {
            "number": 64,
            "ticks": 90481,
            "time": 85.68267946875001,
            "value": 0
          },
          {
            "number": 64,
            "ticks": 90482,
            "time": 85.68362643750001,
            "value": 1
          },
          {
            "number": 64,
            "ticks": 92401,
            "time": 87.50085946875001,
            "value": 0
          },
          {
            "number": 64,
            "ticks": 92402,
            "time": 87.50180643750001,
            "value": 1
          },
          {
            "number": 64,
            "ticks": 94321,
            "time": 89.31903946875,
            "value": 0
          },
          {
            "number": 64,
            "ticks": 94322,
            "time": 89.3199864375,
            "value": 1
          },
          {
            "number": 64,
            "ticks": 96241,
            "time": 91.13721946875,
            "value": 0
          },
          {
            "number": 64,
            "ticks": 96242,
            "time": 91.1381664375,
            "value": 1
          },
          {
            "number": 64,
            "ticks": 98161,
            "time": 92.95539946875,
            "value": 0
          },
          {
            "number": 64,
            "ticks": 98162,
            "time": 92.9563464375,
            "value": 1
          },
          {
            "number": 64,
            "ticks": 100081,
            "time": 94.77357946875,
            "value": 0
          },
          {
            "number": 64,
            "ticks": 100082,
            "time": 94.7745264375,
            "value": 1
          },
          {
            "number": 64,
            "ticks": 102001,
            "time": 96.59175946875001,
            "value": 0
          },
          {
            "number": 64,
            "ticks": 102002,
            "time": 96.5927064375,
            "value": 1
          },
          {
            "number": 64,
            "ticks": 103921,
            "time": 98.40993946875001,
            "value": 0
          },
          {
            "number": 64,
            "ticks": 103922,
            "time": 98.41088643750001,
            "value": 1
          },
          {
            "number": 64,
            "ticks": 104881,
            "time": 99.31902946875,
            "value": 0
          },
          {
            "number": 64,
            "ticks": 104882,
            "time": 99.3199764375,
            "value": 1
          },
          {
            "number": 64,
            "ticks": 105841,
            "time": 100.22811946875001,
            "value": 0
          },
          {
            "number": 64,
            "ticks": 105842,
            "time": 100.22906643750001,
            "value": 1
          },
          {
            "number": 64,
            "ticks": 107761,
            "time": 102.04629946875001,
            "value": 0
          },
          {
            "number": 64,
            "ticks": 107762,
            "time": 102.04724643750001,
            "value": 1
          },
          {
            "number": 64,
            "ticks": 109681,
            "time": 103.86447946875,
            "value": 0
          },
          {
            "number": 64,
            "ticks": 109682,
            "time": 103.8654264375,
            "value": 1
          },
          {
            "number": 64,
            "ticks": 111601,
            "time": 105.68265946875,
            "value": 0
          },
          {
            "number": 64,
            "ticks": 111602,
            "time": 105.6836064375,
            "value": 1
          },
          {
            "number": 64,
            "ticks": 113521,
            "time": 107.50083946875,
            "value": 0
          },
          {
            "number": 64,
            "ticks": 113522,
            "time": 107.5017864375,
            "value": 1
          },
          {
            "number": 64,
            "ticks": 115441,
            "time": 109.31901946875001,
            "value": 0
          },
          {
            "number": 64,
            "ticks": 115442,
            "time": 109.3199664375,
            "value": 1
          },
          {
            "number": 64,
            "ticks": 117361,
            "time": 111.13719946875001,
            "value": 0
          },
          {
            "number": 64,
            "ticks": 117362,
            "time": 111.13814643750001,
            "value": 1
          },
          {
            "number": 64,
            "ticks": 119281,
            "time": 112.95537946875001,
            "value": 0
          },
          {
            "number": 64,
            "ticks": 119282,
            "time": 112.95632643750001,
            "value": 1
          },
          {
            "number": 64,
            "ticks": 121201,
            "time": 114.77355946875001,
            "value": 0
          },
          {
            "number": 64,
            "ticks": 121202,
            "time": 114.77450643750001,
            "value": 1
          },
          {
            "number": 64,
            "ticks": 123121,
            "time": 116.59173946875002,
            "value": 0
          },
          {
            "number": 64,
            "ticks": 123122,
            "time": 116.5926864375,
            "value": 1
          },
          {
            "number": 64,
            "ticks": 125041,
            "time": 118.40991946875002,
            "value": 0
          },
          {
            "number": 64,
            "ticks": 125042,
            "time": 118.4108664375,
            "value": 1
          },
          {
            "number": 64,
            "ticks": 126961,
            "time": 120.22809946875002,
            "value": 0
          },
          {
            "number": 64,
            "ticks": 126962,
            "time": 120.2290464375,
            "value": 1
          },
          {
            "number": 64,
            "ticks": 128881,
            "time": 122.04627946875001,
            "value": 0
          },
          {
            "number": 64,
            "ticks": 128882,
            "time": 122.0472264375,
            "value": 1
          },
          {
            "number": 64,
            "ticks": 130801,
            "time": 123.86445946875003,
            "value": 0
          },
          {
            "number": 64,
            "ticks": 130802,
            "time": 123.86540643750001,
            "value": 1
          },
          {
            "number": 64,
            "ticks": 132721,
            "time": 125.68263946875003,
            "value": 0
          },
          {
            "number": 64,
            "ticks": 132722,
            "time": 125.68358643750001,
            "value": 1
          },
          {
            "number": 64,
            "ticks": 134641,
            "time": 127.50081946875002,
            "value": 0
          },
          {
            "number": 64,
            "ticks": 134642,
            "time": 127.50176643750001,
            "value": 1
          },
          {
            "number": 64,
            "ticks": 136561,
            "time": 129.31899946875,
            "value": 0
          },
          {
            "number": 64,
            "ticks": 136562,
            "time": 129.3199464375,
            "value": 1
          },
          {
            "number": 64,
            "ticks": 138481,
            "time": 131.13717946875002,
            "value": 0
          },
          {
            "number": 64,
            "ticks": 138482,
            "time": 131.1381264375,
            "value": 1
          },
          {
            "number": 64,
            "ticks": 140401,
            "time": 132.95535946875003,
            "value": 0
          },
          {
            "number": 64,
            "ticks": 140402,
            "time": 132.95630643750002,
            "value": 1
          },
          {
            "number": 64,
            "ticks": 142321,
            "time": 134.77353946875002,
            "value": 0
          },
          {
            "number": 64,
            "ticks": 142322,
            "time": 134.7744864375,
            "value": 1
          },
          {
            "number": 64,
            "ticks": 144241,
            "time": 136.59171946875003,
            "value": 0
          },
          {
            "number": 64,
            "ticks": 144242,
            "time": 136.59266643750001,
            "value": 1
          },
          {
            "number": 64,
            "ticks": 146161,
            "time": 138.40989946875,
            "value": 0
          },
          {
            "number": 64,
            "ticks": 146162,
            "time": 138.4108464375,
            "value": 1
          },
          {
            "number": 64,
            "ticks": 148081,
            "time": 140.22807946875002,
            "value": 0
          },
          {
            "number": 64,
            "ticks": 148082,
            "time": 140.2290264375,
            "value": 1
          },
          {
            "number": 64,
            "ticks": 150001,
            "time": 142.04625946875,
            "value": 0
          },
          {
            "number": 64,
            "ticks": 150002,
            "time": 142.0472064375,
            "value": 1
          },
          {
            "number": 64,
            "ticks": 151921,
            "time": 143.86443946875002,
            "value": 0
          },
          {
            "number": 64,
            "ticks": 165362,
            "time": 156.5926464375,
            "value": 1
          },
          {
            "number": 64,
            "ticks": 167281,
            "time": 158.40987946875003,
            "value": 0
          },
          {
            "number": 64,
            "ticks": 167282,
            "time": 158.41082643750002,
            "value": 1
          },
          {
            "number": 64,
            "ticks": 169201,
            "time": 160.22805946875002,
            "value": 0
          },
          {
            "number": 64,
            "ticks": 169202,
            "time": 160.2290064375,
            "value": 1
          },
          {
            "number": 64,
            "ticks": 171121,
            "time": 162.04623946875003,
            "value": 0
          },
          {
            "number": 64,
            "ticks": 171122,
            "time": 162.04718643750002,
            "value": 1
          },
          {
            "number": 64,
            "ticks": 173041,
            "time": 163.86441946875001,
            "value": 0
          },
          {
            "number": 64,
            "ticks": 173042,
            "time": 163.8653664375,
            "value": 1
          },
          {
            "number": 64,
            "ticks": 174961,
            "time": 165.68259946875003,
            "value": 0
          },
          {
            "number": 64,
            "ticks": 174962,
            "time": 165.6835464375,
            "value": 1
          },
          {
            "number": 64,
            "ticks": 176881,
            "time": 167.50077946875,
            "value": 0
          },
          {
            "number": 64,
            "ticks": 176882,
            "time": 167.5017264375,
            "value": 1
          },
          {
            "number": 64,
            "ticks": 178801,
            "time": 169.31895946875002,
            "value": 0
          },
          {
            "number": 64,
            "ticks": 178802,
            "time": 169.3199064375,
            "value": 1
          },
          {
            "number": 64,
            "ticks": 180721,
            "time": 171.13713946875004,
            "value": 0
          },
          {
            "number": 64,
            "ticks": 180722,
            "time": 171.13808643750002,
            "value": 1
          },
          {
            "number": 64,
            "ticks": 182641,
            "time": 172.95531946875002,
            "value": 0
          },
          {
            "number": 64,
            "ticks": 182642,
            "time": 172.9562664375,
            "value": 1
          },
          {
            "number": 64,
            "ticks": 184561,
            "time": 174.77349946875003,
            "value": 0
          },
          {
            "number": 64,
            "ticks": 184562,
            "time": 174.77444643750002,
            "value": 1
          },
          {
            "number": 64,
            "ticks": 186481,
            "time": 176.59167946875002,
            "value": 0
          },
          {
            "number": 64,
            "ticks": 186482,
            "time": 176.5926264375,
            "value": 1
          },
          {
            "number": 64,
            "ticks": 188401,
            "time": 178.40985946875003,
            "value": 0
          },
          {
            "number": 64,
            "ticks": 188402,
            "time": 178.4108064375,
            "value": 1
          },
          {
            "number": 64,
            "ticks": 190321,
            "time": 180.22803946875,
            "value": 0
          },
          {
            "number": 64,
            "ticks": 190322,
            "time": 180.2289864375,
            "value": 1
          },
          {
            "number": 64,
            "ticks": 192241,
            "time": 182.04621946875002,
            "value": 0
          },
          {
            "number": 64,
            "ticks": 192242,
            "time": 182.0471664375,
            "value": 1
          },
          {
            "number": 64,
            "ticks": 194161,
            "time": 183.86439946875004,
            "value": 0
          },
          {
            "number": 64,
            "ticks": 194162,
            "time": 183.86534643750002,
            "value": 1
          },
          {
            "number": 64,
            "ticks": 196081,
            "time": 185.68257946875002,
            "value": 0
          },
          {
            "number": 64,
            "ticks": 196082,
            "time": 185.6835264375,
            "value": 1
          },
          {
            "number": 64,
            "ticks": 198001,
            "time": 187.50075946875003,
            "value": 0
          },
          {
            "number": 64,
            "ticks": 198002,
            "time": 187.50170643750002,
            "value": 1
          },
          {
            "number": 64,
            "ticks": 199921,
            "time": 189.31893946875002,
            "value": 0
          },
          {
            "number": 64,
            "ticks": 199922,
            "time": 189.3198864375,
            "value": 1
          },
          {
            "number": 64,
            "ticks": 201841,
            "time": 191.13711946875003,
            "value": 0
          },
          {
            "number": 64,
            "ticks": 201842,
            "time": 191.13806643750002,
            "value": 1
          },
          {
            "number": 64,
            "ticks": 203761,
            "time": 192.95529946875,
            "value": 0
          },
          {
            "number": 64,
            "ticks": 203762,
            "time": 192.9562464375,
            "value": 1
          },
          {
            "number": 64,
            "ticks": 205681,
            "time": 194.77347946875003,
            "value": 0
          },
          {
            "number": 64,
            "ticks": 205682,
            "time": 194.7744264375,
            "value": 1
          },
          {
            "number": 64,
            "ticks": 207601,
            "time": 196.59165946875004,
            "value": 0
          },
          {
            "number": 64,
            "ticks": 207602,
            "time": 196.59260643750002,
            "value": 1
          },
          {
            "number": 64,
            "ticks": 209521,
            "time": 198.40983946875002,
            "value": 0
          },
          {
            "number": 64,
            "ticks": 209522,
            "time": 198.4107864375,
            "value": 1
          },
          {
            "number": 64,
            "ticks": 211441,
            "time": 200.22801946875003,
            "value": 0
          },
          {
            "number": 64,
            "ticks": 211442,
            "time": 200.22896643750002,
            "value": 1
          },
          {
            "number": 64,
            "ticks": 213361,
            "time": 202.04619946875002,
            "value": 0
          },
          {
            "number": 64,
            "ticks": 213362,
            "time": 202.0471464375,
            "value": 1
          },
          {
            "number": 64,
            "ticks": 215281,
            "time": 203.86437946875003,
            "value": 0
          },
          {
            "number": 64,
            "ticks": 215282,
            "time": 203.86532643750002,
            "value": 1
          },
          {
            "number": 64,
            "ticks": 217201,
            "time": 205.68255946875001,
            "value": 0
          },
          {
            "number": 64,
            "ticks": 217202,
            "time": 205.6835064375,
            "value": 1
          },
          {
            "number": 64,
            "ticks": 219121,
            "time": 207.50073946875003,
            "value": 0
          },
          {
            "number": 64,
            "ticks": 219122,
            "time": 207.5016864375,
            "value": 1
          },
          {
            "number": 64,
            "ticks": 221041,
            "time": 209.31891946875004,
            "value": 0
          },
          {
            "number": 64,
            "ticks": 221042,
            "time": 209.31986643750002,
            "value": 1
          },
          {
            "number": 64,
            "ticks": 222961,
            "time": 211.13709946875002,
            "value": 0
          },
          {
            "number": 64,
            "ticks": 222962,
            "time": 211.1380464375,
            "value": 1
          },
          {
            "number": 64,
            "ticks": 224881,
            "time": 212.95527946875004,
            "value": 0
          },
          {
            "number": 64,
            "ticks": 224882,
            "time": 212.95622643750002,
            "value": 1
          },
          {
            "number": 64,
            "ticks": 226801,
            "time": 214.77345946875002,
            "value": 0
          },
          {
            "number": 64,
            "ticks": 226802,
            "time": 214.7744064375,
            "value": 1
          },
          {
            "number": 64,
            "ticks": 228721,
            "time": 216.59163946875003,
            "value": 0
          },
          {
            "number": 64,
            "ticks": 228722,
            "time": 216.59258643750002,
            "value": 1
          },
          {
            "number": 64,
            "ticks": 230641,
            "time": 218.40981946875002,
            "value": 0
          },
          {
            "number": 64,
            "ticks": 230642,
            "time": 218.4107664375,
            "value": 1
          },
          {
            "number": 64,
            "ticks": 232561,
            "time": 220.22799946875003,
            "value": 0
          },
          {
            "number": 64,
            "ticks": 232562,
            "time": 220.2289464375,
            "value": 1
          },
          {
            "number": 64,
            "ticks": 234481,
            "time": 222.04617946875004,
            "value": 0
          },
          {
            "number": 64,
            "ticks": 234482,
            "time": 222.04712643750003,
            "value": 1
          },
          {
            "number": 64,
            "ticks": 236401,
            "time": 223.86435946875002,
            "value": 0
          },
          {
            "number": 64,
            "ticks": 236402,
            "time": 223.8653064375,
            "value": 1
          },
          {
            "number": 64,
            "ticks": 238321,
            "time": 225.68253946875004,
            "value": 0
          },
          {
            "number": 64,
            "ticks": 238322,
            "time": 225.68348643750002,
            "value": 1
          },
          {
            "number": 64,
            "ticks": 240241,
            "time": 227.50071946875002,
            "value": 0
          },
          {
            "number": 64,
            "ticks": 242162,
            "time": 229.31984643750002,
            "value": 1
          },
          {
            "number": 64,
            "ticks": 244081,
            "time": 231.13707946875002,
            "value": 0
          },
          {
            "number": 64,
            "ticks": 244082,
            "time": 231.1380264375,
            "value": 1
          },
          {
            "number": 64,
            "ticks": 246001,
            "time": 232.95525946875,
            "value": 0
          }
        ]
      },
      "pitchBends": [],
      "instrument": {
        "family": "piano",
        "number": 0,
        "name": "acoustic grand piano"
      },
      "name": "Piano",
      "notes": [
        {
          "duration": 1.2945062812500001,
          "durationTicks": 1367,
          "midi": 79,
          "name": "G5",
          "ticks": 240,
          "time": 0.22727250000000002,
          "velocity": 0.25984251968503935
        },
        {
          "duration": 0.43087078125000033,
          "durationTicks": 455,
          "midi": 82,
          "name": "A#5",
          "ticks": 1680,
          "time": 1.5909075000000001,
          "velocity": 0.25984251968503935
        },
        {
          "duration": 1.29450628125,
          "durationTicks": 1367,
          "midi": 75,
          "name": "D#5",
          "ticks": 2160,
          "time": 2.0454525,
          "velocity": 0.25984251968503935
        },
        {
          "duration": 0.4308707812499999,
          "durationTicks": 455,
          "midi": 79,
          "name": "G5",
          "ticks": 3600,
          "time": 3.4090875,
          "velocity": 0.25984251968503935
        },
        {
          "duration": 1.2945062812499994,
          "durationTicks": 1367,
          "midi": 77,
          "name": "F5",
          "ticks": 4080,
          "time": 3.8636325000000005,
          "velocity": 0.25984251968503935
        },
        {
          "duration": 0.43087078125000033,
          "durationTicks": 455,
          "midi": 81,
          "name": "A5",
          "ticks": 5520,
          "time": 5.2272675,
          "velocity": 0.25984251968503935
        },
        {
          "duration": 1.2945062812500003,
          "durationTicks": 1367,
          "midi": 79,
          "name": "G5",
          "ticks": 6000,
          "time": 5.6818125,
          "velocity": 0.25984251968503935
        },
        {
          "duration": 0.2149619062500001,
          "durationTicks": 227,
          "midi": 51,
          "name": "D#3",
          "ticks": 7920,
          "time": 7.4999925,
          "velocity": 0.3858267716535433
        },
        {
          "duration": 0.21496190624999922,
          "durationTicks": 227,
          "midi": 58,
          "name": "A#3",
          "ticks": 8160,
          "time": 7.727265000000001,
          "velocity": 0.3858267716535433
        },
        {
          "duration": 0.2149619062500001,
          "durationTicks": 227,
          "midi": 67,
          "name": "G4",
          "ticks": 8400,
          "time": 7.954537500000001,
          "velocity": 0.3858267716535433
        },
        {
          "duration": 0.2149619062500001,
          "durationTicks": 227,
          "midi": 51,
          "name": "D#3",
          "ticks": 8640,
          "time": 8.18181,
          "velocity": 0.3858267716535433
        },
        {
          "duration": 0.2149619062500001,
          "durationTicks": 227,
          "midi": 58,
          "name": "A#3",
          "ticks": 8880,
          "time": 8.4090825,
          "velocity": 0.3858267716535433
        },
        {
          "duration": 0.2149619062500001,
          "durationTicks": 227,
          "midi": 65,
          "name": "F4",
          "ticks": 9120,
          "time": 8.636355,
          "velocity": 0.3858267716535433
        },
        {
          "duration": 0.2149619062500001,
          "durationTicks": 227,
          "midi": 70,
          "name": "A#4",
          "ticks": 9360,
          "time": 8.8636275,
          "velocity": 0.3858267716535433
        },
        {
          "duration": 0.2149619062500001,
          "durationTicks": 227,
          "midi": 74,
          "name": "D5",
          "ticks": 9600,
          "time": 9.090900000000001,
          "velocity": 0.3858267716535433
        },
        {
          "duration": 0.2149619062500001,
          "durationTicks": 227,
          "midi": 55,
          "name": "G3",
          "ticks": 9840,
          "time": 9.318172500000001,
          "velocity": 0.3858267716535433
        },
        {
          "duration": 0.2149619062500001,
          "durationTicks": 227,
          "midi": 62,
          "name": "D4",
          "ticks": 10080,
          "time": 9.545445,
          "velocity": 0.3858267716535433
        },
        {
          "duration": 0.2149619062500001,
          "durationTicks": 227,
          "midi": 72,
          "name": "C5",
          "ticks": 10080,
          "time": 9.545445,
          "velocity": 0.3858267716535433
        },
        {
          "duration": 0.2149619062500001,
          "durationTicks": 227,
          "midi": 70,
          "name": "A#4",
          "ticks": 10320,
          "time": 9.7727175,
          "velocity": 0.3858267716535433
        },
        {
          "duration": 0.2149619062500001,
          "durationTicks": 227,
          "midi": 74,
          "name": "D5",
          "ticks": 10320,
          "time": 9.7727175,
          "velocity": 0.3858267716535433
        },
        {
          "duration": 0.2149619062500001,
          "durationTicks": 227,
          "midi": 55,
          "name": "G3",
          "ticks": 10560,
          "time": 9.99999,
          "velocity": 0.3858267716535433
        },
        {
          "duration": 0.2149619062500001,
          "durationTicks": 227,
          "midi": 62,
          "name": "D4",
          "ticks": 10800,
          "time": 10.2272625,
          "velocity": 0.3858267716535433
        },
        {
          "duration": 0.2149619062500001,
          "durationTicks": 227,
          "midi": 72,
          "name": "C5",
          "ticks": 10800,
          "time": 10.2272625,
          "velocity": 0.3858267716535433
        },
        {
          "duration": 0.2149619062500001,
          "durationTicks": 227,
          "midi": 70,
          "name": "A#4",
          "ticks": 11040,
          "time": 10.454535,
          "velocity": 0.3858267716535433
        },
        {
          "duration": 0.2149619062500001,
          "durationTicks": 227,
          "midi": 74,
          "name": "D5",
          "ticks": 11040,
          "time": 10.454535,
          "velocity": 0.3858267716535433
        },
        {
          "duration": 0.21496190624999834,
          "durationTicks": 227,
          "midi": 55,
          "name": "G3",
          "ticks": 11280,
          "time": 10.681807500000001,
          "velocity": 0.3858267716535433
        },
        {
          "duration": 0.2149619062500001,
          "durationTicks": 227,
          "midi": 62,
          "name": "D4",
          "ticks": 11520,
          "time": 10.909080000000001,
          "velocity": 0.3858267716535433
        },
        {
          "duration": 0.2149619062500001,
          "durationTicks": 227,
          "midi": 53,
          "name": "F3",
          "ticks": 11760,
          "time": 11.136352500000001,
          "velocity": 0.3858267716535433
        },
        {
          "duration": 0.2149619062500001,
          "durationTicks": 227,
          "midi": 60,
          "name": "C4",
          "ticks": 12000,
          "time": 11.363625,
          "velocity": 0.3858267716535433
        },
        {
          "duration": 0.2149619062500001,
          "durationTicks": 227,
          "midi": 69,
          "name": "A4",
          "ticks": 12240,
          "time": 11.5908975,
          "velocity": 0.3858267716535433
        },
        {
          "duration": 0.2149619062500001,
          "durationTicks": 227,
          "midi": 53,
          "name": "F3",
          "ticks": 12480,
          "time": 11.81817,
          "velocity": 0.3858267716535433
        },
        {
          "duration": 0.2149619062500001,
          "durationTicks": 227,
          "midi": 60,
          "name": "C4",
          "ticks": 12720,
          "time": 12.0454425,
          "velocity": 0.3858267716535433
        },
        {
          "duration": 0.21496190624999834,
          "durationTicks": 227,
          "midi": 65,
          "name": "F4",
          "ticks": 12960,
          "time": 12.272715000000002,
          "velocity": 0.3858267716535433
        },
        {
          "duration": 0.2149619062500001,
          "durationTicks": 227,
          "midi": 70,
          "name": "A#4",
          "ticks": 13200,
          "time": 12.499987500000001,
          "velocity": 0.3858267716535433
        },
        {
          "duration": 0.2149619062500001,
          "durationTicks": 227,
          "midi": 72,
          "name": "C5",
          "ticks": 13440,
          "time": 12.727260000000001,
          "velocity": 0.3858267716535433
        },
        {
          "duration": 0.2149619062500001,
          "durationTicks": 227,
          "midi": 55,
          "name": "G3",
          "ticks": 13680,
          "time": 12.954532500000001,
          "velocity": 0.3858267716535433
        },
        {
          "duration": 0.2149619062500001,
          "durationTicks": 227,
          "midi": 62,
          "name": "D4",
          "ticks": 13920,
          "time": 13.181805,
          "velocity": 0.3858267716535433
        },
        {
          "duration": 0.2149619062500001,
          "durationTicks": 227,
          "midi": 69,
          "name": "A4",
          "ticks": 13920,
          "time": 13.181805,
          "velocity": 0.3858267716535433
        },
        {
          "duration": 0.2149619062500001,
          "durationTicks": 227,
          "midi": 67,
          "name": "G4",
          "ticks": 14160,
          "time": 13.4090775,
          "velocity": 0.3858267716535433
        },
        {
          "duration": 0.2149619062500001,
          "durationTicks": 227,
          "midi": 70,
          "name": "A#4",
          "ticks": 14160,
          "time": 13.4090775,
          "velocity": 0.3858267716535433
        },
        {
          "duration": 0.2149619062500001,
          "durationTicks": 227,
          "midi": 55,
          "name": "G3",
          "ticks": 14400,
          "time": 13.63635,
          "velocity": 0.3858267716535433
        },
        {
          "duration": 0.21496190624999834,
          "durationTicks": 227,
          "midi": 62,
          "name": "D4",
          "ticks": 14640,
          "time": 13.863622500000002,
          "velocity": 0.3858267716535433
        },
        {
          "duration": 0.21496190624999834,
          "durationTicks": 227,
          "midi": 69,
          "name": "A4",
          "ticks": 14640,
          "time": 13.863622500000002,
          "velocity": 0.3858267716535433
        },
        {
          "duration": 0.2149619062500001,
          "durationTicks": 227,
          "midi": 67,
          "name": "G4",
          "ticks": 14880,
          "time": 14.090895000000002,
          "velocity": 0.3858267716535433
        },
        {
          "duration": 0.2149619062500001,
          "durationTicks": 227,
          "midi": 70,
          "name": "A#4",
          "ticks": 14880,
          "time": 14.090895000000002,
          "velocity": 0.3858267716535433
        },
        {
          "duration": 0.2149619062500001,
          "durationTicks": 227,
          "midi": 55,
          "name": "G3",
          "ticks": 15120,
          "time": 14.318167500000001,
          "velocity": 0.3858267716535433
        },
        {
          "duration": 0.2149619062500019,
          "durationTicks": 227,
          "midi": 62,
          "name": "D4",
          "ticks": 15360,
          "time": 14.545440000000001,
          "velocity": 0.3858267716535433
        },
        {
          "duration": 0.2149619062500019,
          "durationTicks": 227,
          "midi": 51,
          "name": "D#3",
          "ticks": 15600,
          "time": 14.7727125,
          "velocity": 0.3858267716535433
        },
        {
          "duration": 0.2149619062500019,
          "durationTicks": 227,
          "midi": 58,
          "name": "A#3",
          "ticks": 15840,
          "time": 14.999985,
          "velocity": 0.3858267716535433
        },
        {
          "duration": 0.2149619062500019,
          "durationTicks": 227,
          "midi": 67,
          "name": "G4",
          "ticks": 16080,
          "time": 15.2272575,
          "velocity": 0.3858267716535433
        },
        {
          "duration": 0.2149619062500001,
          "durationTicks": 227,
          "midi": 51,
          "name": "D#3",
          "ticks": 16320,
          "time": 15.454530000000002,
          "velocity": 0.3858267716535433
        },
        {
          "duration": 0.2149619062500001,
          "durationTicks": 227,
          "midi": 58,
          "name": "A#3",
          "ticks": 16560,
          "time": 15.681802500000002,
          "velocity": 0.3858267716535433
        },
        {
          "duration": 0.2149619062500001,
          "durationTicks": 227,
          "midi": 67,
          "name": "G4",
          "ticks": 16800,
          "time": 15.909075000000001,
          "velocity": 0.3858267716535433
        },
        {
          "duration": 0.21496190625000366,
          "durationTicks": 227,
          "midi": 51,
          "name": "D#3",
          "ticks": 17040,
          "time": 16.1363475,
          "velocity": 0.3858267716535433
        },
        {
          "duration": 0.2149619062500001,
          "durationTicks": 227,
          "midi": 58,
          "name": "A#3",
          "ticks": 17280,
          "time": 16.36362,
          "velocity": 0.3858267716535433
        },
        {
          "duration": 0.2149619062500001,
          "durationTicks": 227,
          "midi": 55,
          "name": "G3",
          "ticks": 17520,
          "time": 16.590892500000002,
          "velocity": 0.3858267716535433
        },
        {
          "duration": 0.21496190625000366,
          "durationTicks": 227,
          "midi": 62,
          "name": "D4",
          "ticks": 17760,
          "time": 16.818165,
          "velocity": 0.3858267716535433
        },
        {
          "duration": 0.2149619062500001,
          "durationTicks": 227,
          "midi": 70,
          "name": "A#4",
          "ticks": 18000,
          "time": 17.045437500000002,
          "velocity": 0.3858267716535433
        },
        {
          "duration": 0.21496190625000366,
          "durationTicks": 227,
          "midi": 55,
          "name": "G3",
          "ticks": 18240,
          "time": 17.27271,
          "velocity": 0.3858267716535433
        },
        {
          "duration": 0.2149619062500001,
          "durationTicks": 227,
          "midi": 62,
          "name": "D4",
          "ticks": 18480,
          "time": 17.4999825,
          "velocity": 0.3858267716535433
        },
        {
          "duration": 0.21496190625000366,
          "durationTicks": 227,
          "midi": 70,
          "name": "A#4",
          "ticks": 18720,
          "time": 17.727255,
          "velocity": 0.3858267716535433
        },
        {
          "duration": 0.2149619062500001,
          "durationTicks": 227,
          "midi": 55,
          "name": "G3",
          "ticks": 18960,
          "time": 17.9545275,
          "velocity": 0.3858267716535433
        },
        {
          "duration": 0.2149619062500001,
          "durationTicks": 227,
          "midi": 62,
          "name": "D4",
          "ticks": 19200,
          "time": 18.181800000000003,
          "velocity": 0.3858267716535433
        },
        {
          "duration": 0.21496190625000366,
          "durationTicks": 227,
          "midi": 53,
          "name": "F3",
          "ticks": 19440,
          "time": 18.4090725,
          "velocity": 0.3858267716535433
        },
        {
          "duration": 0.2149619062500001,
          "durationTicks": 227,
          "midi": 60,
          "name": "C4",
          "ticks": 19680,
          "time": 18.636345000000002,
          "velocity": 0.3858267716535433
        },
        {
          "duration": 0.21496190625000366,
          "durationTicks": 227,
          "midi": 69,
          "name": "A4",
          "ticks": 19920,
          "time": 18.8636175,
          "velocity": 0.3858267716535433
        },
        {
          "duration": 0.2149619062500001,
          "durationTicks": 227,
          "midi": 53,
          "name": "F3",
          "ticks": 20160,
          "time": 19.09089,
          "velocity": 0.3858267716535433
        },
        {
          "duration": 0.21496190625000366,
          "durationTicks": 227,
          "midi": 60,
          "name": "C4",
          "ticks": 20400,
          "time": 19.3181625,
          "velocity": 0.3858267716535433
        },
        {
          "duration": 0.2149619062500001,
          "durationTicks": 227,
          "midi": 69,
          "name": "A4",
          "ticks": 20640,
          "time": 19.545435,
          "velocity": 0.3858267716535433
        },
        {
          "duration": 0.2149619062500001,
          "durationTicks": 227,
          "midi": 53,
          "name": "F3",
          "ticks": 20880,
          "time": 19.772707500000003,
          "velocity": 0.3858267716535433
        },
        {
          "duration": 0.21496190625000366,
          "durationTicks": 227,
          "midi": 60,
          "name": "C4",
          "ticks": 21120,
          "time": 19.99998,
          "velocity": 0.3858267716535433
        },
        {
          "duration": 0.2149619062500001,
          "durationTicks": 227,
          "midi": 55,
          "name": "G3",
          "ticks": 21360,
          "time": 20.227252500000002,
          "velocity": 0.3858267716535433
        },
        {
          "duration": 0.21496190625000366,
          "durationTicks": 227,
          "midi": 62,
          "name": "D4",
          "ticks": 21600,
          "time": 20.454525,
          "velocity": 0.3858267716535433
        },
        {
          "duration": 0.2149619062500001,
          "durationTicks": 227,
          "midi": 70,
          "name": "A#4",
          "ticks": 21840,
          "time": 20.681797500000002,
          "velocity": 0.3858267716535433
        },
        {
          "duration": 0.21496190625000366,
          "durationTicks": 227,
          "midi": 55,
          "name": "G3",
          "ticks": 22080,
          "time": 20.90907,
          "velocity": 0.3858267716535433
        },
        {
          "duration": 0.2149619062500001,
          "durationTicks": 227,
          "midi": 62,
          "name": "D4",
          "ticks": 22320,
          "time": 21.1363425,
          "velocity": 0.3858267716535433
        },
        {
          "duration": 0.2149619062500001,
          "durationTicks": 227,
          "midi": 70,
          "name": "A#4",
          "ticks": 22560,
          "time": 21.363615000000003,
          "velocity": 0.3858267716535433
        },
        {
          "duration": 0.21496190625000366,
          "durationTicks": 227,
          "midi": 55,
          "name": "G3",
          "ticks": 22800,
          "time": 21.5908875,
          "velocity": 0.3858267716535433
        },
        {
          "duration": 0.2149619062500001,
          "durationTicks": 227,
          "midi": 62,
          "name": "D4",
          "ticks": 23040,
          "time": 21.818160000000002,
          "velocity": 0.3858267716535433
        },
        {
          "duration": 0.21496190625000366,
          "durationTicks": 227,
          "midi": 51,
          "name": "D#3",
          "ticks": 23280,
          "time": 22.0454325,
          "velocity": 0.3858267716535433
        },
        {
          "duration": 0.2149619062500001,
          "durationTicks": 227,
          "midi": 58,
          "name": "A#3",
          "ticks": 23520,
          "time": 22.272705000000002,
          "velocity": 0.3858267716535433
        },
        {
          "duration": 0.21496190625000366,
          "durationTicks": 227,
          "midi": 67,
          "name": "G4",
          "ticks": 23760,
          "time": 22.4999775,
          "velocity": 0.3858267716535433
        },
        {
          "duration": 0.2149619062500001,
          "durationTicks": 227,
          "midi": 51,
          "name": "D#3",
          "ticks": 24000,
          "time": 22.72725,
          "velocity": 0.3858267716535433
        },
        {
          "duration": 0.2149619062500001,
          "durationTicks": 227,
          "midi": 58,
          "name": "A#3",
          "ticks": 24240,
          "time": 22.954522500000003,
          "velocity": 0.3858267716535433
        },
        {
          "duration": 0.21496190625000366,
          "durationTicks": 227,
          "midi": 67,
          "name": "G4",
          "ticks": 24480,
          "time": 23.181795,
          "velocity": 0.3858267716535433
        },
        {
          "duration": 0.2149619062500001,
          "durationTicks": 227,
          "midi": 51,
          "name": "D#3",
          "ticks": 24720,
          "time": 23.409067500000003,
          "velocity": 0.3858267716535433
        },
        {
          "duration": 0.21496190625000366,
          "durationTicks": 227,
          "midi": 58,
          "name": "A#3",
          "ticks": 24960,
          "time": 23.63634,
          "velocity": 0.3858267716535433
        },
        {
          "duration": 0.2149619062500001,
          "durationTicks": 227,
          "midi": 55,
          "name": "G3",
          "ticks": 25200,
          "time": 23.863612500000002,
          "velocity": 0.3858267716535433
        },
        {
          "duration": 0.2149619062500001,
          "durationTicks": 227,
          "midi": 65,
          "name": "F4",
          "ticks": 25200,
          "time": 23.863612500000002,
          "velocity": 0.3858267716535433
        },
        {
          "duration": 0.21496190625000366,
          "durationTicks": 227,
          "midi": 62,
          "name": "D4",
          "ticks": 25440,
          "time": 24.090885,
          "velocity": 0.3858267716535433
        },
        {
          "duration": 0.21496190625000366,
          "durationTicks": 227,
          "midi": 72,
          "name": "C5",
          "ticks": 25440,
          "time": 24.090885,
          "velocity": 0.3858267716535433
        },
        {
          "duration": 0.2149619062500001,
          "durationTicks": 227,
          "midi": 70,
          "name": "A#4",
          "ticks": 25680,
          "time": 24.3181575,
          "velocity": 0.3858267716535433
        },
        {
          "duration": 0.2149619062500001,
          "durationTicks": 227,
          "midi": 74,
          "name": "D5",
          "ticks": 25680,
          "time": 24.3181575,
          "velocity": 0.3858267716535433
        },
        {
          "duration": 0.2149619062500001,
          "durationTicks": 227,
          "midi": 55,
          "name": "G3",
          "ticks": 25920,
          "time": 24.545430000000003,
          "velocity": 0.3858267716535433
        },
        {
          "duration": 0.2149619062500001,
          "durationTicks": 227,
          "midi": 65,
          "name": "F4",
          "ticks": 25920,
          "time": 24.545430000000003,
          "velocity": 0.3858267716535433
        },
        {
          "duration": 0.21496190625000366,
          "durationTicks": 227,
          "midi": 62,
          "name": "D4",
          "ticks": 26160,
          "time": 24.7727025,
          "velocity": 0.3858267716535433
        },
        {
          "duration": 0.21496190625000366,
          "durationTicks": 227,
          "midi": 72,
          "name": "C5",
          "ticks": 26160,
          "time": 24.7727025,
          "velocity": 0.3858267716535433
        },
        {
          "duration": 0.2149619062500001,
          "durationTicks": 227,
          "midi": 70,
          "name": "A#4",
          "ticks": 26400,
          "time": 24.999975000000003,
          "velocity": 0.3858267716535433
        },
        {
          "duration": 0.2149619062500001,
          "durationTicks": 227,
          "midi": 74,
          "name": "D5",
          "ticks": 26400,
          "time": 24.999975000000003,
          "velocity": 0.3858267716535433
        },
        {
          "duration": 0.21496190625000366,
          "durationTicks": 227,
          "midi": 55,
          "name": "G3",
          "ticks": 26640,
          "time": 25.2272475,
          "velocity": 0.3858267716535433
        },
        {
          "duration": 0.2149619062500001,
          "durationTicks": 227,
          "midi": 62,
          "name": "D4",
          "ticks": 26880,
          "time": 25.454520000000002,
          "velocity": 0.3858267716535433
        },
        {
          "duration": 0.21496190625000366,
          "durationTicks": 227,
          "midi": 53,
          "name": "F3",
          "ticks": 27120,
          "time": 25.6817925,
          "velocity": 0.3858267716535433
        },
        {
          "duration": 0.2149619062500001,
          "durationTicks": 227,
          "midi": 60,
          "name": "C4",
          "ticks": 27360,
          "time": 25.909065000000002,
          "velocity": 0.3858267716535433
        },
        {
          "duration": 0.2149619062500001,
          "durationTicks": 227,
          "midi": 69,
          "name": "A4",
          "ticks": 27600,
          "time": 26.136337500000003,
          "velocity": 0.3858267716535433
        },
        {
          "duration": 0.21496190625000366,
          "durationTicks": 227,
          "midi": 53,
          "name": "F3",
          "ticks": 27840,
          "time": 26.36361,
          "velocity": 0.3858267716535433
        },
        {
          "duration": 0.2149619062500001,
          "durationTicks": 227,
          "midi": 60,
          "name": "C4",
          "ticks": 28080,
          "time": 26.590882500000003,
          "velocity": 0.3858267716535433
        },
        {
          "duration": 0.21496190625000366,
          "durationTicks": 227,
          "midi": 69,
          "name": "A4",
          "ticks": 28320,
          "time": 26.818155,
          "velocity": 0.3858267716535433
        },
        {
          "duration": 0.2149619062500001,
          "durationTicks": 227,
          "midi": 53,
          "name": "F3",
          "ticks": 28560,
          "time": 27.045427500000002,
          "velocity": 0.3858267716535433
        },
        {
          "duration": 0.21496190625000366,
          "durationTicks": 227,
          "midi": 53,
          "name": "F3",
          "ticks": 28800,
          "time": 27.2727,
          "velocity": 0.3858267716535433
        },
        {
          "duration": 0.10700746874999822,
          "durationTicks": 113,
          "midi": 55,
          "name": "G3",
          "ticks": 29040,
          "time": 27.499972500000002,
          "velocity": 0.7559055118110236
        },
        {
          "duration": 0.10700746875000178,
          "durationTicks": 113,
          "midi": 55,
          "name": "G3",
          "ticks": 29160,
          "time": 27.61360875,
          "velocity": 0.7559055118110236
        },
        {
          "duration": 0.10700746874999822,
          "durationTicks": 113,
          "midi": 55,
          "name": "G3",
          "ticks": 29280,
          "time": 27.727245000000003,
          "velocity": 0.7559055118110236
        },
        {
          "duration": 0.10700746875000178,
          "durationTicks": 113,
          "midi": 55,
          "name": "G3",
          "ticks": 29520,
          "time": 27.9545175,
          "velocity": 0.7559055118110236
        },
        {
          "duration": 0.10700746875000178,
          "durationTicks": 113,
          "midi": 55,
          "name": "G3",
          "ticks": 29640,
          "time": 28.06815375,
          "velocity": 0.7559055118110236
        },
        {
          "duration": 0.10700746874999822,
          "durationTicks": 113,
          "midi": 55,
          "name": "G3",
          "ticks": 29880,
          "time": 28.295426250000002,
          "velocity": 0.7559055118110236
        },
        {
          "duration": 0.10700746874999822,
          "durationTicks": 113,
          "midi": 55,
          "name": "G3",
          "ticks": 30120,
          "time": 28.522698750000004,
          "velocity": 0.7559055118110236
        },
        {
          "duration": 0.10700746874999822,
          "durationTicks": 113,
          "midi": 55,
          "name": "G3",
          "ticks": 30240,
          "time": 28.636335000000003,
          "velocity": 0.7559055118110236
        },
        {
          "duration": 0.10700746874999822,
          "durationTicks": 113,
          "midi": 55,
          "name": "G3",
          "ticks": 30600,
          "time": 28.977243750000003,
          "velocity": 0.7559055118110236
        },
        {
          "duration": 0.21496190624999656,
          "durationTicks": 227,
          "midi": 55,
          "name": "G3",
          "ticks": 30720,
          "time": 29.090880000000002,
          "velocity": 0.7559055118110236
        },
        {
          "duration": 0.11268928124999888,
          "durationTicks": 119,
          "midi": 70,
          "name": "A#4",
          "ticks": 30960,
          "time": 29.318152500000004,
          "velocity": 0.5039370078740157
        },
        {
          "duration": 0.11268928124999888,
          "durationTicks": 119,
          "midi": 67,
          "name": "G4",
          "ticks": 31080,
          "time": 29.431788750000003,
          "velocity": 0.5039370078740157
        },
        {
          "duration": 0.11268928125000244,
          "durationTicks": 119,
          "midi": 69,
          "name": "A4",
          "ticks": 31200,
          "time": 29.545425,
          "velocity": 0.5039370078740157
        },
        {
          "duration": 0.11268928125000244,
          "durationTicks": 119,
          "midi": 70,
          "name": "A#4",
          "ticks": 31320,
          "time": 29.65906125,
          "velocity": 0.5039370078740157
        },
        {
          "duration": 0.11268928124999888,
          "durationTicks": 119,
          "midi": 67,
          "name": "G4",
          "ticks": 31440,
          "time": 29.772697500000003,
          "velocity": 0.5039370078740157
        },
        {
          "duration": 0.11268928125000244,
          "durationTicks": 119,
          "midi": 69,
          "name": "A4",
          "ticks": 31560,
          "time": 29.886333750000002,
          "velocity": 0.5039370078740157
        },
        {
          "duration": 0.11268928125000244,
          "durationTicks": 119,
          "midi": 70,
          "name": "A#4",
          "ticks": 31680,
          "time": 29.99997,
          "velocity": 0.5039370078740157
        },
        {
          "duration": 0.10700746874999822,
          "durationTicks": 113,
          "midi": 67,
          "name": "G4",
          "ticks": 31800,
          "time": 30.113606250000004,
          "velocity": 0.5039370078740157
        },
        {
          "duration": 0.11268928124999888,
          "durationTicks": 119,
          "midi": 70,
          "name": "A#4",
          "ticks": 31920,
          "time": 30.227242500000003,
          "velocity": 0.5039370078740157
        },
        {
          "duration": 0.11268928125000244,
          "durationTicks": 119,
          "midi": 67,
          "name": "G4",
          "ticks": 32040,
          "time": 30.34087875,
          "velocity": 0.5039370078740157
        },
        {
          "duration": 0.11268928125000244,
          "durationTicks": 119,
          "midi": 69,
          "name": "A4",
          "ticks": 32160,
          "time": 30.454515,
          "velocity": 0.5039370078740157
        },
        {
          "duration": 0.11268928124999888,
          "durationTicks": 119,
          "midi": 70,
          "name": "A#4",
          "ticks": 32280,
          "time": 30.568151250000003,
          "velocity": 0.5039370078740157
        },
        {
          "duration": 0.11268928125000244,
          "durationTicks": 119,
          "midi": 67,
          "name": "G4",
          "ticks": 32400,
          "time": 30.681787500000002,
          "velocity": 0.5039370078740157
        },
        {
          "duration": 0.11268928125000244,
          "durationTicks": 119,
          "midi": 69,
          "name": "A4",
          "ticks": 32520,
          "time": 30.79542375,
          "velocity": 0.5039370078740157
        },
        {
          "duration": 0.21496190624999656,
          "durationTicks": 227,
          "midi": 70,
          "name": "A#4",
          "ticks": 32640,
          "time": 30.909060000000004,
          "velocity": 0.5039370078740157
        },
        {
          "duration": 0.10700746875000178,
          "durationTicks": 113,
          "midi": 43,
          "name": "G2",
          "ticks": 32880,
          "time": 31.1363325,
          "velocity": 0.7559055118110236
        },
        {
          "duration": 0.10700746875000178,
          "durationTicks": 113,
          "midi": 50,
          "name": "D3",
          "ticks": 32880,
          "time": 31.1363325,
          "velocity": 0.7559055118110236
        },
        {
          "duration": 0.10700746875000178,
          "durationTicks": 113,
          "midi": 55,
          "name": "G3",
          "ticks": 32880,
          "time": 31.1363325,
          "velocity": 0.7559055118110236
        },
        {
          "duration": 0.10700746875000178,
          "durationTicks": 113,
          "midi": 43,
          "name": "G2",
          "ticks": 33000,
          "time": 31.24996875,
          "velocity": 0.7559055118110236
        },
        {
          "duration": 0.10700746875000178,
          "durationTicks": 113,
          "midi": 50,
          "name": "D3",
          "ticks": 33000,
          "time": 31.24996875,
          "velocity": 0.7559055118110236
        },
        {
          "duration": 0.10700746875000178,
          "durationTicks": 113,
          "midi": 55,
          "name": "G3",
          "ticks": 33000,
          "time": 31.24996875,
          "velocity": 0.7559055118110236
        },
        {
          "duration": 0.10700746874999822,
          "durationTicks": 113,
          "midi": 43,
          "name": "G2",
          "ticks": 33120,
          "time": 31.363605000000003,
          "velocity": 0.7559055118110236
        },
        {
          "duration": 0.10700746874999822,
          "durationTicks": 113,
          "midi": 50,
          "name": "D3",
          "ticks": 33120,
          "time": 31.363605000000003,
          "velocity": 0.7559055118110236
        },
        {
          "duration": 0.10700746874999822,
          "durationTicks": 113,
          "midi": 55,
          "name": "G3",
          "ticks": 33120,
          "time": 31.363605000000003,
          "velocity": 0.7559055118110236
        },
        {
          "duration": 0.10700746875000178,
          "durationTicks": 113,
          "midi": 43,
          "name": "G2",
          "ticks": 33360,
          "time": 31.5908775,
          "velocity": 0.7559055118110236
        },
        {
          "duration": 0.10700746875000178,
          "durationTicks": 113,
          "midi": 50,
          "name": "D3",
          "ticks": 33360,
          "time": 31.5908775,
          "velocity": 0.7559055118110236
        },
        {
          "duration": 0.10700746875000178,
          "durationTicks": 113,
          "midi": 55,
          "name": "G3",
          "ticks": 33360,
          "time": 31.5908775,
          "velocity": 0.7559055118110236
        },
        {
          "duration": 0.10700746874999822,
          "durationTicks": 113,
          "midi": 43,
          "name": "G2",
          "ticks": 33480,
          "time": 31.704513750000004,
          "velocity": 0.7559055118110236
        },
        {
          "duration": 0.10700746874999822,
          "durationTicks": 113,
          "midi": 50,
          "name": "D3",
          "ticks": 33480,
          "time": 31.704513750000004,
          "velocity": 0.7559055118110236
        },
        {
          "duration": 0.10700746874999822,
          "durationTicks": 113,
          "midi": 55,
          "name": "G3",
          "ticks": 33480,
          "time": 31.704513750000004,
          "velocity": 0.7559055118110236
        },
        {
          "duration": 0.10700746874999822,
          "durationTicks": 113,
          "midi": 43,
          "name": "G2",
          "ticks": 33720,
          "time": 31.931786250000002,
          "velocity": 0.7559055118110236
        },
        {
          "duration": 0.10700746874999822,
          "durationTicks": 113,
          "midi": 50,
          "name": "D3",
          "ticks": 33720,
          "time": 31.931786250000002,
          "velocity": 0.7559055118110236
        },
        {
          "duration": 0.10700746874999822,
          "durationTicks": 113,
          "midi": 55,
          "name": "G3",
          "ticks": 33720,
          "time": 31.931786250000002,
          "velocity": 0.7559055118110236
        },
        {
          "duration": 0.10700746875000533,
          "durationTicks": 113,
          "midi": 43,
          "name": "G2",
          "ticks": 33960,
          "time": 32.15905875,
          "velocity": 0.7559055118110236
        },
        {
          "duration": 0.10700746875000533,
          "durationTicks": 113,
          "midi": 50,
          "name": "D3",
          "ticks": 33960,
          "time": 32.15905875,
          "velocity": 0.7559055118110236
        },
        {
          "duration": 0.10700746875000533,
          "durationTicks": 113,
          "midi": 55,
          "name": "G3",
          "ticks": 33960,
          "time": 32.15905875,
          "velocity": 0.7559055118110236
        },
        {
          "duration": 0.10700746875000533,
          "durationTicks": 113,
          "midi": 43,
          "name": "G2",
          "ticks": 34080,
          "time": 32.272695,
          "velocity": 0.7559055118110236
        },
        {
          "duration": 0.10700746875000533,
          "durationTicks": 113,
          "midi": 50,
          "name": "D3",
          "ticks": 34080,
          "time": 32.272695,
          "velocity": 0.7559055118110236
        },
        {
          "duration": 0.10700746875000533,
          "durationTicks": 113,
          "midi": 55,
          "name": "G3",
          "ticks": 34080,
          "time": 32.272695,
          "velocity": 0.7559055118110236
        },
        {
          "duration": 0.10700746874999822,
          "durationTicks": 113,
          "midi": 43,
          "name": "G2",
          "ticks": 34440,
          "time": 32.61360375,
          "velocity": 0.7559055118110236
        },
        {
          "duration": 0.10700746874999822,
          "durationTicks": 113,
          "midi": 50,
          "name": "D3",
          "ticks": 34440,
          "time": 32.61360375,
          "velocity": 0.7559055118110236
        },
        {
          "duration": 0.10700746874999822,
          "durationTicks": 113,
          "midi": 55,
          "name": "G3",
          "ticks": 34440,
          "time": 32.61360375,
          "velocity": 0.7559055118110236
        },
        {
          "duration": 0.21496190624999656,
          "durationTicks": 227,
          "midi": 43,
          "name": "G2",
          "ticks": 34560,
          "time": 32.72724,
          "velocity": 0.7559055118110236
        },
        {
          "duration": 0.21496190624999656,
          "durationTicks": 227,
          "midi": 50,
          "name": "D3",
          "ticks": 34560,
          "time": 32.72724,
          "velocity": 0.7559055118110236
        },
        {
          "duration": 0.21496190624999656,
          "durationTicks": 227,
          "midi": 55,
          "name": "G3",
          "ticks": 34560,
          "time": 32.72724,
          "velocity": 0.7559055118110236
        },
        {
          "duration": 0.8626885312500008,
          "durationTicks": 911,
          "midi": 31,
          "name": "G1",
          "ticks": 34800,
          "time": 32.9545125,
          "velocity": 0.8818897637795275
        },
        {
          "duration": 0.6818175000000011,
          "durationTicks": 720,
          "midi": 43,
          "name": "G2",
          "ticks": 34800,
          "time": 32.9545125,
          "velocity": 0.8818897637795275
        },
        {
          "duration": 0.10700746874999822,
          "durationTicks": 113,
          "midi": 55,
          "name": "G3",
          "ticks": 35040,
          "time": 33.181785000000005,
          "velocity": 0.8818897637795275
        },
        {
          "duration": 0.3229163437499949,
          "durationTicks": 341,
          "midi": 58,
          "name": "A#3",
          "ticks": 35160,
          "time": 33.295421250000004,
          "velocity": 0.8818897637795275
        },
        {
          "duration": 0.3229163437499949,
          "durationTicks": 341,
          "midi": 62,
          "name": "D4",
          "ticks": 35160,
          "time": 33.295421250000004,
          "velocity": 0.8818897637795275
        },
        {
          "duration": 0.3229163437499949,
          "durationTicks": 341,
          "midi": 67,
          "name": "G4",
          "ticks": 35160,
          "time": 33.295421250000004,
          "velocity": 0.8818897637795275
        },
        {
          "duration": 0.1808710312499997,
          "durationTicks": 191,
          "midi": 43,
          "name": "G2",
          "ticks": 35520,
          "time": 33.63633,
          "velocity": 0.8818897637795275
        },
        {
          "duration": 0.10700746875000533,
          "durationTicks": 113,
          "midi": 50,
          "name": "D3",
          "ticks": 35640,
          "time": 33.74996625,
          "velocity": 0.8818897637795275
        },
        {
          "duration": 0.10700746875000533,
          "durationTicks": 113,
          "midi": 55,
          "name": "G3",
          "ticks": 35640,
          "time": 33.74996625,
          "velocity": 0.8818897637795275
        },
        {
          "duration": 0.10700746875000533,
          "durationTicks": 113,
          "midi": 41,
          "name": "F2",
          "ticks": 35760,
          "time": 33.8636025,
          "velocity": 0.8818897637795275
        },
        {
          "duration": 0.10700746875000533,
          "durationTicks": 113,
          "midi": 53,
          "name": "F3",
          "ticks": 35760,
          "time": 33.8636025,
          "velocity": 0.8818897637795275
        },
        {
          "duration": 0.5388252187499987,
          "durationTicks": 569,
          "midi": 41,
          "name": "F2",
          "ticks": 35880,
          "time": 33.977238750000005,
          "velocity": 0.8818897637795275
        },
        {
          "duration": 0.227272499999998,
          "durationTicks": 240,
          "midi": 53,
          "name": "F3",
          "ticks": 35880,
          "time": 33.977238750000005,
          "velocity": 0.8818897637795275
        },
        {
          "duration": 0.227272499999998,
          "durationTicks": 240,
          "midi": 53,
          "name": "F3",
          "ticks": 36120,
          "time": 34.20451125,
          "velocity": 0.8818897637795275
        },
        {
          "duration": 0.10700746874999822,
          "durationTicks": 113,
          "midi": 60,
          "name": "C4",
          "ticks": 36120,
          "time": 34.20451125,
          "velocity": 0.8818897637795275
        },
        {
          "duration": 0.10700746874999822,
          "durationTicks": 113,
          "midi": 53,
          "name": "F3",
          "ticks": 36360,
          "time": 34.43178375,
          "velocity": 0.8818897637795275
        },
        {
          "duration": 0.10700746874999822,
          "durationTicks": 113,
          "midi": 60,
          "name": "C4",
          "ticks": 36360,
          "time": 34.43178375,
          "velocity": 0.8818897637795275
        },
        {
          "duration": 0.21496190625000366,
          "durationTicks": 227,
          "midi": 41,
          "name": "F2",
          "ticks": 36480,
          "time": 34.54542,
          "velocity": 0.8818897637795275
        },
        {
          "duration": 0.21496190625000366,
          "durationTicks": 227,
          "midi": 53,
          "name": "F3",
          "ticks": 36480,
          "time": 34.54542,
          "velocity": 0.8818897637795275
        },
        {
          "duration": 0.681817499999994,
          "durationTicks": 720,
          "midi": 39,
          "name": "D#2",
          "ticks": 36720,
          "time": 34.772692500000005,
          "velocity": 0.8818897637795275
        },
        {
          "duration": 0.7954537500000001,
          "durationTicks": 840,
          "midi": 51,
          "name": "D#3",
          "ticks": 36720,
          "time": 34.772692500000005,
          "velocity": 0.8818897637795275
        },
        {
          "duration": 0.10700746874999822,
          "durationTicks": 113,
          "midi": 55,
          "name": "G3",
          "ticks": 36960,
          "time": 34.999965,
          "velocity": 0.8818897637795275
        },
        {
          "duration": 0.3229163437499949,
          "durationTicks": 341,
          "midi": 58,
          "name": "A#3",
          "ticks": 37080,
          "time": 35.11360125,
          "velocity": 0.8818897637795275
        },
        {
          "duration": 0.3229163437499949,
          "durationTicks": 341,
          "midi": 63,
          "name": "D#4",
          "ticks": 37080,
          "time": 35.11360125,
          "velocity": 0.8818897637795275
        },
        {
          "duration": 0.3229163437499949,
          "durationTicks": 341,
          "midi": 67,
          "name": "G4",
          "ticks": 37080,
          "time": 35.11360125,
          "velocity": 0.8818897637795275
        },
        {
          "duration": 0.1808710312499997,
          "durationTicks": 191,
          "midi": 39,
          "name": "D#2",
          "ticks": 37440,
          "time": 35.45451,
          "velocity": 0.8818897637795275
        },
        {
          "duration": 0.10700746874999822,
          "durationTicks": 113,
          "midi": 46,
          "name": "A#2",
          "ticks": 37560,
          "time": 35.568146250000005,
          "velocity": 0.8818897637795275
        },
        {
          "duration": 0.10700746874999822,
          "durationTicks": 113,
          "midi": 51,
          "name": "D#3",
          "ticks": 37560,
          "time": 35.568146250000005,
          "velocity": 0.8818897637795275
        },
        {
          "duration": 0.10700746874999822,
          "durationTicks": 113,
          "midi": 38,
          "name": "D2",
          "ticks": 37680,
          "time": 35.681782500000004,
          "velocity": 0.8818897637795275
        },
        {
          "duration": 0.10700746874999822,
          "durationTicks": 113,
          "midi": 50,
          "name": "D3",
          "ticks": 37680,
          "time": 35.681782500000004,
          "velocity": 0.8818897637795275
        },
        {
          "duration": 0.646779656249997,
          "durationTicks": 683,
          "midi": 38,
          "name": "D2",
          "ticks": 37800,
          "time": 35.79541875,
          "velocity": 0.8818897637795275
        },
        {
          "duration": 0.646779656249997,
          "durationTicks": 683,
          "midi": 50,
          "name": "D3",
          "ticks": 37800,
          "time": 35.79541875,
          "velocity": 0.8818897637795275
        },
        {
          "duration": 0.10700746874999822,
          "durationTicks": 113,
          "midi": 57,
          "name": "A3",
          "ticks": 38040,
          "time": 36.02269125,
          "velocity": 0.8818897637795275
        },
        {
          "duration": 0.10700746874999822,
          "durationTicks": 113,
          "midi": 62,
          "name": "D4",
          "ticks": 38040,
          "time": 36.02269125,
          "velocity": 0.8818897637795275
        },
        {
          "duration": 0.10700746875000533,
          "durationTicks": 113,
          "midi": 57,
          "name": "A3",
          "ticks": 38280,
          "time": 36.24996375,
          "velocity": 0.8818897637795275
        },
        {
          "duration": 0.10700746875000533,
          "durationTicks": 113,
          "midi": 62,
          "name": "D4",
          "ticks": 38280,
          "time": 36.24996375,
          "velocity": 0.8818897637795275
        },
        {
          "duration": 0.10700746874999822,
          "durationTicks": 113,
          "midi": 38,
          "name": "D2",
          "ticks": 38520,
          "time": 36.477236250000004,
          "velocity": 0.8818897637795275
        },
        {
          "duration": 0.10700746874999822,
          "durationTicks": 113,
          "midi": 50,
          "name": "D3",
          "ticks": 38520,
          "time": 36.477236250000004,
          "velocity": 0.8818897637795275
        },
        {
          "duration": 0.8626885312499937,
          "durationTicks": 911,
          "midi": 31,
          "name": "G1",
          "ticks": 38640,
          "time": 36.5908725,
          "velocity": 0.8818897637795275
        },
        {
          "duration": 0.6818175000000011,
          "durationTicks": 720,
          "midi": 43,
          "name": "G2",
          "ticks": 38640,
          "time": 36.5908725,
          "velocity": 0.8818897637795275
        },
        {
          "duration": 0.10700746874999822,
          "durationTicks": 113,
          "midi": 55,
          "name": "G3",
          "ticks": 38880,
          "time": 36.818145,
          "velocity": 0.8818897637795275
        },
        {
          "duration": 0.322916343750002,
          "durationTicks": 341,
          "midi": 58,
          "name": "A#3",
          "ticks": 39000,
          "time": 36.93178125,
          "velocity": 0.8818897637795275
        },
        {
          "duration": 0.322916343750002,
          "durationTicks": 341,
          "midi": 62,
          "name": "D4",
          "ticks": 39000,
          "time": 36.93178125,
          "velocity": 0.8818897637795275
        },
        {
          "duration": 0.322916343750002,
          "durationTicks": 341,
          "midi": 67,
          "name": "G4",
          "ticks": 39000,
          "time": 36.93178125,
          "velocity": 0.8818897637795275
        },
        {
          "duration": 0.1808710312499926,
          "durationTicks": 191,
          "midi": 43,
          "name": "G2",
          "ticks": 39360,
          "time": 37.272690000000004,
          "velocity": 0.8818897637795275
        },
        {
          "duration": 0.10700746874999822,
          "durationTicks": 113,
          "midi": 50,
          "name": "D3",
          "ticks": 39480,
          "time": 37.38632625,
          "velocity": 0.8818897637795275
        },
        {
          "duration": 0.10700746874999822,
          "durationTicks": 113,
          "midi": 55,
          "name": "G3",
          "ticks": 39480,
          "time": 37.38632625,
          "velocity": 0.8818897637795275
        },
        {
          "duration": 0.10700746874999822,
          "durationTicks": 113,
          "midi": 41,
          "name": "F2",
          "ticks": 39600,
          "time": 37.4999625,
          "velocity": 0.8818897637795275
        },
        {
          "duration": 0.10700746874999822,
          "durationTicks": 113,
          "midi": 53,
          "name": "F3",
          "ticks": 39600,
          "time": 37.4999625,
          "velocity": 0.8818897637795275
        },
        {
          "duration": 0.5388252187500058,
          "durationTicks": 569,
          "midi": 41,
          "name": "F2",
          "ticks": 39720,
          "time": 37.61359875,
          "velocity": 0.8818897637795275
        },
        {
          "duration": 0.227272499999998,
          "durationTicks": 240,
          "midi": 53,
          "name": "F3",
          "ticks": 39720,
          "time": 37.61359875,
          "velocity": 0.8818897637795275
        },
        {
          "duration": 0.2272725000000051,
          "durationTicks": 240,
          "midi": 53,
          "name": "F3",
          "ticks": 39960,
          "time": 37.84087125,
          "velocity": 0.8818897637795275
        },
        {
          "duration": 0.10700746875000533,
          "durationTicks": 113,
          "midi": 60,
          "name": "C4",
          "ticks": 39960,
          "time": 37.84087125,
          "velocity": 0.8818897637795275
        },
        {
          "duration": 0.10700746874999822,
          "durationTicks": 113,
          "midi": 53,
          "name": "F3",
          "ticks": 40200,
          "time": 38.068143750000004,
          "velocity": 0.8818897637795275
        },
        {
          "duration": 0.10700746874999822,
          "durationTicks": 113,
          "midi": 60,
          "name": "C4",
          "ticks": 40200,
          "time": 38.068143750000004,
          "velocity": 0.8818897637795275
        },
        {
          "duration": 0.21496190624999656,
          "durationTicks": 227,
          "midi": 41,
          "name": "F2",
          "ticks": 40320,
          "time": 38.18178,
          "velocity": 0.8818897637795275
        },
        {
          "duration": 0.21496190624999656,
          "durationTicks": 227,
          "midi": 53,
          "name": "F3",
          "ticks": 40320,
          "time": 38.18178,
          "velocity": 0.8818897637795275
        },
        {
          "duration": 0.6818175000000011,
          "durationTicks": 720,
          "midi": 39,
          "name": "D#2",
          "ticks": 40560,
          "time": 38.4090525,
          "velocity": 0.8818897637795275
        },
        {
          "duration": 0.7954537500000001,
          "durationTicks": 840,
          "midi": 51,
          "name": "D#3",
          "ticks": 40560,
          "time": 38.4090525,
          "velocity": 0.8818897637795275
        },
        {
          "duration": 0.10700746875000533,
          "durationTicks": 113,
          "midi": 55,
          "name": "G3",
          "ticks": 40800,
          "time": 38.636325,
          "velocity": 0.8818897637795275
        },
        {
          "duration": 0.3229163437499949,
          "durationTicks": 341,
          "midi": 58,
          "name": "A#3",
          "ticks": 40920,
          "time": 38.749961250000005,
          "velocity": 0.8818897637795275
        },
        {
          "duration": 0.3229163437499949,
          "durationTicks": 341,
          "midi": 63,
          "name": "D#4",
          "ticks": 40920,
          "time": 38.749961250000005,
          "velocity": 0.8818897637795275
        },
        {
          "duration": 0.3229163437499949,
          "durationTicks": 341,
          "midi": 67,
          "name": "G4",
          "ticks": 40920,
          "time": 38.749961250000005,
          "velocity": 0.8818897637795275
        },
        {
          "duration": 0.1808710312499997,
          "durationTicks": 191,
          "midi": 39,
          "name": "D#2",
          "ticks": 41280,
          "time": 39.09087,
          "velocity": 0.8818897637795275
        },
        {
          "duration": 0.10700746874999822,
          "durationTicks": 113,
          "midi": 46,
          "name": "A#2",
          "ticks": 41400,
          "time": 39.20450625,
          "velocity": 0.8818897637795275
        },
        {
          "duration": 0.10700746874999822,
          "durationTicks": 113,
          "midi": 51,
          "name": "D#3",
          "ticks": 41400,
          "time": 39.20450625,
          "velocity": 0.8818897637795275
        },
        {
          "duration": 0.10700746875000533,
          "durationTicks": 113,
          "midi": 38,
          "name": "D2",
          "ticks": 41520,
          "time": 39.3181425,
          "velocity": 0.8818897637795275
        },
        {
          "duration": 0.10700746875000533,
          "durationTicks": 113,
          "midi": 50,
          "name": "D3",
          "ticks": 41520,
          "time": 39.3181425,
          "velocity": 0.8818897637795275
        },
        {
          "duration": 0.6467796562500041,
          "durationTicks": 683,
          "midi": 38,
          "name": "D2",
          "ticks": 41640,
          "time": 39.43177875,
          "velocity": 0.8818897637795275
        },
        {
          "duration": 0.6467796562500041,
          "durationTicks": 683,
          "midi": 50,
          "name": "D3",
          "ticks": 41640,
          "time": 39.43177875,
          "velocity": 0.8818897637795275
        },
        {
          "duration": 0.10700746874999822,
          "durationTicks": 113,
          "midi": 57,
          "name": "A3",
          "ticks": 41880,
          "time": 39.659051250000005,
          "velocity": 0.8818897637795275
        },
        {
          "duration": 0.10700746874999822,
          "durationTicks": 113,
          "midi": 62,
          "name": "D4",
          "ticks": 41880,
          "time": 39.659051250000005,
          "velocity": 0.8818897637795275
        },
        {
          "duration": 0.10700746874999822,
          "durationTicks": 113,
          "midi": 57,
          "name": "A3",
          "ticks": 42120,
          "time": 39.88632375,
          "velocity": 0.8818897637795275
        },
        {
          "duration": 0.10700746874999822,
          "durationTicks": 113,
          "midi": 62,
          "name": "D4",
          "ticks": 42120,
          "time": 39.88632375,
          "velocity": 0.8818897637795275
        },
        {
          "duration": 0.10700746875000533,
          "durationTicks": 113,
          "midi": 38,
          "name": "D2",
          "ticks": 42360,
          "time": 40.11359625,
          "velocity": 0.8818897637795275
        },
        {
          "duration": 0.10700746875000533,
          "durationTicks": 113,
          "midi": 50,
          "name": "D3",
          "ticks": 42360,
          "time": 40.11359625,
          "velocity": 0.8818897637795275
        },
        {
          "duration": 0.10700746875000533,
          "durationTicks": 113,
          "midi": 43,
          "name": "G2",
          "ticks": 42480,
          "time": 40.2272325,
          "velocity": 0.8818897637795275
        },
        {
          "duration": 0.10700746875000533,
          "durationTicks": 113,
          "midi": 55,
          "name": "G3",
          "ticks": 42480,
          "time": 40.2272325,
          "velocity": 0.8818897637795275
        },
        {
          "duration": 0.10700746875000533,
          "durationTicks": 113,
          "midi": 62,
          "name": "D4",
          "ticks": 42480,
          "time": 40.2272325,
          "velocity": 0.8818897637795275
        },
        {
          "duration": 0.10700746874999822,
          "durationTicks": 113,
          "midi": 55,
          "name": "G3",
          "ticks": 42600,
          "time": 40.340868750000006,
          "velocity": 0.8503937007874016
        },
        {
          "duration": 0.10700746874999822,
          "durationTicks": 113,
          "midi": 62,
          "name": "D4",
          "ticks": 42600,
          "time": 40.340868750000006,
          "velocity": 0.8503937007874016
        },
        {
          "duration": 0.10700746874999822,
          "durationTicks": 113,
          "midi": 55,
          "name": "G3",
          "ticks": 42840,
          "time": 40.568141250000004,
          "velocity": 0.7795275590551181
        },
        {
          "duration": 0.10700746874999822,
          "durationTicks": 113,
          "midi": 62,
          "name": "D4",
          "ticks": 42840,
          "time": 40.568141250000004,
          "velocity": 0.7795275590551181
        },
        {
          "duration": 0.10700746874999822,
          "durationTicks": 113,
          "midi": 55,
          "name": "G3",
          "ticks": 42960,
          "time": 40.6817775,
          "velocity": 0.7401574803149606
        },
        {
          "duration": 0.10700746874999822,
          "durationTicks": 113,
          "midi": 62,
          "name": "D4",
          "ticks": 42960,
          "time": 40.6817775,
          "velocity": 0.7401574803149606
        },
        {
          "duration": 0.10700746875000533,
          "durationTicks": 113,
          "midi": 55,
          "name": "G3",
          "ticks": 43200,
          "time": 40.90905,
          "velocity": 0.6692913385826772
        },
        {
          "duration": 0.10700746875000533,
          "durationTicks": 113,
          "midi": 62,
          "name": "D4",
          "ticks": 43200,
          "time": 40.90905,
          "velocity": 0.6692913385826772
        },
        {
          "duration": 0.10700746874999822,
          "durationTicks": 113,
          "midi": 55,
          "name": "G3",
          "ticks": 43440,
          "time": 41.136322500000006,
          "velocity": 0.5984251968503937
        },
        {
          "duration": 0.10700746874999822,
          "durationTicks": 113,
          "midi": 62,
          "name": "D4",
          "ticks": 43440,
          "time": 41.136322500000006,
          "velocity": 0.5984251968503937
        },
        {
          "duration": 0.10700746874999822,
          "durationTicks": 113,
          "midi": 55,
          "name": "G3",
          "ticks": 43560,
          "time": 41.249958750000005,
          "velocity": 0.5669291338582677
        },
        {
          "duration": 0.10700746874999822,
          "durationTicks": 113,
          "midi": 62,
          "name": "D4",
          "ticks": 43560,
          "time": 41.249958750000005,
          "velocity": 0.5669291338582677
        },
        {
          "duration": 0.10700746874999822,
          "durationTicks": 113,
          "midi": 55,
          "name": "G3",
          "ticks": 43800,
          "time": 41.47723125,
          "velocity": 0.49606299212598426
        },
        {
          "duration": 0.10700746874999822,
          "durationTicks": 113,
          "midi": 62,
          "name": "D4",
          "ticks": 43800,
          "time": 41.47723125,
          "velocity": 0.49606299212598426
        },
        {
          "duration": 0.10700746874999822,
          "durationTicks": 113,
          "midi": 55,
          "name": "G3",
          "ticks": 43920,
          "time": 41.5908675,
          "velocity": 0.4566929133858268
        },
        {
          "duration": 0.10700746874999822,
          "durationTicks": 113,
          "midi": 62,
          "name": "D4",
          "ticks": 43920,
          "time": 41.5908675,
          "velocity": 0.4566929133858268
        },
        {
          "duration": 0.10700746875000533,
          "durationTicks": 113,
          "midi": 55,
          "name": "G3",
          "ticks": 44160,
          "time": 41.81814,
          "velocity": 0.3858267716535433
        },
        {
          "duration": 0.10700746875000533,
          "durationTicks": 113,
          "midi": 62,
          "name": "D4",
          "ticks": 44160,
          "time": 41.81814,
          "velocity": 0.3858267716535433
        },
        {
          "duration": 1.7263240312499946,
          "durationTicks": 1823,
          "midi": 55,
          "name": "G3",
          "ticks": 44400,
          "time": 42.045412500000005,
          "velocity": 0.3858267716535433
        },
        {
          "duration": 1.7263240312499946,
          "durationTicks": 1823,
          "midi": 62,
          "name": "D4",
          "ticks": 44400,
          "time": 42.045412500000005,
          "velocity": 0.3858267716535433
        },
        {
          "duration": 1.7263240312500017,
          "durationTicks": 1823,
          "midi": 51,
          "name": "D#3",
          "ticks": 46320,
          "time": 43.8635925,
          "velocity": 0.3858267716535433
        },
        {
          "duration": 1.7263240312500017,
          "durationTicks": 1823,
          "midi": 58,
          "name": "A#3",
          "ticks": 46320,
          "time": 43.8635925,
          "velocity": 0.3858267716535433
        },
        {
          "duration": 1.7263240312500017,
          "durationTicks": 1823,
          "midi": 53,
          "name": "F3",
          "ticks": 48240,
          "time": 45.6817725,
          "velocity": 0.3858267716535433
        },
        {
          "duration": 1.7263240312500017,
          "durationTicks": 1823,
          "midi": 60,
          "name": "C4",
          "ticks": 48240,
          "time": 45.6817725,
          "velocity": 0.3858267716535433
        },
        {
          "duration": 1.2945062812499941,
          "durationTicks": 1367,
          "midi": 58,
          "name": "A#3",
          "ticks": 50160,
          "time": 47.499952500000006,
          "velocity": 0.3858267716535433
        },
        {
          "duration": 0.646779656249997,
          "durationTicks": 683,
          "midi": 65,
          "name": "F4",
          "ticks": 50160,
          "time": 47.499952500000006,
          "velocity": 0.3858267716535433
        },
        {
          "duration": 1.0785974062500046,
          "durationTicks": 1139,
          "midi": 65,
          "name": "F4",
          "ticks": 50880,
          "time": 48.18177,
          "velocity": 0.3858267716535433
        },
        {
          "duration": 0.43087078125000744,
          "durationTicks": 455,
          "midi": 57,
          "name": "A3",
          "ticks": 51600,
          "time": 48.8635875,
          "velocity": 0.3858267716535433
        },
        {
          "duration": 1.7263240312500017,
          "durationTicks": 1823,
          "midi": 55,
          "name": "G3",
          "ticks": 52080,
          "time": 49.318132500000004,
          "velocity": 0.3858267716535433
        },
        {
          "duration": 1.7263240312500017,
          "durationTicks": 1823,
          "midi": 62,
          "name": "D4",
          "ticks": 52080,
          "time": 49.318132500000004,
          "velocity": 0.3858267716535433
        },
        {
          "duration": 1.7263240312500017,
          "durationTicks": 1823,
          "midi": 51,
          "name": "D#3",
          "ticks": 54000,
          "time": 51.1363125,
          "velocity": 0.3858267716535433
        },
        {
          "duration": 1.7263240312500017,
          "durationTicks": 1823,
          "midi": 58,
          "name": "A#3",
          "ticks": 54000,
          "time": 51.1363125,
          "velocity": 0.3858267716535433
        },
        {
          "duration": 1.7263240312500017,
          "durationTicks": 1823,
          "midi": 53,
          "name": "F3",
          "ticks": 55920,
          "time": 52.9544925,
          "velocity": 0.3858267716535433
        },
        {
          "duration": 1.7263240312500017,
          "durationTicks": 1823,
          "midi": 60,
          "name": "C4",
          "ticks": 55920,
          "time": 52.9544925,
          "velocity": 0.3858267716535433
        },
        {
          "duration": 1.2945062812499941,
          "durationTicks": 1367,
          "midi": 58,
          "name": "A#3",
          "ticks": 57840,
          "time": 54.772672500000006,
          "velocity": 0.3858267716535433
        },
        {
          "duration": 1.2945062812499941,
          "durationTicks": 1367,
          "midi": 65,
          "name": "F4",
          "ticks": 57840,
          "time": 54.772672500000006,
          "velocity": 0.3858267716535433
        },
        {
          "duration": 0.43087078125000744,
          "durationTicks": 455,
          "midi": 57,
          "name": "A3",
          "ticks": 59280,
          "time": 56.1363075,
          "velocity": 0.3858267716535433
        },
        {
          "duration": 0.43087078125000033,
          "durationTicks": 455,
          "midi": 43,
          "name": "G2",
          "ticks": 59760,
          "time": 56.590852500000004,
          "velocity": 0.5039370078740157
        },
        {
          "duration": 0.10700746874999822,
          "durationTicks": 113,
          "midi": 55,
          "name": "G3",
          "ticks": 59880,
          "time": 56.70448875,
          "velocity": 0.5039370078740157
        },
        {
          "duration": 0.10700746874999822,
          "durationTicks": 113,
          "midi": 53,
          "name": "F3",
          "ticks": 60000,
          "time": 56.818125,
          "velocity": 0.5039370078740157
        },
        {
          "duration": 0.10700746875000533,
          "durationTicks": 113,
          "midi": 55,
          "name": "G3",
          "ticks": 60120,
          "time": 56.93176125,
          "velocity": 0.5118110236220472
        },
        {
          "duration": 0.10700746874999822,
          "durationTicks": 113,
          "midi": 50,
          "name": "D3",
          "ticks": 60240,
          "time": 57.04539750000001,
          "velocity": 0.5118110236220472
        },
        {
          "duration": 0.10700746874999822,
          "durationTicks": 113,
          "midi": 53,
          "name": "F3",
          "ticks": 60360,
          "time": 57.159033750000006,
          "velocity": 0.5196850393700787
        },
        {
          "duration": 0.10700746874999822,
          "durationTicks": 113,
          "midi": 55,
          "name": "G3",
          "ticks": 60480,
          "time": 57.272670000000005,
          "velocity": 0.5196850393700787
        },
        {
          "duration": 0.10700746874999822,
          "durationTicks": 113,
          "midi": 57,
          "name": "A3",
          "ticks": 60600,
          "time": 57.386306250000004,
          "velocity": 0.5275590551181102
        },
        {
          "duration": 0.10700746874999822,
          "durationTicks": 113,
          "midi": 58,
          "name": "A#3",
          "ticks": 60720,
          "time": 57.4999425,
          "velocity": 0.5275590551181102
        },
        {
          "duration": 0.10700746874999822,
          "durationTicks": 113,
          "midi": 55,
          "name": "G3",
          "ticks": 60840,
          "time": 57.61357875,
          "velocity": 0.5354330708661418
        },
        {
          "duration": 0.10700746875000533,
          "durationTicks": 113,
          "midi": 53,
          "name": "F3",
          "ticks": 60960,
          "time": 57.727215,
          "velocity": 0.5354330708661418
        },
        {
          "duration": 0.10700746874999822,
          "durationTicks": 113,
          "midi": 55,
          "name": "G3",
          "ticks": 61080,
          "time": 57.84085125000001,
          "velocity": 0.5433070866141733
        },
        {
          "duration": 0.10700746874999822,
          "durationTicks": 113,
          "midi": 50,
          "name": "D3",
          "ticks": 61200,
          "time": 57.954487500000006,
          "velocity": 0.5433070866141733
        },
        {
          "duration": 0.10700746874999822,
          "durationTicks": 113,
          "midi": 55,
          "name": "G3",
          "ticks": 61320,
          "time": 58.068123750000005,
          "velocity": 0.5433070866141733
        },
        {
          "duration": 0.10700746875000533,
          "durationTicks": 113,
          "midi": 53,
          "name": "F3",
          "ticks": 61440,
          "time": 58.181760000000004,
          "velocity": 0.5511811023622047
        },
        {
          "duration": 0.10700746875000533,
          "durationTicks": 113,
          "midi": 55,
          "name": "G3",
          "ticks": 61560,
          "time": 58.29539625,
          "velocity": 0.5511811023622047
        },
        {
          "duration": 0.43087078125000033,
          "durationTicks": 455,
          "midi": 43,
          "name": "G2",
          "ticks": 61680,
          "time": 58.4090325,
          "velocity": 0.5590551181102362
        },
        {
          "duration": 0.10700746875001244,
          "durationTicks": 113,
          "midi": 55,
          "name": "G3",
          "ticks": 61800,
          "time": 58.52266875,
          "velocity": 0.5590551181102362
        },
        {
          "duration": 0.10700746875000533,
          "durationTicks": 113,
          "midi": 53,
          "name": "F3",
          "ticks": 61920,
          "time": 58.63630500000001,
          "velocity": 0.5669291338582677
        },
        {
          "duration": 0.10700746875000533,
          "durationTicks": 113,
          "midi": 55,
          "name": "G3",
          "ticks": 62040,
          "time": 58.749941250000006,
          "velocity": 0.5669291338582677
        },
        {
          "duration": 0.10700746875000533,
          "durationTicks": 113,
          "midi": 50,
          "name": "D3",
          "ticks": 62160,
          "time": 58.863577500000005,
          "velocity": 0.5748031496062992
        },
        {
          "duration": 0.10700746875000533,
          "durationTicks": 113,
          "midi": 53,
          "name": "F3",
          "ticks": 62280,
          "time": 58.977213750000004,
          "velocity": 0.5748031496062992
        },
        {
          "duration": 0.10700746875000533,
          "durationTicks": 113,
          "midi": 55,
          "name": "G3",
          "ticks": 62400,
          "time": 59.09085,
          "velocity": 0.5826771653543307
        },
        {
          "duration": 0.10700746875000533,
          "durationTicks": 113,
          "midi": 57,
          "name": "A3",
          "ticks": 62520,
          "time": 59.20448625,
          "velocity": 0.5826771653543307
        },
        {
          "duration": 0.10700746875001244,
          "durationTicks": 113,
          "midi": 58,
          "name": "A#3",
          "ticks": 62640,
          "time": 59.3181225,
          "velocity": 0.5826771653543307
        },
        {
          "duration": 0.10700746875000533,
          "durationTicks": 113,
          "midi": 55,
          "name": "G3",
          "ticks": 62760,
          "time": 59.43175875000001,
          "velocity": 0.5905511811023622
        },
        {
          "duration": 0.10700746875000533,
          "durationTicks": 113,
          "midi": 53,
          "name": "F3",
          "ticks": 62880,
          "time": 59.545395000000006,
          "velocity": 0.5905511811023622
        },
        {
          "duration": 0.10700746875000533,
          "durationTicks": 113,
          "midi": 55,
          "name": "G3",
          "ticks": 63000,
          "time": 59.659031250000005,
          "velocity": 0.5984251968503937
        },
        {
          "duration": 0.10700746875000533,
          "durationTicks": 113,
          "midi": 50,
          "name": "D3",
          "ticks": 63120,
          "time": 59.772667500000004,
          "velocity": 0.5984251968503937
        },
        {
          "duration": 0.10700746875000533,
          "durationTicks": 113,
          "midi": 55,
          "name": "G3",
          "ticks": 63240,
          "time": 59.88630375,
          "velocity": 0.6062992125984252
        },
        {
          "duration": 0.10700746875000533,
          "durationTicks": 113,
          "midi": 53,
          "name": "F3",
          "ticks": 63360,
          "time": 59.99994,
          "velocity": 0.6062992125984252
        },
        {
          "duration": 0.10700746875001244,
          "durationTicks": 113,
          "midi": 55,
          "name": "G3",
          "ticks": 63480,
          "time": 60.11357625,
          "velocity": 0.6141732283464567
        },
        {
          "duration": 0.43087078124999323,
          "durationTicks": 455,
          "midi": 43,
          "name": "G2",
          "ticks": 63600,
          "time": 60.22721250000001,
          "velocity": 0.6141732283464567
        },
        {
          "duration": 0.10700746875000533,
          "durationTicks": 113,
          "midi": 55,
          "name": "G3",
          "ticks": 63720,
          "time": 60.340848750000006,
          "velocity": 0.6220472440944882
        },
        {
          "duration": 0.10700746875000533,
          "durationTicks": 113,
          "midi": 53,
          "name": "F3",
          "ticks": 63840,
          "time": 60.454485000000005,
          "velocity": 0.6220472440944882
        },
        {
          "duration": 0.10700746875000533,
          "durationTicks": 113,
          "midi": 55,
          "name": "G3",
          "ticks": 63960,
          "time": 60.568121250000004,
          "velocity": 0.6299212598425197
        },
        {
          "duration": 0.10700746875000533,
          "durationTicks": 113,
          "midi": 50,
          "name": "D3",
          "ticks": 64080,
          "time": 60.6817575,
          "velocity": 0.6299212598425197
        },
        {
          "duration": 0.10700746875000533,
          "durationTicks": 113,
          "midi": 53,
          "name": "F3",
          "ticks": 64200,
          "time": 60.79539375,
          "velocity": 0.6299212598425197
        },
        {
          "duration": 0.10700746875001244,
          "durationTicks": 113,
          "midi": 55,
          "name": "G3",
          "ticks": 64320,
          "time": 60.90903,
          "velocity": 0.6299212598425197
        },
        {
          "duration": 0.10700746875000533,
          "durationTicks": 113,
          "midi": 57,
          "name": "A3",
          "ticks": 64440,
          "time": 61.02266625000001,
          "velocity": 0.6377952755905512
        },
        {
          "duration": 0.21496190624999656,
          "durationTicks": 227,
          "midi": 58,
          "name": "A#3",
          "ticks": 64560,
          "time": 61.136302500000006,
          "velocity": 0.6535433070866141
        },
        {
          "duration": 0.10700746875000533,
          "durationTicks": 113,
          "midi": 43,
          "name": "G2",
          "ticks": 64920,
          "time": 61.47721125,
          "velocity": 0.6929133858267716
        },
        {
          "duration": 0.10700746875000533,
          "durationTicks": 113,
          "midi": 55,
          "name": "G3",
          "ticks": 64920,
          "time": 61.47721125,
          "velocity": 0.6929133858267716
        },
        {
          "duration": 0.6467796562500041,
          "durationTicks": 683,
          "midi": 43,
          "name": "G2",
          "ticks": 65280,
          "time": 61.81812000000001,
          "velocity": 0.7244094488188977
        },
        {
          "duration": 0.6467796562500041,
          "durationTicks": 683,
          "midi": 55,
          "name": "G3",
          "ticks": 65280,
          "time": 61.81812000000001,
          "velocity": 0.7244094488188977
        },
        {
          "duration": 0.6581432812499912,
          "durationTicks": 695,
          "midi": 55,
          "name": "G3",
          "ticks": 66240,
          "time": 62.72721000000001,
          "velocity": 0.7559055118110236
        },
        {
          "duration": 0.5823857812499966,
          "durationTicks": 615,
          "midi": 62,
          "name": "D4",
          "ticks": 66320,
          "time": 62.8029675,
          "velocity": 0.7559055118110236
        },
        {
          "duration": 0.5066282812499878,
          "durationTicks": 535,
          "midi": 65,
          "name": "F4",
          "ticks": 66400,
          "time": 62.87872500000001,
          "velocity": 0.7559055118110236
        },
        {
          "duration": 0.43087078124999323,
          "durationTicks": 455,
          "midi": 70,
          "name": "A#4",
          "ticks": 66480,
          "time": 62.954482500000005,
          "velocity": 0.7559055118110236
        },
        {
          "duration": 0.43087078124999323,
          "durationTicks": 455,
          "midi": 41,
          "name": "F2",
          "ticks": 66960,
          "time": 63.40902750000001,
          "velocity": 0.7559055118110236
        },
        {
          "duration": 0.43087078124999323,
          "durationTicks": 455,
          "midi": 53,
          "name": "F3",
          "ticks": 66960,
          "time": 63.40902750000001,
          "velocity": 0.7559055118110236
        },
        {
          "duration": 1.5909075000000001,
          "durationTicks": 1680,
          "midi": 27,
          "name": "D#1",
          "ticks": 67440,
          "time": 63.863572500000004,
          "velocity": 0.7559055118110236
        },
        {
          "duration": 0.227272499999998,
          "durationTicks": 240,
          "midi": 39,
          "name": "D#2",
          "ticks": 67440,
          "time": 63.863572500000004,
          "velocity": 0.7559055118110236
        },
        {
          "duration": 0.340908749999997,
          "durationTicks": 360,
          "midi": 39,
          "name": "D#2",
          "ticks": 67680,
          "time": 64.090845,
          "velocity": 0.7559055118110236
        },
        {
          "duration": 0.21496190624999656,
          "durationTicks": 227,
          "midi": 46,
          "name": "A#2",
          "ticks": 67800,
          "time": 64.20448125,
          "velocity": 0.7559055118110236
        },
        {
          "duration": 0.21496190624999656,
          "durationTicks": 227,
          "midi": 51,
          "name": "D#3",
          "ticks": 67800,
          "time": 64.20448125,
          "velocity": 0.7559055118110236
        },
        {
          "duration": 0.9090900000000062,
          "durationTicks": 960,
          "midi": 39,
          "name": "D#2",
          "ticks": 68040,
          "time": 64.43175375,
          "velocity": 0.7559055118110236
        },
        {
          "duration": 0.21496190625001077,
          "durationTicks": 227,
          "midi": 46,
          "name": "A#2",
          "ticks": 68160,
          "time": 64.54539,
          "velocity": 0.7559055118110236
        },
        {
          "duration": 0.21496190625001077,
          "durationTicks": 227,
          "midi": 51,
          "name": "D#3",
          "ticks": 68160,
          "time": 64.54539,
          "velocity": 0.7559055118110236
        },
        {
          "duration": 0.11268928124999888,
          "durationTicks": 119,
          "midi": 63,
          "name": "D#4",
          "ticks": 68400,
          "time": 64.77266250000001,
          "velocity": 0.7559055118110236
        },
        {
          "duration": 0.11268928124999888,
          "durationTicks": 119,
          "midi": 58,
          "name": "A#3",
          "ticks": 68520,
          "time": 64.88629875000001,
          "velocity": 0.7559055118110236
        },
        {
          "duration": 0.11268928124999888,
          "durationTicks": 119,
          "midi": 55,
          "name": "G3",
          "ticks": 68640,
          "time": 64.99993500000001,
          "velocity": 0.7559055118110236
        },
        {
          "duration": 0.11268928124999888,
          "durationTicks": 119,
          "midi": 51,
          "name": "D#3",
          "ticks": 68760,
          "time": 65.11357125,
          "velocity": 0.7559055118110236
        },
        {
          "duration": 0.11268928124999888,
          "durationTicks": 119,
          "midi": 46,
          "name": "A#2",
          "ticks": 68880,
          "time": 65.2272075,
          "velocity": 0.7559055118110236
        },
        {
          "duration": 0.24905278125000052,
          "durationTicks": 263,
          "midi": 39,
          "name": "D#2",
          "ticks": 69000,
          "time": 65.34084375,
          "velocity": 0.7559055118110236
        },
        {
          "duration": 0.21496190624999656,
          "durationTicks": 227,
          "midi": 27,
          "name": "D#1",
          "ticks": 69120,
          "time": 65.45448,
          "velocity": 0.7559055118110236
        },
        {
          "duration": 1.5909075000000001,
          "durationTicks": 1680,
          "midi": 29,
          "name": "F1",
          "ticks": 69360,
          "time": 65.6817525,
          "velocity": 0.7559055118110236
        },
        {
          "duration": 0.227272499999998,
          "durationTicks": 240,
          "midi": 41,
          "name": "F2",
          "ticks": 69360,
          "time": 65.6817525,
          "velocity": 0.7559055118110236
        },
        {
          "duration": 0.3409087500000112,
          "durationTicks": 360,
          "midi": 41,
          "name": "F2",
          "ticks": 69600,
          "time": 65.909025,
          "velocity": 0.7559055118110236
        },
        {
          "duration": 0.21496190625001077,
          "durationTicks": 227,
          "midi": 48,
          "name": "C3",
          "ticks": 69720,
          "time": 66.02266125,
          "velocity": 0.7559055118110236
        },
        {
          "duration": 0.21496190625001077,
          "durationTicks": 227,
          "midi": 53,
          "name": "F3",
          "ticks": 69720,
          "time": 66.02266125,
          "velocity": 0.7559055118110236
        },
        {
          "duration": 0.909089999999992,
          "durationTicks": 960,
          "midi": 41,
          "name": "F2",
          "ticks": 69960,
          "time": 66.24993375000001,
          "velocity": 0.7559055118110236
        },
        {
          "duration": 0.21496190624999656,
          "durationTicks": 227,
          "midi": 48,
          "name": "C3",
          "ticks": 70080,
          "time": 66.36357000000001,
          "velocity": 0.7559055118110236
        },
        {
          "duration": 0.21496190624999656,
          "durationTicks": 227,
          "midi": 53,
          "name": "F3",
          "ticks": 70080,
          "time": 66.36357000000001,
          "velocity": 0.7559055118110236
        },
        {
          "duration": 0.11268928124999888,
          "durationTicks": 119,
          "midi": 65,
          "name": "F4",
          "ticks": 70320,
          "time": 66.59084250000001,
          "velocity": 0.7559055118110236
        },
        {
          "duration": 0.11268928124999888,
          "durationTicks": 119,
          "midi": 60,
          "name": "C4",
          "ticks": 70440,
          "time": 66.70447875,
          "velocity": 0.7559055118110236
        },
        {
          "duration": 0.11268928124999888,
          "durationTicks": 119,
          "midi": 57,
          "name": "A3",
          "ticks": 70560,
          "time": 66.818115,
          "velocity": 0.7559055118110236
        },
        {
          "duration": 0.11268928124999888,
          "durationTicks": 119,
          "midi": 53,
          "name": "F3",
          "ticks": 70680,
          "time": 66.93175125,
          "velocity": 0.7559055118110236
        },
        {
          "duration": 0.11268928124999888,
          "durationTicks": 119,
          "midi": 48,
          "name": "C3",
          "ticks": 70800,
          "time": 67.0453875,
          "velocity": 0.7559055118110236
        },
        {
          "duration": 0.24905278125001473,
          "durationTicks": 263,
          "midi": 41,
          "name": "F2",
          "ticks": 70920,
          "time": 67.15902375,
          "velocity": 0.7559055118110236
        },
        {
          "duration": 0.21496190624999656,
          "durationTicks": 227,
          "midi": 29,
          "name": "F1",
          "ticks": 71040,
          "time": 67.27266,
          "velocity": 0.7559055118110236
        },
        {
          "duration": 1.5909075000000001,
          "durationTicks": 1680,
          "midi": 31,
          "name": "G1",
          "ticks": 71280,
          "time": 67.4999325,
          "velocity": 0.7559055118110236
        },
        {
          "duration": 0.227272499999998,
          "durationTicks": 240,
          "midi": 43,
          "name": "G2",
          "ticks": 71280,
          "time": 67.4999325,
          "velocity": 0.7559055118110236
        },
        {
          "duration": 0.3409087500000112,
          "durationTicks": 360,
          "midi": 43,
          "name": "G2",
          "ticks": 71520,
          "time": 67.727205,
          "velocity": 0.7559055118110236
        },
        {
          "duration": 0.21496190624999656,
          "durationTicks": 227,
          "midi": 50,
          "name": "D3",
          "ticks": 71640,
          "time": 67.84084125000001,
          "velocity": 0.7559055118110236
        },
        {
          "duration": 0.21496190624999656,
          "durationTicks": 227,
          "midi": 55,
          "name": "G3",
          "ticks": 71640,
          "time": 67.84084125000001,
          "velocity": 0.7559055118110236
        },
        {
          "duration": 0.909089999999992,
          "durationTicks": 960,
          "midi": 43,
          "name": "G2",
          "ticks": 71880,
          "time": 68.06811375000001,
          "velocity": 0.7559055118110236
        },
        {
          "duration": 0.21496190624999656,
          "durationTicks": 227,
          "midi": 50,
          "name": "D3",
          "ticks": 72000,
          "time": 68.18175000000001,
          "velocity": 0.7559055118110236
        },
        {
          "duration": 0.21496190624999656,
          "durationTicks": 227,
          "midi": 55,
          "name": "G3",
          "ticks": 72000,
          "time": 68.18175000000001,
          "velocity": 0.7559055118110236
        },
        {
          "duration": 0.11268928124999888,
          "durationTicks": 119,
          "midi": 67,
          "name": "G4",
          "ticks": 72240,
          "time": 68.4090225,
          "velocity": 0.7559055118110236
        },
        {
          "duration": 0.11268928124999888,
          "durationTicks": 119,
          "midi": 62,
          "name": "D4",
          "ticks": 72360,
          "time": 68.52265875,
          "velocity": 0.7559055118110236
        },
        {
          "duration": 0.11268928124999888,
          "durationTicks": 119,
          "midi": 58,
          "name": "A#3",
          "ticks": 72480,
          "time": 68.636295,
          "velocity": 0.7559055118110236
        },
        {
          "duration": 0.11268928124999888,
          "durationTicks": 119,
          "midi": 55,
          "name": "G3",
          "ticks": 72600,
          "time": 68.74993125,
          "velocity": 0.7559055118110236
        },
        {
          "duration": 0.11268928124999888,
          "durationTicks": 119,
          "midi": 53,
          "name": "F3",
          "ticks": 72720,
          "time": 68.8635675,
          "velocity": 0.7559055118110236
        },
        {
          "duration": 0.24905278125001473,
          "durationTicks": 263,
          "midi": 43,
          "name": "G2",
          "ticks": 72840,
          "time": 68.97720375,
          "velocity": 0.7559055118110236
        },
        {
          "duration": 0.21496190624999656,
          "durationTicks": 227,
          "midi": 31,
          "name": "G1",
          "ticks": 72960,
          "time": 69.09084,
          "velocity": 0.7559055118110236
        },
        {
          "duration": 1.5909075000000001,
          "durationTicks": 1680,
          "midi": 26,
          "name": "D1",
          "ticks": 73200,
          "time": 69.3181125,
          "velocity": 0.7559055118110236
        },
        {
          "duration": 0.2272725000000122,
          "durationTicks": 240,
          "midi": 38,
          "name": "D2",
          "ticks": 73200,
          "time": 69.3181125,
          "velocity": 0.7559055118110236
        },
        {
          "duration": 0.340908749999997,
          "durationTicks": 360,
          "midi": 38,
          "name": "D2",
          "ticks": 73440,
          "time": 69.54538500000001,
          "velocity": 0.7559055118110236
        },
        {
          "duration": 0.21496190624999656,
          "durationTicks": 227,
          "midi": 45,
          "name": "A2",
          "ticks": 73560,
          "time": 69.65902125000001,
          "velocity": 0.7559055118110236
        },
        {
          "duration": 0.21496190624999656,
          "durationTicks": 227,
          "midi": 50,
          "name": "D3",
          "ticks": 73560,
          "time": 69.65902125000001,
          "velocity": 0.7559055118110236
        },
        {
          "duration": 0.909089999999992,
          "durationTicks": 960,
          "midi": 38,
          "name": "D2",
          "ticks": 73800,
          "time": 69.88629375000001,
          "velocity": 0.7559055118110236
        },
        {
          "duration": 0.21496190624999656,
          "durationTicks": 227,
          "midi": 45,
          "name": "A2",
          "ticks": 73920,
          "time": 69.99993,
          "velocity": 0.7559055118110236
        },
        {
          "duration": 0.21496190624999656,
          "durationTicks": 227,
          "midi": 50,
          "name": "D3",
          "ticks": 73920,
          "time": 69.99993,
          "velocity": 0.7559055118110236
        },
        {
          "duration": 0.11268928124999888,
          "durationTicks": 119,
          "midi": 62,
          "name": "D4",
          "ticks": 74160,
          "time": 70.2272025,
          "velocity": 0.7559055118110236
        },
        {
          "duration": 0.11268928124999888,
          "durationTicks": 119,
          "midi": 57,
          "name": "A3",
          "ticks": 74280,
          "time": 70.34083875,
          "velocity": 0.7559055118110236
        },
        {
          "duration": 0.11268928124999888,
          "durationTicks": 119,
          "midi": 53,
          "name": "F3",
          "ticks": 74400,
          "time": 70.454475,
          "velocity": 0.7559055118110236
        },
        {
          "duration": 0.11268928124999888,
          "durationTicks": 119,
          "midi": 50,
          "name": "D3",
          "ticks": 74520,
          "time": 70.56811125,
          "velocity": 0.7559055118110236
        },
        {
          "duration": 0.11268928124999888,
          "durationTicks": 119,
          "midi": 45,
          "name": "A2",
          "ticks": 74640,
          "time": 70.6817475,
          "velocity": 0.7559055118110236
        },
        {
          "duration": 0.24905278125001473,
          "durationTicks": 263,
          "midi": 38,
          "name": "D2",
          "ticks": 74760,
          "time": 70.79538375,
          "velocity": 0.7559055118110236
        },
        {
          "duration": 0.21496190625001077,
          "durationTicks": 227,
          "midi": 26,
          "name": "D1",
          "ticks": 74880,
          "time": 70.90902,
          "velocity": 0.7559055118110236
        },
        {
          "duration": 1.5909075000000001,
          "durationTicks": 1680,
          "midi": 27,
          "name": "D#1",
          "ticks": 75120,
          "time": 71.13629250000001,
          "velocity": 0.7559055118110236
        },
        {
          "duration": 0.227272499999998,
          "durationTicks": 240,
          "midi": 39,
          "name": "D#2",
          "ticks": 75120,
          "time": 71.13629250000001,
          "velocity": 0.7559055118110236
        },
        {
          "duration": 0.340908749999997,
          "durationTicks": 360,
          "midi": 39,
          "name": "D#2",
          "ticks": 75360,
          "time": 71.36356500000001,
          "velocity": 0.7559055118110236
        },
        {
          "duration": 0.21496190624999656,
          "durationTicks": 227,
          "midi": 46,
          "name": "A#2",
          "ticks": 75480,
          "time": 71.47720125000001,
          "velocity": 0.7559055118110236
        },
        {
          "duration": 0.21496190624999656,
          "durationTicks": 227,
          "midi": 51,
          "name": "D#3",
          "ticks": 75480,
          "time": 71.47720125000001,
          "velocity": 0.7559055118110236
        },
        {
          "duration": 0.9090900000000062,
          "durationTicks": 960,
          "midi": 39,
          "name": "D#2",
          "ticks": 75720,
          "time": 71.70447375,
          "velocity": 0.7559055118110236
        },
        {
          "duration": 0.21496190624999656,
          "durationTicks": 227,
          "midi": 46,
          "name": "A#2",
          "ticks": 75840,
          "time": 71.81811,
          "velocity": 0.7559055118110236
        },
        {
          "duration": 0.21496190624999656,
          "durationTicks": 227,
          "midi": 51,
          "name": "D#3",
          "ticks": 75840,
          "time": 71.81811,
          "velocity": 0.7559055118110236
        },
        {
          "duration": 0.11268928124999888,
          "durationTicks": 119,
          "midi": 63,
          "name": "D#4",
          "ticks": 76080,
          "time": 72.0453825,
          "velocity": 0.7559055118110236
        },
        {
          "duration": 0.11268928124999888,
          "durationTicks": 119,
          "midi": 58,
          "name": "A#3",
          "ticks": 76200,
          "time": 72.15901875,
          "velocity": 0.7559055118110236
        },
        {
          "duration": 0.11268928124999888,
          "durationTicks": 119,
          "midi": 55,
          "name": "G3",
          "ticks": 76320,
          "time": 72.272655,
          "velocity": 0.7559055118110236
        },
        {
          "duration": 0.1126892812500131,
          "durationTicks": 119,
          "midi": 51,
          "name": "D#3",
          "ticks": 76440,
          "time": 72.38629125,
          "velocity": 0.7559055118110236
        },
        {
          "duration": 0.1126892812500131,
          "durationTicks": 119,
          "midi": 46,
          "name": "A#2",
          "ticks": 76560,
          "time": 72.4999275,
          "velocity": 0.7559055118110236
        },
        {
          "duration": 0.24905278125000052,
          "durationTicks": 263,
          "midi": 39,
          "name": "D#2",
          "ticks": 76680,
          "time": 72.61356375000001,
          "velocity": 0.7559055118110236
        },
        {
          "duration": 0.21496190624999656,
          "durationTicks": 227,
          "midi": 27,
          "name": "D#1",
          "ticks": 76800,
          "time": 72.72720000000001,
          "velocity": 0.7559055118110236
        },
        {
          "duration": 1.5909075000000001,
          "durationTicks": 1680,
          "midi": 29,
          "name": "F1",
          "ticks": 77040,
          "time": 72.95447250000001,
          "velocity": 0.7559055118110236
        },
        {
          "duration": 0.227272499999998,
          "durationTicks": 240,
          "midi": 41,
          "name": "F2",
          "ticks": 77040,
          "time": 72.95447250000001,
          "velocity": 0.7559055118110236
        },
        {
          "duration": 0.340908749999997,
          "durationTicks": 360,
          "midi": 41,
          "name": "F2",
          "ticks": 77280,
          "time": 73.181745,
          "velocity": 0.7559055118110236
        },
        {
          "duration": 0.21496190624999656,
          "durationTicks": 227,
          "midi": 48,
          "name": "C3",
          "ticks": 77400,
          "time": 73.29538125,
          "velocity": 0.7559055118110236
        },
        {
          "duration": 0.21496190624999656,
          "durationTicks": 227,
          "midi": 53,
          "name": "F3",
          "ticks": 77400,
          "time": 73.29538125,
          "velocity": 0.7559055118110236
        },
        {
          "duration": 0.9090900000000062,
          "durationTicks": 960,
          "midi": 41,
          "name": "F2",
          "ticks": 77640,
          "time": 73.52265375,
          "velocity": 0.7559055118110236
        },
        {
          "duration": 0.21496190624999656,
          "durationTicks": 227,
          "midi": 48,
          "name": "C3",
          "ticks": 77760,
          "time": 73.63629,
          "velocity": 0.7559055118110236
        },
        {
          "duration": 0.21496190624999656,
          "durationTicks": 227,
          "midi": 53,
          "name": "F3",
          "ticks": 77760,
          "time": 73.63629,
          "velocity": 0.7559055118110236
        },
        {
          "duration": 0.11268928124999888,
          "durationTicks": 119,
          "midi": 65,
          "name": "F4",
          "ticks": 78000,
          "time": 73.8635625,
          "velocity": 0.7559055118110236
        },
        {
          "duration": 0.1126892812500131,
          "durationTicks": 119,
          "midi": 60,
          "name": "C4",
          "ticks": 78120,
          "time": 73.97719875,
          "velocity": 0.7559055118110236
        },
        {
          "duration": 0.1126892812500131,
          "durationTicks": 119,
          "midi": 57,
          "name": "A3",
          "ticks": 78240,
          "time": 74.090835,
          "velocity": 0.7559055118110236
        },
        {
          "duration": 0.11268928124999888,
          "durationTicks": 119,
          "midi": 53,
          "name": "F3",
          "ticks": 78360,
          "time": 74.20447125000001,
          "velocity": 0.7559055118110236
        },
        {
          "duration": 0.11268928124999888,
          "durationTicks": 119,
          "midi": 48,
          "name": "C3",
          "ticks": 78480,
          "time": 74.31810750000001,
          "velocity": 0.7559055118110236
        },
        {
          "duration": 0.24905278125000052,
          "durationTicks": 263,
          "midi": 41,
          "name": "F2",
          "ticks": 78600,
          "time": 74.43174375000001,
          "velocity": 0.7559055118110236
        },
        {
          "duration": 0.21496190624999656,
          "durationTicks": 227,
          "midi": 29,
          "name": "F1",
          "ticks": 78720,
          "time": 74.54538000000001,
          "velocity": 0.7559055118110236
        },
        {
          "duration": 1.5909075000000001,
          "durationTicks": 1680,
          "midi": 31,
          "name": "G1",
          "ticks": 78960,
          "time": 74.7726525,
          "velocity": 0.7559055118110236
        },
        {
          "duration": 0.227272499999998,
          "durationTicks": 240,
          "midi": 43,
          "name": "G2",
          "ticks": 78960,
          "time": 74.7726525,
          "velocity": 0.7559055118110236
        },
        {
          "duration": 0.340908749999997,
          "durationTicks": 360,
          "midi": 43,
          "name": "G2",
          "ticks": 79200,
          "time": 74.999925,
          "velocity": 0.7559055118110236
        },
        {
          "duration": 0.21496190624999656,
          "durationTicks": 227,
          "midi": 50,
          "name": "D3",
          "ticks": 79320,
          "time": 75.11356125,
          "velocity": 0.7559055118110236
        },
        {
          "duration": 0.21496190624999656,
          "durationTicks": 227,
          "midi": 55,
          "name": "G3",
          "ticks": 79320,
          "time": 75.11356125,
          "velocity": 0.7559055118110236
        },
        {
          "duration": 0.9090900000000062,
          "durationTicks": 960,
          "midi": 43,
          "name": "G2",
          "ticks": 79560,
          "time": 75.34083375,
          "velocity": 0.7559055118110236
        },
        {
          "duration": 0.21496190624999656,
          "durationTicks": 227,
          "midi": 50,
          "name": "D3",
          "ticks": 79680,
          "time": 75.45447,
          "velocity": 0.7559055118110236
        },
        {
          "duration": 0.21496190624999656,
          "durationTicks": 227,
          "midi": 55,
          "name": "G3",
          "ticks": 79680,
          "time": 75.45447,
          "velocity": 0.7559055118110236
        },
        {
          "duration": 0.1126892812500131,
          "durationTicks": 119,
          "midi": 67,
          "name": "G4",
          "ticks": 79920,
          "time": 75.6817425,
          "velocity": 0.7559055118110236
        },
        {
          "duration": 0.11268928124999888,
          "durationTicks": 119,
          "midi": 62,
          "name": "D4",
          "ticks": 80040,
          "time": 75.79537875000001,
          "velocity": 0.7559055118110236
        },
        {
          "duration": 0.11268928124999888,
          "durationTicks": 119,
          "midi": 58,
          "name": "A#3",
          "ticks": 80160,
          "time": 75.90901500000001,
          "velocity": 0.7559055118110236
        },
        {
          "duration": 0.11268928124999888,
          "durationTicks": 119,
          "midi": 55,
          "name": "G3",
          "ticks": 80280,
          "time": 76.02265125000001,
          "velocity": 0.7559055118110236
        },
        {
          "duration": 0.11268928124999888,
          "durationTicks": 119,
          "midi": 50,
          "name": "D3",
          "ticks": 80400,
          "time": 76.13628750000001,
          "velocity": 0.7559055118110236
        },
        {
          "duration": 0.24905278125000052,
          "durationTicks": 263,
          "midi": 43,
          "name": "G2",
          "ticks": 80520,
          "time": 76.24992375000001,
          "velocity": 0.7559055118110236
        },
        {
          "duration": 0.21496190624999656,
          "durationTicks": 227,
          "midi": 31,
          "name": "G1",
          "ticks": 80640,
          "time": 76.36356,
          "velocity": 0.7559055118110236
        },
        {
          "duration": 1.5909075000000001,
          "durationTicks": 1680,
          "midi": 38,
          "name": "D2",
          "ticks": 80880,
          "time": 76.5908325,
          "velocity": 0.7559055118110236
        },
        {
          "duration": 0.227272499999998,
          "durationTicks": 240,
          "midi": 50,
          "name": "D3",
          "ticks": 80880,
          "time": 76.5908325,
          "velocity": 0.7559055118110236
        },
        {
          "duration": 0.340908749999997,
          "durationTicks": 360,
          "midi": 50,
          "name": "D3",
          "ticks": 81120,
          "time": 76.818105,
          "velocity": 0.7559055118110236
        },
        {
          "duration": 0.21496190624999656,
          "durationTicks": 227,
          "midi": 57,
          "name": "A3",
          "ticks": 81240,
          "time": 76.93174125,
          "velocity": 0.7559055118110236
        },
        {
          "duration": 0.6818175000000082,
          "durationTicks": 720,
          "midi": 50,
          "name": "D3",
          "ticks": 81480,
          "time": 77.15901375,
          "velocity": 0.7559055118110236
        },
        {
          "duration": 0.21496190625001077,
          "durationTicks": 227,
          "midi": 45,
          "name": "A2",
          "ticks": 81600,
          "time": 77.27265,
          "velocity": 0.7559055118110236
        },
        {
          "duration": 0.11268928124999888,
          "durationTicks": 119,
          "midi": 62,
          "name": "D4",
          "ticks": 81840,
          "time": 77.49992250000001,
          "velocity": 0.7559055118110236
        },
        {
          "duration": 0.11268928124999888,
          "durationTicks": 119,
          "midi": 57,
          "name": "A3",
          "ticks": 81960,
          "time": 77.61355875000001,
          "velocity": 0.7559055118110236
        },
        {
          "duration": 0.11268928124999888,
          "durationTicks": 119,
          "midi": 53,
          "name": "F3",
          "ticks": 82080,
          "time": 77.72719500000001,
          "velocity": 0.7559055118110236
        },
        {
          "duration": 0.4763252812499985,
          "durationTicks": 503,
          "midi": 50,
          "name": "D3",
          "ticks": 82200,
          "time": 77.84083125000001,
          "velocity": 0.7559055118110236
        },
        {
          "duration": 0.11268928124999888,
          "durationTicks": 119,
          "midi": 45,
          "name": "A2",
          "ticks": 82320,
          "time": 77.9544675,
          "velocity": 0.7559055118110236
        },
        {
          "duration": 0.11268928124999888,
          "durationTicks": 119,
          "midi": 41,
          "name": "F2",
          "ticks": 82440,
          "time": 78.06810375,
          "velocity": 0.7559055118110236
        },
        {
          "duration": 0.21496190624999656,
          "durationTicks": 227,
          "midi": 38,
          "name": "D2",
          "ticks": 82560,
          "time": 78.18174,
          "velocity": 0.7559055118110236
        },
        {
          "duration": 0.10700746875001244,
          "durationTicks": 113,
          "midi": 39,
          "name": "D#2",
          "ticks": 82800,
          "time": 78.4090125,
          "velocity": 0.7559055118110236
        },
        {
          "duration": 0.10700746875001244,
          "durationTicks": 113,
          "midi": 51,
          "name": "D#3",
          "ticks": 82920,
          "time": 78.52264875,
          "velocity": 0.7559055118110236
        },
        {
          "duration": 0.10700746875001244,
          "durationTicks": 113,
          "midi": 46,
          "name": "A#2",
          "ticks": 83040,
          "time": 78.636285,
          "velocity": 0.7559055118110236
        },
        {
          "duration": 0.10700746875001244,
          "durationTicks": 113,
          "midi": 39,
          "name": "D#2",
          "ticks": 83160,
          "time": 78.74992125,
          "velocity": 0.7559055118110236
        },
        {
          "duration": 0.10700746875001244,
          "durationTicks": 113,
          "midi": 27,
          "name": "D#1",
          "ticks": 83280,
          "time": 78.8635575,
          "velocity": 0.7559055118110236
        },
        {
          "duration": 0.10700746874999822,
          "durationTicks": 113,
          "midi": 39,
          "name": "D#2",
          "ticks": 83400,
          "time": 78.97719375000001,
          "velocity": 0.7559055118110236
        },
        {
          "duration": 0.10700746874999822,
          "durationTicks": 113,
          "midi": 46,
          "name": "A#2",
          "ticks": 83520,
          "time": 79.09083000000001,
          "velocity": 0.7559055118110236
        },
        {
          "duration": 0.10700746874999822,
          "durationTicks": 113,
          "midi": 51,
          "name": "D#3",
          "ticks": 83640,
          "time": 79.20446625000001,
          "velocity": 0.7559055118110236
        },
        {
          "duration": 0.10700746874999822,
          "durationTicks": 113,
          "midi": 39,
          "name": "D#2",
          "ticks": 83760,
          "time": 79.31810250000001,
          "velocity": 0.7559055118110236
        },
        {
          "duration": 0.10700746874999822,
          "durationTicks": 113,
          "midi": 51,
          "name": "D#3",
          "ticks": 83880,
          "time": 79.43173875000001,
          "velocity": 0.7559055118110236
        },
        {
          "duration": 0.10700746874999822,
          "durationTicks": 113,
          "midi": 46,
          "name": "A#2",
          "ticks": 84000,
          "time": 79.545375,
          "velocity": 0.7559055118110236
        },
        {
          "duration": 0.10700746875001244,
          "durationTicks": 113,
          "midi": 39,
          "name": "D#2",
          "ticks": 84120,
          "time": 79.65901125,
          "velocity": 0.7559055118110236
        },
        {
          "duration": 0.10700746875001244,
          "durationTicks": 113,
          "midi": 27,
          "name": "D#1",
          "ticks": 84240,
          "time": 79.7726475,
          "velocity": 0.7559055118110236
        },
        {
          "duration": 0.10700746875001244,
          "durationTicks": 113,
          "midi": 39,
          "name": "D#2",
          "ticks": 84360,
          "time": 79.88628375,
          "velocity": 0.7559055118110236
        },
        {
          "duration": 0.10700746875001244,
          "durationTicks": 113,
          "midi": 46,
          "name": "A#2",
          "ticks": 84480,
          "time": 79.99992,
          "velocity": 0.7559055118110236
        },
        {
          "duration": 0.10700746875001244,
          "durationTicks": 113,
          "midi": 51,
          "name": "D#3",
          "ticks": 84600,
          "time": 80.11355625,
          "velocity": 0.7559055118110236
        },
        {
          "duration": 0.10700746875001244,
          "durationTicks": 113,
          "midi": 41,
          "name": "F2",
          "ticks": 84720,
          "time": 80.2271925,
          "velocity": 0.7559055118110236
        },
        {
          "duration": 0.10700746875001244,
          "durationTicks": 113,
          "midi": 53,
          "name": "F3",
          "ticks": 84840,
          "time": 80.34082875,
          "velocity": 0.7559055118110236
        },
        {
          "duration": 0.10700746875001244,
          "durationTicks": 113,
          "midi": 48,
          "name": "C3",
          "ticks": 84960,
          "time": 80.454465,
          "velocity": 0.7559055118110236
        },
        {
          "duration": 0.10700746874999822,
          "durationTicks": 113,
          "midi": 41,
          "name": "F2",
          "ticks": 85080,
          "time": 80.56810125000001,
          "velocity": 0.7559055118110236
        },
        {
          "duration": 0.10700746874999822,
          "durationTicks": 113,
          "midi": 29,
          "name": "F1",
          "ticks": 85200,
          "time": 80.68173750000001,
          "velocity": 0.7559055118110236
        },
        {
          "duration": 0.10700746874999822,
          "durationTicks": 113,
          "midi": 41,
          "name": "F2",
          "ticks": 85320,
          "time": 80.79537375000001,
          "velocity": 0.7559055118110236
        },
        {
          "duration": 0.10700746874999822,
          "durationTicks": 113,
          "midi": 48,
          "name": "C3",
          "ticks": 85440,
          "time": 80.90901000000001,
          "velocity": 0.7559055118110236
        },
        {
          "duration": 0.10700746874999822,
          "durationTicks": 113,
          "midi": 53,
          "name": "F3",
          "ticks": 85560,
          "time": 81.02264625000001,
          "velocity": 0.7559055118110236
        },
        {
          "duration": 0.10700746874999822,
          "durationTicks": 113,
          "midi": 41,
          "name": "F2",
          "ticks": 85680,
          "time": 81.13628250000001,
          "velocity": 0.7559055118110236
        },
        {
          "duration": 0.10700746875001244,
          "durationTicks": 113,
          "midi": 53,
          "name": "F3",
          "ticks": 85800,
          "time": 81.24991875,
          "velocity": 0.7559055118110236
        },
        {
          "duration": 0.10700746875001244,
          "durationTicks": 113,
          "midi": 48,
          "name": "C3",
          "ticks": 85920,
          "time": 81.363555,
          "velocity": 0.7559055118110236
        },
        {
          "duration": 0.10700746875001244,
          "durationTicks": 113,
          "midi": 41,
          "name": "F2",
          "ticks": 86040,
          "time": 81.47719125,
          "velocity": 0.7559055118110236
        },
        {
          "duration": 0.10700746875001244,
          "durationTicks": 113,
          "midi": 29,
          "name": "F1",
          "ticks": 86160,
          "time": 81.5908275,
          "velocity": 0.7559055118110236
        },
        {
          "duration": 0.10700746875001244,
          "durationTicks": 113,
          "midi": 41,
          "name": "F2",
          "ticks": 86280,
          "time": 81.70446375,
          "velocity": 0.7559055118110236
        },
        {
          "duration": 0.10700746875001244,
          "durationTicks": 113,
          "midi": 48,
          "name": "C3",
          "ticks": 86400,
          "time": 81.8181,
          "velocity": 0.7559055118110236
        },
        {
          "duration": 0.10700746875001244,
          "durationTicks": 113,
          "midi": 53,
          "name": "F3",
          "ticks": 86520,
          "time": 81.93173625,
          "velocity": 0.7559055118110236
        },
        {
          "duration": 0.10700746875001244,
          "durationTicks": 113,
          "midi": 43,
          "name": "G2",
          "ticks": 86640,
          "time": 82.0453725,
          "velocity": 0.7559055118110236
        },
        {
          "duration": 0.10700746874999822,
          "durationTicks": 113,
          "midi": 55,
          "name": "G3",
          "ticks": 86760,
          "time": 82.15900875000001,
          "velocity": 0.7559055118110236
        },
        {
          "duration": 0.10700746874999822,
          "durationTicks": 113,
          "midi": 50,
          "name": "D3",
          "ticks": 86880,
          "time": 82.27264500000001,
          "velocity": 0.7559055118110236
        },
        {
          "duration": 0.10700746874999822,
          "durationTicks": 113,
          "midi": 43,
          "name": "G2",
          "ticks": 87000,
          "time": 82.38628125000001,
          "velocity": 0.7559055118110236
        },
        {
          "duration": 0.10700746874999822,
          "durationTicks": 113,
          "midi": 31,
          "name": "G1",
          "ticks": 87120,
          "time": 82.49991750000001,
          "velocity": 0.7559055118110236
        },
        {
          "duration": 0.10700746874999822,
          "durationTicks": 113,
          "midi": 43,
          "name": "G2",
          "ticks": 87240,
          "time": 82.61355375000001,
          "velocity": 0.7559055118110236
        },
        {
          "duration": 0.10700746874999822,
          "durationTicks": 113,
          "midi": 50,
          "name": "D3",
          "ticks": 87360,
          "time": 82.72719000000001,
          "velocity": 0.7559055118110236
        },
        {
          "duration": 0.10700746875001244,
          "durationTicks": 113,
          "midi": 55,
          "name": "G3",
          "ticks": 87480,
          "time": 82.84082625,
          "velocity": 0.7559055118110236
        },
        {
          "duration": 0.10700746875001244,
          "durationTicks": 113,
          "midi": 43,
          "name": "G2",
          "ticks": 87600,
          "time": 82.9544625,
          "velocity": 0.7559055118110236
        },
        {
          "duration": 0.10700746875001244,
          "durationTicks": 113,
          "midi": 55,
          "name": "G3",
          "ticks": 87720,
          "time": 83.06809875,
          "velocity": 0.7559055118110236
        },
        {
          "duration": 0.10700746875001244,
          "durationTicks": 113,
          "midi": 50,
          "name": "D3",
          "ticks": 87840,
          "time": 83.181735,
          "velocity": 0.7559055118110236
        },
        {
          "duration": 0.10700746875001244,
          "durationTicks": 113,
          "midi": 43,
          "name": "G2",
          "ticks": 87960,
          "time": 83.29537125,
          "velocity": 0.7559055118110236
        },
        {
          "duration": 0.10700746875001244,
          "durationTicks": 113,
          "midi": 31,
          "name": "G1",
          "ticks": 88080,
          "time": 83.4090075,
          "velocity": 0.7559055118110236
        },
        {
          "duration": 0.10700746875001244,
          "durationTicks": 113,
          "midi": 43,
          "name": "G2",
          "ticks": 88200,
          "time": 83.52264375,
          "velocity": 0.7559055118110236
        },
        {
          "duration": 0.10700746875001244,
          "durationTicks": 113,
          "midi": 50,
          "name": "D3",
          "ticks": 88320,
          "time": 83.63628,
          "velocity": 0.7559055118110236
        },
        {
          "duration": 0.10700746874999822,
          "durationTicks": 113,
          "midi": 55,
          "name": "G3",
          "ticks": 88440,
          "time": 83.74991625000001,
          "velocity": 0.7559055118110236
        },
        {
          "duration": 0.10700746874999822,
          "durationTicks": 113,
          "midi": 38,
          "name": "D2",
          "ticks": 88560,
          "time": 83.86355250000001,
          "velocity": 0.7559055118110236
        },
        {
          "duration": 0.10700746874999822,
          "durationTicks": 113,
          "midi": 50,
          "name": "D3",
          "ticks": 88680,
          "time": 83.97718875000001,
          "velocity": 0.7559055118110236
        },
        {
          "duration": 0.10700746874999822,
          "durationTicks": 113,
          "midi": 45,
          "name": "A2",
          "ticks": 88800,
          "time": 84.09082500000001,
          "velocity": 0.7559055118110236
        },
        {
          "duration": 0.10700746874999822,
          "durationTicks": 113,
          "midi": 38,
          "name": "D2",
          "ticks": 88920,
          "time": 84.20446125000001,
          "velocity": 0.7559055118110236
        },
        {
          "duration": 0.10700746874999822,
          "durationTicks": 113,
          "midi": 26,
          "name": "D1",
          "ticks": 89040,
          "time": 84.31809750000001,
          "velocity": 0.7559055118110236
        },
        {
          "duration": 0.10700746875001244,
          "durationTicks": 113,
          "midi": 38,
          "name": "D2",
          "ticks": 89160,
          "time": 84.43173375,
          "velocity": 0.7559055118110236
        },
        {
          "duration": 0.10700746875001244,
          "durationTicks": 113,
          "midi": 45,
          "name": "A2",
          "ticks": 89280,
          "time": 84.54537,
          "velocity": 0.7559055118110236
        },
        {
          "duration": 0.10700746875001244,
          "durationTicks": 113,
          "midi": 50,
          "name": "D3",
          "ticks": 89400,
          "time": 84.65900625,
          "velocity": 0.7559055118110236
        },
        {
          "duration": 0.10700746875001244,
          "durationTicks": 113,
          "midi": 38,
          "name": "D2",
          "ticks": 89520,
          "time": 84.7726425,
          "velocity": 0.7559055118110236
        },
        {
          "duration": 0.10700746875001244,
          "durationTicks": 113,
          "midi": 50,
          "name": "D3",
          "ticks": 89640,
          "time": 84.88627875,
          "velocity": 0.7559055118110236
        },
        {
          "duration": 0.10700746875001244,
          "durationTicks": 113,
          "midi": 45,
          "name": "A2",
          "ticks": 89760,
          "time": 84.999915,
          "velocity": 0.7559055118110236
        },
        {
          "duration": 0.10700746875001244,
          "durationTicks": 113,
          "midi": 38,
          "name": "D2",
          "ticks": 89880,
          "time": 85.11355125,
          "velocity": 0.7559055118110236
        },
        {
          "duration": 0.10700746875001244,
          "durationTicks": 113,
          "midi": 26,
          "name": "D1",
          "ticks": 90000,
          "time": 85.2271875,
          "velocity": 0.7559055118110236
        },
        {
          "duration": 0.10700746874999822,
          "durationTicks": 113,
          "midi": 38,
          "name": "D2",
          "ticks": 90120,
          "time": 85.34082375000001,
          "velocity": 0.7559055118110236
        },
        {
          "duration": 0.10700746874999822,
          "durationTicks": 113,
          "midi": 45,
          "name": "A2",
          "ticks": 90240,
          "time": 85.45446000000001,
          "velocity": 0.7559055118110236
        },
        {
          "duration": 0.10700746874999822,
          "durationTicks": 113,
          "midi": 50,
          "name": "D3",
          "ticks": 90360,
          "time": 85.56809625000001,
          "velocity": 0.7559055118110236
        },
        {
          "duration": 0.10700746874999822,
          "durationTicks": 113,
          "midi": 27,
          "name": "D#1",
          "ticks": 90480,
          "time": 85.68173250000001,
          "velocity": 0.7559055118110236
        },
        {
          "duration": 0.10700746874999822,
          "durationTicks": 113,
          "midi": 39,
          "name": "D#2",
          "ticks": 90600,
          "time": 85.79536875000001,
          "velocity": 0.7559055118110236
        },
        {
          "duration": 0.10700746874999822,
          "durationTicks": 113,
          "midi": 27,
          "name": "D#1",
          "ticks": 90720,
          "time": 85.90900500000001,
          "velocity": 0.7559055118110236
        },
        {
          "duration": 0.10700746875001244,
          "durationTicks": 113,
          "midi": 39,
          "name": "D#2",
          "ticks": 90840,
          "time": 86.02264125,
          "velocity": 0.7559055118110236
        },
        {
          "duration": 0.11268928124999888,
          "durationTicks": 119,
          "midi": 46,
          "name": "A#2",
          "ticks": 90960,
          "time": 86.1362775,
          "velocity": 0.7559055118110236
        },
        {
          "duration": 0.11268928124999888,
          "durationTicks": 119,
          "midi": 51,
          "name": "D#3",
          "ticks": 91080,
          "time": 86.24991375,
          "velocity": 0.7559055118110236
        },
        {
          "duration": 0.11268928124999888,
          "durationTicks": 119,
          "midi": 58,
          "name": "A#3",
          "ticks": 91200,
          "time": 86.36355,
          "velocity": 0.7559055118110236
        },
        {
          "duration": 0.11268928124999888,
          "durationTicks": 119,
          "midi": 63,
          "name": "D#4",
          "ticks": 91320,
          "time": 86.47718625,
          "velocity": 0.7559055118110236
        },
        {
          "duration": 0.11268928124999888,
          "durationTicks": 119,
          "midi": 67,
          "name": "G4",
          "ticks": 91440,
          "time": 86.5908225,
          "velocity": 0.7559055118110236
        },
        {
          "duration": 0.1126892812500131,
          "durationTicks": 119,
          "midi": 63,
          "name": "D#4",
          "ticks": 91560,
          "time": 86.70445875,
          "velocity": 0.7559055118110236
        },
        {
          "duration": 0.1126892812500131,
          "durationTicks": 119,
          "midi": 58,
          "name": "A#3",
          "ticks": 91680,
          "time": 86.818095,
          "velocity": 0.7559055118110236
        },
        {
          "duration": 0.11268928124999888,
          "durationTicks": 119,
          "midi": 51,
          "name": "D#3",
          "ticks": 91800,
          "time": 86.93173125000001,
          "velocity": 0.7559055118110236
        },
        {
          "duration": 0.43087078124999323,
          "durationTicks": 455,
          "midi": 39,
          "name": "D#2",
          "ticks": 91920,
          "time": 87.04536750000001,
          "velocity": 0.7559055118110236
        },
        {
          "duration": 0.6467796562500041,
          "durationTicks": 683,
          "midi": 29,
          "name": "F1",
          "ticks": 92400,
          "time": 87.49991250000001,
          "velocity": 0.7559055118110236
        },
        {
          "duration": 0.6467796562500041,
          "durationTicks": 683,
          "midi": 41,
          "name": "F2",
          "ticks": 92400,
          "time": 87.49991250000001,
          "velocity": 0.7559055118110236
        },
        {
          "duration": 0.6467796562500041,
          "durationTicks": 683,
          "midi": 57,
          "name": "A3",
          "ticks": 93120,
          "time": 88.18173,
          "velocity": 0.6614173228346457
        },
        {
          "duration": 0.6467796562500041,
          "durationTicks": 683,
          "midi": 60,
          "name": "C4",
          "ticks": 93120,
          "time": 88.18173,
          "velocity": 0.6614173228346457
        },
        {
          "duration": 0.6467796562500041,
          "durationTicks": 683,
          "midi": 65,
          "name": "F4",
          "ticks": 93120,
          "time": 88.18173,
          "velocity": 0.6614173228346457
        },
        {
          "duration": 0.43087078124999323,
          "durationTicks": 455,
          "midi": 41,
          "name": "F2",
          "ticks": 93840,
          "time": 88.86354750000001,
          "velocity": 0.5669291338582677
        },
        {
          "duration": 0.43087078124999323,
          "durationTicks": 455,
          "midi": 53,
          "name": "F3",
          "ticks": 93840,
          "time": 88.86354750000001,
          "velocity": 0.5669291338582677
        },
        {
          "duration": 1.7263240312500017,
          "durationTicks": 1823,
          "midi": 39,
          "name": "D#2",
          "ticks": 94320,
          "time": 89.3180925,
          "velocity": 0.5039370078740157
        },
        {
          "duration": 0.340908749999997,
          "durationTicks": 360,
          "midi": 51,
          "name": "D#3",
          "ticks": 94320,
          "time": 89.3180925,
          "velocity": 0.5039370078740157
        },
        {
          "duration": 0.340908749999997,
          "durationTicks": 360,
          "midi": 51,
          "name": "D#3",
          "ticks": 94680,
          "time": 89.65900125,
          "velocity": 0.5039370078740157
        },
        {
          "duration": 1.0445065312500077,
          "durationTicks": 1103,
          "midi": 51,
          "name": "D#3",
          "ticks": 95040,
          "time": 89.99991,
          "velocity": 0.5039370078740157
        },
        {
          "duration": 0.8626885312500008,
          "durationTicks": 911,
          "midi": 55,
          "name": "G3",
          "ticks": 95280,
          "time": 90.22718250000001,
          "velocity": 0.5039370078740157
        },
        {
          "duration": 0.8626885312500008,
          "durationTicks": 911,
          "midi": 58,
          "name": "A#3",
          "ticks": 95280,
          "time": 90.22718250000001,
          "velocity": 0.5039370078740157
        },
        {
          "duration": 1.7263240312500017,
          "durationTicks": 1823,
          "midi": 43,
          "name": "G2",
          "ticks": 96240,
          "time": 91.1362725,
          "velocity": 0.5039370078740157
        },
        {
          "duration": 0.340908749999997,
          "durationTicks": 360,
          "midi": 55,
          "name": "G3",
          "ticks": 96240,
          "time": 91.1362725,
          "velocity": 0.5039370078740157
        },
        {
          "duration": 0.3409087500000112,
          "durationTicks": 360,
          "midi": 55,
          "name": "G3",
          "ticks": 96600,
          "time": 91.47718125,
          "velocity": 0.5039370078740157
        },
        {
          "duration": 1.0445065312499935,
          "durationTicks": 1103,
          "midi": 55,
          "name": "G3",
          "ticks": 96960,
          "time": 91.81809000000001,
          "velocity": 0.5039370078740157
        },
        {
          "duration": 0.8626885312500008,
          "durationTicks": 911,
          "midi": 58,
          "name": "A#3",
          "ticks": 97200,
          "time": 92.04536250000001,
          "velocity": 0.5039370078740157
        },
        {
          "duration": 0.113636249999999,
          "durationTicks": 120,
          "midi": 62,
          "name": "D4",
          "ticks": 97200,
          "time": 92.04536250000001,
          "velocity": 0.5039370078740157
        },
        {
          "duration": 1.7263240312500159,
          "durationTicks": 1823,
          "midi": 41,
          "name": "F2",
          "ticks": 98160,
          "time": 92.9544525,
          "velocity": 0.5039370078740157
        },
        {
          "duration": 0.3409087500000112,
          "durationTicks": 360,
          "midi": 53,
          "name": "F3",
          "ticks": 98160,
          "time": 92.9544525,
          "velocity": 0.5039370078740157
        },
        {
          "duration": 0.340908749999997,
          "durationTicks": 360,
          "midi": 53,
          "name": "F3",
          "ticks": 98520,
          "time": 93.29536125000001,
          "velocity": 0.5039370078740157
        },
        {
          "duration": 1.0445065312500077,
          "durationTicks": 1103,
          "midi": 53,
          "name": "F3",
          "ticks": 98880,
          "time": 93.63627000000001,
          "velocity": 0.5039370078740157
        },
        {
          "duration": 0.8626885312500008,
          "durationTicks": 911,
          "midi": 57,
          "name": "A3",
          "ticks": 99120,
          "time": 93.86354250000001,
          "velocity": 0.5039370078740157
        },
        {
          "duration": 0.113636249999999,
          "durationTicks": 120,
          "midi": 60,
          "name": "C4",
          "ticks": 99120,
          "time": 93.86354250000001,
          "velocity": 0.5039370078740157
        },
        {
          "duration": 1.7263240312500159,
          "durationTicks": 1823,
          "midi": 43,
          "name": "G2",
          "ticks": 100080,
          "time": 94.7726325,
          "velocity": 0.5039370078740157
        },
        {
          "duration": 0.3409087500000112,
          "durationTicks": 360,
          "midi": 55,
          "name": "G3",
          "ticks": 100080,
          "time": 94.7726325,
          "velocity": 0.5039370078740157
        },
        {
          "duration": 0.340908749999997,
          "durationTicks": 360,
          "midi": 55,
          "name": "G3",
          "ticks": 100440,
          "time": 95.11354125000001,
          "velocity": 0.5039370078740157
        },
        {
          "duration": 1.0445065312500077,
          "durationTicks": 1103,
          "midi": 55,
          "name": "G3",
          "ticks": 100800,
          "time": 95.45445000000001,
          "velocity": 0.5039370078740157
        },
        {
          "duration": 0.8626885312500008,
          "durationTicks": 911,
          "midi": 58,
          "name": "A#3",
          "ticks": 101040,
          "time": 95.6817225,
          "velocity": 0.5039370078740157
        },
        {
          "duration": 0.8626885312500008,
          "durationTicks": 911,
          "midi": 62,
          "name": "D4",
          "ticks": 101040,
          "time": 95.6817225,
          "velocity": 0.5039370078740157
        },
        {
          "duration": 1.7263240312500017,
          "durationTicks": 1823,
          "midi": 39,
          "name": "D#2",
          "ticks": 102000,
          "time": 96.59081250000001,
          "velocity": 0.5039370078740157
        },
        {
          "duration": 0.340908749999997,
          "durationTicks": 360,
          "midi": 51,
          "name": "D#3",
          "ticks": 102000,
          "time": 96.59081250000001,
          "velocity": 0.5039370078740157
        },
        {
          "duration": 0.340908749999997,
          "durationTicks": 360,
          "midi": 51,
          "name": "D#3",
          "ticks": 102360,
          "time": 96.93172125000001,
          "velocity": 0.5039370078740157
        },
        {
          "duration": 1.0445065312500077,
          "durationTicks": 1103,
          "midi": 51,
          "name": "D#3",
          "ticks": 102720,
          "time": 97.27263,
          "velocity": 0.5039370078740157
        },
        {
          "duration": 0.8626885312500008,
          "durationTicks": 911,
          "midi": 55,
          "name": "G3",
          "ticks": 102960,
          "time": 97.4999025,
          "velocity": 0.5039370078740157
        },
        {
          "duration": 0.8626885312500008,
          "durationTicks": 911,
          "midi": 63,
          "name": "D#4",
          "ticks": 102960,
          "time": 97.4999025,
          "velocity": 0.5039370078740157
        },
        {
          "duration": 1.7263240312500017,
          "durationTicks": 1823,
          "midi": 43,
          "name": "G2",
          "ticks": 103920,
          "time": 98.40899250000001,
          "velocity": 0.5039370078740157
        },
        {
          "duration": 0.340908749999997,
          "durationTicks": 360,
          "midi": 55,
          "name": "G3",
          "ticks": 103920,
          "time": 98.40899250000001,
          "velocity": 0.5039370078740157
        },
        {
          "duration": 0.340908749999997,
          "durationTicks": 360,
          "midi": 55,
          "name": "G3",
          "ticks": 104280,
          "time": 98.74990125000001,
          "velocity": 0.5039370078740157
        },
        {
          "duration": 1.0445065312500077,
          "durationTicks": 1103,
          "midi": 55,
          "name": "G3",
          "ticks": 104640,
          "time": 99.09081,
          "velocity": 0.5039370078740157
        },
        {
          "duration": 0.8626885312500008,
          "durationTicks": 911,
          "midi": 62,
          "name": "D4",
          "ticks": 104880,
          "time": 99.3180825,
          "velocity": 0.5039370078740157
        },
        {
          "duration": 0.4545450000000102,
          "durationTicks": 480,
          "midi": 70,
          "name": "A#4",
          "ticks": 104880,
          "time": 99.3180825,
          "velocity": 0.5039370078740157
        },
        {
          "duration": 1.7263240312500017,
          "durationTicks": 1823,
          "midi": 41,
          "name": "F2",
          "ticks": 105840,
          "time": 100.22717250000001,
          "velocity": 0.5039370078740157
        },
        {
          "duration": 0.340908749999997,
          "durationTicks": 360,
          "midi": 53,
          "name": "F3",
          "ticks": 105840,
          "time": 100.22717250000001,
          "velocity": 0.5039370078740157
        },
        {
          "duration": 0.340908749999997,
          "durationTicks": 360,
          "midi": 53,
          "name": "F3",
          "ticks": 106200,
          "time": 100.56808125,
          "velocity": 0.5039370078740157
        },
        {
          "duration": 1.0445065312500077,
          "durationTicks": 1103,
          "midi": 53,
          "name": "F3",
          "ticks": 106560,
          "time": 100.90899,
          "velocity": 0.5039370078740157
        },
        {
          "duration": 0.862688531250015,
          "durationTicks": 911,
          "midi": 60,
          "name": "C4",
          "ticks": 106800,
          "time": 101.1362625,
          "velocity": 0.5039370078740157
        },
        {
          "duration": 0.862688531250015,
          "durationTicks": 911,
          "midi": 69,
          "name": "A4",
          "ticks": 106800,
          "time": 101.1362625,
          "velocity": 0.5039370078740157
        },
        {
          "duration": 1.7263240312500017,
          "durationTicks": 1823,
          "midi": 43,
          "name": "G2",
          "ticks": 107760,
          "time": 102.0453525,
          "velocity": 0.5039370078740157
        },
        {
          "duration": 0.340908749999997,
          "durationTicks": 360,
          "midi": 55,
          "name": "G3",
          "ticks": 107760,
          "time": 102.0453525,
          "velocity": 0.5039370078740157
        },
        {
          "duration": 0.340908749999997,
          "durationTicks": 360,
          "midi": 55,
          "name": "G3",
          "ticks": 108120,
          "time": 102.38626125,
          "velocity": 0.5039370078740157
        },
        {
          "duration": 1.0445065312500077,
          "durationTicks": 1103,
          "midi": 55,
          "name": "G3",
          "ticks": 108480,
          "time": 102.72717,
          "velocity": 0.5039370078740157
        },
        {
          "duration": 0.11268928124999888,
          "durationTicks": 119,
          "midi": 67,
          "name": "G4",
          "ticks": 108720,
          "time": 102.95444250000001,
          "velocity": 0.5039370078740157
        },
        {
          "duration": 0.11268928124999888,
          "durationTicks": 119,
          "midi": 69,
          "name": "A4",
          "ticks": 108840,
          "time": 103.06807875000001,
          "velocity": 0.5039370078740157
        },
        {
          "duration": 0.11268928124999888,
          "durationTicks": 119,
          "midi": 70,
          "name": "A#4",
          "ticks": 108960,
          "time": 103.18171500000001,
          "velocity": 0.5039370078740157
        },
        {
          "duration": 0.11268928124999888,
          "durationTicks": 119,
          "midi": 74,
          "name": "D5",
          "ticks": 109080,
          "time": 103.29535125000001,
          "velocity": 0.5039370078740157
        },
        {
          "duration": 0.43087078124999323,
          "durationTicks": 455,
          "midi": 79,
          "name": "G5",
          "ticks": 109200,
          "time": 103.40898750000001,
          "velocity": 0.5039370078740157
        },
        {
          "duration": 0.11268928124999888,
          "durationTicks": 119,
          "midi": 51,
          "name": "D#3",
          "ticks": 109680,
          "time": 103.8635325,
          "velocity": 0.5039370078740157
        },
        {
          "duration": 0.11268928124999888,
          "durationTicks": 119,
          "midi": 65,
          "name": "F4",
          "ticks": 109800,
          "time": 103.97716875,
          "velocity": 0.5039370078740157
        },
        {
          "duration": 0.11268928124999888,
          "durationTicks": 119,
          "midi": 63,
          "name": "D#4",
          "ticks": 109920,
          "time": 104.090805,
          "velocity": 0.5039370078740157
        },
        {
          "duration": 0.10700746875001244,
          "durationTicks": 113,
          "midi": 65,
          "name": "F4",
          "ticks": 110040,
          "time": 104.20444125,
          "velocity": 0.5039370078740157
        },
        {
          "duration": 0.1126892812500131,
          "durationTicks": 119,
          "midi": 58,
          "name": "A#3",
          "ticks": 110160,
          "time": 104.3180775,
          "velocity": 0.5039370078740157
        },
        {
          "duration": 0.11268928124999888,
          "durationTicks": 119,
          "midi": 67,
          "name": "G4",
          "ticks": 110280,
          "time": 104.43171375000001,
          "velocity": 0.5039370078740157
        },
        {
          "duration": 0.11268928124999888,
          "durationTicks": 119,
          "midi": 69,
          "name": "A4",
          "ticks": 110400,
          "time": 104.54535000000001,
          "velocity": 0.5039370078740157
        },
        {
          "duration": 0.10700746874999822,
          "durationTicks": 113,
          "midi": 70,
          "name": "A#4",
          "ticks": 110520,
          "time": 104.65898625000001,
          "velocity": 0.5039370078740157
        },
        {
          "duration": 0.11268928124999888,
          "durationTicks": 119,
          "midi": 77,
          "name": "F5",
          "ticks": 110640,
          "time": 104.77262250000001,
          "velocity": 0.5039370078740157
        },
        {
          "duration": 0.11268928124999888,
          "durationTicks": 119,
          "midi": 74,
          "name": "D5",
          "ticks": 110760,
          "time": 104.88625875000001,
          "velocity": 0.5039370078740157
        },
        {
          "duration": 0.11268928124999888,
          "durationTicks": 119,
          "midi": 72,
          "name": "C5",
          "ticks": 110880,
          "time": 104.99989500000001,
          "velocity": 0.5039370078740157
        },
        {
          "duration": 0.10700746874999822,
          "durationTicks": 113,
          "midi": 74,
          "name": "D5",
          "ticks": 111000,
          "time": 105.11353125000001,
          "velocity": 0.5039370078740157
        },
        {
          "duration": 0.11268928124999888,
          "durationTicks": 119,
          "midi": 63,
          "name": "D#4",
          "ticks": 111120,
          "time": 105.22716750000001,
          "velocity": 0.5039370078740157
        },
        {
          "duration": 0.11268928124999888,
          "durationTicks": 119,
          "midi": 70,
          "name": "A#4",
          "ticks": 111240,
          "time": 105.34080375,
          "velocity": 0.5039370078740157
        },
        {
          "duration": 0.11268928124999888,
          "durationTicks": 119,
          "midi": 69,
          "name": "A4",
          "ticks": 111360,
          "time": 105.45444,
          "velocity": 0.5039370078740157
        },
        {
          "duration": 0.10700746875001244,
          "durationTicks": 113,
          "midi": 70,
          "name": "A#4",
          "ticks": 111480,
          "time": 105.56807625,
          "velocity": 0.5039370078740157
        },
        {
          "duration": 0.11268928124999888,
          "durationTicks": 119,
          "midi": 55,
          "name": "G3",
          "ticks": 111600,
          "time": 105.6817125,
          "velocity": 0.5039370078740157
        },
        {
          "duration": 0.1126892812500131,
          "durationTicks": 119,
          "midi": 65,
          "name": "F4",
          "ticks": 111720,
          "time": 105.79534875,
          "velocity": 0.5039370078740157
        },
        {
          "duration": 0.1126892812500131,
          "durationTicks": 119,
          "midi": 62,
          "name": "D4",
          "ticks": 111840,
          "time": 105.908985,
          "velocity": 0.5039370078740157
        },
        {
          "duration": 0.10700746874999822,
          "durationTicks": 113,
          "midi": 65,
          "name": "F4",
          "ticks": 111960,
          "time": 106.02262125000001,
          "velocity": 0.5039370078740157
        },
        {
          "duration": 0.11268928124999888,
          "durationTicks": 119,
          "midi": 58,
          "name": "A#3",
          "ticks": 112080,
          "time": 106.13625750000001,
          "velocity": 0.5039370078740157
        },
        {
          "duration": 0.11268928124999888,
          "durationTicks": 119,
          "midi": 67,
          "name": "G4",
          "ticks": 112200,
          "time": 106.24989375000001,
          "velocity": 0.5039370078740157
        },
        {
          "duration": 0.11268928124999888,
          "durationTicks": 119,
          "midi": 69,
          "name": "A4",
          "ticks": 112320,
          "time": 106.36353000000001,
          "velocity": 0.5039370078740157
        },
        {
          "duration": 0.10700746874999822,
          "durationTicks": 113,
          "midi": 70,
          "name": "A#4",
          "ticks": 112440,
          "time": 106.47716625000001,
          "velocity": 0.5039370078740157
        },
        {
          "duration": 0.11268928124999888,
          "durationTicks": 119,
          "midi": 77,
          "name": "F5",
          "ticks": 112560,
          "time": 106.59080250000001,
          "velocity": 0.5039370078740157
        },
        {
          "duration": 0.11268928124999888,
          "durationTicks": 119,
          "midi": 74,
          "name": "D5",
          "ticks": 112680,
          "time": 106.70443875000001,
          "velocity": 0.5039370078740157
        },
        {
          "duration": 0.11268928124999888,
          "durationTicks": 119,
          "midi": 72,
          "name": "C5",
          "ticks": 112800,
          "time": 106.81807500000001,
          "velocity": 0.5039370078740157
        },
        {
          "duration": 0.10700746875001244,
          "durationTicks": 113,
          "midi": 74,
          "name": "D5",
          "ticks": 112920,
          "time": 106.93171125,
          "velocity": 0.5039370078740157
        },
        {
          "duration": 0.11268928124999888,
          "durationTicks": 119,
          "midi": 67,
          "name": "G4",
          "ticks": 113040,
          "time": 107.0453475,
          "velocity": 0.5039370078740157
        },
        {
          "duration": 0.11268928124999888,
          "durationTicks": 119,
          "midi": 70,
          "name": "A#4",
          "ticks": 113160,
          "time": 107.15898375,
          "velocity": 0.5039370078740157
        },
        {
          "duration": 0.11268928124999888,
          "durationTicks": 119,
          "midi": 69,
          "name": "A4",
          "ticks": 113280,
          "time": 107.27262,
          "velocity": 0.5039370078740157
        },
        {
          "duration": 0.10700746875001244,
          "durationTicks": 113,
          "midi": 70,
          "name": "A#4",
          "ticks": 113400,
          "time": 107.38625625,
          "velocity": 0.5039370078740157
        },
        {
          "duration": 0.1126892812500131,
          "durationTicks": 119,
          "midi": 53,
          "name": "F3",
          "ticks": 113520,
          "time": 107.4998925,
          "velocity": 0.5039370078740157
        },
        {
          "duration": 0.11268928124999888,
          "durationTicks": 119,
          "midi": 65,
          "name": "F4",
          "ticks": 113640,
          "time": 107.61352875000001,
          "velocity": 0.5039370078740157
        },
        {
          "duration": 0.11268928124999888,
          "durationTicks": 119,
          "midi": 60,
          "name": "C4",
          "ticks": 113760,
          "time": 107.72716500000001,
          "velocity": 0.5039370078740157
        },
        {
          "duration": 0.10700746874999822,
          "durationTicks": 113,
          "midi": 65,
          "name": "F4",
          "ticks": 113880,
          "time": 107.84080125000001,
          "velocity": 0.5039370078740157
        },
        {
          "duration": 0.11268928124999888,
          "durationTicks": 119,
          "midi": 70,
          "name": "A#4",
          "ticks": 114000,
          "time": 107.95443750000001,
          "velocity": 0.5039370078740157
        },
        {
          "duration": 0.11268928124999888,
          "durationTicks": 119,
          "midi": 65,
          "name": "F4",
          "ticks": 114120,
          "time": 108.06807375000001,
          "velocity": 0.5039370078740157
        },
        {
          "duration": 0.11268928124999888,
          "durationTicks": 119,
          "midi": 70,
          "name": "A#4",
          "ticks": 114240,
          "time": 108.18171000000001,
          "velocity": 0.5039370078740157
        },
        {
          "duration": 0.10700746874999822,
          "durationTicks": 113,
          "midi": 72,
          "name": "C5",
          "ticks": 114360,
          "time": 108.29534625000001,
          "velocity": 0.5039370078740157
        },
        {
          "duration": 0.11268928124999888,
          "durationTicks": 119,
          "midi": 77,
          "name": "F5",
          "ticks": 114480,
          "time": 108.40898250000001,
          "velocity": 0.5039370078740157
        },
        {
          "duration": 0.11268928124999888,
          "durationTicks": 119,
          "midi": 72,
          "name": "C5",
          "ticks": 114600,
          "time": 108.52261875,
          "velocity": 0.5039370078740157
        },
        {
          "duration": 0.11268928124999888,
          "durationTicks": 119,
          "midi": 70,
          "name": "A#4",
          "ticks": 114720,
          "time": 108.636255,
          "velocity": 0.5039370078740157
        },
        {
          "duration": 0.10700746875001244,
          "durationTicks": 113,
          "midi": 72,
          "name": "C5",
          "ticks": 114840,
          "time": 108.74989125,
          "velocity": 0.5039370078740157
        },
        {
          "duration": 0.11268928124999888,
          "durationTicks": 119,
          "midi": 65,
          "name": "F4",
          "ticks": 114960,
          "time": 108.8635275,
          "velocity": 0.5039370078740157
        },
        {
          "duration": 0.1126892812500131,
          "durationTicks": 119,
          "midi": 70,
          "name": "A#4",
          "ticks": 115080,
          "time": 108.97716375,
          "velocity": 0.5039370078740157
        },
        {
          "duration": 0.1126892812500131,
          "durationTicks": 119,
          "midi": 72,
          "name": "C5",
          "ticks": 115200,
          "time": 109.0908,
          "velocity": 0.5039370078740157
        },
        {
          "duration": 0.10700746874999822,
          "durationTicks": 113,
          "midi": 70,
          "name": "A#4",
          "ticks": 115320,
          "time": 109.20443625000001,
          "velocity": 0.5039370078740157
        },
        {
          "duration": 0.11268928124999888,
          "durationTicks": 119,
          "midi": 55,
          "name": "G3",
          "ticks": 115440,
          "time": 109.31807250000001,
          "velocity": 0.5039370078740157
        },
        {
          "duration": 0.11268928124999888,
          "durationTicks": 119,
          "midi": 65,
          "name": "F4",
          "ticks": 115560,
          "time": 109.43170875000001,
          "velocity": 0.5039370078740157
        },
        {
          "duration": 0.11268928124999888,
          "durationTicks": 119,
          "midi": 62,
          "name": "D4",
          "ticks": 115680,
          "time": 109.54534500000001,
          "velocity": 0.5039370078740157
        },
        {
          "duration": 0.10700746874999822,
          "durationTicks": 113,
          "midi": 65,
          "name": "F4",
          "ticks": 115800,
          "time": 109.65898125000001,
          "velocity": 0.5039370078740157
        },
        {
          "duration": 0.11268928124999888,
          "durationTicks": 119,
          "midi": 58,
          "name": "A#3",
          "ticks": 115920,
          "time": 109.77261750000001,
          "velocity": 0.5039370078740157
        },
        {
          "duration": 0.11268928124999888,
          "durationTicks": 119,
          "midi": 67,
          "name": "G4",
          "ticks": 116040,
          "time": 109.88625375000001,
          "velocity": 0.5039370078740157
        },
        {
          "duration": 0.11268928124999888,
          "durationTicks": 119,
          "midi": 69,
          "name": "A4",
          "ticks": 116160,
          "time": 109.99989000000001,
          "velocity": 0.5039370078740157
        },
        {
          "duration": 0.10700746875001244,
          "durationTicks": 113,
          "midi": 70,
          "name": "A#4",
          "ticks": 116280,
          "time": 110.11352625,
          "velocity": 0.5039370078740157
        },
        {
          "duration": 0.11268928124999888,
          "durationTicks": 119,
          "midi": 77,
          "name": "F5",
          "ticks": 116400,
          "time": 110.2271625,
          "velocity": 0.5039370078740157
        },
        {
          "duration": 0.11268928124999888,
          "durationTicks": 119,
          "midi": 74,
          "name": "D5",
          "ticks": 116520,
          "time": 110.34079875,
          "velocity": 0.5039370078740157
        },
        {
          "duration": 0.11268928124999888,
          "durationTicks": 119,
          "midi": 72,
          "name": "C5",
          "ticks": 116640,
          "time": 110.454435,
          "velocity": 0.5039370078740157
        },
        {
          "duration": 0.10700746875001244,
          "durationTicks": 113,
          "midi": 74,
          "name": "D5",
          "ticks": 116760,
          "time": 110.56807125,
          "velocity": 0.5039370078740157
        },
        {
          "duration": 0.1126892812500131,
          "durationTicks": 119,
          "midi": 67,
          "name": "G4",
          "ticks": 116880,
          "time": 110.6817075,
          "velocity": 0.5039370078740157
        },
        {
          "duration": 0.11268928124999888,
          "durationTicks": 119,
          "midi": 70,
          "name": "A#4",
          "ticks": 117000,
          "time": 110.79534375000001,
          "velocity": 0.5039370078740157
        },
        {
          "duration": 0.11268928124999888,
          "durationTicks": 119,
          "midi": 69,
          "name": "A4",
          "ticks": 117120,
          "time": 110.90898000000001,
          "velocity": 0.5039370078740157
        },
        {
          "duration": 0.10700746874999822,
          "durationTicks": 113,
          "midi": 70,
          "name": "A#4",
          "ticks": 117240,
          "time": 111.02261625000001,
          "velocity": 0.5039370078740157
        },
        {
          "duration": 0.11268928124999888,
          "durationTicks": 119,
          "midi": 51,
          "name": "D#3",
          "ticks": 117360,
          "time": 111.13625250000001,
          "velocity": 0.6299212598425197
        },
        {
          "duration": 0.11268928124999888,
          "durationTicks": 119,
          "midi": 63,
          "name": "D#4",
          "ticks": 117480,
          "time": 111.24988875000001,
          "velocity": 0.6299212598425197
        },
        {
          "duration": 0.11268928124999888,
          "durationTicks": 119,
          "midi": 55,
          "name": "G3",
          "ticks": 117600,
          "time": 111.36352500000001,
          "velocity": 0.6377952755905512
        },
        {
          "duration": 0.11268928124999888,
          "durationTicks": 119,
          "midi": 58,
          "name": "A#3",
          "ticks": 117600,
          "time": 111.36352500000001,
          "velocity": 0.6377952755905512
        },
        {
          "duration": 0.10700746874999822,
          "durationTicks": 113,
          "midi": 51,
          "name": "D#3",
          "ticks": 117720,
          "time": 111.47716125000001,
          "velocity": 0.6377952755905512
        },
        {
          "duration": 0.11268928124999888,
          "durationTicks": 119,
          "midi": 39,
          "name": "D#2",
          "ticks": 117840,
          "time": 111.59079750000001,
          "velocity": 0.6456692913385826
        },
        {
          "duration": 0.11268928124999888,
          "durationTicks": 119,
          "midi": 51,
          "name": "D#3",
          "ticks": 117960,
          "time": 111.70443375,
          "velocity": 0.6456692913385826
        },
        {
          "duration": 0.11268928124999888,
          "durationTicks": 119,
          "midi": 55,
          "name": "G3",
          "ticks": 118080,
          "time": 111.81807,
          "velocity": 0.6535433070866141
        },
        {
          "duration": 0.11268928124999888,
          "durationTicks": 119,
          "midi": 58,
          "name": "A#3",
          "ticks": 118080,
          "time": 111.81807,
          "velocity": 0.6535433070866141
        },
        {
          "duration": 0.10700746875001244,
          "durationTicks": 113,
          "midi": 63,
          "name": "D#4",
          "ticks": 118200,
          "time": 111.93170625,
          "velocity": 0.6614173228346457
        },
        {
          "duration": 0.11268928124999888,
          "durationTicks": 119,
          "midi": 51,
          "name": "D#3",
          "ticks": 118320,
          "time": 112.0453425,
          "velocity": 0.6614173228346457
        },
        {
          "duration": 0.1126892812500131,
          "durationTicks": 119,
          "midi": 63,
          "name": "D#4",
          "ticks": 118440,
          "time": 112.15897875,
          "velocity": 0.6692913385826772
        },
        {
          "duration": 0.1126892812500131,
          "durationTicks": 119,
          "midi": 55,
          "name": "G3",
          "ticks": 118560,
          "time": 112.272615,
          "velocity": 0.6692913385826772
        },
        {
          "duration": 0.1126892812500131,
          "durationTicks": 119,
          "midi": 58,
          "name": "A#3",
          "ticks": 118560,
          "time": 112.272615,
          "velocity": 0.6692913385826772
        },
        {
          "duration": 0.10700746874999822,
          "durationTicks": 113,
          "midi": 51,
          "name": "D#3",
          "ticks": 118680,
          "time": 112.38625125000002,
          "velocity": 0.6771653543307087
        },
        {
          "duration": 0.11268928124999888,
          "durationTicks": 119,
          "midi": 39,
          "name": "D#2",
          "ticks": 118800,
          "time": 112.49988750000001,
          "velocity": 0.6771653543307087
        },
        {
          "duration": 0.11268928124999888,
          "durationTicks": 119,
          "midi": 51,
          "name": "D#3",
          "ticks": 118920,
          "time": 112.61352375000001,
          "velocity": 0.6850393700787402
        },
        {
          "duration": 0.11268928124999888,
          "durationTicks": 119,
          "midi": 55,
          "name": "G3",
          "ticks": 119040,
          "time": 112.72716000000001,
          "velocity": 0.6929133858267716
        },
        {
          "duration": 0.11268928124999888,
          "durationTicks": 119,
          "midi": 58,
          "name": "A#3",
          "ticks": 119040,
          "time": 112.72716000000001,
          "velocity": 0.6929133858267716
        },
        {
          "duration": 0.10700746874999822,
          "durationTicks": 113,
          "midi": 63,
          "name": "D#4",
          "ticks": 119160,
          "time": 112.84079625000001,
          "velocity": 0.6929133858267716
        },
        {
          "duration": 0.11268928124999888,
          "durationTicks": 119,
          "midi": 55,
          "name": "G3",
          "ticks": 119280,
          "time": 112.95443250000001,
          "velocity": 0.7007874015748031
        },
        {
          "duration": 0.11268928124999888,
          "durationTicks": 119,
          "midi": 67,
          "name": "G4",
          "ticks": 119400,
          "time": 113.06806875000001,
          "velocity": 0.7007874015748031
        },
        {
          "duration": 0.11268928124999888,
          "durationTicks": 119,
          "midi": 58,
          "name": "A#3",
          "ticks": 119520,
          "time": 113.18170500000001,
          "velocity": 0.7086614173228346
        },
        {
          "duration": 0.11268928124999888,
          "durationTicks": 119,
          "midi": 62,
          "name": "D4",
          "ticks": 119520,
          "time": 113.18170500000001,
          "velocity": 0.7086614173228346
        },
        {
          "duration": 0.10700746875001244,
          "durationTicks": 113,
          "midi": 55,
          "name": "G3",
          "ticks": 119640,
          "time": 113.29534125,
          "velocity": 0.7086614173228346
        },
        {
          "duration": 0.11268928124999888,
          "durationTicks": 119,
          "midi": 43,
          "name": "G2",
          "ticks": 119760,
          "time": 113.4089775,
          "velocity": 0.7165354330708661
        },
        {
          "duration": 0.11268928124999888,
          "durationTicks": 119,
          "midi": 55,
          "name": "G3",
          "ticks": 119880,
          "time": 113.52261375,
          "velocity": 0.7244094488188977
        },
        {
          "duration": 0.11268928124999888,
          "durationTicks": 119,
          "midi": 58,
          "name": "A#3",
          "ticks": 120000,
          "time": 113.63625,
          "velocity": 0.7244094488188977
        },
        {
          "duration": 0.11268928124999888,
          "durationTicks": 119,
          "midi": 62,
          "name": "D4",
          "ticks": 120000,
          "time": 113.63625,
          "velocity": 0.7244094488188977
        },
        {
          "duration": 0.10700746875001244,
          "durationTicks": 113,
          "midi": 67,
          "name": "G4",
          "ticks": 120120,
          "time": 113.74988625,
          "velocity": 0.7322834645669292
        },
        {
          "duration": 0.1126892812500131,
          "durationTicks": 119,
          "midi": 55,
          "name": "G3",
          "ticks": 120240,
          "time": 113.8635225,
          "velocity": 0.7322834645669292
        },
        {
          "duration": 0.11268928124999888,
          "durationTicks": 119,
          "midi": 67,
          "name": "G4",
          "ticks": 120360,
          "time": 113.97715875000002,
          "velocity": 0.7401574803149606
        },
        {
          "duration": 0.11268928124999888,
          "durationTicks": 119,
          "midi": 58,
          "name": "A#3",
          "ticks": 120480,
          "time": 114.09079500000001,
          "velocity": 0.7401574803149606
        },
        {
          "duration": 0.11268928124999888,
          "durationTicks": 119,
          "midi": 62,
          "name": "D4",
          "ticks": 120480,
          "time": 114.09079500000001,
          "velocity": 0.7401574803149606
        },
        {
          "duration": 0.10700746874999822,
          "durationTicks": 113,
          "midi": 55,
          "name": "G3",
          "ticks": 120600,
          "time": 114.20443125000001,
          "velocity": 0.7480314960629921
        },
        {
          "duration": 0.11268928124999888,
          "durationTicks": 119,
          "midi": 43,
          "name": "G2",
          "ticks": 120720,
          "time": 114.31806750000001,
          "velocity": 0.7559055118110236
        },
        {
          "duration": 0.11268928124999888,
          "durationTicks": 119,
          "midi": 55,
          "name": "G3",
          "ticks": 120840,
          "time": 114.43170375000001,
          "velocity": 0.7559055118110236
        },
        {
          "duration": 0.11268928124999888,
          "durationTicks": 119,
          "midi": 58,
          "name": "A#3",
          "ticks": 120960,
          "time": 114.54534000000001,
          "velocity": 0.7637795275590551
        },
        {
          "duration": 0.11268928124999888,
          "durationTicks": 119,
          "midi": 62,
          "name": "D4",
          "ticks": 120960,
          "time": 114.54534000000001,
          "velocity": 0.7637795275590551
        },
        {
          "duration": 0.10700746874999822,
          "durationTicks": 113,
          "midi": 67,
          "name": "G4",
          "ticks": 121080,
          "time": 114.65897625000001,
          "velocity": 0.7637795275590551
        },
        {
          "duration": 0.11268928124999888,
          "durationTicks": 119,
          "midi": 53,
          "name": "F3",
          "ticks": 121200,
          "time": 114.77261250000001,
          "velocity": 0.7716535433070866
        },
        {
          "duration": 0.11268928124999888,
          "durationTicks": 119,
          "midi": 65,
          "name": "F4",
          "ticks": 121320,
          "time": 114.88624875000001,
          "velocity": 0.7716535433070866
        },
        {
          "duration": 0.11268928124999888,
          "durationTicks": 119,
          "midi": 57,
          "name": "A3",
          "ticks": 121440,
          "time": 114.999885,
          "velocity": 0.7795275590551181
        },
        {
          "duration": 0.11268928124999888,
          "durationTicks": 119,
          "midi": 60,
          "name": "C4",
          "ticks": 121440,
          "time": 114.999885,
          "velocity": 0.7795275590551181
        },
        {
          "duration": 0.10700746875001244,
          "durationTicks": 113,
          "midi": 53,
          "name": "F3",
          "ticks": 121560,
          "time": 115.11352125,
          "velocity": 0.7874015748031497
        },
        {
          "duration": 0.11268928124999888,
          "durationTicks": 119,
          "midi": 41,
          "name": "F2",
          "ticks": 121680,
          "time": 115.2271575,
          "velocity": 0.7874015748031497
        },
        {
          "duration": 0.11268928124999888,
          "durationTicks": 119,
          "midi": 53,
          "name": "F3",
          "ticks": 121800,
          "time": 115.34079375,
          "velocity": 0.7952755905511811
        },
        {
          "duration": 0.1126892812500131,
          "durationTicks": 119,
          "midi": 55,
          "name": "G3",
          "ticks": 121920,
          "time": 115.45443,
          "velocity": 0.7952755905511811
        },
        {
          "duration": 0.1126892812500131,
          "durationTicks": 119,
          "midi": 60,
          "name": "C4",
          "ticks": 121920,
          "time": 115.45443,
          "velocity": 0.7952755905511811
        },
        {
          "duration": 0.10700746874999822,
          "durationTicks": 113,
          "midi": 65,
          "name": "F4",
          "ticks": 122040,
          "time": 115.56806625000002,
          "velocity": 0.8031496062992126
        },
        {
          "duration": 0.11268928124999888,
          "durationTicks": 119,
          "midi": 53,
          "name": "F3",
          "ticks": 122160,
          "time": 115.68170250000001,
          "velocity": 0.8031496062992126
        },
        {
          "duration": 0.11268928124999888,
          "durationTicks": 119,
          "midi": 65,
          "name": "F4",
          "ticks": 122280,
          "time": 115.79533875000001,
          "velocity": 0.8110236220472441
        },
        {
          "duration": 0.11268928124999888,
          "durationTicks": 119,
          "midi": 57,
          "name": "A3",
          "ticks": 122400,
          "time": 115.90897500000001,
          "velocity": 0.8188976377952756
        },
        {
          "duration": 0.11268928124999888,
          "durationTicks": 119,
          "midi": 60,
          "name": "C4",
          "ticks": 122400,
          "time": 115.90897500000001,
          "velocity": 0.8188976377952756
        },
        {
          "duration": 0.10700746874999822,
          "durationTicks": 113,
          "midi": 53,
          "name": "F3",
          "ticks": 122520,
          "time": 116.02261125000001,
          "velocity": 0.8188976377952756
        },
        {
          "duration": 0.11268928124999888,
          "durationTicks": 119,
          "midi": 41,
          "name": "F2",
          "ticks": 122640,
          "time": 116.13624750000001,
          "velocity": 0.8267716535433071
        },
        {
          "duration": 0.11268928124999888,
          "durationTicks": 119,
          "midi": 53,
          "name": "F3",
          "ticks": 122760,
          "time": 116.24988375000001,
          "velocity": 0.8267716535433071
        },
        {
          "duration": 0.11268928124998467,
          "durationTicks": 119,
          "midi": 55,
          "name": "G3",
          "ticks": 122880,
          "time": 116.36352000000001,
          "velocity": 0.8346456692913385
        },
        {
          "duration": 0.11268928124998467,
          "durationTicks": 119,
          "midi": 60,
          "name": "C4",
          "ticks": 122880,
          "time": 116.36352000000001,
          "velocity": 0.8346456692913385
        },
        {
          "duration": 0.10700746874999822,
          "durationTicks": 113,
          "midi": 65,
          "name": "F4",
          "ticks": 123000,
          "time": 116.47715625000001,
          "velocity": 0.8346456692913385
        },
        {
          "duration": 0.10700746874999822,
          "durationTicks": 113,
          "midi": 55,
          "name": "G3",
          "ticks": 123120,
          "time": 116.5907925,
          "velocity": 0.84251968503937
        },
        {
          "duration": 0.10700746874999822,
          "durationTicks": 113,
          "midi": 67,
          "name": "G4",
          "ticks": 123240,
          "time": 116.70442875,
          "velocity": 0.8503937007874016
        },
        {
          "duration": 0.10700746874999822,
          "durationTicks": 113,
          "midi": 58,
          "name": "A#3",
          "ticks": 123360,
          "time": 116.818065,
          "velocity": 0.8503937007874016
        },
        {
          "duration": 0.10700746874999822,
          "durationTicks": 113,
          "midi": 62,
          "name": "D4",
          "ticks": 123360,
          "time": 116.818065,
          "velocity": 0.8503937007874016
        },
        {
          "duration": 0.10700746874999822,
          "durationTicks": 113,
          "midi": 55,
          "name": "G3",
          "ticks": 123480,
          "time": 116.93170125,
          "velocity": 0.8582677165354331
        },
        {
          "duration": 0.43087078125002165,
          "durationTicks": 455,
          "midi": 43,
          "name": "G2",
          "ticks": 123600,
          "time": 117.0453375,
          "velocity": 0.8582677165354331
        },
        {
          "duration": 0.3229163437499949,
          "durationTicks": 341,
          "midi": 55,
          "name": "G3",
          "ticks": 124080,
          "time": 117.49988250000001,
          "velocity": 0.8818897637795275
        },
        {
          "duration": 0.3229163437499949,
          "durationTicks": 341,
          "midi": 58,
          "name": "A#3",
          "ticks": 124080,
          "time": 117.49988250000001,
          "velocity": 0.8818897637795275
        },
        {
          "duration": 0.3229163437499949,
          "durationTicks": 341,
          "midi": 62,
          "name": "D4",
          "ticks": 124080,
          "time": 117.49988250000001,
          "velocity": 0.8818897637795275
        },
        {
          "duration": 0.3229163437500091,
          "durationTicks": 341,
          "midi": 55,
          "name": "G3",
          "ticks": 124440,
          "time": 117.84079125000001,
          "velocity": 0.8818897637795275
        },
        {
          "duration": 0.3229163437500091,
          "durationTicks": 341,
          "midi": 58,
          "name": "A#3",
          "ticks": 124440,
          "time": 117.84079125000001,
          "velocity": 0.8818897637795275
        },
        {
          "duration": 0.3229163437500091,
          "durationTicks": 341,
          "midi": 62,
          "name": "D4",
          "ticks": 124440,
          "time": 117.84079125000001,
          "velocity": 0.8818897637795275
        },
        {
          "duration": 0.21496190624999656,
          "durationTicks": 227,
          "midi": 55,
          "name": "G3",
          "ticks": 124800,
          "time": 118.1817,
          "velocity": 0.8818897637795275
        },
        {
          "duration": 0.21496190624999656,
          "durationTicks": 227,
          "midi": 58,
          "name": "A#3",
          "ticks": 124800,
          "time": 118.1817,
          "velocity": 0.8818897637795275
        },
        {
          "duration": 0.21496190624999656,
          "durationTicks": 227,
          "midi": 62,
          "name": "D4",
          "ticks": 124800,
          "time": 118.1817,
          "velocity": 0.8818897637795275
        },
        {
          "duration": 1.7263240312500017,
          "durationTicks": 1823,
          "midi": 27,
          "name": "D#1",
          "ticks": 125040,
          "time": 118.4089725,
          "velocity": 0.8818897637795275
        },
        {
          "duration": 0.340908749999997,
          "durationTicks": 360,
          "midi": 39,
          "name": "D#2",
          "ticks": 125040,
          "time": 118.4089725,
          "velocity": 0.8818897637795275
        },
        {
          "duration": 0.3409087500000112,
          "durationTicks": 360,
          "midi": 39,
          "name": "D#2",
          "ticks": 125400,
          "time": 118.74988125,
          "velocity": 0.8818897637795275
        },
        {
          "duration": 0.568181249999995,
          "durationTicks": 600,
          "midi": 39,
          "name": "D#2",
          "ticks": 125760,
          "time": 119.09079000000001,
          "velocity": 0.8818897637795275
        },
        {
          "duration": 0.3229163437499949,
          "durationTicks": 341,
          "midi": 46,
          "name": "A#2",
          "ticks": 126000,
          "time": 119.31806250000001,
          "velocity": 0.8818897637795275
        },
        {
          "duration": 0.3229163437499949,
          "durationTicks": 341,
          "midi": 51,
          "name": "D#3",
          "ticks": 126000,
          "time": 119.31806250000001,
          "velocity": 0.8818897637795275
        },
        {
          "duration": 0.3229163437499949,
          "durationTicks": 341,
          "midi": 55,
          "name": "G3",
          "ticks": 126000,
          "time": 119.31806250000001,
          "velocity": 0.8818897637795275
        },
        {
          "duration": 0.340908749999997,
          "durationTicks": 360,
          "midi": 39,
          "name": "D#2",
          "ticks": 126360,
          "time": 119.65897125000001,
          "velocity": 0.8818897637795275
        },
        {
          "duration": 0.21496190624999656,
          "durationTicks": 227,
          "midi": 39,
          "name": "D#2",
          "ticks": 126720,
          "time": 119.99988,
          "velocity": 0.8818897637795275
        },
        {
          "duration": 1.7263240312500017,
          "durationTicks": 1823,
          "midi": 29,
          "name": "F1",
          "ticks": 126960,
          "time": 120.2271525,
          "velocity": 0.8818897637795275
        },
        {
          "duration": 0.3409087500000112,
          "durationTicks": 360,
          "midi": 41,
          "name": "F2",
          "ticks": 126960,
          "time": 120.2271525,
          "velocity": 0.8818897637795275
        },
        {
          "duration": 0.340908749999997,
          "durationTicks": 360,
          "midi": 41,
          "name": "F2",
          "ticks": 127320,
          "time": 120.56806125000001,
          "velocity": 0.8818897637795275
        },
        {
          "duration": 0.568181249999995,
          "durationTicks": 600,
          "midi": 41,
          "name": "F2",
          "ticks": 127680,
          "time": 120.90897000000001,
          "velocity": 0.8818897637795275
        },
        {
          "duration": 0.3229163437500091,
          "durationTicks": 341,
          "midi": 53,
          "name": "F3",
          "ticks": 127920,
          "time": 121.13624250000001,
          "velocity": 0.8818897637795275
        },
        {
          "duration": 0.3229163437500091,
          "durationTicks": 341,
          "midi": 57,
          "name": "A3",
          "ticks": 127920,
          "time": 121.13624250000001,
          "velocity": 0.8818897637795275
        },
        {
          "duration": 0.3229163437500091,
          "durationTicks": 341,
          "midi": 60,
          "name": "C4",
          "ticks": 127920,
          "time": 121.13624250000001,
          "velocity": 0.8818897637795275
        },
        {
          "duration": 0.340908749999997,
          "durationTicks": 360,
          "midi": 41,
          "name": "F2",
          "ticks": 128280,
          "time": 121.47715125,
          "velocity": 0.8818897637795275
        },
        {
          "duration": 0.21496190625001077,
          "durationTicks": 227,
          "midi": 41,
          "name": "F2",
          "ticks": 128640,
          "time": 121.81806,
          "velocity": 0.8818897637795275
        },
        {
          "duration": 1.7263240312499875,
          "durationTicks": 1823,
          "midi": 31,
          "name": "G1",
          "ticks": 128880,
          "time": 122.04533250000001,
          "velocity": 0.8818897637795275
        },
        {
          "duration": 0.340908749999997,
          "durationTicks": 360,
          "midi": 43,
          "name": "G2",
          "ticks": 128880,
          "time": 122.04533250000001,
          "velocity": 0.8818897637795275
        },
        {
          "duration": 0.340908749999997,
          "durationTicks": 360,
          "midi": 43,
          "name": "G2",
          "ticks": 129240,
          "time": 122.38624125000001,
          "velocity": 0.8818897637795275
        },
        {
          "duration": 0.568181249999995,
          "durationTicks": 600,
          "midi": 43,
          "name": "G2",
          "ticks": 129600,
          "time": 122.72715000000001,
          "velocity": 0.8818897637795275
        },
        {
          "duration": 0.3229163437500091,
          "durationTicks": 341,
          "midi": 50,
          "name": "D3",
          "ticks": 129840,
          "time": 122.9544225,
          "velocity": 0.8818897637795275
        },
        {
          "duration": 0.3229163437500091,
          "durationTicks": 341,
          "midi": 55,
          "name": "G3",
          "ticks": 129840,
          "time": 122.9544225,
          "velocity": 0.8818897637795275
        },
        {
          "duration": 0.0757575000000088,
          "durationTicks": 80,
          "midi": 62,
          "name": "D4",
          "ticks": 129840,
          "time": 122.9544225,
          "velocity": 0.8818897637795275
        },
        {
          "duration": 0.3409087500000112,
          "durationTicks": 360,
          "midi": 43,
          "name": "G2",
          "ticks": 130200,
          "time": 123.29533125,
          "velocity": 0.8818897637795275
        },
        {
          "duration": 0.21496190624999656,
          "durationTicks": 227,
          "midi": 43,
          "name": "G2",
          "ticks": 130560,
          "time": 123.63624000000002,
          "velocity": 0.8818897637795275
        },
        {
          "duration": 1.7263240312499875,
          "durationTicks": 1823,
          "midi": 26,
          "name": "D1",
          "ticks": 130800,
          "time": 123.86351250000001,
          "velocity": 0.8818897637795275
        },
        {
          "duration": 0.340908749999997,
          "durationTicks": 360,
          "midi": 38,
          "name": "D2",
          "ticks": 130800,
          "time": 123.86351250000001,
          "velocity": 0.8818897637795275
        },
        {
          "duration": 0.340908749999997,
          "durationTicks": 360,
          "midi": 38,
          "name": "D2",
          "ticks": 131160,
          "time": 124.20442125000001,
          "velocity": 0.8818897637795275
        },
        {
          "duration": 0.568181249999995,
          "durationTicks": 600,
          "midi": 38,
          "name": "D2",
          "ticks": 131520,
          "time": 124.54533,
          "velocity": 0.8818897637795275
        },
        {
          "duration": 0.3229163437500091,
          "durationTicks": 341,
          "midi": 53,
          "name": "F3",
          "ticks": 131760,
          "time": 124.7726025,
          "velocity": 0.8818897637795275
        },
        {
          "duration": 0.3229163437500091,
          "durationTicks": 341,
          "midi": 57,
          "name": "A3",
          "ticks": 131760,
          "time": 124.7726025,
          "velocity": 0.8818897637795275
        },
        {
          "duration": 0.3229163437500091,
          "durationTicks": 341,
          "midi": 60,
          "name": "C4",
          "ticks": 131760,
          "time": 124.7726025,
          "velocity": 0.8818897637795275
        },
        {
          "duration": 0.3409087500000112,
          "durationTicks": 360,
          "midi": 38,
          "name": "D2",
          "ticks": 132120,
          "time": 125.11351125,
          "velocity": 0.8818897637795275
        },
        {
          "duration": 0.21496190624999656,
          "durationTicks": 227,
          "midi": 38,
          "name": "D2",
          "ticks": 132480,
          "time": 125.45442000000001,
          "velocity": 0.8818897637795275
        },
        {
          "duration": 1.7263240312499875,
          "durationTicks": 1823,
          "midi": 27,
          "name": "D#1",
          "ticks": 132720,
          "time": 125.68169250000001,
          "velocity": 0.8818897637795275
        },
        {
          "duration": 0.340908749999997,
          "durationTicks": 360,
          "midi": 39,
          "name": "D#2",
          "ticks": 132720,
          "time": 125.68169250000001,
          "velocity": 0.8818897637795275
        },
        {
          "duration": 0.340908749999997,
          "durationTicks": 360,
          "midi": 39,
          "name": "D#2",
          "ticks": 133080,
          "time": 126.02260125000001,
          "velocity": 0.8818897637795275
        },
        {
          "duration": 0.5681812500000092,
          "durationTicks": 600,
          "midi": 39,
          "name": "D#2",
          "ticks": 133440,
          "time": 126.36351,
          "velocity": 0.8818897637795275
        },
        {
          "duration": 0.3229163437500091,
          "durationTicks": 341,
          "midi": 46,
          "name": "A#2",
          "ticks": 133680,
          "time": 126.5907825,
          "velocity": 0.8818897637795275
        },
        {
          "duration": 0.3229163437500091,
          "durationTicks": 341,
          "midi": 51,
          "name": "D#3",
          "ticks": 133680,
          "time": 126.5907825,
          "velocity": 0.8818897637795275
        },
        {
          "duration": 0.3229163437500091,
          "durationTicks": 341,
          "midi": 55,
          "name": "G3",
          "ticks": 133680,
          "time": 126.5907825,
          "velocity": 0.8818897637795275
        },
        {
          "duration": 0.340908749999997,
          "durationTicks": 360,
          "midi": 39,
          "name": "D#2",
          "ticks": 134040,
          "time": 126.93169125000001,
          "velocity": 0.8818897637795275
        },
        {
          "duration": 0.21496190624999656,
          "durationTicks": 227,
          "midi": 39,
          "name": "D#2",
          "ticks": 134400,
          "time": 127.27260000000001,
          "velocity": 0.8818897637795275
        },
        {
          "duration": 1.7263240312499875,
          "durationTicks": 1823,
          "midi": 29,
          "name": "F1",
          "ticks": 134640,
          "time": 127.49987250000001,
          "velocity": 0.8818897637795275
        },
        {
          "duration": 0.340908749999997,
          "durationTicks": 360,
          "midi": 41,
          "name": "F2",
          "ticks": 134640,
          "time": 127.49987250000001,
          "velocity": 0.8818897637795275
        },
        {
          "duration": 0.340908749999997,
          "durationTicks": 360,
          "midi": 41,
          "name": "F2",
          "ticks": 135000,
          "time": 127.84078125,
          "velocity": 0.8818897637795275
        },
        {
          "duration": 0.5681812500000092,
          "durationTicks": 600,
          "midi": 41,
          "name": "F2",
          "ticks": 135360,
          "time": 128.18169,
          "velocity": 0.8818897637795275
        },
        {
          "duration": 0.3229163437500233,
          "durationTicks": 341,
          "midi": 53,
          "name": "F3",
          "ticks": 135600,
          "time": 128.4089625,
          "velocity": 0.8818897637795275
        },
        {
          "duration": 0.3229163437500233,
          "durationTicks": 341,
          "midi": 57,
          "name": "A3",
          "ticks": 135600,
          "time": 128.4089625,
          "velocity": 0.8818897637795275
        },
        {
          "duration": 0.3229163437500233,
          "durationTicks": 341,
          "midi": 60,
          "name": "C4",
          "ticks": 135600,
          "time": 128.4089625,
          "velocity": 0.8818897637795275
        },
        {
          "duration": 0.3409087499999828,
          "durationTicks": 360,
          "midi": 41,
          "name": "F2",
          "ticks": 135960,
          "time": 128.74987125,
          "velocity": 0.8818897637795275
        },
        {
          "duration": 0.21496190625001077,
          "durationTicks": 227,
          "midi": 41,
          "name": "F2",
          "ticks": 136320,
          "time": 129.09078,
          "velocity": 0.8818897637795275
        },
        {
          "duration": 1.7263240312499875,
          "durationTicks": 1823,
          "midi": 31,
          "name": "G1",
          "ticks": 136560,
          "time": 129.31805250000002,
          "velocity": 0.8818897637795275
        },
        {
          "duration": 0.3409087499999828,
          "durationTicks": 360,
          "midi": 43,
          "name": "G2",
          "ticks": 136560,
          "time": 129.31805250000002,
          "velocity": 0.8818897637795275
        },
        {
          "duration": 0.3409087500000112,
          "durationTicks": 360,
          "midi": 43,
          "name": "G2",
          "ticks": 136920,
          "time": 129.65896125,
          "velocity": 0.8818897637795275
        },
        {
          "duration": 0.5681812499999808,
          "durationTicks": 600,
          "midi": 43,
          "name": "G2",
          "ticks": 137280,
          "time": 129.99987000000002,
          "velocity": 0.8818897637795275
        },
        {
          "duration": 0.3229163437499949,
          "durationTicks": 341,
          "midi": 50,
          "name": "D3",
          "ticks": 137520,
          "time": 130.2271425,
          "velocity": 0.8818897637795275
        },
        {
          "duration": 0.3229163437499949,
          "durationTicks": 341,
          "midi": 55,
          "name": "G3",
          "ticks": 137520,
          "time": 130.2271425,
          "velocity": 0.8818897637795275
        },
        {
          "duration": 0.0757575000000088,
          "durationTicks": 80,
          "midi": 62,
          "name": "D4",
          "ticks": 137520,
          "time": 130.2271425,
          "velocity": 0.8818897637795275
        },
        {
          "duration": 0.3409087500000112,
          "durationTicks": 360,
          "midi": 43,
          "name": "G2",
          "ticks": 137880,
          "time": 130.56805125,
          "velocity": 0.8818897637795275
        },
        {
          "duration": 0.21496190625001077,
          "durationTicks": 227,
          "midi": 43,
          "name": "G2",
          "ticks": 138240,
          "time": 130.90896,
          "velocity": 0.8818897637795275
        },
        {
          "duration": 1.7263240312499875,
          "durationTicks": 1823,
          "midi": 26,
          "name": "D1",
          "ticks": 138480,
          "time": 131.1362325,
          "velocity": 0.8818897637795275
        },
        {
          "duration": 0.3409087500000112,
          "durationTicks": 360,
          "midi": 38,
          "name": "D2",
          "ticks": 138480,
          "time": 131.1362325,
          "velocity": 0.8818897637795275
        },
        {
          "duration": 0.3409087499999828,
          "durationTicks": 360,
          "midi": 38,
          "name": "D2",
          "ticks": 138840,
          "time": 131.47714125000002,
          "velocity": 0.8818897637795275
        },
        {
          "duration": 0.5681812500000092,
          "durationTicks": 600,
          "midi": 38,
          "name": "D2",
          "ticks": 139200,
          "time": 131.81805,
          "velocity": 0.8818897637795275
        },
        {
          "duration": 0.3229163437500233,
          "durationTicks": 341,
          "midi": 53,
          "name": "F3",
          "ticks": 139440,
          "time": 132.0453225,
          "velocity": 0.8818897637795275
        },
        {
          "duration": 0.3229163437500233,
          "durationTicks": 341,
          "midi": 57,
          "name": "A3",
          "ticks": 139440,
          "time": 132.0453225,
          "velocity": 0.8818897637795275
        },
        {
          "duration": 0.3229163437500233,
          "durationTicks": 341,
          "midi": 60,
          "name": "C4",
          "ticks": 139440,
          "time": 132.0453225,
          "velocity": 0.8818897637795275
        },
        {
          "duration": 0.3409087500000112,
          "durationTicks": 360,
          "midi": 38,
          "name": "D2",
          "ticks": 139800,
          "time": 132.38623125,
          "velocity": 0.8818897637795275
        },
        {
          "duration": 0.21496190624998235,
          "durationTicks": 227,
          "midi": 38,
          "name": "D2",
          "ticks": 140160,
          "time": 132.72714000000002,
          "velocity": 0.8818897637795275
        },
        {
          "duration": 0.11268928124997046,
          "durationTicks": 119,
          "midi": 39,
          "name": "D#2",
          "ticks": 140400,
          "time": 132.95441250000002,
          "velocity": 0.7559055118110236
        },
        {
          "duration": 0.11268928124999888,
          "durationTicks": 119,
          "midi": 46,
          "name": "A#2",
          "ticks": 140520,
          "time": 133.06804875,
          "velocity": 0.7559055118110236
        },
        {
          "duration": 0.11268928124997046,
          "durationTicks": 119,
          "midi": 53,
          "name": "F3",
          "ticks": 140640,
          "time": 133.18168500000002,
          "velocity": 0.7559055118110236
        },
        {
          "duration": 0.10700746874999822,
          "durationTicks": 113,
          "midi": 55,
          "name": "G3",
          "ticks": 140760,
          "time": 133.29532125,
          "velocity": 0.7559055118110236
        },
        {
          "duration": 0.11268928124997046,
          "durationTicks": 119,
          "midi": 51,
          "name": "D#3",
          "ticks": 140880,
          "time": 133.4089575,
          "velocity": 0.7559055118110236
        },
        {
          "duration": 0.11268928124999888,
          "durationTicks": 119,
          "midi": 55,
          "name": "G3",
          "ticks": 141000,
          "time": 133.52259375,
          "velocity": 0.7559055118110236
        },
        {
          "duration": 0.11268928124999888,
          "durationTicks": 119,
          "midi": 58,
          "name": "A#3",
          "ticks": 141120,
          "time": 133.63623,
          "velocity": 0.7559055118110236
        },
        {
          "duration": 0.10700746874999822,
          "durationTicks": 113,
          "midi": 62,
          "name": "D4",
          "ticks": 141240,
          "time": 133.74986625,
          "velocity": 0.7559055118110236
        },
        {
          "duration": 0.11268928124999888,
          "durationTicks": 119,
          "midi": 39,
          "name": "D#2",
          "ticks": 141360,
          "time": 133.8635025,
          "velocity": 0.7559055118110236
        },
        {
          "duration": 0.11268928124997046,
          "durationTicks": 119,
          "midi": 46,
          "name": "A#2",
          "ticks": 141480,
          "time": 133.97713875000002,
          "velocity": 0.7559055118110236
        },
        {
          "duration": 0.11268928124999888,
          "durationTicks": 119,
          "midi": 53,
          "name": "F3",
          "ticks": 141600,
          "time": 134.090775,
          "velocity": 0.7559055118110236
        },
        {
          "duration": 0.1070074687499698,
          "durationTicks": 113,
          "midi": 55,
          "name": "G3",
          "ticks": 141720,
          "time": 134.20441125000002,
          "velocity": 0.7559055118110236
        },
        {
          "duration": 0.11268928124999888,
          "durationTicks": 119,
          "midi": 51,
          "name": "D#3",
          "ticks": 141840,
          "time": 134.3180475,
          "velocity": 0.7559055118110236
        },
        {
          "duration": 0.11268928124997046,
          "durationTicks": 119,
          "midi": 55,
          "name": "G3",
          "ticks": 141960,
          "time": 134.43168375000002,
          "velocity": 0.7559055118110236
        },
        {
          "duration": 0.11268928124999888,
          "durationTicks": 119,
          "midi": 58,
          "name": "A#3",
          "ticks": 142080,
          "time": 134.54532,
          "velocity": 0.7559055118110236
        },
        {
          "duration": 0.10700746874999822,
          "durationTicks": 113,
          "midi": 62,
          "name": "D4",
          "ticks": 142200,
          "time": 134.65895625000002,
          "velocity": 0.7559055118110236
        },
        {
          "duration": 0.11268928124999888,
          "durationTicks": 119,
          "midi": 41,
          "name": "F2",
          "ticks": 142320,
          "time": 134.7725925,
          "velocity": 0.7559055118110236
        },
        {
          "duration": 0.11268928124997046,
          "durationTicks": 119,
          "midi": 48,
          "name": "C3",
          "ticks": 142440,
          "time": 134.88622875000001,
          "velocity": 0.7559055118110236
        },
        {
          "duration": 0.11268928124999888,
          "durationTicks": 119,
          "midi": 55,
          "name": "G3",
          "ticks": 142560,
          "time": 134.999865,
          "velocity": 0.7559055118110236
        },
        {
          "duration": 0.10700746874999822,
          "durationTicks": 113,
          "midi": 57,
          "name": "A3",
          "ticks": 142680,
          "time": 135.11350125,
          "velocity": 0.7559055118110236
        },
        {
          "duration": 0.11268928124999888,
          "durationTicks": 119,
          "midi": 53,
          "name": "F3",
          "ticks": 142800,
          "time": 135.2271375,
          "velocity": 0.7559055118110236
        },
        {
          "duration": 0.11268928124999888,
          "durationTicks": 119,
          "midi": 57,
          "name": "A3",
          "ticks": 142920,
          "time": 135.34077375,
          "velocity": 0.7559055118110236
        },
        {
          "duration": 0.11268928124999888,
          "durationTicks": 119,
          "midi": 58,
          "name": "A#3",
          "ticks": 143040,
          "time": 135.45441,
          "velocity": 0.7559055118110236
        },
        {
          "duration": 0.10700746874999822,
          "durationTicks": 113,
          "midi": 60,
          "name": "C4",
          "ticks": 143160,
          "time": 135.56804625,
          "velocity": 0.7559055118110236
        },
        {
          "duration": 0.11268928124997046,
          "durationTicks": 119,
          "midi": 41,
          "name": "F2",
          "ticks": 143280,
          "time": 135.68168250000002,
          "velocity": 0.7559055118110236
        },
        {
          "duration": 0.11268928124999888,
          "durationTicks": 119,
          "midi": 48,
          "name": "C3",
          "ticks": 143400,
          "time": 135.79531875,
          "velocity": 0.7559055118110236
        },
        {
          "duration": 0.11268928124997046,
          "durationTicks": 119,
          "midi": 55,
          "name": "G3",
          "ticks": 143520,
          "time": 135.90895500000002,
          "velocity": 0.7559055118110236
        },
        {
          "duration": 0.10700746874999822,
          "durationTicks": 113,
          "midi": 57,
          "name": "A3",
          "ticks": 143640,
          "time": 136.02259125,
          "velocity": 0.7559055118110236
        },
        {
          "duration": 0.11268928124997046,
          "durationTicks": 119,
          "midi": 53,
          "name": "F3",
          "ticks": 143760,
          "time": 136.13622750000002,
          "velocity": 0.7559055118110236
        },
        {
          "duration": 0.11268928124999888,
          "durationTicks": 119,
          "midi": 57,
          "name": "A3",
          "ticks": 143880,
          "time": 136.24986375,
          "velocity": 0.7559055118110236
        },
        {
          "duration": 0.11268928124997046,
          "durationTicks": 119,
          "midi": 58,
          "name": "A#3",
          "ticks": 144000,
          "time": 136.36350000000002,
          "velocity": 0.7559055118110236
        },
        {
          "duration": 0.10700746874999822,
          "durationTicks": 113,
          "midi": 60,
          "name": "C4",
          "ticks": 144120,
          "time": 136.47713625,
          "velocity": 0.7559055118110236
        },
        {
          "duration": 0.11268928124997046,
          "durationTicks": 119,
          "midi": 43,
          "name": "G2",
          "ticks": 144240,
          "time": 136.5907725,
          "velocity": 0.7559055118110236
        },
        {
          "duration": 0.11268928124999888,
          "durationTicks": 119,
          "midi": 50,
          "name": "D3",
          "ticks": 144360,
          "time": 136.70440875,
          "velocity": 0.7559055118110236
        },
        {
          "duration": 0.11268928124999888,
          "durationTicks": 119,
          "midi": 55,
          "name": "G3",
          "ticks": 144480,
          "time": 136.818045,
          "velocity": 0.7559055118110236
        },
        {
          "duration": 0.10700746874999822,
          "durationTicks": 113,
          "midi": 57,
          "name": "A3",
          "ticks": 144600,
          "time": 136.93168125,
          "velocity": 0.7559055118110236
        },
        {
          "duration": 0.11268928124999888,
          "durationTicks": 119,
          "midi": 55,
          "name": "G3",
          "ticks": 144720,
          "time": 137.0453175,
          "velocity": 0.7559055118110236
        },
        {
          "duration": 0.11268928124997046,
          "durationTicks": 119,
          "midi": 58,
          "name": "A#3",
          "ticks": 144840,
          "time": 137.15895375000002,
          "velocity": 0.7559055118110236
        },
        {
          "duration": 0.11268928124999888,
          "durationTicks": 119,
          "midi": 60,
          "name": "C4",
          "ticks": 144960,
          "time": 137.27259,
          "velocity": 0.7559055118110236
        },
        {
          "duration": 0.1070074687499698,
          "durationTicks": 113,
          "midi": 62,
          "name": "D4",
          "ticks": 145080,
          "time": 137.38622625000002,
          "velocity": 0.7559055118110236
        },
        {
          "duration": 0.11268928124999888,
          "durationTicks": 119,
          "midi": 43,
          "name": "G2",
          "ticks": 145200,
          "time": 137.4998625,
          "velocity": 0.7559055118110236
        },
        {
          "duration": 0.11268928124997046,
          "durationTicks": 119,
          "midi": 50,
          "name": "D3",
          "ticks": 145320,
          "time": 137.61349875000002,
          "velocity": 0.7559055118110236
        },
        {
          "duration": 0.11268928124999888,
          "durationTicks": 119,
          "midi": 55,
          "name": "G3",
          "ticks": 145440,
          "time": 137.727135,
          "velocity": 0.7559055118110236
        },
        {
          "duration": 0.10700746874999822,
          "durationTicks": 113,
          "midi": 57,
          "name": "A3",
          "ticks": 145560,
          "time": 137.84077125000002,
          "velocity": 0.7559055118110236
        },
        {
          "duration": 0.10700746874999822,
          "durationTicks": 113,
          "midi": 55,
          "name": "G3",
          "ticks": 145680,
          "time": 137.9544075,
          "velocity": 0.7559055118110236
        },
        {
          "duration": 0.10700746874999822,
          "durationTicks": 113,
          "midi": 58,
          "name": "A#3",
          "ticks": 145800,
          "time": 138.06804375000002,
          "velocity": 0.7559055118110236
        },
        {
          "duration": 0.10700746874999822,
          "durationTicks": 113,
          "midi": 60,
          "name": "C4",
          "ticks": 145920,
          "time": 138.18168,
          "velocity": 0.7559055118110236
        },
        {
          "duration": 0.10700746874999822,
          "durationTicks": 113,
          "midi": 62,
          "name": "D4",
          "ticks": 146040,
          "time": 138.29531625,
          "velocity": 0.7559055118110236
        },
        {
          "duration": 0.10700746874999822,
          "durationTicks": 113,
          "midi": 38,
          "name": "D2",
          "ticks": 146160,
          "time": 138.4089525,
          "velocity": 0.7559055118110236
        },
        {
          "duration": 0.10700746874999822,
          "durationTicks": 113,
          "midi": 45,
          "name": "A2",
          "ticks": 146280,
          "time": 138.52258875,
          "velocity": 0.7559055118110236
        },
        {
          "duration": 0.10700746874999822,
          "durationTicks": 113,
          "midi": 50,
          "name": "D3",
          "ticks": 146400,
          "time": 138.636225,
          "velocity": 0.7559055118110236
        },
        {
          "duration": 0.10700746874999822,
          "durationTicks": 113,
          "midi": 53,
          "name": "F3",
          "ticks": 146520,
          "time": 138.74986125,
          "velocity": 0.7559055118110236
        },
        {
          "duration": 0.1070074687499698,
          "durationTicks": 113,
          "midi": 50,
          "name": "D3",
          "ticks": 146640,
          "time": 138.86349750000002,
          "velocity": 0.7559055118110236
        },
        {
          "duration": 0.10700746874999822,
          "durationTicks": 113,
          "midi": 53,
          "name": "F3",
          "ticks": 146760,
          "time": 138.97713375,
          "velocity": 0.7559055118110236
        },
        {
          "duration": 0.1070074687499698,
          "durationTicks": 113,
          "midi": 57,
          "name": "A3",
          "ticks": 146880,
          "time": 139.09077000000002,
          "velocity": 0.7559055118110236
        },
        {
          "duration": 0.10700746874999822,
          "durationTicks": 113,
          "midi": 62,
          "name": "D4",
          "ticks": 147000,
          "time": 139.20440625,
          "velocity": 0.7559055118110236
        },
        {
          "duration": 0.10700746874999822,
          "durationTicks": 113,
          "midi": 38,
          "name": "D2",
          "ticks": 147120,
          "time": 139.31804250000002,
          "velocity": 0.7559055118110236
        },
        {
          "duration": 0.10700746874999822,
          "durationTicks": 113,
          "midi": 45,
          "name": "A2",
          "ticks": 147240,
          "time": 139.43167875,
          "velocity": 0.7559055118110236
        },
        {
          "duration": 0.10700746874999822,
          "durationTicks": 113,
          "midi": 50,
          "name": "D3",
          "ticks": 147360,
          "time": 139.54531500000002,
          "velocity": 0.7559055118110236
        },
        {
          "duration": 0.10700746874999822,
          "durationTicks": 113,
          "midi": 53,
          "name": "F3",
          "ticks": 147480,
          "time": 139.65895125,
          "velocity": 0.7559055118110236
        },
        {
          "duration": 0.10700746874999822,
          "durationTicks": 113,
          "midi": 50,
          "name": "D3",
          "ticks": 147600,
          "time": 139.77258750000001,
          "velocity": 0.7559055118110236
        },
        {
          "duration": 0.10700746874999822,
          "durationTicks": 113,
          "midi": 53,
          "name": "F3",
          "ticks": 147720,
          "time": 139.88622375,
          "velocity": 0.7559055118110236
        },
        {
          "duration": 0.10700746874999822,
          "durationTicks": 113,
          "midi": 57,
          "name": "A3",
          "ticks": 147840,
          "time": 139.99986,
          "velocity": 0.7559055118110236
        },
        {
          "duration": 0.10700746874999822,
          "durationTicks": 113,
          "midi": 62,
          "name": "D4",
          "ticks": 147960,
          "time": 140.11349625,
          "velocity": 0.7559055118110236
        },
        {
          "duration": 1.7263240312499875,
          "durationTicks": 1823,
          "midi": 27,
          "name": "D#1",
          "ticks": 148080,
          "time": 140.2271325,
          "velocity": 0.8818897637795275
        },
        {
          "duration": 0.227272499999998,
          "durationTicks": 240,
          "midi": 39,
          "name": "D#2",
          "ticks": 148080,
          "time": 140.2271325,
          "velocity": 0.8818897637795275
        },
        {
          "duration": 0.227272499999998,
          "durationTicks": 240,
          "midi": 39,
          "name": "D#2",
          "ticks": 148320,
          "time": 140.454405,
          "velocity": 0.8818897637795275
        },
        {
          "duration": 0.21496190625001077,
          "durationTicks": 227,
          "midi": 51,
          "name": "D#3",
          "ticks": 148320,
          "time": 140.454405,
          "velocity": 0.8818897637795275
        },
        {
          "duration": 0.227272499999998,
          "durationTicks": 240,
          "midi": 39,
          "name": "D#2",
          "ticks": 148560,
          "time": 140.6816775,
          "velocity": 0.8818897637795275
        },
        {
          "duration": 0.21496190625001077,
          "durationTicks": 227,
          "midi": 51,
          "name": "D#3",
          "ticks": 148560,
          "time": 140.6816775,
          "velocity": 0.8818897637795275
        },
        {
          "duration": 0.227272499999998,
          "durationTicks": 240,
          "midi": 39,
          "name": "D#2",
          "ticks": 148800,
          "time": 140.90895,
          "velocity": 0.8818897637795275
        },
        {
          "duration": 0.21496190625001077,
          "durationTicks": 227,
          "midi": 51,
          "name": "D#3",
          "ticks": 148800,
          "time": 140.90895,
          "velocity": 0.8818897637795275
        },
        {
          "duration": 0.8626885312500008,
          "durationTicks": 911,
          "midi": 39,
          "name": "D#2",
          "ticks": 149040,
          "time": 141.1362225,
          "velocity": 0.8818897637795275
        },
        {
          "duration": 0.7386356250000006,
          "durationTicks": 780,
          "midi": 51,
          "name": "D#3",
          "ticks": 149040,
          "time": 141.1362225,
          "velocity": 0.8818897637795275
        },
        {
          "duration": 1.7263240312499875,
          "durationTicks": 1823,
          "midi": 29,
          "name": "F1",
          "ticks": 150000,
          "time": 142.04531250000002,
          "velocity": 0.8818897637795275
        },
        {
          "duration": 0.227272499999998,
          "durationTicks": 240,
          "midi": 41,
          "name": "F2",
          "ticks": 150000,
          "time": 142.04531250000002,
          "velocity": 0.8818897637795275
        },
        {
          "duration": 0.227272499999998,
          "durationTicks": 240,
          "midi": 41,
          "name": "F2",
          "ticks": 150240,
          "time": 142.27258500000002,
          "velocity": 0.8818897637795275
        },
        {
          "duration": 0.21496190624998235,
          "durationTicks": 227,
          "midi": 53,
          "name": "F3",
          "ticks": 150240,
          "time": 142.27258500000002,
          "velocity": 0.8818897637795275
        },
        {
          "duration": 0.227272499999998,
          "durationTicks": 240,
          "midi": 41,
          "name": "F2",
          "ticks": 150480,
          "time": 142.49985750000002,
          "velocity": 0.8818897637795275
        },
        {
          "duration": 0.21496190624998235,
          "durationTicks": 227,
          "midi": 53,
          "name": "F3",
          "ticks": 150480,
          "time": 142.49985750000002,
          "velocity": 0.8818897637795275
        },
        {
          "duration": 0.227272499999998,
          "durationTicks": 240,
          "midi": 41,
          "name": "F2",
          "ticks": 150720,
          "time": 142.72713000000002,
          "velocity": 0.8818897637795275
        },
        {
          "duration": 0.21496190624998235,
          "durationTicks": 227,
          "midi": 53,
          "name": "F3",
          "ticks": 150720,
          "time": 142.72713000000002,
          "velocity": 0.8818897637795275
        },
        {
          "duration": 0.8626885312500008,
          "durationTicks": 911,
          "midi": 41,
          "name": "F2",
          "ticks": 150960,
          "time": 142.95440250000001,
          "velocity": 0.8818897637795275
        },
        {
          "duration": 0.8626885312500008,
          "durationTicks": 911,
          "midi": 53,
          "name": "F3",
          "ticks": 150960,
          "time": 142.95440250000001,
          "velocity": 0.8818897637795275
        },
        {
          "duration": 1.7263240312499875,
          "durationTicks": 1823,
          "midi": 31,
          "name": "G1",
          "ticks": 151920,
          "time": 143.8634925,
          "velocity": 0.8818897637795275
        },
        {
          "duration": 0.227272499999998,
          "durationTicks": 240,
          "midi": 43,
          "name": "G2",
          "ticks": 151920,
          "time": 143.8634925,
          "velocity": 0.8818897637795275
        },
        {
          "duration": 0.227272499999998,
          "durationTicks": 240,
          "midi": 43,
          "name": "G2",
          "ticks": 152160,
          "time": 144.090765,
          "velocity": 0.8818897637795275
        },
        {
          "duration": 0.21496190625001077,
          "durationTicks": 227,
          "midi": 55,
          "name": "G3",
          "ticks": 152160,
          "time": 144.090765,
          "velocity": 0.8818897637795275
        },
        {
          "duration": 0.227272499999998,
          "durationTicks": 240,
          "midi": 43,
          "name": "G2",
          "ticks": 152400,
          "time": 144.3180375,
          "velocity": 0.8818897637795275
        },
        {
          "duration": 0.21496190625001077,
          "durationTicks": 227,
          "midi": 55,
          "name": "G3",
          "ticks": 152400,
          "time": 144.3180375,
          "velocity": 0.8818897637795275
        },
        {
          "duration": 0.227272499999998,
          "durationTicks": 240,
          "midi": 43,
          "name": "G2",
          "ticks": 152640,
          "time": 144.54531,
          "velocity": 0.8818897637795275
        },
        {
          "duration": 0.21496190625001077,
          "durationTicks": 227,
          "midi": 55,
          "name": "G3",
          "ticks": 152640,
          "time": 144.54531,
          "velocity": 0.8818897637795275
        },
        {
          "duration": 0.8626885312500292,
          "durationTicks": 911,
          "midi": 43,
          "name": "G2",
          "ticks": 152880,
          "time": 144.7725825,
          "velocity": 0.8818897637795275
        },
        {
          "duration": 0.8626885312500292,
          "durationTicks": 911,
          "midi": 55,
          "name": "G3",
          "ticks": 152880,
          "time": 144.7725825,
          "velocity": 0.8818897637795275
        },
        {
          "duration": 1.7263240312499875,
          "durationTicks": 1823,
          "midi": 26,
          "name": "D1",
          "ticks": 153840,
          "time": 145.68167250000002,
          "velocity": 0.8818897637795275
        },
        {
          "duration": 0.227272499999998,
          "durationTicks": 240,
          "midi": 38,
          "name": "D2",
          "ticks": 153840,
          "time": 145.68167250000002,
          "velocity": 0.8818897637795275
        },
        {
          "duration": 0.227272499999998,
          "durationTicks": 240,
          "midi": 38,
          "name": "D2",
          "ticks": 154080,
          "time": 145.90894500000002,
          "velocity": 0.8818897637795275
        },
        {
          "duration": 0.21496190624998235,
          "durationTicks": 227,
          "midi": 50,
          "name": "D3",
          "ticks": 154080,
          "time": 145.90894500000002,
          "velocity": 0.8818897637795275
        },
        {
          "duration": 0.227272499999998,
          "durationTicks": 240,
          "midi": 38,
          "name": "D2",
          "ticks": 154320,
          "time": 146.13621750000001,
          "velocity": 0.8818897637795275
        },
        {
          "duration": 0.21496190624998235,
          "durationTicks": 227,
          "midi": 50,
          "name": "D3",
          "ticks": 154320,
          "time": 146.13621750000001,
          "velocity": 0.8818897637795275
        },
        {
          "duration": 0.227272499999998,
          "durationTicks": 240,
          "midi": 38,
          "name": "D2",
          "ticks": 154560,
          "time": 146.36349,
          "velocity": 0.8818897637795275
        },
        {
          "duration": 0.21496190624998235,
          "durationTicks": 227,
          "midi": 50,
          "name": "D3",
          "ticks": 154560,
          "time": 146.36349,
          "velocity": 0.8818897637795275
        },
        {
          "duration": 0.8626885312500008,
          "durationTicks": 911,
          "midi": 38,
          "name": "D2",
          "ticks": 154800,
          "time": 146.5907625,
          "velocity": 0.8818897637795275
        },
        {
          "duration": 0.8626885312500008,
          "durationTicks": 911,
          "midi": 50,
          "name": "D3",
          "ticks": 154800,
          "time": 146.5907625,
          "velocity": 0.8818897637795275
        },
        {
          "duration": 0.43087078125000744,
          "durationTicks": 455,
          "midi": 43,
          "name": "G2",
          "ticks": 155760,
          "time": 147.4998525,
          "velocity": 0.5039370078740157
        },
        {
          "duration": 0.10700746874999822,
          "durationTicks": 113,
          "midi": 55,
          "name": "G3",
          "ticks": 155880,
          "time": 147.61348875000002,
          "velocity": 0.5039370078740157
        },
        {
          "duration": 0.10700746874999822,
          "durationTicks": 113,
          "midi": 53,
          "name": "F3",
          "ticks": 156000,
          "time": 147.727125,
          "velocity": 0.5039370078740157
        },
        {
          "duration": 0.10700746874999822,
          "durationTicks": 113,
          "midi": 55,
          "name": "G3",
          "ticks": 156120,
          "time": 147.84076125,
          "velocity": 0.5039370078740157
        },
        {
          "duration": 0.10700746874999822,
          "durationTicks": 113,
          "midi": 50,
          "name": "D3",
          "ticks": 156240,
          "time": 147.9543975,
          "velocity": 0.5039370078740157
        },
        {
          "duration": 0.10700746874999822,
          "durationTicks": 113,
          "midi": 53,
          "name": "F3",
          "ticks": 156360,
          "time": 148.06803375,
          "velocity": 0.5039370078740157
        },
        {
          "duration": 0.10700746874999822,
          "durationTicks": 113,
          "midi": 55,
          "name": "G3",
          "ticks": 156480,
          "time": 148.18167,
          "velocity": 0.5039370078740157
        },
        {
          "duration": 0.10700746874999822,
          "durationTicks": 113,
          "midi": 57,
          "name": "A3",
          "ticks": 156600,
          "time": 148.29530625,
          "velocity": 0.5039370078740157
        },
        {
          "duration": 0.1070074687499698,
          "durationTicks": 113,
          "midi": 58,
          "name": "A#3",
          "ticks": 156720,
          "time": 148.40894250000002,
          "velocity": 0.5039370078740157
        },
        {
          "duration": 0.10700746874999822,
          "durationTicks": 113,
          "midi": 55,
          "name": "G3",
          "ticks": 156840,
          "time": 148.52257875,
          "velocity": 0.5039370078740157
        },
        {
          "duration": 0.1070074687499698,
          "durationTicks": 113,
          "midi": 50,
          "name": "D3",
          "ticks": 156960,
          "time": 148.63621500000002,
          "velocity": 0.5039370078740157
        },
        {
          "duration": 0.10700746874999822,
          "durationTicks": 113,
          "midi": 55,
          "name": "G3",
          "ticks": 157080,
          "time": 148.74985125,
          "velocity": 0.5039370078740157
        },
        {
          "duration": 0.10700746874999822,
          "durationTicks": 113,
          "midi": 50,
          "name": "D3",
          "ticks": 157200,
          "time": 148.86348750000002,
          "velocity": 0.5039370078740157
        },
        {
          "duration": 0.10700746874999822,
          "durationTicks": 113,
          "midi": 55,
          "name": "G3",
          "ticks": 157320,
          "time": 148.97712375,
          "velocity": 0.5039370078740157
        },
        {
          "duration": 0.10700746874999822,
          "durationTicks": 113,
          "midi": 53,
          "name": "F3",
          "ticks": 157440,
          "time": 149.09076000000002,
          "velocity": 0.5039370078740157
        },
        {
          "duration": 0.10700746874999822,
          "durationTicks": 113,
          "midi": 55,
          "name": "G3",
          "ticks": 157560,
          "time": 149.20439625,
          "velocity": 0.5039370078740157
        },
        {
          "duration": 0.43087078125000744,
          "durationTicks": 455,
          "midi": 39,
          "name": "D#2",
          "ticks": 157680,
          "time": 149.31803250000002,
          "velocity": 0.5039370078740157
        },
        {
          "duration": 0.10700746874999822,
          "durationTicks": 113,
          "midi": 55,
          "name": "G3",
          "ticks": 157800,
          "time": 149.43166875,
          "velocity": 0.5039370078740157
        },
        {
          "duration": 0.10700746874999822,
          "durationTicks": 113,
          "midi": 53,
          "name": "F3",
          "ticks": 157920,
          "time": 149.545305,
          "velocity": 0.5039370078740157
        },
        {
          "duration": 0.10700746874999822,
          "durationTicks": 113,
          "midi": 55,
          "name": "G3",
          "ticks": 158040,
          "time": 149.65894125,
          "velocity": 0.5039370078740157
        },
        {
          "duration": 0.10700746874999822,
          "durationTicks": 113,
          "midi": 50,
          "name": "D3",
          "ticks": 158160,
          "time": 149.7725775,
          "velocity": 0.5039370078740157
        },
        {
          "duration": 0.1070074687499698,
          "durationTicks": 113,
          "midi": 53,
          "name": "F3",
          "ticks": 158280,
          "time": 149.88621375000002,
          "velocity": 0.5039370078740157
        },
        {
          "duration": 0.10700746874999822,
          "durationTicks": 113,
          "midi": 55,
          "name": "G3",
          "ticks": 158400,
          "time": 149.99985,
          "velocity": 0.5039370078740157
        },
        {
          "duration": 0.1070074687499698,
          "durationTicks": 113,
          "midi": 57,
          "name": "A3",
          "ticks": 158520,
          "time": 150.11348625000002,
          "velocity": 0.5039370078740157
        },
        {
          "duration": 0.10700746874999822,
          "durationTicks": 113,
          "midi": 58,
          "name": "A#3",
          "ticks": 158640,
          "time": 150.2271225,
          "velocity": 0.5039370078740157
        },
        {
          "duration": 0.1070074687499698,
          "durationTicks": 113,
          "midi": 55,
          "name": "G3",
          "ticks": 158760,
          "time": 150.34075875000002,
          "velocity": 0.5039370078740157
        },
        {
          "duration": 0.10700746874999822,
          "durationTicks": 113,
          "midi": 50,
          "name": "D3",
          "ticks": 158880,
          "time": 150.454395,
          "velocity": 0.5039370078740157
        },
        {
          "duration": 0.10700746874999822,
          "durationTicks": 113,
          "midi": 55,
          "name": "G3",
          "ticks": 159000,
          "time": 150.56803125000002,
          "velocity": 0.5039370078740157
        },
        {
          "duration": 0.10700746874999822,
          "durationTicks": 113,
          "midi": 50,
          "name": "D3",
          "ticks": 159120,
          "time": 150.6816675,
          "velocity": 0.5039370078740157
        },
        {
          "duration": 0.10700746874999822,
          "durationTicks": 113,
          "midi": 55,
          "name": "G3",
          "ticks": 159240,
          "time": 150.79530375000002,
          "velocity": 0.5039370078740157
        },
        {
          "duration": 0.10700746874999822,
          "durationTicks": 113,
          "midi": 53,
          "name": "F3",
          "ticks": 159360,
          "time": 150.90894,
          "velocity": 0.5039370078740157
        },
        {
          "duration": 0.10700746874999822,
          "durationTicks": 113,
          "midi": 55,
          "name": "G3",
          "ticks": 159480,
          "time": 151.02257625000001,
          "velocity": 0.5039370078740157
        },
        {
          "duration": 0.43087078125000744,
          "durationTicks": 455,
          "midi": 41,
          "name": "F2",
          "ticks": 159600,
          "time": 151.1362125,
          "velocity": 0.5039370078740157
        },
        {
          "duration": 0.10700746874999822,
          "durationTicks": 113,
          "midi": 55,
          "name": "G3",
          "ticks": 159720,
          "time": 151.24984875,
          "velocity": 0.5039370078740157
        },
        {
          "duration": 0.10700746874999822,
          "durationTicks": 113,
          "midi": 53,
          "name": "F3",
          "ticks": 159840,
          "time": 151.363485,
          "velocity": 0.5039370078740157
        },
        {
          "duration": 0.10700746874999822,
          "durationTicks": 113,
          "midi": 55,
          "name": "G3",
          "ticks": 159960,
          "time": 151.47712125,
          "velocity": 0.5039370078740157
        },
        {
          "duration": 0.1070074687499698,
          "durationTicks": 113,
          "midi": 50,
          "name": "D3",
          "ticks": 160080,
          "time": 151.59075750000002,
          "velocity": 0.5039370078740157
        },
        {
          "duration": 0.10700746874999822,
          "durationTicks": 113,
          "midi": 53,
          "name": "F3",
          "ticks": 160200,
          "time": 151.70439375,
          "velocity": 0.5039370078740157
        },
        {
          "duration": 0.1070074687499698,
          "durationTicks": 113,
          "midi": 55,
          "name": "G3",
          "ticks": 160320,
          "time": 151.81803000000002,
          "velocity": 0.5039370078740157
        },
        {
          "duration": 0.10700746874999822,
          "durationTicks": 113,
          "midi": 57,
          "name": "A3",
          "ticks": 160440,
          "time": 151.93166625,
          "velocity": 0.5039370078740157
        },
        {
          "duration": 0.10700746874999822,
          "durationTicks": 113,
          "midi": 58,
          "name": "A#3",
          "ticks": 160560,
          "time": 152.04530250000002,
          "velocity": 0.5039370078740157
        },
        {
          "duration": 0.10700746874999822,
          "durationTicks": 113,
          "midi": 55,
          "name": "G3",
          "ticks": 160680,
          "time": 152.15893875,
          "velocity": 0.5039370078740157
        },
        {
          "duration": 0.10700746874999822,
          "durationTicks": 113,
          "midi": 50,
          "name": "D3",
          "ticks": 160800,
          "time": 152.27257500000002,
          "velocity": 0.5039370078740157
        },
        {
          "duration": 0.10700746874999822,
          "durationTicks": 113,
          "midi": 55,
          "name": "G3",
          "ticks": 160920,
          "time": 152.38621125,
          "velocity": 0.5039370078740157
        },
        {
          "duration": 0.10700746874999822,
          "durationTicks": 113,
          "midi": 50,
          "name": "D3",
          "ticks": 161040,
          "time": 152.49984750000002,
          "velocity": 0.5039370078740157
        },
        {
          "duration": 0.10700746874999822,
          "durationTicks": 113,
          "midi": 55,
          "name": "G3",
          "ticks": 161160,
          "time": 152.61348375,
          "velocity": 0.5039370078740157
        },
        {
          "duration": 0.10700746874999822,
          "durationTicks": 113,
          "midi": 53,
          "name": "F3",
          "ticks": 161280,
          "time": 152.72712,
          "velocity": 0.5039370078740157
        },
        {
          "duration": 0.10700746874999822,
          "durationTicks": 113,
          "midi": 55,
          "name": "G3",
          "ticks": 161400,
          "time": 152.84075625,
          "velocity": 0.5039370078740157
        },
        {
          "duration": 0.43087078125000744,
          "durationTicks": 455,
          "midi": 43,
          "name": "G2",
          "ticks": 161520,
          "time": 152.9543925,
          "velocity": 0.5039370078740157
        },
        {
          "duration": 0.1070074687499698,
          "durationTicks": 113,
          "midi": 55,
          "name": "G3",
          "ticks": 161640,
          "time": 153.06802875000002,
          "velocity": 0.5039370078740157
        },
        {
          "duration": 0.10700746874999822,
          "durationTicks": 113,
          "midi": 53,
          "name": "F3",
          "ticks": 161760,
          "time": 153.181665,
          "velocity": 0.5039370078740157
        },
        {
          "duration": 0.1070074687499698,
          "durationTicks": 113,
          "midi": 55,
          "name": "G3",
          "ticks": 161880,
          "time": 153.29530125000002,
          "velocity": 0.5039370078740157
        },
        {
          "duration": 0.10700746874999822,
          "durationTicks": 113,
          "midi": 50,
          "name": "D3",
          "ticks": 162000,
          "time": 153.4089375,
          "velocity": 0.5039370078740157
        },
        {
          "duration": 0.1070074687499698,
          "durationTicks": 113,
          "midi": 53,
          "name": "F3",
          "ticks": 162120,
          "time": 153.52257375000002,
          "velocity": 0.5039370078740157
        },
        {
          "duration": 0.10700746874999822,
          "durationTicks": 113,
          "midi": 55,
          "name": "G3",
          "ticks": 162240,
          "time": 153.63621,
          "velocity": 0.5039370078740157
        },
        {
          "duration": 0.10700746874999822,
          "durationTicks": 113,
          "midi": 57,
          "name": "A3",
          "ticks": 162360,
          "time": 153.74984625000002,
          "velocity": 0.5039370078740157
        },
        {
          "duration": 0.10700746874999822,
          "durationTicks": 113,
          "midi": 58,
          "name": "A#3",
          "ticks": 162480,
          "time": 153.8634825,
          "velocity": 0.5039370078740157
        },
        {
          "duration": 0.10700746874999822,
          "durationTicks": 113,
          "midi": 55,
          "name": "G3",
          "ticks": 162600,
          "time": 153.97711875000002,
          "velocity": 0.5039370078740157
        },
        {
          "duration": 0.10700746874999822,
          "durationTicks": 113,
          "midi": 50,
          "name": "D3",
          "ticks": 162720,
          "time": 154.090755,
          "velocity": 0.5039370078740157
        },
        {
          "duration": 0.10700746874999822,
          "durationTicks": 113,
          "midi": 55,
          "name": "G3",
          "ticks": 162840,
          "time": 154.20439125000001,
          "velocity": 0.5039370078740157
        },
        {
          "duration": 0.10700746874999822,
          "durationTicks": 113,
          "midi": 50,
          "name": "D3",
          "ticks": 162960,
          "time": 154.3180275,
          "velocity": 0.5039370078740157
        },
        {
          "duration": 0.10700746874999822,
          "durationTicks": 113,
          "midi": 55,
          "name": "G3",
          "ticks": 163080,
          "time": 154.43166375,
          "velocity": 0.5039370078740157
        },
        {
          "duration": 0.10700746874999822,
          "durationTicks": 113,
          "midi": 53,
          "name": "F3",
          "ticks": 163200,
          "time": 154.5453,
          "velocity": 0.5039370078740157
        },
        {
          "duration": 0.10700746874999822,
          "durationTicks": 113,
          "midi": 55,
          "name": "G3",
          "ticks": 163320,
          "time": 154.65893625,
          "velocity": 0.5039370078740157
        },
        {
          "duration": 0.43087078125000744,
          "durationTicks": 455,
          "midi": 43,
          "name": "G2",
          "ticks": 163440,
          "time": 154.77257250000002,
          "velocity": 0.5039370078740157
        },
        {
          "duration": 0.10700746874999822,
          "durationTicks": 113,
          "midi": 55,
          "name": "G3",
          "ticks": 163560,
          "time": 154.88620875,
          "velocity": 0.5039370078740157
        },
        {
          "duration": 0.1070074687499698,
          "durationTicks": 113,
          "midi": 58,
          "name": "A#3",
          "ticks": 163680,
          "time": 154.99984500000002,
          "velocity": 0.5118110236220472
        },
        {
          "duration": 0.10700746874999822,
          "durationTicks": 113,
          "midi": 58,
          "name": "A#3",
          "ticks": 163800,
          "time": 155.11348125,
          "velocity": 0.5196850393700787
        },
        {
          "duration": 0.10700746874999822,
          "durationTicks": 113,
          "midi": 55,
          "name": "G3",
          "ticks": 163920,
          "time": 155.22711750000002,
          "velocity": 0.5196850393700787
        },
        {
          "duration": 0.10700746874999822,
          "durationTicks": 113,
          "midi": 57,
          "name": "A3",
          "ticks": 164040,
          "time": 155.34075375,
          "velocity": 0.5275590551181102
        },
        {
          "duration": 0.10700746874999822,
          "durationTicks": 113,
          "midi": 58,
          "name": "A#3",
          "ticks": 164160,
          "time": 155.45439000000002,
          "velocity": 0.5354330708661418
        },
        {
          "duration": 0.10700746874999822,
          "durationTicks": 113,
          "midi": 55,
          "name": "G3",
          "ticks": 164280,
          "time": 155.56802625,
          "velocity": 0.5354330708661418
        },
        {
          "duration": 0.10700746874999822,
          "durationTicks": 113,
          "midi": 57,
          "name": "A3",
          "ticks": 164400,
          "time": 155.68166250000002,
          "velocity": 0.5433070866141733
        },
        {
          "duration": 0.10700746874999822,
          "durationTicks": 113,
          "midi": 55,
          "name": "G3",
          "ticks": 164520,
          "time": 155.79529875,
          "velocity": 0.5511811023622047
        },
        {
          "duration": 0.10700746874999822,
          "durationTicks": 113,
          "midi": 58,
          "name": "A#3",
          "ticks": 164640,
          "time": 155.908935,
          "velocity": 0.5511811023622047
        },
        {
          "duration": 0.10700746874999822,
          "durationTicks": 113,
          "midi": 58,
          "name": "A#3",
          "ticks": 164760,
          "time": 156.02257125,
          "velocity": 0.5590551181102362
        },
        {
          "duration": 0.10700746874999822,
          "durationTicks": 113,
          "midi": 55,
          "name": "G3",
          "ticks": 164880,
          "time": 156.1362075,
          "velocity": 0.5669291338582677
        },
        {
          "duration": 0.1070074687499698,
          "durationTicks": 113,
          "midi": 57,
          "name": "A3",
          "ticks": 165000,
          "time": 156.24984375000003,
          "velocity": 0.5748031496062992
        },
        {
          "duration": 0.10700746874999822,
          "durationTicks": 113,
          "midi": 62,
          "name": "D4",
          "ticks": 165120,
          "time": 156.36348,
          "velocity": 0.5748031496062992
        },
        {
          "duration": 0.1070074687499698,
          "durationTicks": 113,
          "midi": 55,
          "name": "G3",
          "ticks": 165240,
          "time": 156.47711625000002,
          "velocity": 0.5826771653543307
        },
        {
          "duration": 0.43087078125000744,
          "durationTicks": 455,
          "midi": 39,
          "name": "D#2",
          "ticks": 165360,
          "time": 156.5907525,
          "velocity": 0.5905511811023622
        },
        {
          "duration": 0.1070074687499698,
          "durationTicks": 113,
          "midi": 55,
          "name": "G3",
          "ticks": 165480,
          "time": 156.70438875000002,
          "velocity": 0.5905511811023622
        },
        {
          "duration": 0.10700746874999822,
          "durationTicks": 113,
          "midi": 58,
          "name": "A#3",
          "ticks": 165600,
          "time": 156.818025,
          "velocity": 0.5984251968503937
        },
        {
          "duration": 0.10700746874999822,
          "durationTicks": 113,
          "midi": 58,
          "name": "A#3",
          "ticks": 165720,
          "time": 156.93166125000002,
          "velocity": 0.6062992125984252
        },
        {
          "duration": 0.10700746874999822,
          "durationTicks": 113,
          "midi": 55,
          "name": "G3",
          "ticks": 165840,
          "time": 157.0452975,
          "velocity": 0.6062992125984252
        },
        {
          "duration": 0.10700746874999822,
          "durationTicks": 113,
          "midi": 57,
          "name": "A3",
          "ticks": 165960,
          "time": 157.15893375000002,
          "velocity": 0.6141732283464567
        },
        {
          "duration": 0.10700746874999822,
          "durationTicks": 113,
          "midi": 58,
          "name": "A#3",
          "ticks": 166080,
          "time": 157.27257,
          "velocity": 0.6220472440944882
        },
        {
          "duration": 0.10700746874999822,
          "durationTicks": 113,
          "midi": 55,
          "name": "G3",
          "ticks": 166200,
          "time": 157.38620625000001,
          "velocity": 0.6299212598425197
        },
        {
          "duration": 0.10700746874999822,
          "durationTicks": 113,
          "midi": 57,
          "name": "A3",
          "ticks": 166320,
          "time": 157.4998425,
          "velocity": 0.6299212598425197
        },
        {
          "duration": 0.10700746874999822,
          "durationTicks": 113,
          "midi": 55,
          "name": "G3",
          "ticks": 166440,
          "time": 157.61347875,
          "velocity": 0.6377952755905512
        },
        {
          "duration": 0.10700746874999822,
          "durationTicks": 113,
          "midi": 58,
          "name": "A#3",
          "ticks": 166560,
          "time": 157.727115,
          "velocity": 0.6456692913385826
        },
        {
          "duration": 0.10700746874999822,
          "durationTicks": 113,
          "midi": 58,
          "name": "A#3",
          "ticks": 166680,
          "time": 157.84075125,
          "velocity": 0.6456692913385826
        },
        {
          "duration": 0.1070074687499698,
          "durationTicks": 113,
          "midi": 55,
          "name": "G3",
          "ticks": 166800,
          "time": 157.95438750000002,
          "velocity": 0.6535433070866141
        },
        {
          "duration": 0.10700746874999822,
          "durationTicks": 113,
          "midi": 57,
          "name": "A3",
          "ticks": 166920,
          "time": 158.06802375,
          "velocity": 0.6614173228346457
        },
        {
          "duration": 0.1070074687499698,
          "durationTicks": 113,
          "midi": 62,
          "name": "D4",
          "ticks": 167040,
          "time": 158.18166000000002,
          "velocity": 0.6614173228346457
        },
        {
          "duration": 0.10700746874999822,
          "durationTicks": 113,
          "midi": 55,
          "name": "G3",
          "ticks": 167160,
          "time": 158.29529625,
          "velocity": 0.6692913385826772
        },
        {
          "duration": 0.43087078125000744,
          "durationTicks": 455,
          "midi": 41,
          "name": "F2",
          "ticks": 167280,
          "time": 158.40893250000002,
          "velocity": 0.6771653543307087
        },
        {
          "duration": 0.10700746874999822,
          "durationTicks": 113,
          "midi": 55,
          "name": "G3",
          "ticks": 167400,
          "time": 158.52256875,
          "velocity": 0.6771653543307087
        },
        {
          "duration": 0.10700746874999822,
          "durationTicks": 113,
          "midi": 58,
          "name": "A#3",
          "ticks": 167520,
          "time": 158.63620500000002,
          "velocity": 0.6850393700787402
        },
        {
          "duration": 0.10700746874999822,
          "durationTicks": 113,
          "midi": 58,
          "name": "A#3",
          "ticks": 167640,
          "time": 158.74984125,
          "velocity": 0.6929133858267716
        },
        {
          "duration": 0.10700746874999822,
          "durationTicks": 113,
          "midi": 55,
          "name": "G3",
          "ticks": 167760,
          "time": 158.86347750000002,
          "velocity": 0.7007874015748031
        },
        {
          "duration": 0.10700746874999822,
          "durationTicks": 113,
          "midi": 57,
          "name": "A3",
          "ticks": 167880,
          "time": 158.97711375,
          "velocity": 0.7007874015748031
        },
        {
          "duration": 0.10700746874999822,
          "durationTicks": 113,
          "midi": 58,
          "name": "A#3",
          "ticks": 168000,
          "time": 159.09075,
          "velocity": 0.7086614173228346
        },
        {
          "duration": 0.10700746874999822,
          "durationTicks": 113,
          "midi": 55,
          "name": "G3",
          "ticks": 168120,
          "time": 159.20438625,
          "velocity": 0.7165354330708661
        },
        {
          "duration": 0.21496190625001077,
          "durationTicks": 227,
          "midi": 57,
          "name": "A3",
          "ticks": 168240,
          "time": 159.3180225,
          "velocity": 0.7165354330708661
        },
        {
          "duration": 0.3229163437499949,
          "durationTicks": 341,
          "midi": 55,
          "name": "G3",
          "ticks": 168480,
          "time": 159.545295,
          "velocity": 0.7322834645669292
        },
        {
          "duration": 0.1070074687499698,
          "durationTicks": 113,
          "midi": 58,
          "name": "A#3",
          "ticks": 168600,
          "time": 159.65893125000002,
          "velocity": 0.7322834645669292
        },
        {
          "duration": 0.10700746874999822,
          "durationTicks": 113,
          "midi": 58,
          "name": "A#3",
          "ticks": 168720,
          "time": 159.7725675,
          "velocity": 0.7401574803149606
        },
        {
          "duration": 0.9706429687499849,
          "durationTicks": 1025,
          "midi": 43,
          "name": "G2",
          "ticks": 168840,
          "time": 159.88620375000002,
          "velocity": 0.7480314960629921
        },
        {
          "duration": 0.8626885312500008,
          "durationTicks": 911,
          "midi": 55,
          "name": "G3",
          "ticks": 168960,
          "time": 159.99984,
          "velocity": 0.7559055118110236
        },
        {
          "duration": 0.6695069062500068,
          "durationTicks": 707,
          "midi": 67,
          "name": "G4",
          "ticks": 169920,
          "time": 160.90893,
          "velocity": 0.7559055118110236
        },
        {
          "duration": 0.5975372812499984,
          "durationTicks": 631,
          "midi": 69,
          "name": "A4",
          "ticks": 170000,
          "time": 160.9846875,
          "velocity": 0.7559055118110236
        },
        {
          "duration": 0.52556765624999,
          "durationTicks": 555,
          "midi": 70,
          "name": "A#4",
          "ticks": 170080,
          "time": 161.06044500000002,
          "velocity": 0.7559055118110236
        },
        {
          "duration": 0.45359803124998166,
          "durationTicks": 479,
          "midi": 74,
          "name": "D5",
          "ticks": 170160,
          "time": 161.13620250000002,
          "velocity": 0.7559055118110236
        },
        {
          "duration": 1.7263240312499875,
          "durationTicks": 1823,
          "midi": 51,
          "name": "D#3",
          "ticks": 171120,
          "time": 162.04529250000002,
          "velocity": 0.5039370078740157
        },
        {
          "duration": 1.7263240312499875,
          "durationTicks": 1823,
          "midi": 58,
          "name": "A#3",
          "ticks": 171120,
          "time": 162.04529250000002,
          "velocity": 0.5039370078740157
        },
        {
          "duration": 0.3409087499999828,
          "durationTicks": 360,
          "midi": 63,
          "name": "D#4",
          "ticks": 171120,
          "time": 162.04529250000002,
          "velocity": 0.5039370078740157
        },
        {
          "duration": 0.3409087500000112,
          "durationTicks": 360,
          "midi": 63,
          "name": "D#4",
          "ticks": 171480,
          "time": 162.38620125,
          "velocity": 0.5039370078740157
        },
        {
          "duration": 1.0445065312499935,
          "durationTicks": 1103,
          "midi": 63,
          "name": "D#4",
          "ticks": 171840,
          "time": 162.72711,
          "velocity": 0.5039370078740157
        },
        {
          "duration": 0.8626885312500008,
          "durationTicks": 911,
          "midi": 70,
          "name": "A#4",
          "ticks": 172080,
          "time": 162.9543825,
          "velocity": 0.5039370078740157
        },
        {
          "duration": 0.8626885312500008,
          "durationTicks": 911,
          "midi": 75,
          "name": "D#5",
          "ticks": 172080,
          "time": 162.9543825,
          "velocity": 0.5039370078740157
        },
        {
          "duration": 0.8626885312500008,
          "durationTicks": 911,
          "midi": 79,
          "name": "G5",
          "ticks": 172080,
          "time": 162.9543825,
          "velocity": 0.5039370078740157
        },
        {
          "duration": 1.7263240312500159,
          "durationTicks": 1823,
          "midi": 53,
          "name": "F3",
          "ticks": 173040,
          "time": 163.8634725,
          "velocity": 0.5039370078740157
        },
        {
          "duration": 1.7263240312500159,
          "durationTicks": 1823,
          "midi": 60,
          "name": "C4",
          "ticks": 173040,
          "time": 163.8634725,
          "velocity": 0.5039370078740157
        },
        {
          "duration": 0.3409087500000112,
          "durationTicks": 360,
          "midi": 65,
          "name": "F4",
          "ticks": 173040,
          "time": 163.8634725,
          "velocity": 0.5039370078740157
        },
        {
          "duration": 0.3409087500000112,
          "durationTicks": 360,
          "midi": 65,
          "name": "F4",
          "ticks": 173400,
          "time": 164.20438125,
          "velocity": 0.5039370078740157
        },
        {
          "duration": 1.0445065312499935,
          "durationTicks": 1103,
          "midi": 65,
          "name": "F4",
          "ticks": 173760,
          "time": 164.54529000000002,
          "velocity": 0.5039370078740157
        },
        {
          "duration": 0.8626885312500008,
          "durationTicks": 911,
          "midi": 72,
          "name": "C5",
          "ticks": 174000,
          "time": 164.77256250000002,
          "velocity": 0.5039370078740157
        },
        {
          "duration": 0.8626885312500008,
          "durationTicks": 911,
          "midi": 77,
          "name": "F5",
          "ticks": 174000,
          "time": 164.77256250000002,
          "velocity": 0.5039370078740157
        },
        {
          "duration": 0.8626885312500008,
          "durationTicks": 911,
          "midi": 81,
          "name": "A5",
          "ticks": 174000,
          "time": 164.77256250000002,
          "velocity": 0.5039370078740157
        },
        {
          "duration": 1.7263240312499875,
          "durationTicks": 1823,
          "midi": 55,
          "name": "G3",
          "ticks": 174960,
          "time": 165.6816525,
          "velocity": 0.5039370078740157
        },
        {
          "duration": 1.7263240312499875,
          "durationTicks": 1823,
          "midi": 62,
          "name": "D4",
          "ticks": 174960,
          "time": 165.6816525,
          "velocity": 0.5039370078740157
        },
        {
          "duration": 0.3409087500000112,
          "durationTicks": 360,
          "midi": 67,
          "name": "G4",
          "ticks": 174960,
          "time": 165.6816525,
          "velocity": 0.5039370078740157
        },
        {
          "duration": 0.3409087499999828,
          "durationTicks": 360,
          "midi": 67,
          "name": "G4",
          "ticks": 175320,
          "time": 166.02256125000002,
          "velocity": 0.5039370078740157
        },
        {
          "duration": 1.0445065312499935,
          "durationTicks": 1103,
          "midi": 67,
          "name": "G4",
          "ticks": 175680,
          "time": 166.36347,
          "velocity": 0.5039370078740157
        },
        {
          "duration": 0.8626885312500008,
          "durationTicks": 911,
          "midi": 74,
          "name": "D5",
          "ticks": 175920,
          "time": 166.5907425,
          "velocity": 0.5039370078740157
        },
        {
          "duration": 0.8626885312500008,
          "durationTicks": 911,
          "midi": 79,
          "name": "G5",
          "ticks": 175920,
          "time": 166.5907425,
          "velocity": 0.5039370078740157
        },
        {
          "duration": 0.8626885312500008,
          "durationTicks": 911,
          "midi": 82,
          "name": "A#5",
          "ticks": 175920,
          "time": 166.5907425,
          "velocity": 0.5039370078740157
        },
        {
          "duration": 1.7263240312499875,
          "durationTicks": 1823,
          "midi": 50,
          "name": "D3",
          "ticks": 176880,
          "time": 167.49983250000002,
          "velocity": 0.5039370078740157
        },
        {
          "duration": 1.7263240312499875,
          "durationTicks": 1823,
          "midi": 57,
          "name": "A3",
          "ticks": 176880,
          "time": 167.49983250000002,
          "velocity": 0.5039370078740157
        },
        {
          "duration": 0.3409087499999828,
          "durationTicks": 360,
          "midi": 62,
          "name": "D4",
          "ticks": 176880,
          "time": 167.49983250000002,
          "velocity": 0.5039370078740157
        },
        {
          "duration": 0.3409087500000112,
          "durationTicks": 360,
          "midi": 62,
          "name": "D4",
          "ticks": 177240,
          "time": 167.84074125,
          "velocity": 0.5039370078740157
        },
        {
          "duration": 1.0445065312499935,
          "durationTicks": 1103,
          "midi": 62,
          "name": "D4",
          "ticks": 177600,
          "time": 168.18165000000002,
          "velocity": 0.5039370078740157
        },
        {
          "duration": 0.8626885312500008,
          "durationTicks": 911,
          "midi": 74,
          "name": "D5",
          "ticks": 177840,
          "time": 168.40892250000002,
          "velocity": 0.5039370078740157
        },
        {
          "duration": 0.8626885312500008,
          "durationTicks": 911,
          "midi": 77,
          "name": "F5",
          "ticks": 177840,
          "time": 168.40892250000002,
          "velocity": 0.5039370078740157
        },
        {
          "duration": 0.8626885312500008,
          "durationTicks": 911,
          "midi": 81,
          "name": "A5",
          "ticks": 177840,
          "time": 168.40892250000002,
          "velocity": 0.5039370078740157
        },
        {
          "duration": 1.7263240312499875,
          "durationTicks": 1823,
          "midi": 51,
          "name": "D#3",
          "ticks": 178800,
          "time": 169.3180125,
          "velocity": 0.5039370078740157
        },
        {
          "duration": 1.7263240312499875,
          "durationTicks": 1823,
          "midi": 58,
          "name": "A#3",
          "ticks": 178800,
          "time": 169.3180125,
          "velocity": 0.5039370078740157
        },
        {
          "duration": 0.3409087500000112,
          "durationTicks": 360,
          "midi": 63,
          "name": "D#4",
          "ticks": 178800,
          "time": 169.3180125,
          "velocity": 0.5039370078740157
        },
        {
          "duration": 0.3409087499999828,
          "durationTicks": 360,
          "midi": 63,
          "name": "D#4",
          "ticks": 179160,
          "time": 169.65892125000002,
          "velocity": 0.5039370078740157
        },
        {
          "duration": 1.0445065312499935,
          "durationTicks": 1103,
          "midi": 63,
          "name": "D#4",
          "ticks": 179520,
          "time": 169.99983,
          "velocity": 0.5039370078740157
        },
        {
          "duration": 0.8626885312500008,
          "durationTicks": 911,
          "midi": 70,
          "name": "A#4",
          "ticks": 179760,
          "time": 170.2271025,
          "velocity": 0.5039370078740157
        },
        {
          "duration": 0.8626885312500008,
          "durationTicks": 911,
          "midi": 75,
          "name": "D#5",
          "ticks": 179760,
          "time": 170.2271025,
          "velocity": 0.5039370078740157
        },
        {
          "duration": 0.8626885312500008,
          "durationTicks": 911,
          "midi": 79,
          "name": "G5",
          "ticks": 179760,
          "time": 170.2271025,
          "velocity": 0.5039370078740157
        },
        {
          "duration": 1.7263240312499875,
          "durationTicks": 1823,
          "midi": 53,
          "name": "F3",
          "ticks": 180720,
          "time": 171.13619250000002,
          "velocity": 0.5039370078740157
        },
        {
          "duration": 1.7263240312499875,
          "durationTicks": 1823,
          "midi": 60,
          "name": "C4",
          "ticks": 180720,
          "time": 171.13619250000002,
          "velocity": 0.5039370078740157
        },
        {
          "duration": 0.3409087499999828,
          "durationTicks": 360,
          "midi": 65,
          "name": "F4",
          "ticks": 180720,
          "time": 171.13619250000002,
          "velocity": 0.5039370078740157
        },
        {
          "duration": 0.3409087500000112,
          "durationTicks": 360,
          "midi": 65,
          "name": "F4",
          "ticks": 181080,
          "time": 171.47710125,
          "velocity": 0.5039370078740157
        },
        {
          "duration": 1.0445065312499935,
          "durationTicks": 1103,
          "midi": 65,
          "name": "F4",
          "ticks": 181440,
          "time": 171.81801000000002,
          "velocity": 0.5039370078740157
        },
        {
          "duration": 0.8626885312500008,
          "durationTicks": 911,
          "midi": 72,
          "name": "C5",
          "ticks": 181680,
          "time": 172.0452825,
          "velocity": 0.5039370078740157
        },
        {
          "duration": 0.8626885312500008,
          "durationTicks": 911,
          "midi": 77,
          "name": "F5",
          "ticks": 181680,
          "time": 172.0452825,
          "velocity": 0.5039370078740157
        },
        {
          "duration": 0.8626885312500008,
          "durationTicks": 911,
          "midi": 81,
          "name": "A5",
          "ticks": 181680,
          "time": 172.0452825,
          "velocity": 0.5039370078740157
        },
        {
          "duration": 1.7263240312499875,
          "durationTicks": 1823,
          "midi": 55,
          "name": "G3",
          "ticks": 182640,
          "time": 172.9543725,
          "velocity": 0.5039370078740157
        },
        {
          "duration": 0.3409087500000112,
          "durationTicks": 360,
          "midi": 62,
          "name": "D4",
          "ticks": 182640,
          "time": 172.9543725,
          "velocity": 0.5039370078740157
        },
        {
          "duration": 0.10700746874999822,
          "durationTicks": 113,
          "midi": 67,
          "name": "G4",
          "ticks": 182760,
          "time": 173.06800875000002,
          "velocity": 0.5039370078740157
        },
        {
          "duration": 0.10700746874999822,
          "durationTicks": 113,
          "midi": 70,
          "name": "A#4",
          "ticks": 182880,
          "time": 173.181645,
          "velocity": 0.5039370078740157
        },
        {
          "duration": 0.3409087499999828,
          "durationTicks": 360,
          "midi": 62,
          "name": "D4",
          "ticks": 183000,
          "time": 173.29528125000002,
          "velocity": 0.5039370078740157
        },
        {
          "duration": 0.10700746874999822,
          "durationTicks": 113,
          "midi": 67,
          "name": "G4",
          "ticks": 183120,
          "time": 173.4089175,
          "velocity": 0.5039370078740157
        },
        {
          "duration": 0.10700746874999822,
          "durationTicks": 113,
          "midi": 70,
          "name": "A#4",
          "ticks": 183240,
          "time": 173.52255375000001,
          "velocity": 0.5039370078740157
        },
        {
          "duration": 0.3409087500000112,
          "durationTicks": 360,
          "midi": 62,
          "name": "D4",
          "ticks": 183360,
          "time": 173.63619,
          "velocity": 0.5039370078740157
        },
        {
          "duration": 0.10700746874999822,
          "durationTicks": 113,
          "midi": 67,
          "name": "G4",
          "ticks": 183480,
          "time": 173.74982625,
          "velocity": 0.5039370078740157
        },
        {
          "duration": 0.1070074687499698,
          "durationTicks": 113,
          "midi": 74,
          "name": "D5",
          "ticks": 183600,
          "time": 173.86346250000003,
          "velocity": 0.5039370078740157
        },
        {
          "duration": 0.3409087500000112,
          "durationTicks": 360,
          "midi": 62,
          "name": "D4",
          "ticks": 183720,
          "time": 173.97709875,
          "velocity": 0.5039370078740157
        },
        {
          "duration": 0.1070074687499698,
          "durationTicks": 113,
          "midi": 67,
          "name": "G4",
          "ticks": 183840,
          "time": 174.09073500000002,
          "velocity": 0.5039370078740157
        },
        {
          "duration": 0.10700746874999822,
          "durationTicks": 113,
          "midi": 70,
          "name": "A#4",
          "ticks": 183960,
          "time": 174.20437125,
          "velocity": 0.5039370078740157
        },
        {
          "duration": 0.3409087499999828,
          "durationTicks": 360,
          "midi": 62,
          "name": "D4",
          "ticks": 184080,
          "time": 174.31800750000002,
          "velocity": 0.5039370078740157
        },
        {
          "duration": 0.10700746874999822,
          "durationTicks": 113,
          "midi": 67,
          "name": "G4",
          "ticks": 184200,
          "time": 174.43164375,
          "velocity": 0.5039370078740157
        },
        {
          "duration": 0.10700746874999822,
          "durationTicks": 113,
          "midi": 70,
          "name": "A#4",
          "ticks": 184320,
          "time": 174.54528000000002,
          "velocity": 0.5039370078740157
        },
        {
          "duration": 0.10700746874999822,
          "durationTicks": 113,
          "midi": 62,
          "name": "D4",
          "ticks": 184440,
          "time": 174.65891625,
          "velocity": 0.5039370078740157
        },
        {
          "duration": 1.590907499999986,
          "durationTicks": 1680,
          "midi": 50,
          "name": "D3",
          "ticks": 184560,
          "time": 174.77255250000002,
          "velocity": 0.5039370078740157
        },
        {
          "duration": 0.3409087499999828,
          "durationTicks": 360,
          "midi": 57,
          "name": "A3",
          "ticks": 184560,
          "time": 174.77255250000002,
          "velocity": 0.5039370078740157
        },
        {
          "duration": 0.10700746874999822,
          "durationTicks": 113,
          "midi": 62,
          "name": "D4",
          "ticks": 184680,
          "time": 174.88618875,
          "velocity": 0.5039370078740157
        },
        {
          "duration": 0.10700746874999822,
          "durationTicks": 113,
          "midi": 65,
          "name": "F4",
          "ticks": 184800,
          "time": 174.99982500000002,
          "velocity": 0.5039370078740157
        },
        {
          "duration": 0.3409087500000112,
          "durationTicks": 360,
          "midi": 57,
          "name": "A3",
          "ticks": 184920,
          "time": 175.11346125,
          "velocity": 0.5039370078740157
        },
        {
          "duration": 0.10700746874999822,
          "durationTicks": 113,
          "midi": 62,
          "name": "D4",
          "ticks": 185040,
          "time": 175.2270975,
          "velocity": 0.5039370078740157
        },
        {
          "duration": 0.10700746874999822,
          "durationTicks": 113,
          "midi": 65,
          "name": "F4",
          "ticks": 185160,
          "time": 175.34073375,
          "velocity": 0.5039370078740157
        },
        {
          "duration": 0.681817499999994,
          "durationTicks": 720,
          "midi": 57,
          "name": "A3",
          "ticks": 185280,
          "time": 175.45437,
          "velocity": 0.5039370078740157
        },
        {
          "duration": 0.1070074687499698,
          "durationTicks": 113,
          "midi": 62,
          "name": "D4",
          "ticks": 185400,
          "time": 175.56800625000002,
          "velocity": 0.5039370078740157
        },
        {
          "duration": 0.10700746874999822,
          "durationTicks": 113,
          "midi": 74,
          "name": "D5",
          "ticks": 185520,
          "time": 175.6816425,
          "velocity": 0.5039370078740157
        },
        {
          "duration": 0.1070074687499698,
          "durationTicks": 113,
          "midi": 69,
          "name": "A4",
          "ticks": 185640,
          "time": 175.79527875000002,
          "velocity": 0.5039370078740157
        },
        {
          "duration": 0.10700746874999822,
          "durationTicks": 113,
          "midi": 65,
          "name": "F4",
          "ticks": 185760,
          "time": 175.908915,
          "velocity": 0.5039370078740157
        },
        {
          "duration": 0.10700746874999822,
          "durationTicks": 113,
          "midi": 62,
          "name": "D4",
          "ticks": 185880,
          "time": 176.02255125000002,
          "velocity": 0.5039370078740157
        },
        {
          "duration": 0.3626890312499995,
          "durationTicks": 383,
          "midi": 57,
          "name": "A3",
          "ticks": 186000,
          "time": 176.1361875,
          "velocity": 0.5039370078740157
        },
        {
          "duration": 0.10700746874999822,
          "durationTicks": 113,
          "midi": 53,
          "name": "F3",
          "ticks": 186120,
          "time": 176.24982375000002,
          "velocity": 0.5039370078740157
        },
        {
          "duration": 0.21496190625001077,
          "durationTicks": 227,
          "midi": 50,
          "name": "D3",
          "ticks": 186240,
          "time": 176.36346,
          "velocity": 0.6299212598425197
        },
        {
          "duration": 0.10700746874999822,
          "durationTicks": 113,
          "midi": 51,
          "name": "D#3",
          "ticks": 186480,
          "time": 176.5907325,
          "velocity": 0.6299212598425197
        },
        {
          "duration": 0.10700746874999822,
          "durationTicks": 113,
          "midi": 58,
          "name": "A#3",
          "ticks": 186480,
          "time": 176.5907325,
          "velocity": 0.6299212598425197
        },
        {
          "duration": 0.10700746874999822,
          "durationTicks": 113,
          "midi": 63,
          "name": "D#4",
          "ticks": 186600,
          "time": 176.70436875000001,
          "velocity": 0.6299212598425197
        },
        {
          "duration": 0.10700746874999822,
          "durationTicks": 113,
          "midi": 63,
          "name": "D#4",
          "ticks": 186720,
          "time": 176.818005,
          "velocity": 0.6299212598425197
        },
        {
          "duration": 0.10700746874999822,
          "durationTicks": 113,
          "midi": 63,
          "name": "D#4",
          "ticks": 186840,
          "time": 176.93164125,
          "velocity": 0.6299212598425197
        },
        {
          "duration": 0.1070074687499698,
          "durationTicks": 113,
          "midi": 67,
          "name": "G4",
          "ticks": 186960,
          "time": 177.04527750000003,
          "velocity": 0.6299212598425197
        },
        {
          "duration": 0.1070074687499698,
          "durationTicks": 113,
          "midi": 70,
          "name": "A#4",
          "ticks": 186960,
          "time": 177.04527750000003,
          "velocity": 0.6299212598425197
        },
        {
          "duration": 0.10700746874999822,
          "durationTicks": 113,
          "midi": 63,
          "name": "D#4",
          "ticks": 187080,
          "time": 177.15891375,
          "velocity": 0.6299212598425197
        },
        {
          "duration": 0.1070074687499698,
          "durationTicks": 113,
          "midi": 63,
          "name": "D#4",
          "ticks": 187200,
          "time": 177.27255000000002,
          "velocity": 0.6299212598425197
        },
        {
          "duration": 0.10700746874999822,
          "durationTicks": 113,
          "midi": 63,
          "name": "D#4",
          "ticks": 187320,
          "time": 177.38618625,
          "velocity": 0.6299212598425197
        },
        {
          "duration": 0.1070074687499698,
          "durationTicks": 113,
          "midi": 51,
          "name": "D#3",
          "ticks": 187440,
          "time": 177.49982250000002,
          "velocity": 0.6299212598425197
        },
        {
          "duration": 0.1070074687499698,
          "durationTicks": 113,
          "midi": 58,
          "name": "A#3",
          "ticks": 187440,
          "time": 177.49982250000002,
          "velocity": 0.6299212598425197
        },
        {
          "duration": 0.10700746874999822,
          "durationTicks": 113,
          "midi": 63,
          "name": "D#4",
          "ticks": 187560,
          "time": 177.61345875,
          "velocity": 0.6299212598425197
        },
        {
          "duration": 0.10700746874999822,
          "durationTicks": 113,
          "midi": 63,
          "name": "D#4",
          "ticks": 187680,
          "time": 177.72709500000002,
          "velocity": 0.6299212598425197
        },
        {
          "duration": 0.10700746874999822,
          "durationTicks": 113,
          "midi": 63,
          "name": "D#4",
          "ticks": 187800,
          "time": 177.84073125,
          "velocity": 0.6299212598425197
        },
        {
          "duration": 0.10700746874999822,
          "durationTicks": 113,
          "midi": 67,
          "name": "G4",
          "ticks": 187920,
          "time": 177.95436750000002,
          "velocity": 0.6299212598425197
        },
        {
          "duration": 0.10700746874999822,
          "durationTicks": 113,
          "midi": 70,
          "name": "A#4",
          "ticks": 187920,
          "time": 177.95436750000002,
          "velocity": 0.6299212598425197
        },
        {
          "duration": 0.10700746874999822,
          "durationTicks": 113,
          "midi": 63,
          "name": "D#4",
          "ticks": 188040,
          "time": 178.06800375,
          "velocity": 0.6299212598425197
        },
        {
          "duration": 0.10700746874999822,
          "durationTicks": 113,
          "midi": 63,
          "name": "D#4",
          "ticks": 188160,
          "time": 178.18164000000002,
          "velocity": 0.6299212598425197
        },
        {
          "duration": 0.10700746874999822,
          "durationTicks": 113,
          "midi": 63,
          "name": "D#4",
          "ticks": 188280,
          "time": 178.29527625,
          "velocity": 0.6299212598425197
        },
        {
          "duration": 0.10700746874999822,
          "durationTicks": 113,
          "midi": 53,
          "name": "F3",
          "ticks": 188400,
          "time": 178.4089125,
          "velocity": 0.6299212598425197
        },
        {
          "duration": 0.10700746874999822,
          "durationTicks": 113,
          "midi": 60,
          "name": "C4",
          "ticks": 188400,
          "time": 178.4089125,
          "velocity": 0.6299212598425197
        },
        {
          "duration": 0.10700746874999822,
          "durationTicks": 113,
          "midi": 65,
          "name": "F4",
          "ticks": 188520,
          "time": 178.52254875,
          "velocity": 0.6299212598425197
        },
        {
          "duration": 0.10700746874999822,
          "durationTicks": 113,
          "midi": 65,
          "name": "F4",
          "ticks": 188640,
          "time": 178.636185,
          "velocity": 0.6299212598425197
        },
        {
          "duration": 0.1070074687499698,
          "durationTicks": 113,
          "midi": 65,
          "name": "F4",
          "ticks": 188760,
          "time": 178.74982125000002,
          "velocity": 0.6299212598425197
        },
        {
          "duration": 0.10700746874999822,
          "durationTicks": 113,
          "midi": 69,
          "name": "A4",
          "ticks": 188880,
          "time": 178.8634575,
          "velocity": 0.6299212598425197
        },
        {
          "duration": 0.10700746874999822,
          "durationTicks": 113,
          "midi": 72,
          "name": "C5",
          "ticks": 188880,
          "time": 178.8634575,
          "velocity": 0.6299212598425197
        },
        {
          "duration": 0.1070074687499698,
          "durationTicks": 113,
          "midi": 65,
          "name": "F4",
          "ticks": 189000,
          "time": 178.97709375000002,
          "velocity": 0.6299212598425197
        },
        {
          "duration": 0.10700746874999822,
          "durationTicks": 113,
          "midi": 65,
          "name": "F4",
          "ticks": 189120,
          "time": 179.09073,
          "velocity": 0.6299212598425197
        },
        {
          "duration": 0.10700746874999822,
          "durationTicks": 113,
          "midi": 65,
          "name": "F4",
          "ticks": 189240,
          "time": 179.20436625000002,
          "velocity": 0.6299212598425197
        },
        {
          "duration": 0.10700746874999822,
          "durationTicks": 113,
          "midi": 53,
          "name": "F3",
          "ticks": 189360,
          "time": 179.3180025,
          "velocity": 0.6299212598425197
        },
        {
          "duration": 0.10700746874999822,
          "durationTicks": 113,
          "midi": 60,
          "name": "C4",
          "ticks": 189360,
          "time": 179.3180025,
          "velocity": 0.6299212598425197
        },
        {
          "duration": 0.10700746874999822,
          "durationTicks": 113,
          "midi": 65,
          "name": "F4",
          "ticks": 189480,
          "time": 179.43163875000002,
          "velocity": 0.6299212598425197
        },
        {
          "duration": 0.10700746874999822,
          "durationTicks": 113,
          "midi": 65,
          "name": "F4",
          "ticks": 189600,
          "time": 179.545275,
          "velocity": 0.6299212598425197
        },
        {
          "duration": 0.10700746874999822,
          "durationTicks": 113,
          "midi": 65,
          "name": "F4",
          "ticks": 189720,
          "time": 179.65891125000002,
          "velocity": 0.6299212598425197
        },
        {
          "duration": 0.10700746874999822,
          "durationTicks": 113,
          "midi": 69,
          "name": "A4",
          "ticks": 189840,
          "time": 179.7725475,
          "velocity": 0.6299212598425197
        },
        {
          "duration": 0.10700746874999822,
          "durationTicks": 113,
          "midi": 72,
          "name": "C5",
          "ticks": 189840,
          "time": 179.7725475,
          "velocity": 0.6299212598425197
        },
        {
          "duration": 0.10700746874999822,
          "durationTicks": 113,
          "midi": 65,
          "name": "F4",
          "ticks": 189960,
          "time": 179.88618375000001,
          "velocity": 0.6299212598425197
        },
        {
          "duration": 0.10700746874999822,
          "durationTicks": 113,
          "midi": 65,
          "name": "F4",
          "ticks": 190080,
          "time": 179.99982,
          "velocity": 0.6299212598425197
        },
        {
          "duration": 0.10700746874999822,
          "durationTicks": 113,
          "midi": 65,
          "name": "F4",
          "ticks": 190200,
          "time": 180.11345625,
          "velocity": 0.6299212598425197
        },
        {
          "duration": 0.1070074687499698,
          "durationTicks": 113,
          "midi": 55,
          "name": "G3",
          "ticks": 190320,
          "time": 180.22709250000003,
          "velocity": 0.6299212598425197
        },
        {
          "duration": 0.1070074687499698,
          "durationTicks": 113,
          "midi": 62,
          "name": "D4",
          "ticks": 190320,
          "time": 180.22709250000003,
          "velocity": 0.6299212598425197
        },
        {
          "duration": 0.10700746874999822,
          "durationTicks": 113,
          "midi": 67,
          "name": "G4",
          "ticks": 190440,
          "time": 180.34072875,
          "velocity": 0.6299212598425197
        },
        {
          "duration": 0.1070074687499698,
          "durationTicks": 113,
          "midi": 67,
          "name": "G4",
          "ticks": 190560,
          "time": 180.45436500000002,
          "velocity": 0.6299212598425197
        },
        {
          "duration": 0.10700746874999822,
          "durationTicks": 113,
          "midi": 67,
          "name": "G4",
          "ticks": 190680,
          "time": 180.56800125,
          "velocity": 0.6299212598425197
        },
        {
          "duration": 0.1070074687499698,
          "durationTicks": 113,
          "midi": 67,
          "name": "G4",
          "ticks": 190800,
          "time": 180.68163750000002,
          "velocity": 0.6299212598425197
        },
        {
          "duration": 0.1070074687499698,
          "durationTicks": 113,
          "midi": 70,
          "name": "A#4",
          "ticks": 190800,
          "time": 180.68163750000002,
          "velocity": 0.6299212598425197
        },
        {
          "duration": 0.10700746874999822,
          "durationTicks": 113,
          "midi": 67,
          "name": "G4",
          "ticks": 190920,
          "time": 180.79527375,
          "velocity": 0.6299212598425197
        },
        {
          "duration": 0.10700746874999822,
          "durationTicks": 113,
          "midi": 67,
          "name": "G4",
          "ticks": 191040,
          "time": 180.90891000000002,
          "velocity": 0.6299212598425197
        },
        {
          "duration": 0.10700746874999822,
          "durationTicks": 113,
          "midi": 67,
          "name": "G4",
          "ticks": 191160,
          "time": 181.02254625,
          "velocity": 0.6299212598425197
        },
        {
          "duration": 0.10700746874999822,
          "durationTicks": 113,
          "midi": 55,
          "name": "G3",
          "ticks": 191280,
          "time": 181.13618250000002,
          "velocity": 0.6299212598425197
        },
        {
          "duration": 0.10700746874999822,
          "durationTicks": 113,
          "midi": 62,
          "name": "D4",
          "ticks": 191280,
          "time": 181.13618250000002,
          "velocity": 0.6299212598425197
        },
        {
          "duration": 0.10700746874999822,
          "durationTicks": 113,
          "midi": 67,
          "name": "G4",
          "ticks": 191400,
          "time": 181.24981875,
          "velocity": 0.6299212598425197
        },
        {
          "duration": 0.10700746874999822,
          "durationTicks": 113,
          "midi": 67,
          "name": "G4",
          "ticks": 191520,
          "time": 181.36345500000002,
          "velocity": 0.6299212598425197
        },
        {
          "duration": 0.10700746874999822,
          "durationTicks": 113,
          "midi": 67,
          "name": "G4",
          "ticks": 191640,
          "time": 181.47709125,
          "velocity": 0.6299212598425197
        },
        {
          "duration": 0.10700746874999822,
          "durationTicks": 113,
          "midi": 67,
          "name": "G4",
          "ticks": 191760,
          "time": 181.5907275,
          "velocity": 0.6299212598425197
        },
        {
          "duration": 0.10700746874999822,
          "durationTicks": 113,
          "midi": 70,
          "name": "A#4",
          "ticks": 191760,
          "time": 181.5907275,
          "velocity": 0.6299212598425197
        },
        {
          "duration": 0.10700746874999822,
          "durationTicks": 113,
          "midi": 67,
          "name": "G4",
          "ticks": 191880,
          "time": 181.70436375,
          "velocity": 0.6299212598425197
        },
        {
          "duration": 0.10700746874999822,
          "durationTicks": 113,
          "midi": 67,
          "name": "G4",
          "ticks": 192000,
          "time": 181.818,
          "velocity": 0.6299212598425197
        },
        {
          "duration": 0.1070074687499698,
          "durationTicks": 113,
          "midi": 67,
          "name": "G4",
          "ticks": 192120,
          "time": 181.93163625000003,
          "velocity": 0.6299212598425197
        },
        {
          "duration": 0.10700746874999822,
          "durationTicks": 113,
          "midi": 50,
          "name": "D3",
          "ticks": 192240,
          "time": 182.0452725,
          "velocity": 0.6299212598425197
        },
        {
          "duration": 0.10700746874999822,
          "durationTicks": 113,
          "midi": 57,
          "name": "A3",
          "ticks": 192240,
          "time": 182.0452725,
          "velocity": 0.6299212598425197
        },
        {
          "duration": 0.1070074687499698,
          "durationTicks": 113,
          "midi": 62,
          "name": "D4",
          "ticks": 192360,
          "time": 182.15890875000002,
          "velocity": 0.6299212598425197
        },
        {
          "duration": 0.10700746874999822,
          "durationTicks": 113,
          "midi": 62,
          "name": "D4",
          "ticks": 192480,
          "time": 182.272545,
          "velocity": 0.6299212598425197
        },
        {
          "duration": 0.10700746874999822,
          "durationTicks": 113,
          "midi": 62,
          "name": "D4",
          "ticks": 192600,
          "time": 182.38618125000002,
          "velocity": 0.6299212598425197
        },
        {
          "duration": 0.10700746874999822,
          "durationTicks": 113,
          "midi": 65,
          "name": "F4",
          "ticks": 192720,
          "time": 182.4998175,
          "velocity": 0.6299212598425197
        },
        {
          "duration": 0.10700746874999822,
          "durationTicks": 113,
          "midi": 69,
          "name": "A4",
          "ticks": 192720,
          "time": 182.4998175,
          "velocity": 0.6299212598425197
        },
        {
          "duration": 0.10700746874999822,
          "durationTicks": 113,
          "midi": 62,
          "name": "D4",
          "ticks": 192840,
          "time": 182.61345375000002,
          "velocity": 0.6299212598425197
        },
        {
          "duration": 0.10700746874999822,
          "durationTicks": 113,
          "midi": 62,
          "name": "D4",
          "ticks": 192960,
          "time": 182.72709,
          "velocity": 0.6299212598425197
        },
        {
          "duration": 0.10700746874999822,
          "durationTicks": 113,
          "midi": 62,
          "name": "D4",
          "ticks": 193080,
          "time": 182.84072625000002,
          "velocity": 0.6299212598425197
        },
        {
          "duration": 0.10700746874999822,
          "durationTicks": 113,
          "midi": 50,
          "name": "D3",
          "ticks": 193200,
          "time": 182.9543625,
          "velocity": 0.6299212598425197
        },
        {
          "duration": 0.10700746874999822,
          "durationTicks": 113,
          "midi": 57,
          "name": "A3",
          "ticks": 193200,
          "time": 182.9543625,
          "velocity": 0.6299212598425197
        },
        {
          "duration": 0.10700746874999822,
          "durationTicks": 113,
          "midi": 62,
          "name": "D4",
          "ticks": 193320,
          "time": 183.06799875000002,
          "velocity": 0.6299212598425197
        },
        {
          "duration": 0.10700746874999822,
          "durationTicks": 113,
          "midi": 62,
          "name": "D4",
          "ticks": 193440,
          "time": 183.181635,
          "velocity": 0.6299212598425197
        },
        {
          "duration": 0.10700746874999822,
          "durationTicks": 113,
          "midi": 62,
          "name": "D4",
          "ticks": 193560,
          "time": 183.29527125,
          "velocity": 0.6299212598425197
        },
        {
          "duration": 0.1070074687499698,
          "durationTicks": 113,
          "midi": 65,
          "name": "F4",
          "ticks": 193680,
          "time": 183.40890750000003,
          "velocity": 0.6299212598425197
        },
        {
          "duration": 0.1070074687499698,
          "durationTicks": 113,
          "midi": 69,
          "name": "A4",
          "ticks": 193680,
          "time": 183.40890750000003,
          "velocity": 0.6299212598425197
        },
        {
          "duration": 0.10700746874999822,
          "durationTicks": 113,
          "midi": 62,
          "name": "D4",
          "ticks": 193800,
          "time": 183.52254375,
          "velocity": 0.6299212598425197
        },
        {
          "duration": 0.1070074687499698,
          "durationTicks": 113,
          "midi": 62,
          "name": "D4",
          "ticks": 193920,
          "time": 183.63618000000002,
          "velocity": 0.6299212598425197
        },
        {
          "duration": 0.10700746874999822,
          "durationTicks": 113,
          "midi": 62,
          "name": "D4",
          "ticks": 194040,
          "time": 183.74981625,
          "velocity": 0.6299212598425197
        },
        {
          "duration": 0.1070074687499698,
          "durationTicks": 113,
          "midi": 51,
          "name": "D#3",
          "ticks": 194160,
          "time": 183.86345250000002,
          "velocity": 0.6299212598425197
        },
        {
          "duration": 0.1070074687499698,
          "durationTicks": 113,
          "midi": 58,
          "name": "A#3",
          "ticks": 194160,
          "time": 183.86345250000002,
          "velocity": 0.6299212598425197
        },
        {
          "duration": 0.10700746874999822,
          "durationTicks": 113,
          "midi": 63,
          "name": "D#4",
          "ticks": 194280,
          "time": 183.97708875,
          "velocity": 0.6299212598425197
        },
        {
          "duration": 0.10700746874999822,
          "durationTicks": 113,
          "midi": 63,
          "name": "D#4",
          "ticks": 194400,
          "time": 184.09072500000002,
          "velocity": 0.6299212598425197
        },
        {
          "duration": 0.10700746874999822,
          "durationTicks": 113,
          "midi": 63,
          "name": "D#4",
          "ticks": 194520,
          "time": 184.20436125,
          "velocity": 0.6299212598425197
        },
        {
          "duration": 0.10700746874999822,
          "durationTicks": 113,
          "midi": 67,
          "name": "G4",
          "ticks": 194640,
          "time": 184.31799750000002,
          "velocity": 0.6299212598425197
        },
        {
          "duration": 0.10700746874999822,
          "durationTicks": 113,
          "midi": 70,
          "name": "A#4",
          "ticks": 194640,
          "time": 184.31799750000002,
          "velocity": 0.6299212598425197
        },
        {
          "duration": 0.10700746874999822,
          "durationTicks": 113,
          "midi": 63,
          "name": "D#4",
          "ticks": 194760,
          "time": 184.43163375,
          "velocity": 0.6299212598425197
        },
        {
          "duration": 0.10700746874999822,
          "durationTicks": 113,
          "midi": 63,
          "name": "D#4",
          "ticks": 194880,
          "time": 184.54527000000002,
          "velocity": 0.6299212598425197
        },
        {
          "duration": 0.10700746874999822,
          "durationTicks": 113,
          "midi": 63,
          "name": "D#4",
          "ticks": 195000,
          "time": 184.65890625,
          "velocity": 0.6299212598425197
        },
        {
          "duration": 0.10700746874999822,
          "durationTicks": 113,
          "midi": 51,
          "name": "D#3",
          "ticks": 195120,
          "time": 184.77254250000001,
          "velocity": 0.6299212598425197
        },
        {
          "duration": 0.10700746874999822,
          "durationTicks": 113,
          "midi": 58,
          "name": "A#3",
          "ticks": 195120,
          "time": 184.77254250000001,
          "velocity": 0.6299212598425197
        },
        {
          "duration": 0.10700746874999822,
          "durationTicks": 113,
          "midi": 63,
          "name": "D#4",
          "ticks": 195240,
          "time": 184.88617875,
          "velocity": 0.6299212598425197
        },
        {
          "duration": 0.10700746874999822,
          "durationTicks": 113,
          "midi": 63,
          "name": "D#4",
          "ticks": 195360,
          "time": 184.999815,
          "velocity": 0.6299212598425197
        },
        {
          "duration": 0.1070074687499698,
          "durationTicks": 113,
          "midi": 63,
          "name": "D#4",
          "ticks": 195480,
          "time": 185.11345125000003,
          "velocity": 0.6299212598425197
        },
        {
          "duration": 0.10700746874999822,
          "durationTicks": 113,
          "midi": 67,
          "name": "G4",
          "ticks": 195600,
          "time": 185.2270875,
          "velocity": 0.6299212598425197
        },
        {
          "duration": 0.10700746874999822,
          "durationTicks": 113,
          "midi": 70,
          "name": "A#4",
          "ticks": 195600,
          "time": 185.2270875,
          "velocity": 0.6299212598425197
        },
        {
          "duration": 0.1070074687499698,
          "durationTicks": 113,
          "midi": 63,
          "name": "D#4",
          "ticks": 195720,
          "time": 185.34072375000002,
          "velocity": 0.6299212598425197
        },
        {
          "duration": 0.10700746874999822,
          "durationTicks": 113,
          "midi": 63,
          "name": "D#4",
          "ticks": 195840,
          "time": 185.45436,
          "velocity": 0.6299212598425197
        },
        {
          "duration": 0.10700746874999822,
          "durationTicks": 113,
          "midi": 63,
          "name": "D#4",
          "ticks": 195960,
          "time": 185.56799625000002,
          "velocity": 0.6299212598425197
        },
        {
          "duration": 0.10700746874999822,
          "durationTicks": 113,
          "midi": 53,
          "name": "F3",
          "ticks": 196080,
          "time": 185.6816325,
          "velocity": 0.6299212598425197
        },
        {
          "duration": 0.10700746874999822,
          "durationTicks": 113,
          "midi": 60,
          "name": "C4",
          "ticks": 196200,
          "time": 185.79526875000002,
          "velocity": 0.6299212598425197
        },
        {
          "duration": 0.10700746874999822,
          "durationTicks": 113,
          "midi": 65,
          "name": "F4",
          "ticks": 196320,
          "time": 185.908905,
          "velocity": 0.6299212598425197
        },
        {
          "duration": 0.10700746874999822,
          "durationTicks": 113,
          "midi": 67,
          "name": "G4",
          "ticks": 196440,
          "time": 186.02254125000002,
          "velocity": 0.6299212598425197
        },
        {
          "duration": 0.10700746874999822,
          "durationTicks": 113,
          "midi": 69,
          "name": "A4",
          "ticks": 196560,
          "time": 186.1361775,
          "velocity": 0.6299212598425197
        },
        {
          "duration": 0.10700746874999822,
          "durationTicks": 113,
          "midi": 72,
          "name": "C5",
          "ticks": 196680,
          "time": 186.24981375000002,
          "velocity": 0.6299212598425197
        },
        {
          "duration": 0.10700746874999822,
          "durationTicks": 113,
          "midi": 77,
          "name": "F5",
          "ticks": 196800,
          "time": 186.36345,
          "velocity": 0.6299212598425197
        },
        {
          "duration": 0.10700746874999822,
          "durationTicks": 113,
          "midi": 72,
          "name": "C5",
          "ticks": 196920,
          "time": 186.47708625,
          "velocity": 0.6299212598425197
        },
        {
          "duration": 0.1070074687499698,
          "durationTicks": 113,
          "midi": 69,
          "name": "A4",
          "ticks": 197040,
          "time": 186.59072250000003,
          "velocity": 0.6299212598425197
        },
        {
          "duration": 0.10700746874999822,
          "durationTicks": 113,
          "midi": 67,
          "name": "G4",
          "ticks": 197160,
          "time": 186.70435875,
          "velocity": 0.6299212598425197
        },
        {
          "duration": 0.1070074687499698,
          "durationTicks": 113,
          "midi": 65,
          "name": "F4",
          "ticks": 197280,
          "time": 186.81799500000002,
          "velocity": 0.6299212598425197
        },
        {
          "duration": 0.10700746874999822,
          "durationTicks": 113,
          "midi": 65,
          "name": "F4",
          "ticks": 197400,
          "time": 186.93163125,
          "velocity": 0.6299212598425197
        },
        {
          "duration": 0.43087078125000744,
          "durationTicks": 455,
          "midi": 53,
          "name": "F3",
          "ticks": 197520,
          "time": 187.04526750000002,
          "velocity": 0.6299212598425197
        },
        {
          "duration": 1.7263240312499875,
          "durationTicks": 1823,
          "midi": 39,
          "name": "D#2",
          "ticks": 198000,
          "time": 187.49981250000002,
          "velocity": 0.6299212598425197
        },
        {
          "duration": 0.3409087499999828,
          "durationTicks": 360,
          "midi": 51,
          "name": "D#3",
          "ticks": 198000,
          "time": 187.49981250000002,
          "velocity": 0.6299212598425197
        },
        {
          "duration": 0.3409087500000112,
          "durationTicks": 360,
          "midi": 51,
          "name": "D#3",
          "ticks": 198360,
          "time": 187.84072125,
          "velocity": 0.6299212598425197
        },
        {
          "duration": 1.0445065312499935,
          "durationTicks": 1103,
          "midi": 51,
          "name": "D#3",
          "ticks": 198720,
          "time": 188.18163,
          "velocity": 0.6299212598425197
        },
        {
          "duration": 0.8626885312500008,
          "durationTicks": 911,
          "midi": 55,
          "name": "G3",
          "ticks": 198960,
          "time": 188.4089025,
          "velocity": 0.6299212598425197
        },
        {
          "duration": 0.8626885312500008,
          "durationTicks": 911,
          "midi": 58,
          "name": "A#3",
          "ticks": 198960,
          "time": 188.4089025,
          "velocity": 0.6299212598425197
        },
        {
          "duration": 1.7263240312500159,
          "durationTicks": 1823,
          "midi": 41,
          "name": "F2",
          "ticks": 199920,
          "time": 189.3179925,
          "velocity": 0.6299212598425197
        },
        {
          "duration": 0.3409087500000112,
          "durationTicks": 360,
          "midi": 53,
          "name": "F3",
          "ticks": 199920,
          "time": 189.3179925,
          "velocity": 0.6299212598425197
        },
        {
          "duration": 0.3409087500000112,
          "durationTicks": 360,
          "midi": 53,
          "name": "F3",
          "ticks": 200280,
          "time": 189.65890125,
          "velocity": 0.6299212598425197
        },
        {
          "duration": 1.0445065312499935,
          "durationTicks": 1103,
          "midi": 53,
          "name": "F3",
          "ticks": 200640,
          "time": 189.99981000000002,
          "velocity": 0.6299212598425197
        },
        {
          "duration": 0.8626885312500008,
          "durationTicks": 911,
          "midi": 57,
          "name": "A3",
          "ticks": 200880,
          "time": 190.22708250000002,
          "velocity": 0.6299212598425197
        },
        {
          "duration": 0.11363624999998478,
          "durationTicks": 120,
          "midi": 60,
          "name": "C4",
          "ticks": 200880,
          "time": 190.22708250000002,
          "velocity": 0.6299212598425197
        },
        {
          "duration": 1.7263240312499875,
          "durationTicks": 1823,
          "midi": 43,
          "name": "G2",
          "ticks": 201840,
          "time": 191.13617250000001,
          "velocity": 0.6299212598425197
        },
        {
          "duration": 0.3409087500000112,
          "durationTicks": 360,
          "midi": 55,
          "name": "G3",
          "ticks": 201840,
          "time": 191.13617250000001,
          "velocity": 0.6299212598425197
        },
        {
          "duration": 0.3409087499999828,
          "durationTicks": 360,
          "midi": 55,
          "name": "G3",
          "ticks": 202200,
          "time": 191.47708125000003,
          "velocity": 0.6299212598425197
        },
        {
          "duration": 1.0445065312499935,
          "durationTicks": 1103,
          "midi": 55,
          "name": "G3",
          "ticks": 202560,
          "time": 191.81799,
          "velocity": 0.6299212598425197
        },
        {
          "duration": 0.8626885312500008,
          "durationTicks": 911,
          "midi": 58,
          "name": "A#3",
          "ticks": 202800,
          "time": 192.0452625,
          "velocity": 0.6299212598425197
        },
        {
          "duration": 0.8626885312500008,
          "durationTicks": 911,
          "midi": 62,
          "name": "D4",
          "ticks": 202800,
          "time": 192.0452625,
          "velocity": 0.6299212598425197
        },
        {
          "duration": 1.7263240312499875,
          "durationTicks": 1823,
          "midi": 38,
          "name": "D2",
          "ticks": 203760,
          "time": 192.95435250000003,
          "velocity": 0.6299212598425197
        },
        {
          "duration": 0.3409087499999828,
          "durationTicks": 360,
          "midi": 50,
          "name": "D3",
          "ticks": 203760,
          "time": 192.95435250000003,
          "velocity": 0.6299212598425197
        },
        {
          "duration": 0.3409087500000112,
          "durationTicks": 360,
          "midi": 50,
          "name": "D3",
          "ticks": 204120,
          "time": 193.29526125,
          "velocity": 0.6299212598425197
        },
        {
          "duration": 1.0445065312499935,
          "durationTicks": 1103,
          "midi": 50,
          "name": "D3",
          "ticks": 204480,
          "time": 193.63617000000002,
          "velocity": 0.6299212598425197
        },
        {
          "duration": 0.8626885312500008,
          "durationTicks": 911,
          "midi": 53,
          "name": "F3",
          "ticks": 204720,
          "time": 193.86344250000002,
          "velocity": 0.6299212598425197
        },
        {
          "duration": 0.8626885312500008,
          "durationTicks": 911,
          "midi": 57,
          "name": "A3",
          "ticks": 204720,
          "time": 193.86344250000002,
          "velocity": 0.6299212598425197
        },
        {
          "duration": 0.8626885312500008,
          "durationTicks": 911,
          "midi": 62,
          "name": "D4",
          "ticks": 204720,
          "time": 193.86344250000002,
          "velocity": 0.6299212598425197
        },
        {
          "duration": 1.7045437499999991,
          "durationTicks": 1800,
          "midi": 39,
          "name": "D#2",
          "ticks": 205680,
          "time": 194.7725325,
          "velocity": 0.6299212598425197
        },
        {
          "duration": 0.3409087500000112,
          "durationTicks": 360,
          "midi": 51,
          "name": "D#3",
          "ticks": 205680,
          "time": 194.7725325,
          "velocity": 0.6299212598425197
        },
        {
          "duration": 0.3409087499999828,
          "durationTicks": 360,
          "midi": 51,
          "name": "D#3",
          "ticks": 206040,
          "time": 195.11344125000002,
          "velocity": 0.6377952755905512
        },
        {
          "duration": 0.7954537500000072,
          "durationTicks": 840,
          "midi": 51,
          "name": "D#3",
          "ticks": 206400,
          "time": 195.45435,
          "velocity": 0.6535433070866141
        },
        {
          "duration": 0.21496190625001077,
          "durationTicks": 227,
          "midi": 58,
          "name": "A#3",
          "ticks": 206640,
          "time": 195.6816225,
          "velocity": 0.6614173228346457
        },
        {
          "duration": 0.21496190625001077,
          "durationTicks": 227,
          "midi": 63,
          "name": "D#4",
          "ticks": 206640,
          "time": 195.6816225,
          "velocity": 0.6614173228346457
        },
        {
          "duration": 0.21496190625001077,
          "durationTicks": 227,
          "midi": 67,
          "name": "G4",
          "ticks": 206640,
          "time": 195.6816225,
          "velocity": 0.6614173228346457
        },
        {
          "duration": 0.11268928124999888,
          "durationTicks": 119,
          "midi": 63,
          "name": "D#4",
          "ticks": 206880,
          "time": 195.908895,
          "velocity": 0.6692913385826772
        },
        {
          "duration": 0.11268928124999888,
          "durationTicks": 119,
          "midi": 58,
          "name": "A#3",
          "ticks": 207000,
          "time": 196.02253125000001,
          "velocity": 0.6692913385826772
        },
        {
          "duration": 0.11268928124997046,
          "durationTicks": 119,
          "midi": 55,
          "name": "G3",
          "ticks": 207120,
          "time": 196.13616750000003,
          "velocity": 0.6771653543307087
        },
        {
          "duration": 0.2490527812499863,
          "durationTicks": 263,
          "midi": 51,
          "name": "D#3",
          "ticks": 207240,
          "time": 196.24980375,
          "velocity": 0.6771653543307087
        },
        {
          "duration": 0.11268928124997046,
          "durationTicks": 119,
          "midi": 46,
          "name": "A#2",
          "ticks": 207360,
          "time": 196.36344000000003,
          "velocity": 0.6850393700787402
        },
        {
          "duration": 0.10700746874999822,
          "durationTicks": 113,
          "midi": 39,
          "name": "D#2",
          "ticks": 207480,
          "time": 196.47707625,
          "velocity": 0.6850393700787402
        },
        {
          "duration": 1.7045437499999991,
          "durationTicks": 1800,
          "midi": 41,
          "name": "F2",
          "ticks": 207600,
          "time": 196.59071250000002,
          "velocity": 0.6929133858267716
        },
        {
          "duration": 0.3409087499999828,
          "durationTicks": 360,
          "midi": 53,
          "name": "F3",
          "ticks": 207600,
          "time": 196.59071250000002,
          "velocity": 0.6929133858267716
        },
        {
          "duration": 0.3409087500000112,
          "durationTicks": 360,
          "midi": 53,
          "name": "F3",
          "ticks": 207960,
          "time": 196.93162125,
          "velocity": 0.7007874015748031
        },
        {
          "duration": 0.7954537500000072,
          "durationTicks": 840,
          "midi": 53,
          "name": "F3",
          "ticks": 208320,
          "time": 197.27253000000002,
          "velocity": 0.7165354330708661
        },
        {
          "duration": 0.21496190625001077,
          "durationTicks": 227,
          "midi": 60,
          "name": "C4",
          "ticks": 208560,
          "time": 197.49980250000002,
          "velocity": 0.7244094488188977
        },
        {
          "duration": 0.21496190625001077,
          "durationTicks": 227,
          "midi": 65,
          "name": "F4",
          "ticks": 208560,
          "time": 197.49980250000002,
          "velocity": 0.7244094488188977
        },
        {
          "duration": 0.21496190625001077,
          "durationTicks": 227,
          "midi": 69,
          "name": "A4",
          "ticks": 208560,
          "time": 197.49980250000002,
          "velocity": 0.7244094488188977
        },
        {
          "duration": 0.11268928124999888,
          "durationTicks": 119,
          "midi": 65,
          "name": "F4",
          "ticks": 208800,
          "time": 197.727075,
          "velocity": 0.7322834645669292
        },
        {
          "duration": 0.11268928124997046,
          "durationTicks": 119,
          "midi": 60,
          "name": "C4",
          "ticks": 208920,
          "time": 197.84071125000003,
          "velocity": 0.7322834645669292
        },
        {
          "duration": 0.11268928124999888,
          "durationTicks": 119,
          "midi": 57,
          "name": "A3",
          "ticks": 209040,
          "time": 197.9543475,
          "velocity": 0.7401574803149606
        },
        {
          "duration": 0.2490527812499863,
          "durationTicks": 263,
          "midi": 53,
          "name": "F3",
          "ticks": 209160,
          "time": 198.06798375000002,
          "velocity": 0.7401574803149606
        },
        {
          "duration": 0.11268928124999888,
          "durationTicks": 119,
          "midi": 48,
          "name": "C3",
          "ticks": 209280,
          "time": 198.18162,
          "velocity": 0.7480314960629921
        },
        {
          "duration": 0.10700746874999822,
          "durationTicks": 113,
          "midi": 41,
          "name": "F2",
          "ticks": 209400,
          "time": 198.29525625000002,
          "velocity": 0.7559055118110236
        },
        {
          "duration": 1.7045437499999991,
          "durationTicks": 1800,
          "midi": 43,
          "name": "G2",
          "ticks": 209520,
          "time": 198.4088925,
          "velocity": 0.7559055118110236
        },
        {
          "duration": 0.3409087500000112,
          "durationTicks": 360,
          "midi": 55,
          "name": "G3",
          "ticks": 209520,
          "time": 198.4088925,
          "velocity": 0.7559055118110236
        },
        {
          "duration": 0.3409087499999828,
          "durationTicks": 360,
          "midi": 55,
          "name": "G3",
          "ticks": 209880,
          "time": 198.74980125000002,
          "velocity": 0.7716535433070866
        },
        {
          "duration": 0.7954537500000072,
          "durationTicks": 840,
          "midi": 55,
          "name": "G3",
          "ticks": 210240,
          "time": 199.09071,
          "velocity": 0.7795275590551181
        },
        {
          "duration": 0.21496190624998235,
          "durationTicks": 227,
          "midi": 62,
          "name": "D4",
          "ticks": 210480,
          "time": 199.31798250000003,
          "velocity": 0.7874015748031497
        },
        {
          "duration": 0.21496190624998235,
          "durationTicks": 227,
          "midi": 67,
          "name": "G4",
          "ticks": 210480,
          "time": 199.31798250000003,
          "velocity": 0.7874015748031497
        },
        {
          "duration": 0.21496190624998235,
          "durationTicks": 227,
          "midi": 70,
          "name": "A#4",
          "ticks": 210480,
          "time": 199.31798250000003,
          "velocity": 0.7874015748031497
        },
        {
          "duration": 0.11268928124997046,
          "durationTicks": 119,
          "midi": 67,
          "name": "G4",
          "ticks": 210720,
          "time": 199.54525500000003,
          "velocity": 0.7952755905511811
        },
        {
          "duration": 0.11268928124999888,
          "durationTicks": 119,
          "midi": 62,
          "name": "D4",
          "ticks": 210840,
          "time": 199.65889125,
          "velocity": 0.8031496062992126
        },
        {
          "duration": 0.11268928124997046,
          "durationTicks": 119,
          "midi": 58,
          "name": "A#3",
          "ticks": 210960,
          "time": 199.77252750000002,
          "velocity": 0.8031496062992126
        },
        {
          "duration": 0.2490527812499863,
          "durationTicks": 263,
          "midi": 55,
          "name": "G3",
          "ticks": 211080,
          "time": 199.88616375,
          "velocity": 0.8110236220472441
        },
        {
          "duration": 0.11268928124997046,
          "durationTicks": 119,
          "midi": 50,
          "name": "D3",
          "ticks": 211200,
          "time": 199.99980000000002,
          "velocity": 0.8110236220472441
        },
        {
          "duration": 0.10700746874999822,
          "durationTicks": 113,
          "midi": 43,
          "name": "G2",
          "ticks": 211320,
          "time": 200.11343625,
          "velocity": 0.8188976377952756
        },
        {
          "duration": 1.590907499999986,
          "durationTicks": 1680,
          "midi": 38,
          "name": "D2",
          "ticks": 211440,
          "time": 200.22707250000002,
          "velocity": 0.8188976377952756
        },
        {
          "duration": 0.3409087499999828,
          "durationTicks": 360,
          "midi": 50,
          "name": "D3",
          "ticks": 211440,
          "time": 200.22707250000002,
          "velocity": 0.8188976377952756
        },
        {
          "duration": 0.3409087500000112,
          "durationTicks": 360,
          "midi": 50,
          "name": "D3",
          "ticks": 211800,
          "time": 200.56798125,
          "velocity": 0.8346456692913385
        },
        {
          "duration": 0.681817499999994,
          "durationTicks": 720,
          "midi": 50,
          "name": "D3",
          "ticks": 212160,
          "time": 200.90889,
          "velocity": 0.84251968503937
        },
        {
          "duration": 0.21496190625001077,
          "durationTicks": 227,
          "midi": 53,
          "name": "F3",
          "ticks": 212400,
          "time": 201.1361625,
          "velocity": 0.8503937007874016
        },
        {
          "duration": 0.21496190625001077,
          "durationTicks": 227,
          "midi": 57,
          "name": "A3",
          "ticks": 212400,
          "time": 201.1361625,
          "velocity": 0.8503937007874016
        },
        {
          "duration": 0.21496190625001077,
          "durationTicks": 227,
          "midi": 62,
          "name": "D4",
          "ticks": 212400,
          "time": 201.1361625,
          "velocity": 0.8503937007874016
        },
        {
          "duration": 0.11268928124999888,
          "durationTicks": 119,
          "midi": 62,
          "name": "D4",
          "ticks": 212640,
          "time": 201.363435,
          "velocity": 0.8582677165354331
        },
        {
          "duration": 0.11268928124997046,
          "durationTicks": 119,
          "midi": 57,
          "name": "A3",
          "ticks": 212760,
          "time": 201.47707125000002,
          "velocity": 0.8661417322834646
        },
        {
          "duration": 0.3626890312499995,
          "durationTicks": 383,
          "midi": 50,
          "name": "D3",
          "ticks": 212880,
          "time": 201.5907075,
          "velocity": 0.8661417322834646
        },
        {
          "duration": 0.11268928124997046,
          "durationTicks": 119,
          "midi": 45,
          "name": "A2",
          "ticks": 213000,
          "time": 201.70434375000002,
          "velocity": 0.8740157480314961
        },
        {
          "duration": 0.21496190625001077,
          "durationTicks": 227,
          "midi": 38,
          "name": "D2",
          "ticks": 213120,
          "time": 201.81798,
          "velocity": 0.8818897637795275
        },
        {
          "duration": 1.7263240312500159,
          "durationTicks": 1823,
          "midi": 27,
          "name": "D#1",
          "ticks": 213360,
          "time": 202.0452525,
          "velocity": 0.8818897637795275
        },
        {
          "duration": 0.4545450000000244,
          "durationTicks": 480,
          "midi": 39,
          "name": "D#2",
          "ticks": 213360,
          "time": 202.0452525,
          "velocity": 0.8818897637795275
        },
        {
          "duration": 0.21496190625001077,
          "durationTicks": 227,
          "midi": 58,
          "name": "A#3",
          "ticks": 213600,
          "time": 202.272525,
          "velocity": 0.8818897637795275
        },
        {
          "duration": 0.21496190625001077,
          "durationTicks": 227,
          "midi": 63,
          "name": "D#4",
          "ticks": 213600,
          "time": 202.272525,
          "velocity": 0.8818897637795275
        },
        {
          "duration": 0.21496190625001077,
          "durationTicks": 227,
          "midi": 67,
          "name": "G4",
          "ticks": 213600,
          "time": 202.272525,
          "velocity": 0.8818897637795275
        },
        {
          "duration": 0.454544999999996,
          "durationTicks": 480,
          "midi": 39,
          "name": "D#2",
          "ticks": 213840,
          "time": 202.49979750000003,
          "velocity": 0.8818897637795275
        },
        {
          "duration": 0.21496190624998235,
          "durationTicks": 227,
          "midi": 51,
          "name": "D#3",
          "ticks": 213840,
          "time": 202.49979750000003,
          "velocity": 0.8818897637795275
        },
        {
          "duration": 0.21496190624998235,
          "durationTicks": 227,
          "midi": 58,
          "name": "A#3",
          "ticks": 214080,
          "time": 202.72707000000003,
          "velocity": 0.8818897637795275
        },
        {
          "duration": 0.21496190624998235,
          "durationTicks": 227,
          "midi": 63,
          "name": "D#4",
          "ticks": 214080,
          "time": 202.72707000000003,
          "velocity": 0.8818897637795275
        },
        {
          "duration": 0.21496190624998235,
          "durationTicks": 227,
          "midi": 67,
          "name": "G4",
          "ticks": 214080,
          "time": 202.72707000000003,
          "velocity": 0.8818897637795275
        },
        {
          "duration": 0.454544999999996,
          "durationTicks": 480,
          "midi": 39,
          "name": "D#2",
          "ticks": 214320,
          "time": 202.95434250000002,
          "velocity": 0.8818897637795275
        },
        {
          "duration": 0.21496190624998235,
          "durationTicks": 227,
          "midi": 51,
          "name": "D#3",
          "ticks": 214320,
          "time": 202.95434250000002,
          "velocity": 0.8818897637795275
        },
        {
          "duration": 0.21496190624998235,
          "durationTicks": 227,
          "midi": 58,
          "name": "A#3",
          "ticks": 214560,
          "time": 203.18161500000002,
          "velocity": 0.8818897637795275
        },
        {
          "duration": 0.21496190624998235,
          "durationTicks": 227,
          "midi": 63,
          "name": "D#4",
          "ticks": 214560,
          "time": 203.18161500000002,
          "velocity": 0.8818897637795275
        },
        {
          "duration": 0.21496190624998235,
          "durationTicks": 227,
          "midi": 67,
          "name": "G4",
          "ticks": 214560,
          "time": 203.18161500000002,
          "velocity": 0.8818897637795275
        },
        {
          "duration": 0.3626890312499995,
          "durationTicks": 383,
          "midi": 39,
          "name": "D#2",
          "ticks": 214800,
          "time": 203.40888750000002,
          "velocity": 0.8818897637795275
        },
        {
          "duration": 0.21496190624998235,
          "durationTicks": 227,
          "midi": 51,
          "name": "D#3",
          "ticks": 214800,
          "time": 203.40888750000002,
          "velocity": 0.8818897637795275
        },
        {
          "duration": 0.21496190624998235,
          "durationTicks": 227,
          "midi": 58,
          "name": "A#3",
          "ticks": 215040,
          "time": 203.63616000000002,
          "velocity": 0.8818897637795275
        },
        {
          "duration": 0.21496190624998235,
          "durationTicks": 227,
          "midi": 63,
          "name": "D#4",
          "ticks": 215040,
          "time": 203.63616000000002,
          "velocity": 0.8818897637795275
        },
        {
          "duration": 0.21496190624998235,
          "durationTicks": 227,
          "midi": 67,
          "name": "G4",
          "ticks": 215040,
          "time": 203.63616000000002,
          "velocity": 0.8818897637795275
        },
        {
          "duration": 1.7263240312499875,
          "durationTicks": 1823,
          "midi": 29,
          "name": "F1",
          "ticks": 215280,
          "time": 203.86343250000002,
          "velocity": 0.8818897637795275
        },
        {
          "duration": 0.454544999999996,
          "durationTicks": 480,
          "midi": 41,
          "name": "F2",
          "ticks": 215280,
          "time": 203.86343250000002,
          "velocity": 0.8818897637795275
        },
        {
          "duration": 0.21496190625001077,
          "durationTicks": 227,
          "midi": 57,
          "name": "A3",
          "ticks": 215520,
          "time": 204.090705,
          "velocity": 0.8818897637795275
        },
        {
          "duration": 0.21496190625001077,
          "durationTicks": 227,
          "midi": 60,
          "name": "C4",
          "ticks": 215520,
          "time": 204.090705,
          "velocity": 0.8818897637795275
        },
        {
          "duration": 0.21496190625001077,
          "durationTicks": 227,
          "midi": 65,
          "name": "F4",
          "ticks": 215520,
          "time": 204.090705,
          "velocity": 0.8818897637795275
        },
        {
          "duration": 0.454544999999996,
          "durationTicks": 480,
          "midi": 41,
          "name": "F2",
          "ticks": 215760,
          "time": 204.3179775,
          "velocity": 0.8818897637795275
        },
        {
          "duration": 0.21496190625001077,
          "durationTicks": 227,
          "midi": 53,
          "name": "F3",
          "ticks": 215760,
          "time": 204.3179775,
          "velocity": 0.8818897637795275
        },
        {
          "duration": 0.21496190625001077,
          "durationTicks": 227,
          "midi": 57,
          "name": "A3",
          "ticks": 216000,
          "time": 204.54525,
          "velocity": 0.8818897637795275
        },
        {
          "duration": 0.21496190625001077,
          "durationTicks": 227,
          "midi": 60,
          "name": "C4",
          "ticks": 216000,
          "time": 204.54525,
          "velocity": 0.8818897637795275
        },
        {
          "duration": 0.21496190625001077,
          "durationTicks": 227,
          "midi": 65,
          "name": "F4",
          "ticks": 216000,
          "time": 204.54525,
          "velocity": 0.8818897637795275
        },
        {
          "duration": 0.454544999999996,
          "durationTicks": 480,
          "midi": 41,
          "name": "F2",
          "ticks": 216240,
          "time": 204.7725225,
          "velocity": 0.8818897637795275
        },
        {
          "duration": 0.21496190625001077,
          "durationTicks": 227,
          "midi": 53,
          "name": "F3",
          "ticks": 216240,
          "time": 204.7725225,
          "velocity": 0.8818897637795275
        },
        {
          "duration": 0.21496190625001077,
          "durationTicks": 227,
          "midi": 57,
          "name": "A3",
          "ticks": 216480,
          "time": 204.999795,
          "velocity": 0.8818897637795275
        },
        {
          "duration": 0.21496190625001077,
          "durationTicks": 227,
          "midi": 60,
          "name": "C4",
          "ticks": 216480,
          "time": 204.999795,
          "velocity": 0.8818897637795275
        },
        {
          "duration": 0.21496190625001077,
          "durationTicks": 227,
          "midi": 65,
          "name": "F4",
          "ticks": 216480,
          "time": 204.999795,
          "velocity": 0.8818897637795275
        },
        {
          "duration": 0.3626890312499995,
          "durationTicks": 383,
          "midi": 41,
          "name": "F2",
          "ticks": 216720,
          "time": 205.2270675,
          "velocity": 0.8818897637795275
        },
        {
          "duration": 0.21496190625001077,
          "durationTicks": 227,
          "midi": 53,
          "name": "F3",
          "ticks": 216720,
          "time": 205.2270675,
          "velocity": 0.8818897637795275
        },
        {
          "duration": 0.21496190625001077,
          "durationTicks": 227,
          "midi": 57,
          "name": "A3",
          "ticks": 216960,
          "time": 205.45434,
          "velocity": 0.8818897637795275
        },
        {
          "duration": 0.21496190625001077,
          "durationTicks": 227,
          "midi": 60,
          "name": "C4",
          "ticks": 216960,
          "time": 205.45434,
          "velocity": 0.8818897637795275
        },
        {
          "duration": 0.21496190625001077,
          "durationTicks": 227,
          "midi": 65,
          "name": "F4",
          "ticks": 216960,
          "time": 205.45434,
          "velocity": 0.8818897637795275
        },
        {
          "duration": 1.7263240312499875,
          "durationTicks": 1823,
          "midi": 31,
          "name": "G1",
          "ticks": 217200,
          "time": 205.68161250000003,
          "velocity": 0.8818897637795275
        },
        {
          "duration": 0.454544999999996,
          "durationTicks": 480,
          "midi": 43,
          "name": "G2",
          "ticks": 217200,
          "time": 205.68161250000003,
          "velocity": 0.8818897637795275
        },
        {
          "duration": 0.21496190624998235,
          "durationTicks": 227,
          "midi": 58,
          "name": "A#3",
          "ticks": 217440,
          "time": 205.90888500000003,
          "velocity": 0.8818897637795275
        },
        {
          "duration": 0.21496190624998235,
          "durationTicks": 227,
          "midi": 62,
          "name": "D4",
          "ticks": 217440,
          "time": 205.90888500000003,
          "velocity": 0.8818897637795275
        },
        {
          "duration": 0.21496190624998235,
          "durationTicks": 227,
          "midi": 67,
          "name": "G4",
          "ticks": 217440,
          "time": 205.90888500000003,
          "velocity": 0.8818897637795275
        },
        {
          "duration": 0.454544999999996,
          "durationTicks": 480,
          "midi": 43,
          "name": "G2",
          "ticks": 217680,
          "time": 206.13615750000002,
          "velocity": 0.8818897637795275
        },
        {
          "duration": 0.21496190624998235,
          "durationTicks": 227,
          "midi": 55,
          "name": "G3",
          "ticks": 217680,
          "time": 206.13615750000002,
          "velocity": 0.8818897637795275
        },
        {
          "duration": 0.21496190624998235,
          "durationTicks": 227,
          "midi": 58,
          "name": "A#3",
          "ticks": 217920,
          "time": 206.36343000000002,
          "velocity": 0.8818897637795275
        },
        {
          "duration": 0.21496190624998235,
          "durationTicks": 227,
          "midi": 62,
          "name": "D4",
          "ticks": 217920,
          "time": 206.36343000000002,
          "velocity": 0.8818897637795275
        },
        {
          "duration": 0.21496190624998235,
          "durationTicks": 227,
          "midi": 67,
          "name": "G4",
          "ticks": 217920,
          "time": 206.36343000000002,
          "velocity": 0.8818897637795275
        },
        {
          "duration": 0.454544999999996,
          "durationTicks": 480,
          "midi": 43,
          "name": "G2",
          "ticks": 218160,
          "time": 206.59070250000002,
          "velocity": 0.8818897637795275
        },
        {
          "duration": 0.21496190624998235,
          "durationTicks": 227,
          "midi": 55,
          "name": "G3",
          "ticks": 218160,
          "time": 206.59070250000002,
          "velocity": 0.8818897637795275
        },
        {
          "duration": 0.21496190624998235,
          "durationTicks": 227,
          "midi": 58,
          "name": "A#3",
          "ticks": 218400,
          "time": 206.81797500000002,
          "velocity": 0.8818897637795275
        },
        {
          "duration": 0.21496190624998235,
          "durationTicks": 227,
          "midi": 62,
          "name": "D4",
          "ticks": 218400,
          "time": 206.81797500000002,
          "velocity": 0.8818897637795275
        },
        {
          "duration": 0.21496190624998235,
          "durationTicks": 227,
          "midi": 67,
          "name": "G4",
          "ticks": 218400,
          "time": 206.81797500000002,
          "velocity": 0.8818897637795275
        },
        {
          "duration": 0.3626890312499995,
          "durationTicks": 383,
          "midi": 43,
          "name": "G2",
          "ticks": 218640,
          "time": 207.04524750000002,
          "velocity": 0.8818897637795275
        },
        {
          "duration": 0.21496190625001077,
          "durationTicks": 227,
          "midi": 55,
          "name": "G3",
          "ticks": 218640,
          "time": 207.04524750000002,
          "velocity": 0.8818897637795275
        },
        {
          "duration": 0.21496190625001077,
          "durationTicks": 227,
          "midi": 58,
          "name": "A#3",
          "ticks": 218880,
          "time": 207.27252000000001,
          "velocity": 0.8818897637795275
        },
        {
          "duration": 0.21496190625001077,
          "durationTicks": 227,
          "midi": 62,
          "name": "D4",
          "ticks": 218880,
          "time": 207.27252000000001,
          "velocity": 0.8818897637795275
        },
        {
          "duration": 0.21496190625001077,
          "durationTicks": 227,
          "midi": 67,
          "name": "G4",
          "ticks": 218880,
          "time": 207.27252000000001,
          "velocity": 0.8818897637795275
        },
        {
          "duration": 1.7263240312499875,
          "durationTicks": 1823,
          "midi": 26,
          "name": "D1",
          "ticks": 219120,
          "time": 207.4997925,
          "velocity": 0.8818897637795275
        },
        {
          "duration": 0.454544999999996,
          "durationTicks": 480,
          "midi": 38,
          "name": "D2",
          "ticks": 219120,
          "time": 207.4997925,
          "velocity": 0.8818897637795275
        },
        {
          "duration": 0.21496190625001077,
          "durationTicks": 227,
          "midi": 57,
          "name": "A3",
          "ticks": 219360,
          "time": 207.727065,
          "velocity": 0.8818897637795275
        },
        {
          "duration": 0.21496190625001077,
          "durationTicks": 227,
          "midi": 62,
          "name": "D4",
          "ticks": 219360,
          "time": 207.727065,
          "velocity": 0.8818897637795275
        },
        {
          "duration": 0.21496190625001077,
          "durationTicks": 227,
          "midi": 65,
          "name": "F4",
          "ticks": 219360,
          "time": 207.727065,
          "velocity": 0.8818897637795275
        },
        {
          "duration": 0.454544999999996,
          "durationTicks": 480,
          "midi": 38,
          "name": "D2",
          "ticks": 219600,
          "time": 207.9543375,
          "velocity": 0.8818897637795275
        },
        {
          "duration": 0.21496190625001077,
          "durationTicks": 227,
          "midi": 50,
          "name": "D3",
          "ticks": 219600,
          "time": 207.9543375,
          "velocity": 0.8818897637795275
        },
        {
          "duration": 0.21496190625001077,
          "durationTicks": 227,
          "midi": 57,
          "name": "A3",
          "ticks": 219840,
          "time": 208.18161,
          "velocity": 0.8818897637795275
        },
        {
          "duration": 0.21496190625001077,
          "durationTicks": 227,
          "midi": 62,
          "name": "D4",
          "ticks": 219840,
          "time": 208.18161,
          "velocity": 0.8818897637795275
        },
        {
          "duration": 0.21496190625001077,
          "durationTicks": 227,
          "midi": 65,
          "name": "F4",
          "ticks": 219840,
          "time": 208.18161,
          "velocity": 0.8818897637795275
        },
        {
          "duration": 0.4545450000000244,
          "durationTicks": 480,
          "midi": 38,
          "name": "D2",
          "ticks": 220080,
          "time": 208.4088825,
          "velocity": 0.8818897637795275
        },
        {
          "duration": 0.21496190625001077,
          "durationTicks": 227,
          "midi": 50,
          "name": "D3",
          "ticks": 220080,
          "time": 208.4088825,
          "velocity": 0.8818897637795275
        },
        {
          "duration": 0.21496190625001077,
          "durationTicks": 227,
          "midi": 57,
          "name": "A3",
          "ticks": 220320,
          "time": 208.636155,
          "velocity": 0.8818897637795275
        },
        {
          "duration": 0.21496190625001077,
          "durationTicks": 227,
          "midi": 62,
          "name": "D4",
          "ticks": 220320,
          "time": 208.636155,
          "velocity": 0.8818897637795275
        },
        {
          "duration": 0.21496190625001077,
          "durationTicks": 227,
          "midi": 65,
          "name": "F4",
          "ticks": 220320,
          "time": 208.636155,
          "velocity": 0.8818897637795275
        },
        {
          "duration": 0.3626890312499711,
          "durationTicks": 383,
          "midi": 38,
          "name": "D2",
          "ticks": 220560,
          "time": 208.86342750000003,
          "velocity": 0.8818897637795275
        },
        {
          "duration": 0.21496190624998235,
          "durationTicks": 227,
          "midi": 50,
          "name": "D3",
          "ticks": 220560,
          "time": 208.86342750000003,
          "velocity": 0.8818897637795275
        },
        {
          "duration": 0.21496190624998235,
          "durationTicks": 227,
          "midi": 57,
          "name": "A3",
          "ticks": 220800,
          "time": 209.09070000000003,
          "velocity": 0.8818897637795275
        },
        {
          "duration": 0.21496190624998235,
          "durationTicks": 227,
          "midi": 62,
          "name": "D4",
          "ticks": 220800,
          "time": 209.09070000000003,
          "velocity": 0.8818897637795275
        },
        {
          "duration": 0.21496190624998235,
          "durationTicks": 227,
          "midi": 65,
          "name": "F4",
          "ticks": 220800,
          "time": 209.09070000000003,
          "velocity": 0.8818897637795275
        },
        {
          "duration": 1.7263240312499875,
          "durationTicks": 1823,
          "midi": 27,
          "name": "D#1",
          "ticks": 221040,
          "time": 209.31797250000002,
          "velocity": 0.8818897637795275
        },
        {
          "duration": 0.227272499999998,
          "durationTicks": 240,
          "midi": 39,
          "name": "D#2",
          "ticks": 221040,
          "time": 209.31797250000002,
          "velocity": 0.8818897637795275
        },
        {
          "duration": 0.227272499999998,
          "durationTicks": 240,
          "midi": 39,
          "name": "D#2",
          "ticks": 221280,
          "time": 209.54524500000002,
          "velocity": 0.8818897637795275
        },
        {
          "duration": 0.21496190624998235,
          "durationTicks": 227,
          "midi": 46,
          "name": "A#2",
          "ticks": 221280,
          "time": 209.54524500000002,
          "velocity": 0.8818897637795275
        },
        {
          "duration": 0.21496190624998235,
          "durationTicks": 227,
          "midi": 51,
          "name": "D#3",
          "ticks": 221280,
          "time": 209.54524500000002,
          "velocity": 0.8818897637795275
        },
        {
          "duration": 0.227272499999998,
          "durationTicks": 240,
          "midi": 39,
          "name": "D#2",
          "ticks": 221520,
          "time": 209.77251750000002,
          "velocity": 0.8818897637795275
        },
        {
          "duration": 0.21496190624998235,
          "durationTicks": 227,
          "midi": 46,
          "name": "A#2",
          "ticks": 221520,
          "time": 209.77251750000002,
          "velocity": 0.8818897637795275
        },
        {
          "duration": 0.21496190624998235,
          "durationTicks": 227,
          "midi": 51,
          "name": "D#3",
          "ticks": 221520,
          "time": 209.77251750000002,
          "velocity": 0.8818897637795275
        },
        {
          "duration": 0.681817499999994,
          "durationTicks": 720,
          "midi": 39,
          "name": "D#2",
          "ticks": 221760,
          "time": 209.99979000000002,
          "velocity": 0.8818897637795275
        },
        {
          "duration": 0.21496190624998235,
          "durationTicks": 227,
          "midi": 46,
          "name": "A#2",
          "ticks": 221760,
          "time": 209.99979000000002,
          "velocity": 0.8818897637795275
        },
        {
          "duration": 0.21496190624998235,
          "durationTicks": 227,
          "midi": 51,
          "name": "D#3",
          "ticks": 221760,
          "time": 209.99979000000002,
          "velocity": 0.8818897637795275
        },
        {
          "duration": 0.43087078125000744,
          "durationTicks": 455,
          "midi": 58,
          "name": "A#3",
          "ticks": 222000,
          "time": 210.22706250000002,
          "velocity": 0.8818897637795275
        },
        {
          "duration": 0.43087078125000744,
          "durationTicks": 455,
          "midi": 63,
          "name": "D#4",
          "ticks": 222000,
          "time": 210.22706250000002,
          "velocity": 0.8818897637795275
        },
        {
          "duration": 0.43087078125000744,
          "durationTicks": 455,
          "midi": 67,
          "name": "G4",
          "ticks": 222000,
          "time": 210.22706250000002,
          "velocity": 0.8818897637795275
        },
        {
          "duration": 0.43087078125000744,
          "durationTicks": 455,
          "midi": 39,
          "name": "D#2",
          "ticks": 222480,
          "time": 210.6816075,
          "velocity": 0.8818897637795275
        },
        {
          "duration": 0.43087078125000744,
          "durationTicks": 455,
          "midi": 51,
          "name": "D#3",
          "ticks": 222480,
          "time": 210.6816075,
          "velocity": 0.8818897637795275
        },
        {
          "duration": 1.7263240312499875,
          "durationTicks": 1823,
          "midi": 29,
          "name": "F1",
          "ticks": 222960,
          "time": 211.1361525,
          "velocity": 0.8818897637795275
        },
        {
          "duration": 1.3636350000000164,
          "durationTicks": 1440,
          "midi": 41,
          "name": "F2",
          "ticks": 222960,
          "time": 211.1361525,
          "velocity": 0.8818897637795275
        },
        {
          "duration": 0.6467796562500041,
          "durationTicks": 683,
          "midi": 57,
          "name": "A3",
          "ticks": 223680,
          "time": 211.81797,
          "velocity": 0.7007874015748031
        },
        {
          "duration": 0.6467796562500041,
          "durationTicks": 683,
          "midi": 60,
          "name": "C4",
          "ticks": 223680,
          "time": 211.81797,
          "velocity": 0.7007874015748031
        },
        {
          "duration": 0.6467796562500041,
          "durationTicks": 683,
          "midi": 65,
          "name": "F4",
          "ticks": 223680,
          "time": 211.81797,
          "velocity": 0.7007874015748031
        },
        {
          "duration": 0.43087078125000744,
          "durationTicks": 455,
          "midi": 41,
          "name": "F2",
          "ticks": 224400,
          "time": 212.49978750000002,
          "velocity": 0.5118110236220472
        },
        {
          "duration": 0.43087078125000744,
          "durationTicks": 455,
          "midi": 53,
          "name": "F3",
          "ticks": 224400,
          "time": 212.49978750000002,
          "velocity": 0.5118110236220472
        },
        {
          "duration": 1.7263240312499875,
          "durationTicks": 1823,
          "midi": 39,
          "name": "D#2",
          "ticks": 224880,
          "time": 212.95433250000002,
          "velocity": 0.3858267716535433
        },
        {
          "duration": 1.7263240312499875,
          "durationTicks": 1823,
          "midi": 51,
          "name": "D#3",
          "ticks": 224880,
          "time": 212.95433250000002,
          "velocity": 0.3858267716535433
        },
        {
          "duration": 0.6467796562500041,
          "durationTicks": 683,
          "midi": 58,
          "name": "A#3",
          "ticks": 225600,
          "time": 213.63615000000001,
          "velocity": 0.3858267716535433
        },
        {
          "duration": 0.6467796562500041,
          "durationTicks": 683,
          "midi": 62,
          "name": "D4",
          "ticks": 225600,
          "time": 213.63615000000001,
          "velocity": 0.3858267716535433
        },
        {
          "duration": 0.43087078125000744,
          "durationTicks": 455,
          "midi": 58,
          "name": "A#3",
          "ticks": 226320,
          "time": 214.3179675,
          "velocity": 0.3858267716535433
        },
        {
          "duration": 0.43087078125000744,
          "durationTicks": 455,
          "midi": 62,
          "name": "D4",
          "ticks": 226320,
          "time": 214.3179675,
          "velocity": 0.3858267716535433
        },
        {
          "duration": 1.7263240312500159,
          "durationTicks": 1823,
          "midi": 43,
          "name": "G2",
          "ticks": 226800,
          "time": 214.7725125,
          "velocity": 0.3858267716535433
        },
        {
          "duration": 1.7263240312500159,
          "durationTicks": 1823,
          "midi": 55,
          "name": "G3",
          "ticks": 226800,
          "time": 214.7725125,
          "velocity": 0.3858267716535433
        },
        {
          "duration": 0.6467796562499757,
          "durationTicks": 683,
          "midi": 58,
          "name": "A#3",
          "ticks": 227520,
          "time": 215.45433000000003,
          "velocity": 0.3858267716535433
        },
        {
          "duration": 0.6467796562499757,
          "durationTicks": 683,
          "midi": 62,
          "name": "D4",
          "ticks": 227520,
          "time": 215.45433000000003,
          "velocity": 0.3858267716535433
        },
        {
          "duration": 0.43087078125000744,
          "durationTicks": 455,
          "midi": 58,
          "name": "A#3",
          "ticks": 228240,
          "time": 216.13614750000002,
          "velocity": 0.3858267716535433
        },
        {
          "duration": 0.43087078125000744,
          "durationTicks": 455,
          "midi": 62,
          "name": "D4",
          "ticks": 228240,
          "time": 216.13614750000002,
          "velocity": 0.3858267716535433
        },
        {
          "duration": 1.7263240312499875,
          "durationTicks": 1823,
          "midi": 41,
          "name": "F2",
          "ticks": 228720,
          "time": 216.59069250000002,
          "velocity": 0.3858267716535433
        },
        {
          "duration": 1.7263240312499875,
          "durationTicks": 1823,
          "midi": 53,
          "name": "F3",
          "ticks": 228720,
          "time": 216.59069250000002,
          "velocity": 0.3858267716535433
        },
        {
          "duration": 0.6467796562500041,
          "durationTicks": 683,
          "midi": 57,
          "name": "A3",
          "ticks": 229440,
          "time": 217.27251,
          "velocity": 0.3858267716535433
        },
        {
          "duration": 0.6467796562500041,
          "durationTicks": 683,
          "midi": 60,
          "name": "C4",
          "ticks": 229440,
          "time": 217.27251,
          "velocity": 0.3858267716535433
        },
        {
          "duration": 0.43087078125000744,
          "durationTicks": 455,
          "midi": 57,
          "name": "A3",
          "ticks": 230160,
          "time": 217.9543275,
          "velocity": 0.3858267716535433
        },
        {
          "duration": 0.43087078125000744,
          "durationTicks": 455,
          "midi": 60,
          "name": "C4",
          "ticks": 230160,
          "time": 217.9543275,
          "velocity": 0.3858267716535433
        },
        {
          "duration": 1.7263240312499875,
          "durationTicks": 1823,
          "midi": 43,
          "name": "G2",
          "ticks": 230640,
          "time": 218.40887250000003,
          "velocity": 0.3858267716535433
        },
        {
          "duration": 1.7263240312499875,
          "durationTicks": 1823,
          "midi": 55,
          "name": "G3",
          "ticks": 230640,
          "time": 218.40887250000003,
          "velocity": 0.3858267716535433
        },
        {
          "duration": 0.6467796562499757,
          "durationTicks": 683,
          "midi": 58,
          "name": "A#3",
          "ticks": 231360,
          "time": 219.09069000000002,
          "velocity": 0.3858267716535433
        },
        {
          "duration": 0.6467796562499757,
          "durationTicks": 683,
          "midi": 62,
          "name": "D4",
          "ticks": 231360,
          "time": 219.09069000000002,
          "velocity": 0.3858267716535433
        },
        {
          "duration": 0.43087078125000744,
          "durationTicks": 455,
          "midi": 58,
          "name": "A#3",
          "ticks": 232080,
          "time": 219.77250750000002,
          "velocity": 0.3858267716535433
        },
        {
          "duration": 0.43087078125000744,
          "durationTicks": 455,
          "midi": 62,
          "name": "D4",
          "ticks": 232080,
          "time": 219.77250750000002,
          "velocity": 0.3858267716535433
        },
        {
          "duration": 0.21496190625001077,
          "durationTicks": 227,
          "midi": 51,
          "name": "D#3",
          "ticks": 232560,
          "time": 220.2270525,
          "velocity": 0.3858267716535433
        },
        {
          "duration": 0.21496190625001077,
          "durationTicks": 227,
          "midi": 58,
          "name": "A#3",
          "ticks": 232800,
          "time": 220.454325,
          "velocity": 0.3858267716535433
        },
        {
          "duration": 0.21496190625001077,
          "durationTicks": 227,
          "midi": 67,
          "name": "G4",
          "ticks": 233040,
          "time": 220.6815975,
          "velocity": 0.3858267716535433
        },
        {
          "duration": 0.21496190625001077,
          "durationTicks": 227,
          "midi": 51,
          "name": "D#3",
          "ticks": 233280,
          "time": 220.90887,
          "velocity": 0.3858267716535433
        },
        {
          "duration": 0.21496190625001077,
          "durationTicks": 227,
          "midi": 58,
          "name": "A#3",
          "ticks": 233520,
          "time": 221.1361425,
          "velocity": 0.3858267716535433
        },
        {
          "duration": 0.21496190625001077,
          "durationTicks": 227,
          "midi": 67,
          "name": "G4",
          "ticks": 233760,
          "time": 221.363415,
          "velocity": 0.3858267716535433
        },
        {
          "duration": 0.21496190624998235,
          "durationTicks": 227,
          "midi": 51,
          "name": "D#3",
          "ticks": 234000,
          "time": 221.59068750000003,
          "velocity": 0.3858267716535433
        },
        {
          "duration": 0.21496190624998235,
          "durationTicks": 227,
          "midi": 58,
          "name": "A#3",
          "ticks": 234240,
          "time": 221.81796000000003,
          "velocity": 0.3858267716535433
        },
        {
          "duration": 0.21496190624998235,
          "durationTicks": 227,
          "midi": 55,
          "name": "G3",
          "ticks": 234480,
          "time": 222.04523250000003,
          "velocity": 0.3858267716535433
        },
        {
          "duration": 0.21496190624998235,
          "durationTicks": 227,
          "midi": 62,
          "name": "D4",
          "ticks": 234720,
          "time": 222.27250500000002,
          "velocity": 0.3858267716535433
        },
        {
          "duration": 0.21496190624998235,
          "durationTicks": 227,
          "midi": 70,
          "name": "A#4",
          "ticks": 234960,
          "time": 222.49977750000002,
          "velocity": 0.3858267716535433
        },
        {
          "duration": 0.21496190624998235,
          "durationTicks": 227,
          "midi": 55,
          "name": "G3",
          "ticks": 235200,
          "time": 222.72705000000002,
          "velocity": 0.3858267716535433
        },
        {
          "duration": 0.21496190624998235,
          "durationTicks": 227,
          "midi": 62,
          "name": "D4",
          "ticks": 235440,
          "time": 222.95432250000002,
          "velocity": 0.3858267716535433
        },
        {
          "duration": 0.21496190625001077,
          "durationTicks": 227,
          "midi": 70,
          "name": "A#4",
          "ticks": 235680,
          "time": 223.18159500000002,
          "velocity": 0.3858267716535433
        },
        {
          "duration": 0.21496190625001077,
          "durationTicks": 227,
          "midi": 55,
          "name": "G3",
          "ticks": 235920,
          "time": 223.4088675,
          "velocity": 0.3858267716535433
        },
        {
          "duration": 0.21496190625001077,
          "durationTicks": 227,
          "midi": 62,
          "name": "D4",
          "ticks": 236160,
          "time": 223.63614,
          "velocity": 0.3858267716535433
        },
        {
          "duration": 0.21496190625001077,
          "durationTicks": 227,
          "midi": 53,
          "name": "F3",
          "ticks": 236400,
          "time": 223.8634125,
          "velocity": 0.3858267716535433
        },
        {
          "duration": 0.21496190625001077,
          "durationTicks": 227,
          "midi": 60,
          "name": "C4",
          "ticks": 236640,
          "time": 224.090685,
          "velocity": 0.3858267716535433
        },
        {
          "duration": 0.21496190625001077,
          "durationTicks": 227,
          "midi": 69,
          "name": "A4",
          "ticks": 236880,
          "time": 224.3179575,
          "velocity": 0.3858267716535433
        },
        {
          "duration": 0.21496190625001077,
          "durationTicks": 227,
          "midi": 53,
          "name": "F3",
          "ticks": 237120,
          "time": 224.54523,
          "velocity": 0.3858267716535433
        },
        {
          "duration": 0.21496190624998235,
          "durationTicks": 227,
          "midi": 60,
          "name": "C4",
          "ticks": 237360,
          "time": 224.77250250000003,
          "velocity": 0.3858267716535433
        },
        {
          "duration": 0.21496190624998235,
          "durationTicks": 227,
          "midi": 69,
          "name": "A4",
          "ticks": 237600,
          "time": 224.99977500000003,
          "velocity": 0.3858267716535433
        },
        {
          "duration": 0.21496190624998235,
          "durationTicks": 227,
          "midi": 53,
          "name": "F3",
          "ticks": 237840,
          "time": 225.22704750000003,
          "velocity": 0.3858267716535433
        },
        {
          "duration": 0.21496190624998235,
          "durationTicks": 227,
          "midi": 60,
          "name": "C4",
          "ticks": 238080,
          "time": 225.45432000000002,
          "velocity": 0.3858267716535433
        },
        {
          "duration": 0.21496190624998235,
          "durationTicks": 227,
          "midi": 55,
          "name": "G3",
          "ticks": 238320,
          "time": 225.68159250000002,
          "velocity": 0.3858267716535433
        },
        {
          "duration": 0.21496190624998235,
          "durationTicks": 227,
          "midi": 62,
          "name": "D4",
          "ticks": 238560,
          "time": 225.90886500000002,
          "velocity": 0.3858267716535433
        },
        {
          "duration": 0.21496190624998235,
          "durationTicks": 227,
          "midi": 67,
          "name": "G4",
          "ticks": 238800,
          "time": 226.13613750000002,
          "velocity": 0.3858267716535433
        },
        {
          "duration": 0.21496190625001077,
          "durationTicks": 227,
          "midi": 55,
          "name": "G3",
          "ticks": 239040,
          "time": 226.36341000000002,
          "velocity": 0.3858267716535433
        },
        {
          "duration": 0.21496190625001077,
          "durationTicks": 227,
          "midi": 62,
          "name": "D4",
          "ticks": 239280,
          "time": 226.5906825,
          "velocity": 0.3858267716535433
        },
        {
          "duration": 0.21496190625001077,
          "durationTicks": 227,
          "midi": 67,
          "name": "G4",
          "ticks": 239520,
          "time": 226.817955,
          "velocity": 0.3858267716535433
        },
        {
          "duration": 0.21496190625001077,
          "durationTicks": 227,
          "midi": 55,
          "name": "G3",
          "ticks": 239760,
          "time": 227.0452275,
          "velocity": 0.3858267716535433
        },
        {
          "duration": 0.21496190625001077,
          "durationTicks": 227,
          "midi": 62,
          "name": "D4",
          "ticks": 240000,
          "time": 227.2725,
          "velocity": 0.3858267716535433
        },
        {
          "duration": 0.21496190625001077,
          "durationTicks": 227,
          "midi": 51,
          "name": "D#3",
          "ticks": 240240,
          "time": 227.4997725,
          "velocity": 0.3858267716535433
        },
        {
          "duration": 0.21496190625001077,
          "durationTicks": 227,
          "midi": 58,
          "name": "A#3",
          "ticks": 240480,
          "time": 227.727045,
          "velocity": 0.3858267716535433
        },
        {
          "duration": 0.21496190624998235,
          "durationTicks": 227,
          "midi": 67,
          "name": "G4",
          "ticks": 240720,
          "time": 227.95431750000003,
          "velocity": 0.3858267716535433
        },
        {
          "duration": 0.21496190624998235,
          "durationTicks": 227,
          "midi": 51,
          "name": "D#3",
          "ticks": 240960,
          "time": 228.18159000000003,
          "velocity": 0.3858267716535433
        },
        {
          "duration": 0.21496190624998235,
          "durationTicks": 227,
          "midi": 58,
          "name": "A#3",
          "ticks": 241200,
          "time": 228.40886250000003,
          "velocity": 0.3858267716535433
        },
        {
          "duration": 0.21496190624998235,
          "durationTicks": 227,
          "midi": 67,
          "name": "G4",
          "ticks": 241440,
          "time": 228.63613500000002,
          "velocity": 0.3858267716535433
        },
        {
          "duration": 0.21496190624998235,
          "durationTicks": 227,
          "midi": 51,
          "name": "D#3",
          "ticks": 241680,
          "time": 228.86340750000002,
          "velocity": 0.3858267716535433
        },
        {
          "duration": 0.21496190624998235,
          "durationTicks": 227,
          "midi": 58,
          "name": "A#3",
          "ticks": 241920,
          "time": 229.09068000000002,
          "velocity": 0.3858267716535433
        },
        {
          "duration": 0.21496190624998235,
          "durationTicks": 227,
          "midi": 55,
          "name": "G3",
          "ticks": 242160,
          "time": 229.31795250000002,
          "velocity": 0.3858267716535433
        },
        {
          "duration": 0.21496190625001077,
          "durationTicks": 227,
          "midi": 62,
          "name": "D4",
          "ticks": 242400,
          "time": 229.54522500000002,
          "velocity": 0.3858267716535433
        },
        {
          "duration": 0.21496190625001077,
          "durationTicks": 227,
          "midi": 70,
          "name": "A#4",
          "ticks": 242640,
          "time": 229.77249750000001,
          "velocity": 0.3858267716535433
        },
        {
          "duration": 0.21496190625001077,
          "durationTicks": 227,
          "midi": 55,
          "name": "G3",
          "ticks": 242880,
          "time": 229.99977,
          "velocity": 0.3858267716535433
        },
        {
          "duration": 0.21496190625001077,
          "durationTicks": 227,
          "midi": 62,
          "name": "D4",
          "ticks": 243120,
          "time": 230.2270425,
          "velocity": 0.3858267716535433
        },
        {
          "duration": 0.21496190625001077,
          "durationTicks": 227,
          "midi": 70,
          "name": "A#4",
          "ticks": 243360,
          "time": 230.454315,
          "velocity": 0.3858267716535433
        },
        {
          "duration": 0.21496190625001077,
          "durationTicks": 227,
          "midi": 55,
          "name": "G3",
          "ticks": 243600,
          "time": 230.6815875,
          "velocity": 0.3858267716535433
        },
        {
          "duration": 0.21496190625001077,
          "durationTicks": 227,
          "midi": 62,
          "name": "D4",
          "ticks": 243840,
          "time": 230.90886,
          "velocity": 0.3858267716535433
        },
        {
          "duration": 1.7263240312499875,
          "durationTicks": 1823,
          "midi": 55,
          "name": "G3",
          "ticks": 246000,
          "time": 232.95431250000001,
          "velocity": 0.3858267716535433
        },
        {
          "duration": 0.11268928124999888,
          "durationTicks": 119,
          "midi": 62,
          "name": "D4",
          "ticks": 246120,
          "time": 233.06794875000003,
          "velocity": 0.3858267716535433
        },
        {
          "duration": 0.1126892812500273,
          "durationTicks": 119,
          "midi": 67,
          "name": "G4",
          "ticks": 246240,
          "time": 233.181585,
          "velocity": 0.3858267716535433
        },
        {
          "duration": 0.11268928124999888,
          "durationTicks": 119,
          "midi": 69,
          "name": "A4",
          "ticks": 246360,
          "time": 233.29522125000003,
          "velocity": 0.3858267716535433
        },
        {
          "duration": 0.1126892812500273,
          "durationTicks": 119,
          "midi": 67,
          "name": "G4",
          "ticks": 246480,
          "time": 233.4088575,
          "velocity": 0.3858267716535433
        },
        {
          "duration": 0.11268928124999888,
          "durationTicks": 119,
          "midi": 69,
          "name": "A4",
          "ticks": 246600,
          "time": 233.52249375000002,
          "velocity": 0.3858267716535433
        },
        {
          "duration": 0.1126892812500273,
          "durationTicks": 119,
          "midi": 70,
          "name": "A#4",
          "ticks": 246720,
          "time": 233.63613,
          "velocity": 0.3858267716535433
        },
        {
          "duration": 0.11268928124999888,
          "durationTicks": 119,
          "midi": 74,
          "name": "D5",
          "ticks": 246840,
          "time": 233.74976625000002,
          "velocity": 0.3858267716535433
        },
        {
          "duration": 0.1126892812500273,
          "durationTicks": 119,
          "midi": 79,
          "name": "G5",
          "ticks": 246960,
          "time": 233.8634025,
          "velocity": 0.3858267716535433
        },
        {
          "duration": 0.11268928124999888,
          "durationTicks": 119,
          "midi": 82,
          "name": "A#5",
          "ticks": 247080,
          "time": 233.97703875000002,
          "velocity": 0.3858267716535433
        },
        {
          "duration": 0.1126892812500273,
          "durationTicks": 119,
          "midi": 81,
          "name": "A5",
          "ticks": 247200,
          "time": 234.090675,
          "velocity": 0.3858267716535433
        },
        {
          "duration": 0.11268928124999888,
          "durationTicks": 119,
          "midi": 82,
          "name": "A#5",
          "ticks": 247320,
          "time": 234.20431125000002,
          "velocity": 0.3858267716535433
        },
        {
          "duration": 0.1126892812500273,
          "durationTicks": 119,
          "midi": 84,
          "name": "C6",
          "ticks": 247440,
          "time": 234.3179475,
          "velocity": 0.3858267716535433
        },
        {
          "duration": 0.1126892812500273,
          "durationTicks": 119,
          "midi": 82,
          "name": "A#5",
          "ticks": 247560,
          "time": 234.43158375000002,
          "velocity": 0.3858267716535433
        },
        {
          "duration": 0.11268928124999888,
          "durationTicks": 119,
          "midi": 81,
          "name": "A5",
          "ticks": 247680,
          "time": 234.54522000000003,
          "velocity": 0.3858267716535433
        },
        {
          "duration": 0.10700746874999822,
          "durationTicks": 113,
          "midi": 82,
          "name": "A#5",
          "ticks": 247800,
          "time": 234.65885625,
          "velocity": 0.3858267716535433
        },
        {
          "duration": 5.08901366041664,
          "durationTicks": 3647,
          "midi": 55,
          "name": "G3",
          "ticks": 247920,
          "time": 234.77249250000003,
          "velocity": 0.3858267716535433
        },
        {
          "duration": 0.1126892812500273,
          "durationTicks": 119,
          "midi": 62,
          "name": "D4",
          "ticks": 248040,
          "time": 234.88612875,
          "velocity": 0.3858267716535433
        },
        {
          "duration": 0.11268928124999888,
          "durationTicks": 119,
          "midi": 67,
          "name": "G4",
          "ticks": 248160,
          "time": 234.99976500000002,
          "velocity": 0.3858267716535433
        },
        {
          "duration": 0.1126892812500273,
          "durationTicks": 119,
          "midi": 69,
          "name": "A4",
          "ticks": 248280,
          "time": 235.11340125,
          "velocity": 0.3858267716535433
        },
        {
          "duration": 0.11268928124999888,
          "durationTicks": 119,
          "midi": 67,
          "name": "G4",
          "ticks": 248400,
          "time": 235.22703750000002,
          "velocity": 0.3858267716535433
        },
        {
          "duration": 0.1126892812500273,
          "durationTicks": 119,
          "midi": 69,
          "name": "A4",
          "ticks": 248520,
          "time": 235.34067375,
          "velocity": 0.3858267716535433
        },
        {
          "duration": 0.11268928124999888,
          "durationTicks": 119,
          "midi": 70,
          "name": "A#4",
          "ticks": 248640,
          "time": 235.45431000000002,
          "velocity": 0.3858267716535433
        },
        {
          "duration": 0.1126892812500273,
          "durationTicks": 119,
          "midi": 74,
          "name": "D5",
          "ticks": 248760,
          "time": 235.56794625,
          "velocity": 0.3858267716535433
        },
        {
          "duration": 0.11268928124999888,
          "durationTicks": 119,
          "midi": 79,
          "name": "G5",
          "ticks": 248880,
          "time": 235.68158250000002,
          "velocity": 0.3858267716535433
        },
        {
          "duration": 0.1126892812500273,
          "durationTicks": 119,
          "midi": 82,
          "name": "A#5",
          "ticks": 249000,
          "time": 235.79521875,
          "velocity": 0.3858267716535433
        },
        {
          "duration": 0.1126892812500273,
          "durationTicks": 119,
          "midi": 81,
          "name": "A5",
          "ticks": 249120,
          "time": 235.90885500000002,
          "velocity": 0.3858267716535433
        },
        {
          "duration": 0.11268928124999888,
          "durationTicks": 119,
          "midi": 82,
          "name": "A#5",
          "ticks": 249240,
          "time": 236.02249125000003,
          "velocity": 0.3858267716535433
        },
        {
          "duration": 0.1126892812500273,
          "durationTicks": 119,
          "midi": 84,
          "name": "C6",
          "ticks": 249360,
          "time": 236.13612750000001,
          "velocity": 0.3858267716535433
        },
        {
          "duration": 0.11268928124999888,
          "durationTicks": 119,
          "midi": 82,
          "name": "A#5",
          "ticks": 249480,
          "time": 236.24976375000003,
          "velocity": 0.3858267716535433
        },
        {
          "duration": 0.1126892812500273,
          "durationTicks": 119,
          "midi": 81,
          "name": "A5",
          "ticks": 249600,
          "time": 236.3634,
          "velocity": 0.3858267716535433
        },
        {
          "duration": 3.554924472916639,
          "durationTicks": 1937,
          "midi": 82,
          "name": "A#5",
          "ticks": 249720,
          "time": 236.47703625000003,
          "velocity": 0.3858267716535433
        }
      ],
      "endOfTrackTicks": 251658
    }
  ]
}
